<svg id="Layer_1" data-name="Layer 1" xmlns="http://www.w3.org/2000/svg" viewBox="0 0 258.78 130"><defs><style>.cls-1{fill:#2f2e41;}</style></defs><path class="cls-1" d="M152.4,63.11c7.14,4.55,9.61,9.36,8.4,16.18-1.31,7.39-6.71,12-15.22,12.36-8.29.31-16.61.06-24.91.11-1.89,0-2.6-.81-2.6-2.65q0-23.89,0-47.78c0-1.43.35-2.56,2.07-2.55,8.6,0,17.21-.52,25.78.27,5.61.51,10.53,2.69,12.18,8.84C159.82,54.23,158.12,59.45,152.4,63.11ZM137.52,83.92c2.51-.19,5.66.41,8.73-.51,3.58-1.08,5.46-4,5.26-8.12a7,7,0,0,0-6.18-7.05c-5.15-.87-10.34-.32-15.51-.46-1.67,0-2.2.85-2.19,2.38,0,3.71.05,7.43,0,11.14,0,1.84.65,2.71,2.57,2.64C132.43,83.86,134.68,83.92,137.52,83.92Zm-.7-36.84v0h-7a1.87,1.87,0,0,0-2.14,2.14c0,3.22,0,6.43,0,9.65,0,1.27.5,2,1.88,2,4.48,0,9,.2,13.44-.11,4-.27,6.39-3.67,6.16-7.85s-2.24-5.8-6.78-5.89C140.52,47.05,138.67,47.08,136.82,47.08Z"/><path class="cls-1" d="M250.32,77.81c0,3.62,0,7.24,0,10.86,0,1.51.07,3.08-2.13,3-1.81,0-4,.53-4.35-2.17-.39-3.09-1.34-2.66-3.34-1-11,9-28.29,4.64-34.42-9.11C201,68,201.6,56.68,209.19,46.35c9.61-13.08,32.36-11.25,39.05,3a18.48,18.48,0,0,1,.78,1.9c1.35,3.92.83,4.49-3.25,4.72-3.15.18-5.06-.51-6.39-3.84-1.91-4.79-6.48-6.41-11.27-6.55-5.35-.15-9.92,2.07-12.42,6.91-4.62,9-4.58,18.09.69,26.82,2.84,4.71,9.06,6.74,15.05,5.49s8.89-4.59,10.13-10.72c.48-2.38-.34-3-2.5-2.92-2.73.09-5.47,0-8.21,0s-2.55-1.8-2.53-3.59S228,63.94,230.79,64q8.51.08,17,0c1.94,0,2.56.91,2.53,2.71C250.28,70.38,250.32,74.1,250.32,77.81Z"/><path class="cls-1" d="M71.91,32.35a17.92,17.92,0,0,1-2.44,7.09c-3.94,7-8,13.85-12,20.8-1.08,1.9-1.84,2-2.94,0q-6-10.58-12.08-21.08c-3.41-5.86-2.73-11.3,1.26-16.61A61.63,61.63,0,0,1,54.35,11.75c.9-.73,1.76-1.24,2.85-.34,5.39,4.41,10.51,9.07,13.62,15.47A11.2,11.2,0,0,1,71.91,32.35Z"/><path class="cls-1" d="M37.87,66.87c4.3,0,8.61,0,12.91,0,2,0,2.45.79,1.45,2.49C47.76,76.93,43.71,84.75,38.74,92c-2.94,4.32-7.22,5.86-12.21,5.5a56.66,56.66,0,0,1-16.19-3.89c-1.18-.44-2.11-1-1.85-2.52,1-6,2.4-11.86,5.37-17.26,2.68-4.88,6.83-7,12.28-7,3.91,0,7.82,0,11.73,0Z"/><path class="cls-1" d="M84.9,97.6c-5-.14-9-1.59-11.76-5.76C68.26,84.52,64.2,76.73,59.7,69.19c-1-1.58-.57-2.33,1.31-2.32,8.79,0,17.57-.09,26.36.08a11.73,11.73,0,0,1,10.34,6.14c3.24,5.48,4.7,11.53,5.82,17.69A2.25,2.25,0,0,1,102,93.54,59.24,59.24,0,0,1,84.9,97.6Z"/><path class="cls-1" d="M74.28,63.51c-3.81,0-7.63,0-11.44,0-2.64,0-3-.64-1.6-3C65,54.23,68.76,48,72.43,41.63c3.42-5.9,8.38-8.54,15.17-7.53a91.39,91.39,0,0,1,12.86,2.84c1.91.58,2.78,1.75,2.39,3.72-1.14,5.67-2.58,11.24-5.59,16.27-2.75,4.61-7.14,6.2-12.12,6.47-3.61.2-7.24,0-10.86,0Z"/><path class="cls-1" d="M37.91,63.47c-3.71,0-7.42.08-11.13,0-6.05-.15-10.77-2.55-13.24-8.37A69.36,69.36,0,0,1,8.87,41c-.3-1.62.12-2.63,1.71-3.17,5.36-1.84,10.78-3.4,16.51-3.63a12.12,12.12,0,0,1,11,5.58c4.76,6.9,8.77,14.28,13,21.51,1.13,1.92.41,2.32-1.47,2.29-3.9-.07-7.81,0-11.71,0Z"/><path class="cls-1" d="M40.69,98.93a26.28,26.28,0,0,1,3.37-8.68c3.48-6.1,7-12.16,10.55-18.23.56-1,1.23-2.57,2.4-.59C61.67,79.31,66.65,87,70.23,95.51a9.33,9.33,0,0,1-.41,8.17c-3,6.09-7.71,10.72-12.93,14.89a1.71,1.71,0,0,1-2.4,0c-5.74-5.15-11.45-10.34-13.56-18.21A12.9,12.9,0,0,1,40.69,98.93Z"/><path class="cls-1" d="M187,69.66c0,6.26-.06,12.51,0,18.77,0,2.3-.61,3.35-3.12,3.37-6.09,0-6.09.15-6.09-6v-34c0-4.58,0-4.58-4.75-4.59-3,0-6.06,0-9.09,0-1.72,0-2.53-.76-2.48-2.47,0-.68,0-1.37,0-2,0-3.88.08-4,3.92-4q17.16,0,34.31,0c3.59,0,3.63.09,3.63,4.24s-.05,4.22-3.63,4.25c-3.23,0-6.45.1-9.68,0-2.3-.09-3.1.83-3.07,3.1C187.09,56.76,187,63.21,187,69.66Z"/></svg>