<svg id="Layer_1" data-name="Layer 1" xmlns="http://www.w3.org/2000/svg" viewBox="0 0 258.78 130"><defs><style>.cls-1{fill:#2f2e41;}.cls-2{fill:#fff;}</style></defs><g id="Layer_2" data-name="Layer 2"><g id="Layer_1-2" data-name="Layer 1-2"><path class="cls-1" d="M48.73,55.87a1.5,1.5,0,0,1-1.5,1.5H45.45a1.51,1.51,0,0,1-1.51-1.5V42.52H35.3A1.51,1.51,0,0,1,33.79,41V39.15a1.53,1.53,0,0,1,1.51-1.54H45.79a3,3,0,0,1,2.94,3V55.87Zm-11.65,1.5H35.33a1.53,1.53,0,0,1-1.54-1.5v-8.3a1.54,1.54,0,0,1,1.54-1.51h1.75a1.55,1.55,0,0,1,1.53,1.51v8.3a1.52,1.52,0,0,1-1.53,1.5"/><path class="cls-1" d="M62.25,57.38H60.51A1.53,1.53,0,0,1,59,55.87V42.52H52A1.51,1.51,0,0,1,50.44,41V39.15a1.54,1.54,0,0,1,1.49-1.57h8.93a3,3,0,0,1,2.94,3V55.87a1.5,1.5,0,0,1-1.49,1.51h-.05"/><path class="cls-1" d="M78.91,57.38H66.65a1.53,1.53,0,0,1-1.51-1.51V54a1.54,1.54,0,0,1,1.51-1.54h7V42.52H66.75A1.55,1.55,0,0,1,65.24,41V39.15a1.53,1.53,0,0,1,1.51-1.54H75.5a3,3,0,0,1,3,3V52.45h.76a1.17,1.17,0,0,1,1.17,1.16v2.26a1.51,1.51,0,0,1-1.5,1.51"/><path class="cls-1" d="M97.3,42.52h-.75V55.87A1.55,1.55,0,0,1,95,57.38H93.25a1.57,1.57,0,0,1-1.54-1.51V42.52H87.27V55.87a1.55,1.55,0,0,1-1.55,1.51H84a1.53,1.53,0,0,1-1.54-1.51V42.52h-.75a1.18,1.18,0,0,1-1.2-1.16V39.15A1.53,1.53,0,0,1,82,37.61H97a1.52,1.52,0,0,1,1.5,1.54v2.26a1.17,1.17,0,0,1-1.21,1.11"/><path class="cls-1" d="M114.84,55.87a1.5,1.5,0,0,1-1.5,1.5h-1.78a1.51,1.51,0,0,1-1.5-1.5V42.52h-8.65a1.5,1.5,0,0,1-1.5-1.5V39.15a1.52,1.52,0,0,1,1.5-1.54H111.9a2.94,2.94,0,0,1,2.94,2.94V55.87Zm-11.65,1.5h-1.74a1.52,1.52,0,0,1-1.54-1.5v-8.3a1.53,1.53,0,0,1,1.54-1.51h1.74a1.56,1.56,0,0,1,1.54,1.51v8.3a1.53,1.53,0,0,1-1.54,1.5"/><path class="cls-1" d="M30.55,81.7a1.5,1.5,0,0,1-1.5,1.51H27.27a1.51,1.51,0,0,1-1.53-1.51h0V68.34H21.12V80.23a3,3,0,0,1-2.95,3H15a1.33,1.33,0,0,1-1.33-1.31V79.43a1.18,1.18,0,0,1,1.18-1.19h1.47v-9.9H15.07a1.18,1.18,0,0,1-1.2-1.16h0V64.93a1.53,1.53,0,0,1,1.53-1.54H27.61a2.94,2.94,0,0,1,2.94,3V81.7Z"/><path class="cls-1" d="M38.27,73.71H36.51A1.55,1.55,0,0,1,35,72.2V68.34H33.38a1.17,1.17,0,0,1-1.19-1.16V64.93a1.52,1.52,0,0,1,1.5-1.54h3.55a2.54,2.54,0,0,1,2.57,2.51v6.32a1.52,1.52,0,0,1-1.51,1.51h0"/><path class="cls-1" d="M51.54,66.19c0,1.29-.58,1.45-1.61,1.93a3.13,3.13,0,0,0-1.78,4.1,33.58,33.58,0,0,1,1.41,3.9c.41,1.84.64,7-2.41,7h-1a1.64,1.64,0,0,1-1.68-2.09c.79-2.83.34-4.3-.72-6.75a5.88,5.88,0,0,1,.14-6h-1a1.76,1.76,0,0,1-1.78-1.74h0V65.13a1.73,1.73,0,0,1,1.73-1.75h6.95a1.78,1.78,0,0,1,1.78,1.75Z"/><path class="cls-1" d="M60.49,83.18H54a1.52,1.52,0,0,1-1.5-1.51V79.79A1.52,1.52,0,0,1,54,78.25h6.53a.82.82,0,0,0,.82-.82V68.34H54a1.5,1.5,0,0,1-1.5-1.5V64.91A1.52,1.52,0,0,1,54,63.37h9.17a2.94,2.94,0,0,1,2.93,2.95V77.55a5.58,5.58,0,0,1-5.56,5.61h0"/><path class="cls-1" d="M78.82,83.18H77.08a1.53,1.53,0,0,1-1.54-1.51V68.34h-7a1.5,1.5,0,0,1-1.5-1.5V64.91a1.52,1.52,0,0,1,1.5-1.54h8.92a3,3,0,0,1,2.94,3V81.66a1.5,1.5,0,0,1-1.5,1.5h0"/><path class="cls-1" d="M94.26,83.54H91.67a1.3,1.3,0,0,1-1.3-1.29h0V79.83a1.19,1.19,0,0,1,1.19-1.2h1.57a.22.22,0,0,0,.21-.2V69.91a1.78,1.78,0,0,0-1.85-1.67c-1.53-.1-3.17.58-3.17,2.49v11.1a1.7,1.7,0,0,1-1.68,1.71H85.31a1.77,1.77,0,0,1-1.81-1.71V68.68h-.65a1.18,1.18,0,0,1-1.2-1.16V65.06a1.3,1.3,0,0,1,1.3-1.3h2.22a3.54,3.54,0,0,1,2.15.72,8.73,8.73,0,0,1,4.93-1.06c3.07.34,6.15,2.53,6.15,5.85V79.45a4.12,4.12,0,0,1-4.14,4.1"/><path class="cls-1" d="M114.84,81.67a1.51,1.51,0,0,1-1.5,1.51h-1.78a1.53,1.53,0,0,1-1.5-1.51V68.34h-8.65a1.5,1.5,0,0,1-1.5-1.5V64.91a1.52,1.52,0,0,1,1.5-1.54H111.9a3,3,0,0,1,2.94,2.95V81.67Zm-11.65,1.51h-1.74a1.53,1.53,0,0,1-1.54-1.51v-8.3a1.53,1.53,0,0,1,1.54-1.51h1.74a1.56,1.56,0,0,1,1.54,1.51v8.3a1.53,1.53,0,0,1-1.54,1.51"/><path class="cls-1" d="M15.84,94.09a.73.73,0,0,0-.73-.72H11.73a.28.28,0,0,1-.31-.25V92a.29.29,0,0,1,.31-.28h3.38a2.41,2.41,0,0,1,2.41,2.41v5.44a.3.3,0,0,1-.28.32H16.13a.3.3,0,0,1-.29-.32ZM12,95l1,.06a.32.32,0,0,1,.32.31.17.17,0,0,1,0,.07s-.17,1.51-.17,1.79v2.32a.3.3,0,0,1-.28.32H11.75a.32.32,0,0,1-.29-.32V97.19c0-.32.18-1.93.18-1.93a.28.28,0,0,1,.29-.28H12"/><path class="cls-1" d="M25.38,98.54A.92.92,0,0,1,25,99.77a.91.91,0,0,1-.4.1H20a.31.31,0,0,1-.3-.29h0V98.5a.3.3,0,0,1,.32-.28h3.38l-3.29-6a.29.29,0,0,1,.08-.42.36.36,0,0,1,.2-.06h1A.56.56,0,0,1,22,92l1.21,2.33,1.1-2.42a.38.38,0,0,1,.39-.26h1.05c.29,0,.48.22.33.48l-2,3.93Z"/><path class="cls-1" d="M28.52,92.91a.31.31,0,0,1-.15-.41h0l.4-.93a.32.32,0,0,1,.43-.12l.51.27H33.3A1.27,1.27,0,0,1,34.58,93v5.81a1.05,1.05,0,0,1-1,1.07H28.82a.27.27,0,0,1-.3-.26V98.5a.29.29,0,0,1,.31-.29h4.08V93.39H30.82a2.4,2.4,0,0,0-.28,1.44v.27h.8a.3.3,0,0,1,.31.28h0v1a.28.28,0,0,1-.27.29H29.65a.64.64,0,0,1-.72-.56.48.48,0,0,1,0-.17v-.81a4.07,4.07,0,0,1,.32-1.79Z"/><path class="cls-1" d="M41.06,94.09a.74.74,0,0,0-.74-.72H37a.28.28,0,0,1-.3-.26V92a.29.29,0,0,1,.31-.28h3.38a2.41,2.41,0,0,1,2.41,2.41v5.44a.3.3,0,0,1-.28.32H41.33a.3.3,0,0,1-.28-.32ZM37.2,95l1,.06a.32.32,0,0,1,.32.3.22.22,0,0,1,0,.08s-.17,1.51-.17,1.79v2.32a.3.3,0,0,1-.28.32H37a.32.32,0,0,1-.29-.32V97.19c0-.32.18-1.93.18-1.93a.28.28,0,0,1,.28-.28h.06"/><path class="cls-1" d="M52.43,93a.32.32,0,0,1-.24-.4v0l.24-.91a.33.33,0,0,1,.41-.24h0l2.24.56a.77.77,0,0,1,.66.84v6.69a.29.29,0,0,1-.28.31H54.36a.31.31,0,0,1-.29-.31V93.46Z"/><path class="cls-1" d="M67.66,94.09a.73.73,0,0,0-.72-.72h-1a3.29,3.29,0,0,0-1,2.41,4.58,4.58,0,0,0,1,2.77v.71a.58.58,0,0,1-.58.58h-2a.29.29,0,0,1-.3-.28h0v-1a.3.3,0,0,1,.32-.28h.7a4.29,4.29,0,0,1-.78-2.48,3.84,3.84,0,0,1,.8-2.48h-.64a.28.28,0,0,1-.3-.27h0V92a.3.3,0,0,1,.31-.28h3.45a2.39,2.39,0,0,1,2.39,2.39v5.47a.31.31,0,0,1-.29.32H67.92a.31.31,0,0,1-.29-.32Z"/><path class="cls-1" d="M71.73,93a.32.32,0,0,1-.24-.4v0l.24-.91a.33.33,0,0,1,.41-.24h0L74.4,92a.77.77,0,0,1,.65.84v6.69a.29.29,0,0,1-.28.31H73.66a.29.29,0,0,1-.28-.31h0V93.46Z"/><path class="cls-1" d="M81.52,94.09a.72.72,0,0,0-.73-.72H77.48a.29.29,0,0,1-.3-.25V92a.3.3,0,0,1,.32-.28h3.27a2.41,2.41,0,0,1,2.41,2.41v5.44a.3.3,0,0,1-.28.32H81.8a.3.3,0,0,1-.28-.32Z"/><path class="cls-1" d="M87.77,96.87l-.63-.6a.34.34,0,0,1,0-.47s0,0,0,0A2.78,2.78,0,0,0,88,93.37H85.81a.27.27,0,0,1-.3-.26V92a.3.3,0,0,1,.31-.28h2.83a1,1,0,0,1,1,1v.89a4.11,4.11,0,0,1-1.4,3.25.38.38,0,0,1-.51,0"/><path class="cls-1" d="M92.16,99.86a.29.29,0,0,1-.3-.24V98.5a.29.29,0,0,1,.31-.28h3.16a.76.76,0,0,0,.75-.76h0V94.1a.73.73,0,0,0-.75-.71h-2.9a.29.29,0,0,1-.3-.26V92a.31.31,0,0,1,.32-.29h2.9a2.38,2.38,0,0,1,2.41,2.35v3.4a2.42,2.42,0,0,1-2.41,2.42Z"/><path class="cls-1" d="M100.93,93.27l-.73-.65a.34.34,0,0,1,0-.46l.63-.7a.32.32,0,0,1,.44-.07s0,0,0,0l.91.81c.92-.49,3.86-1.45,4,1.4l.25,5.11a1,1,0,0,1-.8,1.1l-.16,0h-2a.3.3,0,0,1-.3-.27V98.5a.31.31,0,0,1,.32-.29h1.3l-.21-4.34c0-1-1.39-.44-2.08-.16l-.73,5.91a.28.28,0,0,1-.27.28H100.5c-.24,0-.32-.17-.3-.36Z"/><path class="cls-1" d="M110.65,99.69a.32.32,0,0,1-.17-.42v0l2.42-5.88h-3.68a.48.48,0,0,1-.48-.48V89.23a.31.31,0,0,1,.29-.32h1.1a.32.32,0,0,1,.28.32v2.48h3.51a.91.91,0,0,1,.93.89v0a1.07,1.07,0,0,1-.1.39l-2.64,6.92a.29.29,0,0,1-.37.19l0,0Z"/><path class="cls-1" d="M46.41,99.69a.33.33,0,0,1-.17-.43h0l2.42-5.88H45a.47.47,0,0,1-.48-.48V89.23a.31.31,0,0,1,.28-.32h1.1a.31.31,0,0,1,.28.32v2.48h3.53a.9.9,0,0,1,.92.88v0a.89.89,0,0,1-.09.39l-2.64,6.92a.29.29,0,0,1-.37.19l0,0Z"/></g></g><path class="cls-1" d="M152,70.15c-2.35,1.93-4.51,3.69-6.38,5.17a52.26,52.26,0,0,1-9.17-29.56,49,49,0,0,1,.83-9.12c.35-1.85.76-3.46.86-3.78a39.3,39.3,0,0,1,7.49-.82h1.07a52.88,52.88,0,0,0-1.55,12.83A49,49,0,0,0,152,70.15m32.58,25.52c-2.32,2.3-4.56,4.47-6.49,6.27l-11.34-7,5.79-5.1a86.59,86.59,0,0,0,12.06,5.86"/><path class="cls-1" d="M159.61,101.17a5.38,5.38,0,0,0,.64-.54l6.05-5.35,11.35,7.06c-1.81,1.68-3.34,3-4.34,3.76a8.55,8.55,0,0,0-2.08,2.12Zm-32.94-53.8A28.94,28.94,0,0,1,128,38.23a28,28,0,0,1,1.23-3.31c1.33-.05,4.27-1.06,8.12-1.83a50.09,50.09,0,0,0-1.51,12.67,52.81,52.81,0,0,0,9.29,29.92c-3.37,2.66-5.71,4.38-6.21,4.82-9.8-14.29-12.28-25.44-12.28-33.13"/><path class="cls-1" d="M158.36,44.38a36.48,36.48,0,0,1,1.19-9.47,27.2,27.2,0,0,1,14,11.87,7.33,7.33,0,0,0-.19,1.75c0,4.06,2.59,14.1,24.18,26.46A39.34,39.34,0,0,0,201,77.64a87.2,87.2,0,0,1-7.42,8.68C163.34,75.18,158.35,56,158.34,44.4"/><path class="cls-1" d="M194.85,117.93a8,8,0,0,1-4.12,1.12,11.84,11.84,0,0,1-5.79-1.72,16.16,16.16,0,0,1-2.27-1.58c.44-.23.92-.52,1.45-.86C192.61,109.42,214,86.11,216,84a50.43,50.43,0,0,0,10.81,1.26c.84,0,1.57,0,2.16-.08s1-.09,1.52-.16c-7.45,9.09-18.3,22.72-35.68,33m23.42-105.6a29,29,0,0,1,22.33,11.18c5.66,7.25,6,13.81,6,19.78a45.48,45.48,0,0,1-3.2,15.9,6.67,6.67,0,0,0-1.25.77,21.93,21.93,0,0,1-10.66,2.67,26.88,26.88,0,0,1-3.8-.28,45.58,45.58,0,0,0,5.38-20.26,25.5,25.5,0,0,0-6-17c-6.51-7.58-16.85-9.21-23.47-9.35a41.82,41.82,0,0,1,14.69-3.28"/><path class="cls-1" d="M245.1,61.4c-1.06,4.78-1.8,8.3-5.65,10.3a3.21,3.21,0,0,0-.88.41,14,14,0,0,1-2.16.7,31.06,31.06,0,0,1-7.24.83c-6.84,0-16.36-2.12-25.3-11.34l7.37-6.12c.19.14,9.43,7,20.24,7a22.49,22.49,0,0,0,10.94-2.74h0a6.81,6.81,0,0,1,.79-.53,3.22,3.22,0,0,1,1.4-.52c.37,0,.56.09.61.92a5.21,5.21,0,0,1-.15,1.12M161.4,10.86c12.07,0,20.57,5.42,26.5,10a47.51,47.51,0,0,1,6.85,7.1c1.12,1.31,2,1.78,2.25,2.16l-9.7,8.76C185.6,36.1,174,18.61,152.72,18.39h-.56a40,40,0,0,0-12.26,1.68c1.71-3.81,6.41-6.71,9.85-7.61a69.32,69.32,0,0,1,11.65-1.6"/><path class="cls-1" d="M240,73.92c-1.29,5.79-3.57,10.13-11,10.68-.58,0-1.3.07-2.13.07-6.17,0-18.5-1.51-28.53-9.74l0-.1-.51-.29a37.3,37.3,0,0,1-4-3.94l9.61-7.95c9.06,9.37,18.77,11.54,25.73,11.54a31.05,31.05,0,0,0,7.37-.85,14.9,14.9,0,0,0,2.15-.68h0l.1-.07a8.84,8.84,0,0,0,.83-.38h.11a.27.27,0,0,1,.28.18,1.41,1.41,0,0,1,.11.61,5.64,5.64,0,0,1-.11.92M127.75,33.23a2.39,2.39,0,0,1,.07-.66v0a9.35,9.35,0,0,1,.6-2.08c1.5-3.8,6.45-11.86,23.64-11.87.19,0,.54.07.73.07,11.37.11,19.87,5.54,25.62,10.66a48.37,48.37,0,0,1,6.47,7c.72.93,1.38,1.9,2,2.89l-11.45,10C169.56,36.68,158.12,32,145.69,32c-7.87,0-14.64,2.75-16.47,2.73h-.07c-1.25-.08-1.38-.82-1.41-1.49"/><path class="cls-1" d="M146.34,91.61a4.5,4.5,0,0,1-2.32-.67,13.81,13.81,0,0,1-5.13-5.19,5.22,5.22,0,0,1-.85-2.48,3.13,3.13,0,0,1,1.22-2.36c.53-.48,6-4.47,13-10.29a51.09,51.09,0,0,0,8.2,10.1L149.9,90.07a5.3,5.3,0,0,1-1,.77c-.12.08-.25.14-.37.21h0a4.77,4.77,0,0,1-2.15.55m55-64.34a5.06,5.06,0,0,1,1-.77A5.14,5.14,0,0,1,205,25.38a5.3,5.3,0,0,1,2.29,1,14,14,0,0,1,5.13,5.19,5.34,5.34,0,0,1,.84,2.48,3.09,3.09,0,0,1-1.21,2.36c-.6.53-8.37,7.06-16,13.43-6.87,5.77-13.62,11.4-14.87,12.45-4.62-4.72-6.38-8.61-7-11.31Z"/><path class="cls-1" d="M158.87,101a3.07,3.07,0,0,1-2,.58,4.35,4.35,0,0,1-2.25-.67c-2.92-1.72-5.15-3.86-5.74-5a5.71,5.71,0,0,1-.85-2.49,2.87,2.87,0,0,1,.82-1.93,6.64,6.64,0,0,0,1.44-1l10.55-9.37A65,65,0,0,0,172,89.52l-12.14,10.73a5,5,0,0,1-1,.77m33.44-29.85a66.93,66.93,0,0,1-10.73-8.48c2.83-2.36,29.67-24.81,30.83-25.86l.13-.12,0,0a6.17,6.17,0,0,1,2.48-1,3.94,3.94,0,0,1,2,1,18.27,18.27,0,0,1,5,5.65,3.53,3.53,0,0,1,.39,1.69,4.68,4.68,0,0,1-1.73,3.53Z"/><path class="cls-1" d="M152.68,70.27l.08-.07-.35-.42h0a48.55,48.55,0,0,1-6.73-24.93,49.45,49.45,0,0,1,1.57-12.58,37.34,37.34,0,0,1,11.71,2,42.17,42.17,0,0,0-1.15,10.07c0,11.74,5.15,31.16,35.43,42.36-2.57,2.74-5.46,5.71-8.26,8.5-16.85-6.7-26.69-15.79-32.3-25"/><path class="cls-1" d="M180.64,115.78a4.35,4.35,0,0,1-1.8-.48,71.48,71.48,0,0,1-6.32-3.61,3.09,3.09,0,0,1-.66-.48,1.94,1.94,0,0,1-.63-1.39c0-.76.51-1.88,2.41-3.31,5.36-4.05,24.33-23.2,27.89-28.58a45,45,0,0,0,13.92,5.88c-1.35,1.45-6.43,7-12.32,13-6.89,7-14.9,14.81-19.27,17.61-1.45.91-2.31,1.36-3.21,1.35m25.41-99.94c6.61,0,14,1.88,20.58,9.56a24.89,24.89,0,0,1,5.87,16.67c0,9.79-4.49,18.59-5.4,20.16a36.17,36.17,0,0,1-9.61-3.07,37.63,37.63,0,0,1-5.83-3.38L221.11,48A5.26,5.26,0,0,0,223,44.07a4.18,4.18,0,0,0-.45-1.93,19,19,0,0,0-5.19-5.84,3.9,3.9,0,0,0-2.36-.84,5.09,5.09,0,0,0-1.77.37,3.2,3.2,0,0,0,.54-1.77,5.86,5.86,0,0,0-.91-2.74,14.36,14.36,0,0,0-5.33-5.39,5,5,0,0,0-2.6-.75A6,6,0,0,0,201,26.87l-4.11,3c-.68-1-2.35-3.49-7.39-7.41,3-2.14,9.7-6.58,16.47-6.58"/><path class="cls-2" d="M190.69,119.79c-4.3,0-7.87-3-8.64-3.64a4.28,4.28,0,0,1-1.45.27,5.23,5.23,0,0,1-2.16-.55c-2.29-1-6.42-3.67-6.43-3.67a3.14,3.14,0,0,1-1.71-2.62,2.93,2.93,0,0,1,.2-1l-11.58-7A5.1,5.1,0,0,1,157,102a6,6,0,0,1-3-.89c-3-1.81-5.24-3.59-6-5a6.24,6.24,0,0,1-1-2.9,3.45,3.45,0,0,1,.16-1.06,5.12,5.12,0,0,1-1,.09,5.41,5.41,0,0,1-2.77-.78A14.81,14.81,0,0,1,138,85.88a6.36,6.36,0,0,1-1-2.9,3.74,3.74,0,0,1,1-2.46C128.22,66.2,125.68,54.89,125.68,47a27.59,27.59,0,0,1,2.41-12,1.91,1.91,0,0,1-1-.72,2.57,2.57,0,0,1-.42-1.47,4.81,4.81,0,0,1,.1-.84,14,14,0,0,1,3.82-7.24,20.63,20.63,0,0,1,8.17-5.12c1.81-4.42,6.42-6.75,10.52-8a36.37,36.37,0,0,1,8.08-1.46c.64,0,1.26,0,1.87,0,15.08,0,23.92,5.37,30.59,11.48a37.37,37.37,0,0,1,9.36-4.76c7-3.78,13.2-5.2,18.57-5.2,15.72,0,24,12.08,24.06,12.12a29.43,29.43,0,0,1,5.51,17.85,44.48,44.48,0,0,1-3.42,16.64,3.12,3.12,0,0,1,.74-.14,1.41,1.41,0,0,1,1.08.49,2,2,0,0,1,.39,1.31,6.43,6.43,0,0,1-.16,1.31c-.64,2.9-1.19,5.47-2.49,7.58a9,9,0,0,1-2.7,2.79l0,.08a2.22,2.22,0,0,1,.2,1,5.27,5.27,0,0,1-.14,1.11,16.79,16.79,0,0,1-3.4,7.72,10.73,10.73,0,0,1-5.94,3.32c-7.48,9.11-19.15,22.58-36.25,33.59a8.45,8.45,0,0,1-4.61,1.36Zm-7.35-4.13a16.31,16.31,0,0,0,1.78,1.2,11.29,11.29,0,0,0,5.58,1.73,7.12,7.12,0,0,0,4-1.17c16.3-10.49,27.65-23.25,35.12-32.29-.23,0-.48.05-.7.06-.61,0-1.35.08-2.19.08A50.13,50.13,0,0,1,216.18,84c-2.65,2.9-23.44,25.46-31.88,30.89-.37.24-.72.45-1.05.64l.11.09m-9.56-9.13c-1.86,1.41-2.28,2.45-2.27,3a1.84,1.84,0,0,0,.93,1.48l.16.1h0s4.16,2.63,6.27,3.59a3.92,3.92,0,0,0,1.67.44,6,6,0,0,0,3-1.3c4.32-2.77,12.35-10.55,19.23-17.59,5.45-5.58,10.2-10.7,12-12.61a45.5,45.5,0,0,1-13.23-5.62c-4,5.79-22.47,24.38-27.81,28.44m-2.71,1a9.11,9.11,0,0,1,2-1.93c1-.71,2.33-1.93,4-3.46L166.3,95.43l-5.88,5.19-.3.26Zm6.91-6.24c1.79-1.67,3.83-3.65,5.95-5.75a86.92,86.92,0,0,1-11.43-5.59l-5.28,4.74Zm-29.71-8a5.13,5.13,0,0,0,.82,2.33c.45.94,2.63,2.81,5.55,4.52a4.78,4.78,0,0,0,2.41.72,3.79,3.79,0,0,0,2.37-.84l.15-.13h0l11.85-10.46a65.07,65.07,0,0,1-10.66-8l-10.39,9.17a6.16,6.16,0,0,1-1.45,1,2.52,2.52,0,0,0-.67,1.69m-1.56-57.6a50.75,50.75,0,0,0-.78,9c0,14.07,5.62,36.7,38.94,50.07,2.64-2.64,5.35-5.42,7.79-8-30-11.26-35.26-30.76-35.23-42.55a37.46,37.46,0,0,1,1.16-9.48,38.17,38.17,0,0,0-11.21-2c-.14.51-.4,1.55-.67,3m-7.31,45.29A2.83,2.83,0,0,0,138.28,83a5.34,5.34,0,0,0,.82,2.34,13.59,13.59,0,0,0,5,5.06,4.19,4.19,0,0,0,2.15.62,5,5,0,0,0,3.08-1.21,1.51,1.51,0,0,0,.23-.21h0l10.32-9.16a52.32,52.32,0,0,1-7.79-9.63c-6.84,5.7-12.22,9.62-12.72,10.06M159.26,37a38.54,38.54,0,0,0-.64,7c0,11.52,4.89,30.46,34.91,41.61a95.78,95.78,0,0,0,7.07-8.21A40.47,40.47,0,0,1,197.36,75C175.69,62.61,173,52.45,173,48.22a7.49,7.49,0,0,1,.17-1.7A26.91,26.91,0,0,0,159.71,35c-.12.45-.28,1.13-.45,2m67.62,47.05c.82,0,1.52,0,2.09-.06,3.7-.27,6-1.48,7.62-3.28a15.54,15.54,0,0,0,3.14-7.17,4.81,4.81,0,0,0,.1-.85,1.12,1.12,0,0,0-.07-.48h0c-.25.12-.51.25-.79.36l-.06,0h0a14.65,14.65,0,0,1-2.27.73,32.21,32.21,0,0,1-7.45.87c-7,0-16.71-2.19-25.78-11.45l-9.12,7.54A36.92,36.92,0,0,0,198,74l.48.27,0,.09c10,8.2,22.27,9.72,28.41,9.72M129.15,35.71a17.25,17.25,0,0,0-.92,2.28,29,29,0,0,0-1.34,9.06c0,7.56,2.41,18.56,12,32.65.83-.65,2.9-2.19,5.72-4.4a53.1,53.1,0,0,1-9.19-29.86,47.51,47.51,0,0,1,1.44-11.93c-.55.11-1.08.23-1.58.35-2.69.63-4.67,1.26-5.91,1.37-.06.12-.14.27-.24.48m8.32.65a49.47,49.47,0,0,0-.83,9.08,52,52,0,0,0,8.94,29.12c1.75-1.38,3.74-3,5.89-4.77a49.35,49.35,0,0,1-6.76-25.25,48.7,48.7,0,0,1,1.45-12h-.52a40.91,40.91,0,0,0-7.41.74c-.14.48-.43,1.53-.73,3.1M229.21,73a30.93,30.93,0,0,0,7.17-.82,13.51,13.51,0,0,0,2.07-.67,3.41,3.41,0,0,1,1-.44,7.87,7.87,0,0,0,3.11-2.89c1.15-1.85,1.7-4.29,2.33-7.2A4.67,4.67,0,0,0,245,60a.91.91,0,0,0-.11-.54s0,0-.16,0a3,3,0,0,0-1.24.48c-.26.15-.52.31-.76.48l0,0h0a22.76,22.76,0,0,1-11.1,2.79c-10.11,0-18.79-5.88-20.26-6.91L204.36,62c8.83,9,18.14,11,24.86,11m-36.93-2.57L220.58,47a4.37,4.37,0,0,0,1.63-3.28,3.45,3.45,0,0,0-.35-1.55,18.27,18.27,0,0,0-5-5.55A3,3,0,0,0,215,36a5.63,5.63,0,0,0-2.34.7h0l-.08,0c-1.15,1-26.64,22.35-30.6,25.67a67.45,67.45,0,0,0,10.23,8.06M231.49,62A21.45,21.45,0,0,0,242,59.35a4.26,4.26,0,0,0,.41-.54,43.85,43.85,0,0,0,3.74-17.14,28.19,28.19,0,0,0-5.31-17.16,19.08,19.08,0,0,0-1.45-1.78,31.62,31.62,0,0,0-4.41-4,28.53,28.53,0,0,0-17.2-5.83,34.52,34.52,0,0,0-12.85,2.64,25.42,25.42,0,0,1,3.6-.25c6.16,0,12.88,2.31,18.78,9.21a25.74,25.74,0,0,1,6.09,17.26c0,9.17-3.79,17.37-5.2,20a25.84,25.84,0,0,0,3.29.21M213.33,56.2a45.13,45.13,0,0,0,4.32,2.35,36.26,36.26,0,0,0,9.3,3c1.11-2,5.27-10.48,5.26-19.83a24.68,24.68,0,0,0-5.79-16.48c-5.72-6.62-12-8.77-17.88-8.79A27.69,27.69,0,0,0,199.7,18c-.12.07-.68.27-.68.27a33.83,33.83,0,0,0-8.27,4.23c2.35,2.24,4.43,4.88,6.45,7l-.88.82c-7.87-8.37-16.24-18.92-37-18.95-.6,0-1.21,0-1.81,0,0,0-.91,0-2.33.24a37.06,37.06,0,0,0-5.39,1.19c-3.64,1.11-7.49,3.07-9.3,6.34A41,41,0,0,1,152.1,17.7h.56c20.75.23,32.36,16.66,34.69,20.3l13.48-11.75A6.26,6.26,0,0,1,205,24.49a5.42,5.42,0,0,1,2.77.79,14.71,14.71,0,0,1,5.46,5.53,6.21,6.21,0,0,1,1,2.9,3.43,3.43,0,0,1-.22,1.23,5.12,5.12,0,0,1,1.11-.15,4.22,4.22,0,0,1,2.55.89,19.3,19.3,0,0,1,5.31,6,4.62,4.62,0,0,1,.48,2.1,5.58,5.58,0,0,1-2,4.18l-9.13,7.57c.26.18.64.43,1.12.73m-32.15,5.31c1.7-1.45,8.12-6.79,14.66-12.27,7.61-6.36,15.41-12.91,16-13.42A2.84,2.84,0,0,0,213,33.7a5.34,5.34,0,0,0-.82-2.33,13.56,13.56,0,0,0-5-5.05A4.14,4.14,0,0,0,205,25.7a4.9,4.9,0,0,0-3.07,1.21l-.23.2h0L174.5,50.78c.63,2.59,2.34,6.27,6.66,10.77Zm-5.68-13.2,10.94-9.53-.22-.34c-.36-.55-.9-1.34-1.62-2.29a49.51,49.51,0,0,0-6.43-7A38.68,38.68,0,0,0,152.65,18.9h-.55c-20,0-23.31,10.32-23.94,12.79a4.76,4.76,0,0,0-.1.52v.09a.7.7,0,0,1,0,.16,3,3,0,0,0,0,.42,1.45,1.45,0,0,0,.19.79c.14.18.33.34.9.37h.06a55.48,55.48,0,0,0,5.91-1.34,46.11,46.11,0,0,1,10.59-1.38h.06c12.37,0,23.85,4.67,29.82,17"/></svg>