<svg id="Layer_1" data-name="Layer 1" xmlns="http://www.w3.org/2000/svg" xmlns:xlink="http://www.w3.org/1999/xlink" viewBox="0 0 258.78 130"><defs><style>.cls-1{fill:#2f2e41;}.cls-2{clip-path:url(#clip-path);}</style><clipPath id="clip-path"><path class="cls-1" d="M276.4-125.94c-5,2.09-4,6.35,1.71,6,14.5-1,33.39,9.74,43.5,27.31S328.69-60,328.69-60c-1,4.35-3.88,6.94-7.83,6.94-6.34,0-14.21-6.25-18-20.86-2.28-8.76-.38-14,2.65-15.44,4.65-2.2,10.83,3.1,13.21,7.55.82,1.15,1.48,1,1.3-.53-4.31-20.48-33.52-33-41.7-15.2s10.4,50.36,37.62,56.16c8.73,1.86,34.75,3.35,33.18-21.71C346.78-100.23,312.76-128,287.42-128a28.38,28.38,0,0,0-11,2.08"/></clipPath></defs><rect class="cls-1" x="100.96" y="52.3" width="6.76" height="25.58"/><path class="cls-1" d="M127.41,77.89V62.49c0-1.91-.37-3.19-1.1-3.89s-1.81-.81-4-.81h-5.72v20.1h-6.82V52.3h13.08c4,0,6.8.71,8.42,2.13s2.53,3.85,2.53,7.2V77.89Z"/><rect class="cls-1" x="178.11" y="52.3" width="6.81" height="25.58"/><path class="cls-1" d="M204.1,77.89V62.49c0-2.12-.28-3.26-.94-3.89s-1.73-.81-3.81-.81h-6.1v20.1H187V52.3h12.88c4,0,6.59.69,8.22,2.13s2.35,3.71,2.35,7.2V77.89Z"/><path class="cls-1" d="M169.92,77.89c-2.62,0-4.41-.62-5.67-1.93s-1.9-3.22-1.9-5.83V57.27H146.93a9.25,9.25,0,0,0-4.06.55,2.22,2.22,0,0,0-1,2.09,2.47,2.47,0,0,0,.91,2.1,4.38,4.38,0,0,0,2.67.75h6.33c2.95,0,5.06.55,6.46,1.8a6.81,6.81,0,0,1,2.2,5.52,8.3,8.3,0,0,1-2,5.74,6.19,6.19,0,0,1-5,2.07H135.72V73H150.1a5.56,5.56,0,0,0,3-.59,2.32,2.32,0,0,0,1-2.09,2.42,2.42,0,0,0-1-2.14,5.36,5.36,0,0,0-3-.61h-6c-3.49,0-5.88-.57-7.1-1.64s-1.81-3-1.81-5.69.72-4.77,2.2-6.08,3.69-1.9,6.9-1.9h18.1V47h6.41V52.3H176v5h-7.28V67.92c0,2,.31,3.48,1,4.28a4.63,4.63,0,0,0,3.66,1.24H176v4.45Z"/><path class="cls-1" d="M63,72.42h-.12a7.31,7.31,0,0,1-7.33-7l-.06-.66a12.61,12.61,0,0,0-3.69-8.62,12.67,12.67,0,0,0-4-2.7,12.52,12.52,0,0,0-4.91-1h-9v5.27h9a7.33,7.33,0,0,1,7.34,7l.05.66a12.62,12.62,0,0,0,1,4.61,12.49,12.49,0,0,0,2.7,4,12.16,12.16,0,0,0,8.91,3.63h8.78V72.42Z"/><path class="cls-1" d="M57.1,64.91l0,.67a5.51,5.51,0,0,0,.35,1.76H71.62v-5H56.79A15,15,0,0,1,57.1,64.91Z"/><path class="cls-1" d="M48.59,65.73l-.05-.68a5.72,5.72,0,0,0-.82-2.73H33.9v5H48.73A14.58,14.58,0,0,1,48.59,65.73Z"/><path class="cls-1" d="M49.11,68.91a7.34,7.34,0,0,1-6.26,3.51h-11V44.25l-6.28-3.78v12H19.68a17.07,17.07,0,0,0-6.08.9,9.17,9.17,0,0,0-3.92,3,12,12,0,0,0-2.06,3.82A14.91,14.91,0,0,0,7,64.71C7,68.76,8,72,10.19,74.22s5.19,3.41,9,3.41H42.85a12.56,12.56,0,0,0,4.91-.93,12.81,12.81,0,0,0,4-2.68,14.38,14.38,0,0,1-2-3.39A16.64,16.64,0,0,1,49.11,68.91ZM25.55,72.42H20.84c-2.57,0-4.41-.56-5.47-1.66s-1.61-3-1.61-5.56.59-4.62,1.75-5.77,3.13-1.75,5.87-1.75h4.17Z"/><path class="cls-1" d="M95.54,55.83c-2.15-2.26-5.19-3.41-9-3.41H62.84A12.54,12.54,0,0,0,54,56.09a14.38,14.38,0,0,1,2,3.39,14.57,14.57,0,0,1,.6,1.72,7.34,7.34,0,0,1,6.26-3.51H73.67V89.53l6.49-3.9v-8h5.89a17,17,0,0,0,6.09-.9,9.2,9.2,0,0,0,3.91-3,12,12,0,0,0,2.06-3.82,14.9,14.9,0,0,0,.68-4.6C98.79,61.29,97.69,58.09,95.54,55.83Zm-5.3,14.83c-1.15,1.16-3.12,1.76-5.86,1.76H80.16V57.68H84.9c2.58,0,4.42.55,5.48,1.63S92,62.25,92,64.85,91.39,69.5,90.24,70.66Z"/><path class="cls-1" d="M244,47h-6.35v5.32H226a18.92,18.92,0,0,0-5.74.62,10.26,10.26,0,0,0-4,2.39,11.85,11.85,0,0,0-2.85,4.36,15.64,15.64,0,0,0-1,5.64,14.57,14.57,0,0,0,1,5.44,12.51,12.51,0,0,0,2.83,4.35,9.59,9.59,0,0,0,3.94,2.2,19.82,19.82,0,0,0,5.85.58h9.12V72.38h-7.06a22.44,22.44,0,0,1-3.77-.21,8,8,0,0,1-2.24-.67,4.26,4.26,0,0,1-2.13-2.07,9.48,9.48,0,0,1-.79-4.13c0-2.94.66-5,1.95-6.21s3.75-1.33,7-1.33h9.55V70.13c0,2.57.58,4.42,1.93,5.82s3,1.91,5.69,1.91h6.06V73.42h-2.55a4.77,4.77,0,0,1-3.71-1.24c-.73-.82-1.07-2.28-1.07-4.26V57.76h7.85V52.28H244Z"/><path class="cls-1" d="M247.82,49.45V47.2h-.91V47h2v.17H248v2.25Z"/><path class="cls-1" d="M249.25,47.23a.21.21,0,0,1,.21-.23c.12,0,.18.09.24.24l.74,2s0,.08.05.08,0,0,.06-.08l.74-2c.06-.15.11-.24.24-.24a.21.21,0,0,1,.2.23v2.22h-.16V47.23s0-.06,0-.06-.05,0-.06.07l-.75,2c-.05.14-.1.26-.22.26s-.16-.12-.22-.26l-.75-2s0-.07-.06-.07,0,0,0,.06v2.22h-.17Z"/><path class="cls-1" d="M276.4-125.94c-5,2.09-4,6.35,1.71,6,14.5-1,33.39,9.74,43.5,27.31S328.69-60,328.69-60c-1,4.35-3.88,6.94-7.83,6.94-6.34,0-14.21-6.25-18-20.86-2.28-8.76-.38-14,2.65-15.44,4.65-2.2,10.83,3.1,13.21,7.55.82,1.15,1.48,1,1.3-.53-4.31-20.48-33.52-33-41.7-15.2s10.4,50.36,37.62,56.16c8.73,1.86,34.75,3.35,33.18-21.71C346.78-100.23,312.76-128,287.42-128a28.38,28.38,0,0,0-11,2.08"/><g class="cls-2"><polygon class="cls-1" points="315.85 -168.18 394.93 -76.97 304.95 2.08 225.87 -89.14 315.85 -168.18"/></g></svg>