<svg id="Layer_1" data-name="Layer 1" xmlns="http://www.w3.org/2000/svg" xmlns:xlink="http://www.w3.org/1999/xlink" viewBox="0 0 258.78 130"><defs><style>.cls-1{fill:none;}.cls-2{fill:#2f2e41;}.cls-3{fill:#fff;}.cls-4{clip-path:url(#clip-path);}</style><clipPath id="clip-path"><path id="path3071" class="cls-1" d="M178.27,20.79l-170,81.83,105.31-.07c12,0,16.08-12.62,33.63-12.62h109.6Z"/></clipPath></defs><g id="g3059"><g id="g3065"><path id="path3067" class="cls-2" d="M147.21,96.53c-6.87,0-11,2.33-15.24,5.2-1.2.8-2.36,1.61-3.52,2.36a43,43,0,0,1-4.06,2.38,23.42,23.42,0,0,1-10.81,2.68L6.1,109.21l170.81-79.1L253,96.53Z"/></g><g id="g3069"><path id="path3071-2" data-name="path3071" class="cls-2" d="M178.27,20.79l-170,81.83,105.31-.07c12,0,16.08-12.62,33.63-12.62h109.6Z"/></g><g id="g3073"><path id="path3075" class="cls-2" d="M14,63.16l-1,3.75H23l-1.07,4.61H11.69l-1.2,4.38h12l-1.13,4.61H2L7.07,61.37c.4-1.83,1.56-2.83,2.69-2.83H26.44L25.3,63.16Z"/></g></g><g id="layer1"><g id="g3685"><g id="g3077"><path id="path3079" class="cls-2" d="M23.7,80.51l5.29-22h6.55l-5.28,22Z"/></g><g id="g3093"><path id="path3095" class="cls-2" d="M58.58,62.58l1-4h6.56l-1,4ZM54.27,80.51l3.88-16.12h6.56L60.82,80.51Z"/></g><g id="g3105"><path id="path3107" class="cls-2" d="M78.17,64.39l-.94,3.89H73.55L72,74.75c-.22.92.08,1.67,1.64,1.73H76l-2.55,4h-3c-3.82,0-6.11-1.05-5.21-4.8L67,68.28H65.43l.93-3.89h1.57l.92-3.8,7-2-1.35,5.82Z"/></g><g id="g3109"><path id="path3111" class="cls-3" d="M100.34,63.16a13.79,13.79,0,0,0-1.76,0c-.6.07-1.35.25-1.5.86a1.25,1.25,0,0,0,.27,1,3.17,3.17,0,0,0,.34.39l.35.35,4.33,4.51c1.51,1.56,2.84,3.06,2.34,5.14-.46,1.89-2.61,5-9,5H87.13l-.56-4.61h6.48a15.76,15.76,0,0,0,1.75,0c.61-.07,1.36-.26,1.5-.87A1.2,1.2,0,0,0,96,74a4.47,4.47,0,0,0-.34-.4l-.35-.34-4.19-4.49c-1.47-1.58-2.8-3.08-2.3-5.16.45-1.89,2.61-5,9.06-5h8.28l-1.44,4.61Z"/></g><g id="g3113"><path id="path3115" class="cls-3" d="M135.74,68.28c-1.42,0-2.19.08-2.36.8a.78.78,0,0,0,.13.61,1.7,1.7,0,0,0,.15.22l.14.18L136.2,73a4.07,4.07,0,0,1,1.15,3.59c-.47,2-2.94,3.89-6.27,3.89h-6.92l-.61-4h3.62c.26,0,.84.07,1.38.06a2.48,2.48,0,0,0,.79-.11.74.74,0,0,0,.53-.5,1.19,1.19,0,0,0-.25-.86c-.15-.24-.35-.47-.46-.62l-2.26-2.88c-.9-1.12-1.54-2.17-1.21-3.54.25-1,2-3.64,6.61-3.64h6.93l-.93,3.89Z"/></g><g id="g3117"><path id="path3119" class="cls-3" d="M153.06,64.39l-.94,3.89h-3.68l-1.55,6.47c-.22.92.07,1.67,1.63,1.73h2.38l-2.55,4h-3c-3.82,0-6.11-1.05-5.2-4.8l1.78-7.43h-1.56l.94-3.89h1.56l.79-3.27,6.91-1.46-1.14,4.73Z"/></g><g id="g3121"><path id="path3123" class="cls-3" d="M200.71,70.48l-2.41,10h-6.38l2.21-9.16c.46-2.27.45-2.87-2.63-2.93h-1.29L187.3,80.51h-6.37l2.9-12.09h-4.61L176.3,80.51h-6.37l3.88-16.12h20.77c5.89,0,7.14,1.89,6.13,6.09"/></g><g id="g3125"><path id="path3127" class="cls-3" d="M212.78,68.28c-1.41,0-2.18.08-2.35.8a.78.78,0,0,0,.13.61,1.7,1.7,0,0,0,.15.22l.14.18L213.24,73a4,4,0,0,1,1.16,3.59c-.48,2-2.94,3.89-6.27,3.89h-6.92l-.61-4h3.62a19.54,19.54,0,0,0,2.17,0,.74.74,0,0,0,.53-.5,1.19,1.19,0,0,0-.25-.86c-.16-.24-.35-.47-.47-.62l-2.26-2.88c-.89-1.12-1.53-2.17-1.2-3.54.25-1,2-3.64,6.61-3.64h6.93l-.93,3.89Z"/></g><g id="g3129"><path id="path3131" class="cls-3" d="M103.78,86.2a6.68,6.68,0,0,0,1.82-1.71l4-5.66L105.8,64.35h7.11l1.43,8.24,4.82-8.24h7.2L112.22,84.74a4,4,0,0,1-2.76,1.49Z"/></g><g id="g3133"><path id="path3135" class="cls-3" d="M163.47,67.91c-4.06,0-4.8,3.36-4.34,4.45,2-.18,5.08-1.35,5.56-2.93.19-.75.28-1.52-1.22-1.52M161.7,76a12.75,12.75,0,0,0,4.46.45h2.33l-2.42,4h-4.44c-6.92,0-9.67-5.72-8.88-9.45C153.69,66.62,156.54,64,164,64c7.17,0,7.44,3.07,6.7,5.77-.94,3.41-4.68,5-9,6a.15.15,0,0,0-.14.15.16.16,0,0,0,.11.15"/></g></g></g><g id="g3083"><g id="g3089"><path id="path3091" class="cls-2" d="M40.81,76.48c3.52-.33,6.52-1.85,7.15-4.46s-2-3.6-3.08-3.6H42.46L40.52,76.5Zm6.53-12.09c6.89,0,8.2,4.39,7.44,7.52-1.29,5.38-8.1,8.6-14.85,8.6H33l5.29-22h6.56l-1.41,5.84Z"/></g></g><g class="cls-4"><path id="path3095-2" data-name="path3095" class="cls-3" d="M58.58,62.58l1-4h6.56l-1,4ZM54.27,80.51l3.88-16.12h6.56L60.82,80.51Z"/><path id="path3107-2" data-name="path3107" class="cls-3" d="M78.17,64.39l-.94,3.89H73.55L72,74.75c-.22.92.08,1.67,1.64,1.73H76l-2.55,4h-3c-3.82,0-6.11-1.05-5.21-4.8L67,68.28H65.43l.93-3.89h1.57l.92-3.8,7-2-1.35,5.82Z"/></g></svg>