<svg id="Layer_1" data-name="Layer 1" xmlns="http://www.w3.org/2000/svg" viewBox="0 0 258.78 130"><defs><style>.cls-1{fill:#fff;}.cls-2{fill:#2f2e41;}</style></defs><path id="path3325" class="cls-1" d="M90.05,56.78a39.26,39.26,0,0,1,8.55,3.69c8.6,5,14.16,13.22,14.16,22.35S107.2,100,98.6,105.11a39.26,39.26,0,0,1-8.55,3.69,30.79,30.79,0,0,1-4.21,1,30.72,30.72,0,0,1-3.39.53c-1.47.12-2.93.18-4.39.18s-3-.06-4.45-.18a32,32,0,0,1-3.33-.53,34.09,34.09,0,0,1-4.28-1,39.76,39.76,0,0,1-8.48-3.69C48.92,100,43.3,92,43.3,82.82S48.92,65.5,57.52,60.47A37,37,0,0,1,66,56.78a34.09,34.09,0,0,1,4.28-1,32,32,0,0,1,3.33-.53c1.46-.12,2.93-.18,4.45-.18s2.92.06,4.39.18a30.72,30.72,0,0,1,3.39.53A30.79,30.79,0,0,1,90.05,56.78Z"/><path id="path3327" class="cls-2" d="M65.51,63c.49-.31.91-.61,1.4-.92-.49.13-.91.31-1.4.43a35,35,0,0,0-8.84,4c-6.27,4-10.23,9.75-10.29,16.15L52,82.46a19.36,19.36,0,0,1,4.63-11.7A36,36,0,0,1,65.51,63Zm0,40.15,1.4.37c-.49-.25-.91-.55-1.4-.86a38.22,38.22,0,0,1-8.84-7.74A19.71,19.71,0,0,1,52,83.25c-1.89-.06-3.77-.06-5.66-.06.18,6.33,4.08,11.94,10.29,15.9A35,35,0,0,0,65.51,103.11Zm7.92,1.58,2.31.19c-.79-.55-1.58-1.16-2.31-1.77A33.3,33.3,0,0,1,70,99.94c-1.59.18-3,.31-4.51.55l-1.34.18c.42.37.91.73,1.34,1A33.29,33.29,0,0,0,69,104a4.68,4.68,0,0,0,1,.25C71.11,104.39,72.27,104.57,73.43,104.69Zm0-42.22c.73-.61,1.52-1.22,2.31-1.77l-2.31.19c-1.16.12-2.32.3-3.47.48l-1,.19c-1.22.73-2.38,1.52-3.47,2.31-.43.31-.92.67-1.34,1l1.34.18c1.46.18,2.92.37,4.45.49C71.05,64.54,72.21,63.45,73.43,62.47Zm9.2,39.79a30.09,30.09,0,0,0,2.25-2.44c-.73-.06-1.46-.06-2.25-.12-1.46-.06-3-.12-4.51-.12s-3.17.06-4.69.12l-2.26.18c.74.79,1.47,1.58,2.26,2.38,1,.91,2,1.76,3,2.62a14.09,14.09,0,0,0,1.59.06,12.88,12.88,0,0,0,1.52-.06C80.68,104,81.65,103.17,82.63,102.26Zm0-36.38,2.25-.18c-.67-.79-1.46-1.58-2.25-2.38-1-.91-1.95-1.82-3-2.68H76.47c-1,.86-2.07,1.77-3,2.68-.79.8-1.52,1.59-2.26,2.38l2.26.18c1.52.06,3,.13,4.63.13S81.17,65.94,82.63,65.88Zm7.92,35.83c.49-.37,1-.67,1.4-1a11.38,11.38,0,0,1-1.4-.24c-1.4-.18-2.93-.37-4.39-.49-1.16,1.1-2.31,2.19-3.53,3.17-.73.61-1.46,1.22-2.26,1.77l2.26-.19c1.22-.12,2.37-.3,3.53-.48a5.87,5.87,0,0,0,1-.25A37.3,37.3,0,0,0,90.55,101.71Zm0-36.62,1.4-.18a12.09,12.09,0,0,0-1.4-1,37.55,37.55,0,0,0-3.41-2.31l-1-.19c-1.16-.18-2.31-.36-3.53-.48l-2.26-.19c.8.55,1.53,1.16,2.26,1.77a43.46,43.46,0,0,1,3.47,3.17C87.62,65.52,89.15,65.34,90.55,65.09Zm8.89,8a30,30,0,0,0-7-7.86c-.61.19-1.22.37-1.89.55-1.16.31-2.38.55-3.54.79a30.89,30.89,0,0,1,3.54,5A21.43,21.43,0,0,1,91.77,74H90.06a28.83,28.83,0,0,0-3.9-6.77,2.61,2.61,0,0,1-.36-.42c-1,.18-2.08.3-3.17.42-1.46.13-3,.19-4.51.19a37.41,37.41,0,0,1-4.69-.25,30.18,30.18,0,0,1-3.17-.36,1.82,1.82,0,0,1-.3.42A26.87,26.87,0,0,0,66.06,74H64.29c.37-.8.79-1.65,1.22-2.44a33.67,33.67,0,0,1,3.59-4.94c-1.22-.24-2.37-.54-3.59-.85a17.7,17.7,0,0,1-1.83-.49,30,30,0,0,0-7,7.86,18.51,18.51,0,0,0-2.8,9.2,22.66,22.66,0,0,0,2.8-.18h.25v1.34a.39.39,0,0,1-.25-.06c-1,0-1.89-.06-2.8-.12a18.09,18.09,0,0,0,2.8,9.14,29.09,29.09,0,0,0,7,7.86l1.83-.55c1.22-.31,2.37-.55,3.59-.79A33.67,33.67,0,0,1,65.51,94c-.43-.79-.86-1.58-1.22-2.37h1.77a27.75,27.75,0,0,0,3.9,6.7,1.82,1.82,0,0,1,.3.42c1.1-.18,2.13-.3,3.17-.42,1.52-.12,3-.19,4.63-.19s3.11.07,4.57.19c1.09.12,2.13.24,3.17.42.12-.18.24-.3.36-.48a29.51,29.51,0,0,0,3.9-6.64h1.71A22.21,22.21,0,0,1,90.55,94,29.85,29.85,0,0,1,87,99a32.41,32.41,0,0,1,3.6.79,15.36,15.36,0,0,1,1.89.49,28.84,28.84,0,0,0,7-7.8,19.36,19.36,0,0,0,2.81-9.14c-1,.06-1.89.12-2.81.12a.54.54,0,0,1-.3.06V82.15h.3a21.4,21.4,0,0,0,2.81.18A19.83,19.83,0,0,0,99.44,73.13Zm-8.89,30a36.3,36.3,0,0,0,8.89-4c6.16-4,10.12-9.57,10.24-15.9-1.89,0-3.78,0-5.67.06a19.5,19.5,0,0,1-4.57,11.63,38.53,38.53,0,0,1-8.89,7.74,11.66,11.66,0,0,1-1.4.86Zm8.89-36.62a36.3,36.3,0,0,0-8.89-4c-.43-.12-.92-.3-1.34-.43.42.31.91.61,1.34.92a36.06,36.06,0,0,1,8.89,7.8A19.16,19.16,0,0,1,104,82.46l5.67.18C109.62,76.24,105.66,70.51,99.44,66.49ZM90.55,55.71a39.84,39.84,0,0,1,8.89,3.84c9,5.24,14.75,13.77,14.75,23.27S108.4,100.73,99.44,106a39.84,39.84,0,0,1-8.89,3.84,33.11,33.11,0,0,1-4.39,1c-1.16.24-2.31.42-3.53.55-1.52.12-3,.18-4.57.18s-3.11-.06-4.63-.18c-1.16-.13-2.32-.31-3.47-.55a36.44,36.44,0,0,1-4.45-1A40.67,40.67,0,0,1,56.67,106c-9-5.3-14.8-13.7-14.8-23.21s5.85-18,14.8-23.27a38,38,0,0,1,8.84-3.84,36.44,36.44,0,0,1,4.45-1c1.15-.24,2.31-.42,3.47-.55,1.52-.12,3-.18,4.63-.18s3,.06,4.57.18c1.22.13,2.37.31,3.53.55A33.11,33.11,0,0,1,90.55,55.71Z"/><path id="path3329" class="cls-2" d="M111.69,125H130l22.85-79.63H134.54L111.69,125Z"/><path id="path3331" class="cls-2" d="M184.86,125h18.28L226,45.41H207.77Z"/><path id="path3333" class="cls-2" d="M78,96.47l-6.34-6.64H59.54l5.79-7-5.79-7H71.66L78,69.05h.24l6.34,6.76H96.64l-5.73,7,5.73,7H84.58l-6.34,6.64Z"/><path id="path3335" class="cls-2" d="M101.7,124.8h-27c-4.69,0-12.25-2-16.45-3.6A39,39,0,0,1,32.79,84.83h0c0-16.75,10.05-26.56,19.56-38h3.84C48.75,57.78,37.85,70,37.91,82.82,38,97.5,50.52,110.06,67.52,113.71a49.43,49.43,0,0,0,10.54,1.4h26.38Z"/><path id="path3337" class="cls-2" d="M51.43,43.71h7.86C70.5,30.36,82,17.57,93.47,5c-15.65,9.81-34,22.72-51.3,34.18H54.36Z"/><path id="path3339" class="cls-2" d="M169,76.91l-7.13,19.8h7.5l6.88-37.53h-.79ZM133.32,125l30.22-79.63h32.05L182.43,125H164.21l2.68-14.56h-10L151.6,125Z"/></svg>