<svg id="Layer_1" data-name="Layer 1" xmlns="http://www.w3.org/2000/svg" viewBox="0 0 258.78 130"><defs><style>.cls-1,.cls-2{fill:#2f2e41;}.cls-2{fill-rule:evenodd;}</style></defs><g id="g853"><g id="g847"><path id="path841" class="cls-1" d="M95.42,67.48a11.72,11.72,0,0,1-10.21-5.92,11.33,11.33,0,0,1,.33-11.66l21-33a11.78,11.78,0,0,1,20.43.55,11.3,11.3,0,0,1-.64,11.64l-21,33A11.7,11.7,0,0,1,95.42,67.48Z"/><path id="path843" class="cls-1" d="M131.49,67.48a11.67,11.67,0,0,1-10.19-5.91,11.3,11.3,0,0,1,.32-11.63L142.6,17a11.76,11.76,0,0,1,20.5.47,11.27,11.27,0,0,1-.75,11.69l-21,33A11.71,11.71,0,0,1,131.49,67.48Z"/><ellipse id="ellipse845" class="cls-1" cx="166.75" cy="57.16" rx="10.82" ry="10.6"/></g><path id="path849" class="cls-1" d="M220.35,101c1.39,0,2.23,1,2.23,2.61v5.55h1.88v-5.68c0-2.75-1.29-4.34-3.73-4.34a3.56,3.56,0,0,0-3.37,2,3.1,3.1,0,0,0-2.53-1.91,4.72,4.72,0,0,0-1.06-.06,3.39,3.39,0,0,0-2.68,1.64V99.36H209.2v9.81h1.89v-5.3a2.58,2.58,0,0,1,2.7-2.86c1.26,0,2.09,1,2.09,2.59v5.57h1.88v-5.3a2.59,2.59,0,0,1,2.59-2.86Zm-18.08,6.52a3.12,3.12,0,0,0,2.3-1,3.21,3.21,0,0,0,.89-2.35,3.2,3.2,0,1,0-6.39,0,3.21,3.21,0,0,0,.89,2.34,3.12,3.12,0,0,0,2.29,1Zm0,1.84a5,5,0,0,1-5.06-5.15,5.07,5.07,0,1,1,10.14,0,5,5,0,0,1-5.09,5.16Zm-14.78-5.15h0a5.16,5.16,0,0,1,8.87-3.52l-1.43,1.22a3.19,3.19,0,0,0-2.3-.92,3.14,3.14,0,0,0-3.26,3.21,3.32,3.32,0,0,0,2,3,3.23,3.23,0,0,0,3.55-.72l1.46,1.22a5.15,5.15,0,0,1-8.88-3.55Zm-6.05,3.06a1.31,1.31,0,0,1,1.29-1.32h0a1.31,1.31,0,0,1,1.29,1.32h0a1.29,1.29,0,0,1-2.58,0Z"/><path id="path851" class="cls-2" d="M186.61,86.88h-6.73L175.17,99l-4.68-12.15h-6.72l8.17,19.2-5.09,12.69h6.68ZM145.73,97.56a5.21,5.21,0,0,0,5.31,5.08,5.09,5.09,0,1,0,0-10.17,5.22,5.22,0,0,0-5.31,5.09Zm10.44,10.72v-2.43c-1.36,2.06-4.54,2.84-6.17,2.84a11.13,11.13,0,0,1,0-22.26c1.36,0,4.54.45,6.17,2.84V86.89h6.27v21.39Zm-18.76,0h-6.27v-2.66c-1,2-3.58,3.12-6.22,3.12-5.45,0-10.26-4.36-10.26-11.09s4.81-11.23,10.26-11.23c2.63,0,5.18,1.1,6.22,3.07V75.23h6.27ZM131,97.51a4.91,4.91,0,1,0-9.81,0,4.88,4.88,0,0,0,4.9,5.18A5,5,0,0,0,131,97.51ZM99.17,97c0-3.25,1.68-4.35,3.9-4.35s3.68,1.42,3.68,4.26v11.4h6.31V95.49c0-6.09-3-9.07-7.76-9.07A7.05,7.05,0,0,0,99.17,90V86.88H92.86v21.39h6.31ZM80.05,108.64a11.11,11.11,0,1,1,11-11.13,10.75,10.75,0,0,1-11,11.13Zm0-6.23a4.88,4.88,0,0,0,0-9.76,4.88,4.88,0,0,0,0,9.76Zm-22.31-9.8c1.86,0,3.5,1.47,3.5,4.26v11.41H67.5V96.13c0-6.46-3.14-9.71-8.17-9.71A7.24,7.24,0,0,0,53,90.22c-1.18-2.47-3.45-3.76-6.8-3.76A6.08,6.08,0,0,0,40.63,90v-3.1H34.32v21.39h6.31V97c0-3.25,1.77-4.35,3.67-4.35s3.45,1.42,3.5,4.12v11.55h6.31V97c0-3.11,1.64-4.35,3.63-4.35Z"/></g></svg>