<svg id="Layer_1" data-name="Layer 1" xmlns="http://www.w3.org/2000/svg" viewBox="0 0 258.78 130"><defs><style>.cls-1{fill:none;}.cls-2{fill:#2f2e41;}.cls-3{fill:#fff;}</style></defs><path class="cls-1" d="M250.69,42.62V96.87H21.47l1.37-.22a11.63,11.63,0,0,0,6.48-3.15,13.46,13.46,0,0,0,3.92-12.76,25.16,25.16,0,0,0-1.71-5.38Q26.3,63.24,21,51.13a2.63,2.63,0,0,0-.19-.37c-.1.21-.18.37-.25.53L16.79,60c-2.21,5.12-4.44,10.25-6.63,15.38a23.39,23.39,0,0,0-1.89,6.66,2.24,2.24,0,0,1-.19.55V33.13H250.69v3.45l-2.08.05c-.45,1.14-.88,2.24-1.32,3.34l0,0h-.09l-1.29-3.35h-2.06v5.94h1.25V41.05c0-.5,0-1,0-1.51a3.54,3.54,0,0,1,.14-1.44q.81,2.24,1.64,4.49h.78c.59-1.5,1.07-3,1.68-4.5l.12,0v4.51Zm-31.63,26c2-5.3,4.05-10.57,6.06-15.85l.14,0V68.58h9.37V36.64h-11c-2,5.18-4,10.39-6,15.58l-.13,0q-.93-7.77-1.86-15.56H204.88l-9.2,31.94h10.11c.47-1.79.94-3.56,1.41-5.33s.93-3.55,1.4-5.31.9-3.51,1.41-5.25l.11,0L212,68.59ZM74.68,53.07l-.13,0q-3.18-8.25-6.36-16.46h-10c-.16.56-4.62,31.47-4.51,31.95h9.89q1.14-8,2.27-15.92H66l6.48,15.93h10c.76-5.32,1.47-10.64,2.28-15.95.89-5.89,2.24-15.56,2.16-16H77C76.24,42.14,75.46,47.6,74.68,53.07Zm67.8-16.45q-8,16-16,32h11l.26-.59c.38-.95.75-1.91,1.13-2.86.2-.49.2-.49.74-.5H147l.58,0c.07,1.32.13,2.6.2,3.9h10.55q-2.15-16-4.28-31.95Zm-32.82,0H90.3L85.76,68.57h19.36l1.24-8.69H97.53L98,56.75h4c1.34,0,2.68,0,4,0l1.18-8.28H99.16l.45-3.14h8.82C108.84,42.41,109.25,39.56,109.66,36.64Zm75,0H165.24q-2.28,16-4.55,31.94h10.53c.56-3.94,1.12-7.86,1.68-11.83H181l1.16-8.29h-6.43c-.53,0-1.06,0-1.64,0l.45-3.11h8.84C183.79,42.41,184.2,39.55,184.62,36.63Zm-50.18,0h-22l-1.26,8.83,5.79-.11c-1.11,7.78-2.2,15.48-3.3,23.22h10.45c1.1-7.75,2.2-15.47,3.31-23.23l5.75.12C133.6,42.52,134,39.6,134.44,36.64Zm59.15,32c1.52-10.67,3-21.29,4.55-32H187.69c-.17.56-4.6,31.44-4.52,32ZM37.6,33.22c-.11.24-.2.42-.27.59q-2.85,6.55-5.68,13.11c-.56,1.3-1.11,2.61-1.58,3.95a9.31,9.31,0,0,0-.38,5.57,8.1,8.1,0,0,0,5.27,6,7.35,7.35,0,0,0,3.66.38,7.46,7.46,0,0,0,3.81-1.52,8.67,8.67,0,0,0,3.15-8.71,18.89,18.89,0,0,0-1.36-4.09L37.86,33.77C37.79,33.6,37.71,33.45,37.6,33.22ZM243,37.74v-1.1h-5v1.12h1.81v4.82h1.42c.05-1.63,0-3.21,0-4.84Z"/><path class="cls-2" d="M8.08,82.63a2.24,2.24,0,0,0,.19-.55,23.39,23.39,0,0,1,1.89-6.66c2.19-5.13,4.42-10.26,6.63-15.38l3.81-8.75c.07-.16.15-.32.25-.53a2.63,2.63,0,0,1,.19.37q5.25,12.12,10.49,24.23a25.16,25.16,0,0,1,1.71,5.38A13.46,13.46,0,0,1,29.32,93.5a11.63,11.63,0,0,1-6.48,3.15l-1.37.22H20.28l-1.37-.22A11.55,11.55,0,0,1,12,93.06a13.42,13.42,0,0,1-3.69-7.67,2.82,2.82,0,0,0-.2-.6Z"/><path class="cls-3" d="M8.08,84.79a2.82,2.82,0,0,1,.2.6A13.42,13.42,0,0,0,12,93.06a11.55,11.55,0,0,0,6.94,3.59l1.37.22H8.08Z"/><path class="cls-2" d="M250.69,42.62h-1.27V38.11l-.12,0c-.61,1.47-1.09,3-1.68,4.5h-.78q-.83-2.25-1.64-4.49a3.54,3.54,0,0,0-.14,1.44c0,.51,0,1,0,1.51v1.53h-1.25V36.64h2.06L247.16,40h.09l0,0c.44-1.1.87-2.2,1.32-3.34l2.08-.05Z"/><path class="cls-2" d="M219.06,68.59h-7l-1.92-15.88-.11,0c-.51,1.74-.93,3.5-1.41,5.25s-.93,3.54-1.4,5.31-.94,3.54-1.41,5.33H195.68l9.2-31.94h10.78q.93,7.8,1.86,15.56l.13,0c2-5.19,4-10.4,6-15.58h11V68.58h-9.37V52.77l-.14,0C223.11,58,221.09,63.29,219.06,68.59Z"/><path class="cls-2" d="M74.68,53.07c.78-5.47,1.56-10.93,2.35-16.43h9.88c.08.43-1.27,10.1-2.16,16-.81,5.31-1.52,10.63-2.28,15.95h-10L66,52.65h-.13q-1.14,8-2.27,15.92H53.69C53.58,68.1,58,37.19,58.2,36.63h10q3.16,8.2,6.36,16.46Z"/><path class="cls-2" d="M142.48,36.62h11.58q2.15,16,4.28,31.95H147.79c-.07-1.3-.13-2.58-.2-3.9l-.58,0h-7.34c-.54,0-.54,0-.74.5-.38,1-.75,1.91-1.13,2.86l-.26.59h-11Q134.52,52.56,142.48,36.62Zm4.7,19.69c-.16-3.23-.32-6.4-.49-9.67a1.84,1.84,0,0,0-.42.2c-.07.06-.09.19-.13.29q-1.75,4.36-3.5,8.75c0,.12-.08.26-.13.43Z"/><path class="cls-2" d="M109.66,36.64c-.41,2.92-.82,5.77-1.23,8.68H99.61l-.45,3.14h8.07l-1.18,8.28c-1.35,0-2.69,0-4,0H98l-.46,3.13h8.83l-1.24,8.69H85.76L90.3,36.64Z"/><path class="cls-2" d="M184.62,36.63c-.42,2.92-.83,5.78-1.24,8.69h-8.84l-.45,3.11c.58,0,1.11,0,1.64,0h6.43L181,56.74h-8.1c-.56,4-1.12,7.89-1.68,11.83H160.69q2.28-16,4.55-31.94Z"/><path class="cls-2" d="M134.44,36.64c-.42,3-.84,5.88-1.26,8.83l-5.75-.12c-1.11,7.76-2.21,15.48-3.31,23.23H113.67c1.1-7.74,2.19-15.44,3.3-23.22l-5.79.11,1.26-8.83Z"/><path class="cls-2" d="M193.59,68.59H183.17c-.08-.52,4.35-31.4,4.52-32h10.45C196.63,47.3,195.11,57.92,193.59,68.59Z"/><path class="cls-2" d="M37.6,33.22c.11.23.19.38.26.55l6.36,14.68a18.89,18.89,0,0,1,1.36,4.09,8.67,8.67,0,0,1-3.15,8.71,7.46,7.46,0,0,1-3.81,1.52A7.35,7.35,0,0,1,35,62.39a8.1,8.1,0,0,1-5.27-6,9.31,9.31,0,0,1,.38-5.57c.47-1.34,1-2.65,1.58-3.95q2.82-6.56,5.68-13.11C37.4,33.64,37.49,33.46,37.6,33.22Z"/><path class="cls-2" d="M243,37.74H241.2c-.07,1.63,0,3.21,0,4.84h-1.42V37.76h-1.81V36.64h5Z"/><path class="cls-3" d="M147.18,56.31h-4.67c.05-.17.08-.31.13-.43q1.76-4.38,3.5-8.75c0-.1.06-.23.13-.29a1.84,1.84,0,0,1,.42-.2C146.86,49.91,147,53.08,147.18,56.31Z"/></svg>