<svg id="Layer_1" data-name="Layer 1" xmlns="http://www.w3.org/2000/svg" xmlns:xlink="http://www.w3.org/1999/xlink" viewBox="0 0 258.78 130"><defs><style>.cls-1{fill:none;}.cls-2{fill:#2f2e41;}.cls-3{clip-path:url(#clip-path);}.cls-4{clip-path:url(#clip-path-2);}</style><clipPath id="clip-path"><rect class="cls-1" x="6.4" y="14.89" width="81.38" height="100.23"/></clipPath><clipPath id="clip-path-2"><path class="cls-2" d="M11.4,27.06c-5,2.09-4,6.35,1.71,6,14.5-1,33.39,9.74,43.5,27.31S63.69,93,63.69,93c-1,4.35-3.88,6.94-7.83,6.94-6.34,0-14.21-6.25-18-20.86-2.28-8.76-.38-14,2.65-15.44,4.65-2.2,10.83,3.1,13.21,7.55.82,1.15,1.48,1,1.3-.53-4.31-20.48-33.52-33-41.7-15.2s10.4,50.36,37.62,56.16c8.73,1.86,34.75,3.35,33.18-21.71C81.78,52.77,47.76,25,22.42,25a28.38,28.38,0,0,0-11,2.08"/></clipPath></defs><g class="cls-3"><path class="cls-2" d="M16.28,125.7a8.37,8.37,0,0,1,.75,4.17c0,2.18-.33,3.73-1,4.63s-2.2,1.5-4.46,1.5h0A12.54,12.54,0,0,1,9,135.81a3.5,3.5,0,0,1-2.08-1.29c-.59-.84-.88-2.31-.88-4.43a9.11,9.11,0,0,1,.74-4.37q1-1.65,4.75-1.65h0c2.46,0,4,.55,4.71,1.63m-2.89,5.48v-2.31a2.24,2.24,0,0,0-.33-1.46,2,2,0,0,0-1.38-.35H11.4a2.06,2.06,0,0,0-1.36.3,2.11,2.11,0,0,0-.31,1.42v2.42a2,2,0,0,0,.37,1.45,2.11,2.11,0,0,0,1.42.34h.13a2,2,0,0,0,1.33-.38,1.92,1.92,0,0,0,.41-1.43m8.94-.73q0,.66-.6.66H19.3c-.39,0-.58-.22-.58-.66v-5.61a.51.51,0,0,1,.58-.58h2.45c.39,0,.58.23.58.68Zm12,1.52a3.61,3.61,0,0,1-1.13,3,6.29,6.29,0,0,1-4,1,21.17,21.17,0,0,1-4.37-.33c-.38-.11-.58-.32-.58-.64v-1.58c0-.38.2-.56.61-.53q1.34.09,3.54.09a6.61,6.61,0,0,0,1.8-.14c.37-.12.55-.45.55-1v-4a.7.7,0,0,0-.48-.7,3.8,3.8,0,0,0-1.16-.12c-.57,0-1,0-1.41,0v1.74s.1.07.26.07h.8a.43.43,0,0,1,.49.49v1.38c0,.39-.29.58-.88.58h-3a2.18,2.18,0,0,1-.79-.09c-.23-.11-.35-.39-.35-.83v-5.19a.61.61,0,0,1,.56-.63,18.16,18.16,0,0,1,4.14-.39c2.4,0,3.88.32,4.47,1a4.21,4.21,0,0,1,.87,2.9Zm12.11,3.21c0,.44-.19.65-.58.65H43.4c-.41,0-.61-.21-.61-.65v-6.62a1.12,1.12,0,0,0-.9-1.17,7.34,7.34,0,0,0-1.67-.12q-1.38,0-3.84.12c-.38,0-.58-.16-.58-.53v-1.7a.59.59,0,0,1,.51-.65,31.42,31.42,0,0,1,5-.29,6.25,6.25,0,0,1,4,1,3.73,3.73,0,0,1,1.09,3Zm-6.71,0c0,.44-.2.65-.6.65H36.66c-.39,0-.58-.21-.58-.65V132a4.58,4.58,0,0,1,.58-2.23.62.62,0,0,1,.6-.32h1.87a.49.49,0,0,1,.56.54Zm20.56-10.92c.73,0,1.09.33,1.09,1v.92a2.26,2.26,0,0,1-.12.77l-2.91,8.3q-.23.6-.63.6H55.07c-.3,0-.45-.17-.45-.53a.88.88,0,0,1,.08-.32l2.66-7.61H51.83c-.39,0-.58-.2-.58-.61V122c0-.44.19-.67.58-.67h2.38c.4,0,.6.23.6.67v2.22Zm12.27,0a.56.56,0,0,1,.63.63V125l-.22,2.25a13.71,13.71,0,0,1-1,4.38,8.9,8.9,0,0,1-2.35,3A28.44,28.44,0,0,1,64.05,138c-.38.18-.64.17-.77-.05l-.83-1.64a1.27,1.27,0,0,1-.16-.37.5.5,0,0,1,.21-.47q1.06-.52,2.64-1.5l0-.12-2.73-8.77a.9.9,0,0,1,0-.23c0-.37.17-.56.5-.56h2.36a.83.83,0,0,1,.87.66l1.41,5a7.3,7.3,0,0,1,0,2.57l.1.08a3.62,3.62,0,0,0,1.16-1.85,13.91,13.91,0,0,0,.48-3.2l.18-2.45c0-.55.25-.83.6-.83ZM84.74,132a3.65,3.65,0,0,1-1.13,3,6.29,6.29,0,0,1-4,1,21.17,21.17,0,0,1-4.37-.33c-.39-.11-.58-.32-.58-.64v-1.58c0-.38.2-.56.61-.53q1.34.09,3.54.09a6.61,6.61,0,0,0,1.8-.14c.37-.12.55-.45.55-1v-4a.7.7,0,0,0-.48-.7,3.8,3.8,0,0,0-1.16-.12c-.57,0-1,0-1.41,0v1.74s.1.07.26.07h.8a.43.43,0,0,1,.49.49v1.38c0,.39-.29.58-.88.58h-3a2.28,2.28,0,0,1-.8-.09c-.22-.11-.34-.39-.34-.83v-5.19a.61.61,0,0,1,.56-.63,18.16,18.16,0,0,1,4.14-.39q3.59,0,4.47,1a4.21,4.21,0,0,1,.87,2.9Zm13.05.79h0Q97.79,136,94,136a5.45,5.45,0,0,1-1.91-.26.6.6,0,0,1-.44-.58v-1.66c0-.34.19-.49.58-.46h1c.61,0,.92-.29.92-.86v-3.72a1.77,1.77,0,0,0-.14-.82,1.1,1.1,0,0,0-.9-.32H91.44a1,1,0,0,0-.92.46v7.45c0,.44-.21.65-.62.65H87.49c-.39,0-.59-.21-.59-.65v-7a1.77,1.77,0,0,0-.39-1l-.39-.56a1,1,0,0,1-.21-.46.6.6,0,0,1,.19-.51L88,124.24a1,1,0,0,1,.58-.21.52.52,0,0,1,.44.19l.36.46c.2.24.43.55.71.92a6,6,0,0,1,1-1,2.33,2.33,0,0,1,1.28-.32h1.9c2.36,0,3.54,1.18,3.54,3.52Z"/></g><path class="cls-2" d="M11.4,27.06c-5,2.09-4,6.35,1.71,6,14.5-1,33.39,9.74,43.5,27.31S63.69,93,63.69,93c-1,4.35-3.88,6.94-7.83,6.94-6.34,0-14.21-6.25-18-20.86-2.28-8.76-.38-14,2.65-15.44,4.65-2.2,10.83,3.1,13.21,7.55.82,1.15,1.48,1,1.3-.53-4.31-20.48-33.52-33-41.7-15.2s10.4,50.36,37.62,56.16c8.73,1.86,34.75,3.35,33.18-21.71C81.78,52.77,47.76,25,22.42,25a28.38,28.38,0,0,0-11,2.08"/><g class="cls-4"><polygon class="cls-2" points="50.85 -15.18 129.93 76.03 39.95 155.07 -39.13 63.86 50.85 -15.18"/></g><path class="cls-2" d="M44.86,76.37a.71.71,0,0,0-1.32-.05c-1.2,4,5.92,17.38,11.06,16.2,3.31-.76,2.82-8,2.36-12-.1-.82-1-1-1.5-.19-1,1.62-7.85,4.23-10.6-3.93"/><path class="cls-2" d="M44.81,68.19h-.14l-.14,0-.12,0a.39.39,0,0,0-.1.08l-1.12,1.14-.09.07-.12,0a.28.28,0,0,1-.13,0,.33.33,0,0,1-.14,0l-2.08-.11a.73.73,0,0,0-.35.06.54.54,0,0,0-.22.2.39.39,0,0,0,0,.26.53.53,0,0,0,.18.27l1.26,1.06a.5.5,0,0,1,.1.11l.07.13a.59.59,0,0,1,0,.13.28.28,0,0,1,0,.13l-.49,1.27a.5.5,0,0,0,0,.24.48.48,0,0,0,.12.22.6.6,0,0,0,.22.16.65.65,0,0,0,.28.08H42l2.18-.42h.3l.08,0,.07,0,.07,0,2,1.05.07,0,.08,0,.07,0H47a.74.74,0,0,0,.26,0,.59.59,0,0,0,.21-.1.38.38,0,0,0,.13-.18.32.32,0,0,0,0-.22l-.26-1.38a.45.45,0,0,1,0-.26l.08-.1.12-.08L49,71.63a.45.45,0,0,0,.22-.21.46.46,0,0,0,0-.26.69.69,0,0,0-.17-.26.85.85,0,0,0-.33-.16l-2-.5-.13,0-.12-.07L46.33,70l-.08-.1-.89-1.43a.4.4,0,0,0-.1-.12l-.13-.1a.94.94,0,0,0-.15-.06l-.17,0"/><path class="cls-2" d="M252.38,77.8h0q0,5.7-6.69,5.7a10.07,10.07,0,0,1-3.42-.47,1.07,1.07,0,0,1-.78-1V79c0-.6.34-.88,1-.82h1.82c1.1,0,1.64-.51,1.64-1.54V70.05a3,3,0,0,0-.25-1.46,1.92,1.92,0,0,0-1.6-.57h-3.06a1.8,1.8,0,0,0-1.65.83V82.13c0,.77-.37,1.16-1.1,1.16H234c-.69,0-1-.39-1-1.16V69.59a3.09,3.09,0,0,0-.7-1.69l-.69-1a1.76,1.76,0,0,1-.38-.82,1.08,1.08,0,0,1,.33-.91l3.38-2.55a1.67,1.67,0,0,1,1-.38,1,1,0,0,1,.78.34l.63.82c.35.44.77,1,1.27,1.65a10.56,10.56,0,0,1,1.77-1.82,4.1,4.1,0,0,1,2.28-.57h3.38q6.31,0,6.31,6.27Zm-23.25-1.4q0,3.6-2,5.28-2.22,1.78-7,1.78a37.82,37.82,0,0,1-7.79-.59c-.69-.19-1-.57-1-1.15v-2.8c0-.69.36-1,1.08-1q2.38.16,6.31.17a12,12,0,0,0,3.21-.26c.66-.22,1-.8,1-1.73V69a1.25,1.25,0,0,0-.86-1.25,6.85,6.85,0,0,0-2.07-.21c-1,0-1.85,0-2.51.08v3.11c0,.08.18.12.46.12h1.44a.77.77,0,0,1,.86.87v2.47c0,.69-.52,1-1.56,1h-5.32a3.65,3.65,0,0,1-1.42-.17c-.4-.19-.61-.68-.61-1.47V64.35a1.07,1.07,0,0,1,1-1.12,32.68,32.68,0,0,1,7.39-.7q6.41,0,8,1.71a7.43,7.43,0,0,1,1.57,5.18Zm-21.8-13.74a1,1,0,0,1,1.12,1.12V64l-.38,4a24.18,24.18,0,0,1-1.83,7.81,15.61,15.61,0,0,1-4.19,5.3,49.92,49.92,0,0,1-9.81,6q-1,.51-1.38-.09l-1.47-2.91a2.34,2.34,0,0,1-.3-.68.86.86,0,0,1,.38-.82c1.27-.63,2.84-1.53,4.71-2.68l0-.21-4.88-15.65a2.46,2.46,0,0,1,0-.4c0-.66.3-1,.91-1h4.2A1.47,1.47,0,0,1,196,63.82l2.51,8.95a12.81,12.81,0,0,1,0,4.58l.17.15a6.32,6.32,0,0,0,2.07-3.29,25.37,25.37,0,0,0,.87-5.7l.31-4.37c.09-1,.45-1.48,1.08-1.48Zm-21.87,0c1.29,0,1.94.58,1.94,1.73V66a4.07,4.07,0,0,1-.21,1.37L182,82.21c-.26.72-.64,1.08-1.11,1.08h-4.65c-.53,0-.8-.32-.8-1a1.45,1.45,0,0,1,.13-.57l4.74-13.58h-9.85a.94.94,0,0,1-1-1.07V58.69c0-.79.35-1.18,1-1.18h4.24c.72,0,1.08.39,1.08,1.18v4ZM148.8,82.13c0,.77-.36,1.16-1.08,1.16H143.4c-.69,0-1-.39-1-1.16V76.36a8.2,8.2,0,0,1,1-4,1.09,1.09,0,0,1,1.07-.57h3.34c.66,0,1,.32,1,1Zm12,0c0,.77-.34,1.16-1,1.16h-4.33c-.72,0-1.08-.39-1.08-1.16V70.32a2,2,0,0,0-1.6-2.09,13.4,13.4,0,0,0-3-.21q-2.48,0-6.84.21c-.69,0-1-.28-1-1v-3a1,1,0,0,1,.9-1.16,54.61,54.61,0,0,1,9-.52c3.29,0,5.64.57,7.05,1.73s1.94,2.88,1.94,5.36ZM139.18,76.4q0,3.6-2,5.28-2.22,1.78-7.06,1.78a37.89,37.89,0,0,1-7.79-.59c-.69-.19-1-.57-1-1.15v-2.8c0-.69.36-1,1.08-1q2.39.16,6.31.17a12.06,12.06,0,0,0,3.21-.26c.66-.22,1-.8,1-1.73V69a1.25,1.25,0,0,0-.87-1.25,6.82,6.82,0,0,0-2.06-.21c-1,0-1.86,0-2.52.08v3.11c0,.08.19.12.47.12h1.43a.77.77,0,0,1,.87.87v2.47c0,.69-.52,1-1.56,1h-5.32a3.65,3.65,0,0,1-1.42-.17c-.41-.19-.61-.68-.61-1.47V64.35a1.07,1.07,0,0,1,1-1.12,32.62,32.62,0,0,1,7.39-.7q6.41,0,8,1.71a7.48,7.48,0,0,1,1.56,5.18Zm-21.33-2.72c0,.79-.36,1.18-1.08,1.18h-4.32c-.69,0-1-.39-1-1.18v-10a.92.92,0,0,1,1-1h4.37c.69,0,1,.4,1,1.2ZM101.92,75V70.87a3.92,3.92,0,0,0-.6-2.6,3.47,3.47,0,0,0-2.46-.63h-.49a3.71,3.71,0,0,0-2.44.54,3.88,3.88,0,0,0-.53,2.52V75A3.65,3.65,0,0,0,96,77.62a3.87,3.87,0,0,0,2.54.6h.24a2.66,2.66,0,0,0,3.1-3.23m5.15-9.77q1.34,2.15,1.33,7.43,0,5.85-1.77,8.25-1.91,2.68-8,2.68h0a23.2,23.2,0,0,1-4.5-.33,6.24,6.24,0,0,1-3.72-2.31q-1.56-2.23-1.56-7.89t1.31-7.79q1.82-2.94,8.47-2.94h0q6.58,0,8.4,2.9"/></svg>