<svg id="Layer_1" data-name="Layer 1" xmlns="http://www.w3.org/2000/svg" viewBox="0 0 258.78 130"><defs><style>.cls-1{fill:#fff;}.cls-2{fill:#2f2e41;}</style></defs><polygon class="cls-1" points="255.02 65 129.39 127.82 3.76 65 129.21 2.18 254.84 64.73 255.02 65"/><polygon class="cls-2" points="243.31 65 129.39 121.78 15.29 65 128.95 8.13 243.13 64.73 243.31 65"/><path class="cls-1" d="M146.42,42.64c-1.95,11.62-4.43,23.16-6.83,34.69-.8,1-1.42,2.13-2.75,2.31-1.77.18-2.93-1.07-3.64-2.57-1.95-4.79-2.92-10-4.88-14.91-1.86,5.41-3.1,11.45-5.32,16.86-.71,1.06-2.13,1-3.19.62-1.87-1.24-.89-3.9-.89-5.77l5.77-24.49a3.08,3.08,0,0,1,4.25-1.24c3.73,5.06,4,11.63,6.39,17.21,2.31-7.27,4-15.26,5.95-23,.62-.63,1-1.69,1.95-1.87C144.83,39.8,146.16,41.4,146.42,42.64Z"/><path class="cls-1" d="M76,49.38c5.23,5.59,2.57,15,0,20.94-1.86,3.82-5.86,7.72-10,8.52a9,9,0,0,1-5.76-1.33c-4.71-3.37-5.06-9.58-4.26-14.91,1.33-6.38,5.23-13.75,12.15-15.7C71.19,46.63,73.94,47,76,49.38Z"/><path class="cls-1" d="M106.85,53c3.2,7.1.89,16.06-3.9,21.92l-7.19,6.65a2.9,2.9,0,0,1-3.19-1.51v-2c5-5.06,10.47-11.27,8.52-19.16-.62-1.87-2-4-4.08-4.62-4.53-1.24-7.9,1.69-11.27,4a2.8,2.8,0,0,1-3.37-1.69c-.54-3.73,3.72-5.41,6.12-7C94,46.55,103.3,46.55,106.85,53Z"/><path class="cls-1" d="M179.87,52.84a11.17,11.17,0,0,1-1.51,10.65,20.58,20.58,0,0,1-7.45,5.06A10.77,10.77,0,0,1,170.29,79a3.35,3.35,0,0,1-3.81,1.06c-1.69-.88-2-2.92-1.51-4.7a5.58,5.58,0,0,0,.8-3.81c-1.25-2-4.35-.36-4.88-3.2.26-6.12,7.63-2.93,10.47-6.83,1.33-1.51,3-3.2,2.3-5.32a3.29,3.29,0,0,0-2.75-2.13c-4.17-.89-7.27,2-10.47,4.08a2.61,2.61,0,0,1-3.37-1.69c-.35-3.55,3.73-5.41,6-7.09C168.07,46.72,176.94,46.55,179.87,52.84Z"/><path class="cls-1" d="M202.23,52.22c4.7,9.14-2,18.37-4.88,26.8-.71,1.33-2.22,1.15-3.19.89-1.69-1.07-1.42-3.2-1.07-4.71,1.42-6.38,6-12.42,3.37-19.43a5,5,0,0,0-4.08-1.68c-3.81-.8-7.1,7.1-9.93,1.51-.45-2.76,2.39-4.53,4.25-6,2.84-2.13,7.1-2.31,10.65-1.51A10.81,10.81,0,0,1,202.23,52.22Z"/><path class="cls-1" d="M118.12,48.76a5.93,5.93,0,0,1,1.07,2.4c-1.25,5.59-2.49,11.44-4.71,16.59a2.45,2.45,0,0,1-3.19.44c-1.69-2.13-.44-5.23-.44-7.71,1.68-4.09-.18-9.94,4.08-12.52A4.09,4.09,0,0,1,118.12,48.76Z"/><path class="cls-1" d="M155.39,50.27a96.92,96.92,0,0,1-4.09,16.86c-.71,1.06-2.3,2-3.63,1.06-1.25-1.5-1.16-3.72-.8-5.59l2.3-12.77C150.33,47.08,154.5,47.52,155.39,50.27Z"/><path class="cls-2" d="M71.72,54.53a17.94,17.94,0,0,1-5.59,17.92c-1.69,1-3.64-.8-3.82-2.39-.7-6.75,1-13.93,7-17.22C70.39,52.67,71.19,53.73,71.72,54.53Z"/><path class="cls-1" d="M90.62,64.56v3.81l-4.7,22.8a3.76,3.76,0,0,1-2.49,2.13A3.44,3.44,0,0,1,80,91.17V87.54l5.59-23.25a3.71,3.71,0,0,1,2.13-1.69A2.9,2.9,0,0,1,90.62,64.56Z"/></svg>