<svg id="Layer_1" data-name="Layer 1" xmlns="http://www.w3.org/2000/svg" viewBox="0 0 258.78 130"><defs><style>.cls-1{fill:#2f2e41;}</style></defs><path class="cls-1" d="M194,72.26h5.47a6.26,6.26,0,0,1,2.4-2.87,13.85,13.85,0,0,1,3.77-1.19,32.37,32.37,0,0,1,6-.46h14.17q7.89,0,9.22,4.52h5.4a10,10,0,0,0-3.57-7q-3.72-3-11.05-3H212q-11,0-15,4H197A12.72,12.72,0,0,0,194,72.26Z"/><path class="cls-1" d="M139.15,72.26h5.43a6.15,6.15,0,0,1,2.4-2.87,13.65,13.65,0,0,1,3.8-1.19,32.87,32.87,0,0,1,6-.46h14.1a20.27,20.27,0,0,1,3.9.33,12.31,12.31,0,0,1,2.79.86,4.54,4.54,0,0,1,2.13,2.18,6.47,6.47,0,0,1,.39,1.15h5.42a10.09,10.09,0,0,0-3.58-7q-3.71-3-11.05-3H157.2q-11.08,0-15.08,4h.07A12.67,12.67,0,0,0,139.15,72.26Z"/><path class="cls-1" d="M90.69,72.06a4.16,4.16,0,0,1,1.66-2.87,6.74,6.74,0,0,1,2.14-.86A14.4,14.4,0,0,1,97.86,68h20.07a15.27,15.27,0,0,1,6.69,1.13,4.31,4.31,0,0,1,2.16,2.15,6,6,0,0,1,.31.78h5.47q-1.4-9.54-13.85-9.55H98c-7.78,0-12,3.19-12.67,9.55Z"/><path class="cls-1" d="M241.24,91.88s0-.07-.06-.07H237a.53.53,0,0,0-.59.6v.19c0,2.74-.89,4.53-2.69,5.36a16,16,0,0,1-6.88,1.13H211.54q-8.07,0-10.36-2.64a9.27,9.27,0,0,1-1.41-4,42.75,42.75,0,0,1-.49-7.18q0-4,.06-6.65v0H194.1c0,.9-.07,1.84-.07,2.83a89.38,89.38,0,0,0,.59,12.91,13,13,0,0,0,1.74,4.6,11,11,0,0,0,3,3.14,14.54,14.54,0,0,0,5.15,1.82,42,42,0,0,0,7.44.56h14.88c4.73,0,8.24-.77,10.56-2.31q4.2-3,4.2-9.73a.44.44,0,0,0-.07-.27Z"/><path class="cls-1" d="M186.3,84.07a.24.24,0,0,0-.13-.07H162.36a.59.59,0,0,0-.66.66v4.11a.58.58,0,0,0,.66.66h18.82a21,21,0,0,1-.46,4.87,6.89,6.89,0,0,1-1.24,2.81c-1.19,1.32-3.72,2-7.61,2H156.66q-8.07,0-10.37-2.64-2-2.52-2-11.19,0-4.08.09-6.67h-5.21c0,.9-.06,1.84-.06,2.83q0,4.9.13,8.08a44.71,44.71,0,0,0,.39,4.83,12.64,12.64,0,0,0,1.78,4.6,11.23,11.23,0,0,0,3.08,3.14,14.47,14.47,0,0,0,5.15,1.82,42,42,0,0,0,7.44.56h14.75a30,30,0,0,0,6.1-.53,11.46,11.46,0,0,0,4.2-1.65,10.24,10.24,0,0,0,4-6.88,34.07,34.07,0,0,0,.39-4.11c.09-1.81.13-4,.13-6.62,0-.13,0-.22-.07-.26Z"/><path class="cls-1" d="M127,82.28a22.35,22.35,0,0,0-5.5-1.51,48.36,48.36,0,0,0-7.74-.54h-1.44c-.62,0-1.32,0-2.1.07h-.86a3.91,3.91,0,0,0-.49,0,3.29,3.29,0,0,1-.42,0c-1.28,0-2.37.06-3.28.06h-2q-6.22,0-9.25-1.26a8.55,8.55,0,0,1-1.13-.58h-7a9.07,9.07,0,0,0,4.83,5.22q4.13,2,12.53,2h1.71c.69,0,1.5,0,2.42-.07H108l.46,0a1.65,1.65,0,0,1,.33,0H111c.79,0,1.46-.05,2-.05h1.58a49.25,49.25,0,0,1,5.5.26,12.47,12.47,0,0,1,3.81.93,5.42,5.42,0,0,1,3.6,5.49,9.39,9.39,0,0,1-.52,3.31,4.25,4.25,0,0,1-1.84,2.18,8.26,8.26,0,0,1-2.49.93A18.58,18.58,0,0,1,119,99H100.13a22.19,22.19,0,0,1-4-.33,10.49,10.49,0,0,1-2.75-.87,4.35,4.35,0,0,1-2.16-2.11,8.61,8.61,0,0,1-.73-3.38.52.52,0,0,0-.59-.59H85.78c-.36,0-.53.19-.53.59q0,6.09,4,9.27,3.41,2.83,9.57,2.84h20.33a27.64,27.64,0,0,0,6-.56,9.88,9.88,0,0,0,4.1-1.82c2.36-2,3.54-5.2,3.54-9.66Q132.79,85.2,127,82.28Z"/><path class="cls-1" d="M51.33,9.84V41.93L17.14,62.73v-37L48.92,7.06C49.76,6.67,51.45,6.18,51.33,9.84Z"/><path class="cls-1" d="M44,80,19.27,64.86,46.79,48.13s0,22.62,0,30.82C46.78,80.42,46.25,81.26,44,80Z"/><path class="cls-1" d="M44.22,120.16V88.08L78.41,67.27v37.05L46.63,122.94C45.8,123.33,44.1,123.82,44.22,120.16Z"/><path class="cls-1" d="M51.6,50,76.28,65.14,48.76,81.87s0-22.62,0-30.82C48.77,49.58,49.31,48.74,51.6,50Z"/></svg>