<svg id="Layer_1" data-name="Layer 1" xmlns="http://www.w3.org/2000/svg" viewBox="0 0 258.78 130"><defs><style>.cls-1{fill:#2f2e41;}</style></defs><path id="path2508" class="cls-1" d="M208.37,65c0-5.52-.84-7.74-6.21-7.74-4.29,0-5.52,1.23-5.52,7.74,0,5.87,0,9.27,5.52,9.27,6.21,0,6.21-3.11,6.21-9.27m-60.79-7.74c-5.38,0-5.72,1.13-5.72,5.72h11.59c0-5.33-.79-5.72-5.87-5.72M180.81,65c0-5.52-.74-7.74-6.11-7.74-4.29,0-5.53,1.23-5.53,7.74,0,5.87-.14,9.27,5.53,9.27,6.36,0,6.11-3.11,6.11-9.27m64.66-23.22H187.12V78.7h-6.21l.25-3.9H181c-1.58,3.4-4.44,4.19-8.09,4.19-9.61,0-9.91-6.06-9.91-14,0-7.59,1-12.47,9.91-12.47,3.16,0,6.46.59,7.79,3.74h.25V41.77H148.46a5.2,5.2,0,0,0-4.75,3.38l-2.88,8.33a19.14,19.14,0,0,1,6.75-1c10.65,0,12.08,3.1,12.08,14.39h-17.8c0,5.57.15,7.35,5.72,7.35,3.45,0,5.87,0,5.87-3.8h6.21c0,8.14-4.68,8.53-12.08,8.53-9,0-11.51-2.64-11.88-10.69l-6,17.44s-1.17,3.39,2.41,3.39h63.08c-2.44-1.12-3.87-3.37-3.65-7.77h5.82c0,3.55,1.33,4.09,4.83,4.09,5.28,0,6.41-1.08,6.41-5.52V75h-.15c-1.62,3.4-4.93,4-8.08,4-8.88,0-9.91-4.88-9.91-12.47,0-7.94.29-14,9.91-14,3.65,0,6.5.78,8.08,4.19h.2l-.25-3.9h6.22V78.65c0,6-1.26,9.07-4.69,10.48h19.19a5.2,5.2,0,0,0,4.75-3.39l2.48-7.18a33.08,33.08,0,0,1-6.5.43c-9.91,0-11.93-3.15-11.93-13.16,0-9.27,1.48-13.31,11.93-13.31,9.2,0,11.51,2.32,12,10.22l6.08-17.59s1.17-3.38-2.41-3.38M224.1,63h11.59c0-5.33-.79-5.72-5.87-5.72-5.37,0-5.72,1.13-5.72,5.72m11.59,7.49h3.44l1.22-3.55H224.1c0,5.57.15,7.35,5.72,7.35,3.45,0,5.87,0,5.87-3.8"/><path id="path2512" class="cls-1" d="M36.94,59.86c0-7.25-6.06-7.34-11.14-7.34-6.66,0-11.79.14-11.79,7.24,0,6.61,1.73,7.89,11.25,8,6.26.1,6.41,1.23,6.41,3.5,0,3.55-2.17,3.45-5.87,3.45-4.59,0-5.47-.44-5.57-4.19H14C14,79,18.75,79,25.8,79c6.56,0,12.08-.69,12.08-7.69,0-8.38-5.42-7.94-11.54-8.23-5.42-.25-6.11-.35-6.11-2.91,0-3.4,2.27-3.4,5.57-3.4s4.93,0,4.93,3.1Zm16.81-7.34c-10.79,0-12.17,3.2-12.17,13.26S43,79,53.75,79s12.18-3.2,12.18-13.21S64.55,52.52,53.75,52.52m0,4.73c5.53,0,6,1.58,6,8.58s-.44,8.43-6,8.43-6-1.53-6-8.43.44-8.58,6-8.58M77.42,41.72H71.21v37h6.21ZM94.53,67.06c3.06,0,5.72.1,5.72,3.7s-2.42,4-5.72,4c-4.19,0-5.67-.34-5.67-4s2.51-3.7,5.67-3.7m5.72,11.64h6.21V62.48c0-8.68-3.45-10-11.73-10-5.92,0-11.1.29-11.1,7.84h6.22c0-3.36,2.17-3.6,4.88-3.6,5.17,0,5.52,1.48,5.52,5.67v3.35h-.2c-1.48-2.91-4.58-3-7.74-3-6.41,0-9.66,1.73-9.66,7.94,0,7,3.79,8.23,9.66,8.23,3,0,6.81-.1,8-3.55h.14Zm11.93-25.89V78.7h6.21v-16c-.1-3.35,1-5.47,4.69-5.47,2.91,0,3.15,1.53,3.15,4.14v1.33h5.82V60.65c0-4.88-1.33-8.13-6.8-8.13-3,0-5.67.83-6.91,3.69h-.24l.14-3.4Z"/></svg>