<svg id="Layer_1" data-name="Layer 1" xmlns="http://www.w3.org/2000/svg" viewBox="0 0 258.78 130"><defs><style>.cls-1{fill:#2f2e41;}</style></defs><path class="cls-1" d="M42.66,85.48a15.74,15.74,0,0,1-1.23,6.62,11.31,11.31,0,0,1-3.21,4.23,12.18,12.18,0,0,1-4.43,2.26,16.59,16.59,0,0,1-4.92.6,17.88,17.88,0,0,1-4.95-.56,11.64,11.64,0,0,1-4.48-2.22,11.41,11.41,0,0,1-3.21-4.27A16,16,0,0,1,15,85.48V51.57H5.89V83a23.73,23.73,0,0,0,1.5,8.68,17.52,17.52,0,0,0,4.44,6.54,20.47,20.47,0,0,0,7.1,4.16,28.82,28.82,0,0,0,9.55,1.46q11.33,0,17.31-5.58t6-15.26V51.57H42.66Z"/><polygon class="cls-1" points="75.78 104.02 100.34 51.57 94.47 51.57 75.94 91.03 66.49 64.32 56.61 64.32 71.98 104.02 75.78 104.02"/><rect class="cls-1" x="100.02" y="64" width="9.12" height="39.78"/><path class="cls-1" d="M129,100.38a25.83,25.83,0,0,1-6.61-.48,16.36,16.36,0,0,1-5.75-2.69l.72,5.38a39.73,39.73,0,0,0,6.38,1.35,59.17,59.17,0,0,0,6.13.48,23.09,23.09,0,0,0,5.48-.68,16.36,16.36,0,0,0,5-2.09,11.43,11.43,0,0,0,3.6-3.69,10,10,0,0,0,1.39-5.35,9.33,9.33,0,0,0-1.11-4.71,11.11,11.11,0,0,0-2.89-3.33,19.05,19.05,0,0,0-4-2.38q-2.22-1-4.44-1.86l-3.37-1.39a15.47,15.47,0,0,1-2.89-1.55,8.23,8.23,0,0,1-2-1.9A4,4,0,0,1,123.8,73a3.87,3.87,0,0,1,.72-2.34A6.09,6.09,0,0,1,126.34,69a9.1,9.1,0,0,1,2.58-1,12.9,12.9,0,0,1,3-.35,35.09,35.09,0,0,1,4.52.67,18.26,18.26,0,0,1,3.32,1.07,15.67,15.67,0,0,1,2.5,1.35c.71.47,1.39,1,2,1.42,0-.79,0-1.57,0-2.33a15.69,15.69,0,0,0-.19-2.74q-1.59-.95-2.94-1.62a14.08,14.08,0,0,0-2.85-1.07,19.81,19.81,0,0,0-3.25-.56c-1.16-.1-2.48-.16-4-.16a20.51,20.51,0,0,0-5.47.72A14.91,14.91,0,0,0,121,66.5a10.91,10.91,0,0,0-3.21,3.36,8.53,8.53,0,0,0-1.19,4.44,10.08,10.08,0,0,0,1.12,5,10.78,10.78,0,0,0,2.89,3.4,17.3,17.3,0,0,0,4,2.34c1.48.64,3,1.22,4.52,1.75,1.16.42,2.27.84,3.32,1.26a14.93,14.93,0,0,1,2.82,1.47,7.66,7.66,0,0,1,2,1.9,4.27,4.27,0,0,1,.75,2.5,5.31,5.31,0,0,1-.71,2.77,6.25,6.25,0,0,1-2,2,9.78,9.78,0,0,1-2.9,1.27,13.2,13.2,0,0,1-3.45.44"/><rect class="cls-1" x="152.33" y="64" width="9.11" height="39.78"/><path class="cls-1" d="M187.77,64.32A23.62,23.62,0,0,0,178.42,66a17.84,17.84,0,0,0-6.34,4.4,17.58,17.58,0,0,0-3.65,6.3,24.72,24.72,0,0,0-1.27,7.45,27.4,27.4,0,0,0,1.35,7.53,17.7,17.7,0,0,0,3.64,6.3,17.11,17.11,0,0,0,6.31,4.32,24.33,24.33,0,0,0,9.31,1.58,22.4,22.4,0,0,0,8.91-1.58,16.39,16.39,0,0,0,9.59-10.5,28.43,28.43,0,0,0,1.31-7.65,26.81,26.81,0,0,0-1.35-7.45,18.3,18.3,0,0,0-3.56-6.3,17.62,17.62,0,0,0-6-4.4,21.33,21.33,0,0,0-8.88-1.66M176.28,85.48V82.7a23.4,23.4,0,0,1,.79-6.61,10.55,10.55,0,0,1,2.26-4.24,8.13,8.13,0,0,1,3.52-2.26,13.17,13.17,0,0,1,4.52-.6,13.92,13.92,0,0,1,4.52.56,7.88,7.88,0,0,1,3.53,2.22,10.58,10.58,0,0,1,2.25,4.28,23.76,23.76,0,0,1,.8,6.65v2.78a23.89,23.89,0,0,1-.8,6.66,10.54,10.54,0,0,1-2.25,4.27,7.88,7.88,0,0,1-3.53,2.22,13.92,13.92,0,0,1-4.52.56,13.17,13.17,0,0,1-4.52-.6,8.13,8.13,0,0,1-3.52-2.26,10.51,10.51,0,0,1-2.26-4.23,23.47,23.47,0,0,1-.79-6.62"/><path class="cls-1" d="M243.78,82.94v20.84h9.11V85.4a32.53,32.53,0,0,0-1.07-8.68,16.6,16.6,0,0,0-3.41-6.54A15.36,15.36,0,0,0,242.35,66a24.72,24.72,0,0,0-9-1.46q-9.59,0-14.7,5.58T213.5,85.4v18.38h9.11V82.94a23.89,23.89,0,0,1,.8-6.66A10.43,10.43,0,0,1,225.67,72a7.79,7.79,0,0,1,3.52-2.22,13.68,13.68,0,0,1,4.52-.56,11.9,11.9,0,0,1,4.36.6,7,7,0,0,1,3.17,2.26,10.63,10.63,0,0,1,1.9,4.23,29.23,29.23,0,0,1,.64,6.62"/><polygon class="cls-1" points="156.31 57.66 212.56 25.58 158.94 47.45 143.72 39.88 156.31 57.66"/></svg>