<svg id="Layer_1" data-name="Layer 1" xmlns="http://www.w3.org/2000/svg" viewBox="0 0 258.78 130"><defs><style>.cls-1{fill:#2f2e41;}</style></defs><path class="cls-1" d="M152.4,74c7.14,4.55,9.61,9.36,8.4,16.18-1.31,7.39-6.71,12-15.22,12.36-8.29.32-16.61.06-24.91.11-1.89,0-2.6-.8-2.6-2.64q0-23.89,0-47.79c0-1.42.35-2.56,2.07-2.55,8.6,0,17.21-.52,25.78.27,5.61.51,10.53,2.69,12.18,8.84C159.82,65.17,158.12,70.38,152.4,74ZM137.52,94.85c2.51-.19,5.66.42,8.73-.51,3.58-1.08,5.46-4,5.26-8.12a7,7,0,0,0-6.18-7c-5.15-.87-10.34-.31-15.51-.46-1.67,0-2.2.85-2.19,2.38,0,3.71.05,7.43,0,11.14,0,1.84.65,2.71,2.57,2.64C132.43,94.79,134.68,94.85,137.52,94.85ZM136.82,58h-7a1.88,1.88,0,0,0-2.14,2.14c0,3.22,0,6.44,0,9.65,0,1.27.5,2.05,1.88,2.05,4.48,0,9,.2,13.44-.1,4-.28,6.39-3.68,6.16-7.86-.22-4-2.24-5.8-6.78-5.89C140.52,58,138.67,58,136.82,58Z"/><path class="cls-1" d="M250.32,88.75c0,3.61,0,7.23,0,10.85,0,1.51.07,3.08-2.13,3.06-1.81,0-4,.52-4.35-2.17-.39-3.1-1.34-2.66-3.34-1-11,9-28.29,4.63-34.42-9.11C201,79,201.6,67.62,209.19,57.29c9.61-13.08,32.36-11.26,39.05,3a18.48,18.48,0,0,1,.78,1.9c1.35,3.93.83,4.5-3.25,4.72-3.15.18-5.06-.5-6.39-3.84-1.91-4.79-6.48-6.41-11.27-6.54-5.35-.15-9.92,2.06-12.42,6.9-4.62,9-4.58,18.09.69,26.82,2.84,4.71,9.06,6.75,15.05,5.49s8.89-4.59,10.13-10.72c.48-2.38-.34-3-2.5-2.91-2.73.08-5.47-.06-8.21,0s-2.55-1.8-2.53-3.59-.31-3.68,2.47-3.66q8.51.08,17,0c1.94,0,2.56.91,2.53,2.71C250.28,81.31,250.32,85,250.32,88.75Z"/><path class="cls-1" d="M71.91,43.28a18,18,0,0,1-2.44,7.1c-3.94,7-8,13.84-12,20.79-1.08,1.9-1.84,2-2.94,0q-6-10.57-12.08-21.08c-3.41-5.86-2.73-11.29,1.26-16.61A61.63,61.63,0,0,1,54.35,22.68c.9-.72,1.76-1.23,2.85-.33,5.39,4.41,10.51,9.06,13.62,15.47A11.18,11.18,0,0,1,71.91,43.28Z"/><path class="cls-1" d="M37.87,77.8c4.3,0,8.61,0,12.91,0,2,0,2.45.79,1.45,2.49-4.47,7.58-8.52,15.4-13.49,22.68-2.94,4.32-7.22,5.86-12.21,5.51a57,57,0,0,1-16.19-3.89c-1.18-.45-2.11-1-1.85-2.53,1-6,2.4-11.85,5.37-17.25,2.68-4.88,6.83-7,12.28-7,3.91,0,7.82,0,11.73,0Z"/><path class="cls-1" d="M84.9,108.53c-5-.14-9-1.58-11.76-5.76C68.26,95.46,64.2,87.66,59.7,80.13c-1-1.58-.57-2.34,1.31-2.33,8.79,0,17.57-.09,26.36.09A11.71,11.71,0,0,1,97.71,84c3.24,5.47,4.7,11.52,5.82,17.68a2.25,2.25,0,0,1-1.56,2.76A58.59,58.59,0,0,1,84.9,108.53Z"/><path class="cls-1" d="M74.28,74.44c-3.81,0-7.63,0-11.44,0-2.64,0-3-.63-1.6-3C65,65.16,68.76,58.9,72.43,52.56,75.85,46.66,80.81,44,87.6,45a91.39,91.39,0,0,1,12.86,2.84c1.91.58,2.78,1.75,2.39,3.72-1.14,5.67-2.58,11.24-5.59,16.28-2.75,4.6-7.14,6.19-12.12,6.47-3.61.19-7.24,0-10.86,0Z"/><path class="cls-1" d="M37.91,74.41c-3.71,0-7.42.07-11.13,0C20.73,74.24,16,71.84,13.54,66A69.47,69.47,0,0,1,8.87,51.89c-.3-1.63.12-2.64,1.71-3.18,5.36-1.83,10.78-3.39,16.51-3.62a12.09,12.09,0,0,1,11,5.57c4.76,6.91,8.77,14.29,13,21.52,1.13,1.91.41,2.31-1.47,2.28-3.9-.07-7.81,0-11.71,0Z"/><path class="cls-1" d="M40.69,109.86a26.28,26.28,0,0,1,3.37-8.68Q49.28,92,54.61,83c.56-1,1.23-2.57,2.4-.59,4.66,7.88,9.64,15.58,13.22,24.07a9.35,9.35,0,0,1-.41,8.18c-3,6.08-7.71,10.71-12.93,14.88a1.71,1.71,0,0,1-2.4,0c-5.74-5.15-11.45-10.34-13.56-18.2A13.47,13.47,0,0,1,40.69,109.86Z"/><path class="cls-1" d="M187,80.59c0,6.26-.06,12.52,0,18.77,0,2.3-.61,3.35-3.12,3.37-6.09,0-6.09.16-6.09-6v-34c0-4.59,0-4.59-4.75-4.59-3,0-6.06-.05-9.09,0-1.72,0-2.53-.75-2.48-2.47,0-.68,0-1.37,0-2,0-3.87.08-4,3.92-4q17.16,0,34.31,0c3.59,0,3.63.08,3.63,4.23s-.05,4.23-3.63,4.25c-3.23,0-6.45.1-9.68,0-2.3-.09-3.1.83-3.07,3.1C187.09,67.69,187,74.14,187,80.59Z"/></svg>