<svg id="Layer_1" data-name="Layer 1" xmlns="http://www.w3.org/2000/svg" viewBox="0 0 258.78 130"><defs><style>.cls-1{fill:#2f2e41;}.cls-2{fill:#fff;}</style></defs><g id="Layer_2" data-name="Layer 2"><g id="Layer_1-2" data-name="Layer 1-2"><path class="cls-1" d="M50.37,66.05a1.5,1.5,0,0,1-1.5,1.5H47.08a1.51,1.51,0,0,1-1.5-1.5V52.71H36.94a1.53,1.53,0,0,1-1.51-1.51V49.33a1.51,1.51,0,0,1,1.51-1.53H47.43a2.94,2.94,0,0,1,2.94,2.94V66.05Zm-11.66,1.5H37a1.52,1.52,0,0,1-1.54-1.5v-8.3A1.53,1.53,0,0,1,37,56.24h1.74a1.55,1.55,0,0,1,1.54,1.51v8.3a1.52,1.52,0,0,1-1.54,1.5"/><path class="cls-1" d="M63.89,67.56H62.15a1.53,1.53,0,0,1-1.54-1.51V52.71h-7a1.51,1.51,0,0,1-1.5-1.51V49.33a1.52,1.52,0,0,1,1.48-1.56H62.5a3,3,0,0,1,2.94,2.95V66.05a1.51,1.51,0,0,1-1.5,1.51h0"/><path class="cls-1" d="M80.55,67.56H68.29a1.53,1.53,0,0,1-1.51-1.51V64.17a1.52,1.52,0,0,1,1.51-1.53h7V52.71H68.39a1.56,1.56,0,0,1-1.51-1.54V49.33a1.53,1.53,0,0,1,1.51-1.54h8.74a3,3,0,0,1,3,3v11.9h.75a1.16,1.16,0,0,1,1.18,1.16v2.25a1.53,1.53,0,0,1-1.5,1.51"/><path class="cls-1" d="M98.94,52.71h-.75V66.05a1.54,1.54,0,0,1-1.57,1.51H94.89a1.55,1.55,0,0,1-1.54-1.51V52.71H88.91V66.05a1.54,1.54,0,0,1-1.55,1.51H85.62a1.53,1.53,0,0,1-1.54-1.51V52.71h-.75a1.18,1.18,0,0,1-1.2-1.17V49.33a1.52,1.52,0,0,1,1.5-1.53h15a1.51,1.51,0,0,1,1.5,1.53v2.26a1.18,1.18,0,0,1-1.21,1.12"/><path class="cls-1" d="M116.48,66.05a1.5,1.5,0,0,1-1.5,1.5H113.2a1.5,1.5,0,0,1-1.5-1.5V52.71h-8.65a1.53,1.53,0,0,1-1.51-1.51V49.33a1.53,1.53,0,0,1,1.51-1.53h10.49a2.94,2.94,0,0,1,2.94,2.93V66.05Zm-11.65,1.5h-1.75a1.53,1.53,0,0,1-1.54-1.5v-8.3a1.54,1.54,0,0,1,1.54-1.51h1.75a1.55,1.55,0,0,1,1.53,1.51v8.3a1.52,1.52,0,0,1-1.53,1.5"/><path class="cls-1" d="M32.19,91.89a1.5,1.5,0,0,1-1.51,1.5H28.91a1.52,1.52,0,0,1-1.54-1.5h0V78.53H22.76V90.42a3,3,0,0,1-3,2.94H16.67a1.32,1.32,0,0,1-1.33-1.3V89.61a1.18,1.18,0,0,1,1.18-1.19H18V78.53H16.71a1.18,1.18,0,0,1-1.2-1.17h0V75.11A1.53,1.53,0,0,1,17,73.57H29.25a2.94,2.94,0,0,1,2.94,3V91.89Z"/><path class="cls-1" d="M39.9,83.89H38.14a1.54,1.54,0,0,1-1.53-1.5V78.53H35a1.19,1.19,0,0,1-1.19-1.17V75.11a1.52,1.52,0,0,1,1.5-1.54h3.55a2.54,2.54,0,0,1,2.56,2.51v6.33a1.5,1.5,0,0,1-1.5,1.5h0"/><path class="cls-1" d="M53.17,76.37c0,1.3-.58,1.45-1.6,1.93a3.13,3.13,0,0,0-1.78,4.1,33.58,33.58,0,0,1,1.41,3.9c.41,1.84.64,7-2.42,7h-1a1.63,1.63,0,0,1-1.67-2.09c.79-2.83.34-4.3-.72-6.75a5.83,5.83,0,0,1,.14-6h-1a1.75,1.75,0,0,1-1.77-1.74h0V75.31a1.74,1.74,0,0,1,1.72-1.75h7a1.77,1.77,0,0,1,1.77,1.75Z"/><path class="cls-1" d="M62.12,93.36H55.63a1.51,1.51,0,0,1-1.5-1.51V90a1.51,1.51,0,0,1,1.5-1.53h6.53a.84.84,0,0,0,.82-.82V78.53H55.63A1.51,1.51,0,0,1,54.13,77V75.09a1.51,1.51,0,0,1,1.5-1.53H64.8a2.94,2.94,0,0,1,2.93,2.94V87.74a5.58,5.58,0,0,1-5.57,5.6h0"/><path class="cls-1" d="M80.46,93.36H78.71a1.53,1.53,0,0,1-1.53-1.51V78.53h-7A1.53,1.53,0,0,1,68.63,77V75.09a1.53,1.53,0,0,1,1.51-1.53h8.91a3,3,0,0,1,3,3V91.84a1.51,1.51,0,0,1-1.51,1.5h0"/><path class="cls-1" d="M95.9,93.72H93.3A1.29,1.29,0,0,1,92,92.43h0V90a1.19,1.19,0,0,1,1.18-1.2h1.58a.22.22,0,0,0,.21-.2V80.09a1.8,1.8,0,0,0-1.85-1.67C91.6,78.32,90,79,90,80.91V92a1.69,1.69,0,0,1-1.67,1.71H86.94A1.76,1.76,0,0,1,85.13,92V78.86h-.64a1.18,1.18,0,0,1-1.2-1.16V75.24a1.3,1.3,0,0,1,1.3-1.3h2.22a3.7,3.7,0,0,1,2.15.72,8.69,8.69,0,0,1,4.92-1.06c3.08.34,6.15,2.53,6.15,5.85V89.63a4.12,4.12,0,0,1-4.13,4.1"/><path class="cls-1" d="M116.48,91.85A1.52,1.52,0,0,1,115,93.36H113.2a1.51,1.51,0,0,1-1.5-1.51V78.53h-8.65A1.53,1.53,0,0,1,101.54,77V75.09a1.52,1.52,0,0,1,1.51-1.53h10.49a2.94,2.94,0,0,1,2.94,2.94V91.85Zm-11.65,1.51h-1.75a1.53,1.53,0,0,1-1.54-1.51v-8.3A1.54,1.54,0,0,1,103.08,82h1.75a1.55,1.55,0,0,1,1.53,1.51v8.3a1.52,1.52,0,0,1-1.53,1.51"/><path class="cls-1" d="M17.48,104.27a.73.73,0,0,0-.74-.72H13.37a.27.27,0,0,1-.31-.24v-1.14a.3.3,0,0,1,.32-.28h3.37a2.41,2.41,0,0,1,2.42,2.41v5.44a.3.3,0,0,1-.29.32H17.76a.3.3,0,0,1-.28-.32Zm-3.86.91,1,.07a.31.31,0,0,1,.32.3.17.17,0,0,1,0,.07s-.17,1.51-.17,1.79v2.32a.3.3,0,0,1-.28.32H13.39a.3.3,0,0,1-.29-.32v-2.35c0-.33.18-1.93.18-1.93a.29.29,0,0,1,.29-.29h0"/><path class="cls-1" d="M27,108.73a.92.92,0,0,1-.43,1.23.93.93,0,0,1-.4.09H21.67a.3.3,0,0,1-.3-.29h0v-1.08a.3.3,0,0,1,.32-.28h3.37l-3.28-6a.31.31,0,0,1,.08-.43.36.36,0,0,1,.2-.06h1a.57.57,0,0,1,.57.33l1.2,2.33L26,102.12a.38.38,0,0,1,.39-.27h1.05c.29,0,.48.22.33.48l-2,3.94Z"/><path class="cls-1" d="M30.15,103.1a.32.32,0,0,1-.14-.42h0l.41-.94a.32.32,0,0,1,.42-.12l.52.27h3.58a1.26,1.26,0,0,1,1.27,1.26V109a1,1,0,0,1-1,1.07H30.45a.28.28,0,0,1-.3-.26v-1.09a.31.31,0,0,1,.32-.29h4.07v-4.82H32.46a2.52,2.52,0,0,0-.29,1.45v.27H33a.29.29,0,0,1,.31.27h0v1a.28.28,0,0,1-.27.28H31.28a.64.64,0,0,1-.72-.55v-1a4,4,0,0,1,.33-1.78Z"/><path class="cls-1" d="M42.69,104.27a.73.73,0,0,0-.73-.72H38.58a.29.29,0,0,1-.3-.26v-1.12a.3.3,0,0,1,.32-.28H42a2.41,2.41,0,0,1,2.42,2.41v5.44a.3.3,0,0,1-.29.32H43a.31.31,0,0,1-.29-.32Zm-3.86.91,1,.07a.3.3,0,0,1,.32.29.19.19,0,0,1,0,.08s-.17,1.51-.17,1.79v2.32a.3.3,0,0,1-.28.32H38.63a.3.3,0,0,1-.29-.32v-2.35c0-.33.18-1.93.18-1.93a.28.28,0,0,1,.28-.29h.06"/><path class="cls-1" d="M54.07,103.21a.33.33,0,0,1-.24-.41h0l.24-.92a.32.32,0,0,1,.41-.23h0l2.24.56a.79.79,0,0,1,.66.85v6.68a.29.29,0,0,1-.28.31H56a.3.3,0,0,1-.29-.31v-6.08Z"/><path class="cls-1" d="M69.29,104.27a.73.73,0,0,0-.71-.72H67.52a3.3,3.3,0,0,0-1,2.41,4.58,4.58,0,0,0,1,2.77v.71A.58.58,0,0,1,67,110H65a.29.29,0,0,1-.3-.28h0v-1a.31.31,0,0,1,.31-.28h.71a4.29,4.29,0,0,1-.78-2.48,3.84,3.84,0,0,1,.8-2.48h-.64a.28.28,0,0,1-.3-.27h0v-1.11a.31.31,0,0,1,.31-.28h3.45a2.38,2.38,0,0,1,2.38,2.39v5.47a.3.3,0,0,1-.28.32h-1.1a.3.3,0,0,1-.28-.32Z"/><path class="cls-1" d="M73.37,103.21a.33.33,0,0,1-.24-.41h0l.24-.92a.32.32,0,0,1,.41-.23h0l2.24.56a.79.79,0,0,1,.66.85v6.68a.29.29,0,0,1-.28.31H75.3a.28.28,0,0,1-.28-.3h0v-6.08Z"/><path class="cls-1" d="M83.16,104.27a.73.73,0,0,0-.74-.72h-3.3a.28.28,0,0,1-.3-.25v-1.13a.3.3,0,0,1,.31-.28h3.28a2.41,2.41,0,0,1,2.41,2.41v5.44a.3.3,0,0,1-.28.32h-1.1a.3.3,0,0,1-.28-.32Z"/><path class="cls-1" d="M89.4,107.05l-.62-.6a.31.31,0,0,1,0-.46.12.12,0,0,1,0,0,2.81,2.81,0,0,0,.88-2.39H87.45a.27.27,0,0,1-.3-.26v-1.12a.29.29,0,0,1,.31-.28h2.82a1,1,0,0,1,1,1v.9a4.09,4.09,0,0,1-1.4,3.24.4.4,0,0,1-.52,0"/><path class="cls-1" d="M93.8,110a.27.27,0,0,1-.3-.24v-1.12a.3.3,0,0,1,.31-.28H97a.76.76,0,0,0,.75-.75h0v-3.35a.74.74,0,0,0-.75-.72h-2.9a.29.29,0,0,1-.3-.26v-1.12a.31.31,0,0,1,.32-.29H97a2.38,2.38,0,0,1,2.42,2.35v3.41A2.41,2.41,0,0,1,97,110.07Z"/><path class="cls-1" d="M102.56,103.46l-.73-.66a.33.33,0,0,1,0-.45l.64-.71a.31.31,0,0,1,.43-.07l0,0,.91.81c.92-.48,3.86-1.45,4,1.4l.25,5.11a1,1,0,0,1-.8,1.11h-2.14a.28.28,0,0,1-.3-.27v-1.1a.31.31,0,0,1,.31-.29h1.3l-.2-4.34c-.05-1-1.4-.44-2.09-.15l-.72,5.91a.27.27,0,0,1-.27.27h-1.08c-.23,0-.31-.18-.3-.37Z"/><path class="cls-1" d="M112.29,109.87a.32.32,0,0,1-.18-.42h0l2.41-5.89h-3.67a.48.48,0,0,1-.48-.48V99.41a.3.3,0,0,1,.28-.31h1.1a.29.29,0,0,1,.28.31v2.48h3.52a.9.9,0,0,1,.92.89v0a.93.93,0,0,1-.09.4l-2.64,6.92a.3.3,0,0,1-.37.19l0,0Z"/><path class="cls-1" d="M48.05,109.87a.32.32,0,0,1-.17-.43h0l2.41-5.89H46.61a.48.48,0,0,1-.49-.48V99.41a.31.31,0,0,1,.28-.31h1.1a.3.3,0,0,1,.29.31v2.48h3.53a.9.9,0,0,1,.92.88v0a1.37,1.37,0,0,1-.09.4l-2.64,6.92a.29.29,0,0,1-.38.18l0,0Z"/></g></g><path class="cls-1" d="M153.61,80.34c-2.34,1.93-4.51,3.68-6.37,5.16A52.15,52.15,0,0,1,138.07,56a49,49,0,0,1,.83-9.13c.35-1.85.76-3.45.86-3.78a39.2,39.2,0,0,1,7.48-.82h1.08a52.88,52.88,0,0,0-1.55,12.83,48.81,48.81,0,0,0,6.86,25.29m32.58,25.51c-2.32,2.31-4.56,4.47-6.49,6.27l-11.35-7,5.79-5.1a87.25,87.25,0,0,0,12.07,5.86"/><path class="cls-1" d="M161.24,111.36a6.89,6.89,0,0,0,.65-.54l6.05-5.36,11.35,7.06c-1.82,1.68-3.34,3-4.34,3.77a8.18,8.18,0,0,0-2.08,2.11Zm-32.93-53.8a29,29,0,0,1,1.36-9.15,30.57,30.57,0,0,1,1.22-3.31c1.34,0,4.27-1.05,8.12-1.83A50.63,50.63,0,0,0,137.5,56a52.88,52.88,0,0,0,9.3,29.91c-3.38,2.66-5.72,4.39-6.21,4.83-9.8-14.3-12.28-25.45-12.28-33.13"/><path class="cls-1" d="M160,54.57a36.07,36.07,0,0,1,1.18-9.48,27.22,27.22,0,0,1,14,11.87,7,7,0,0,0-.19,1.75c0,4.07,2.59,14.1,24.18,26.46a39.34,39.34,0,0,0,3.51,2.65,86.05,86.05,0,0,1-7.42,8.68C165,85.36,160,66.2,160,54.58"/><path class="cls-1" d="M196.49,128.11a8,8,0,0,1-4.12,1.12,11.74,11.74,0,0,1-5.79-1.72,15.59,15.59,0,0,1-2.27-1.58,13.25,13.25,0,0,0,1.44-.86c8.5-5.47,29.92-28.78,31.9-30.93a50.43,50.43,0,0,0,10.81,1.26c.83,0,1.56,0,2.16-.07s1-.1,1.52-.17c-7.45,9.09-18.3,22.72-35.68,33m23.42-105.6a29,29,0,0,1,22.33,11.18c5.66,7.25,6,13.82,6,19.78a45.48,45.48,0,0,1-3.2,15.9,6.52,6.52,0,0,0-1.25.78,21.86,21.86,0,0,1-10.65,2.66,25.51,25.51,0,0,1-3.81-.28c1.15-2,5.38-10.61,5.39-20.26a25.53,25.53,0,0,0-6-17c-6.51-7.58-16.85-9.22-23.47-9.35a41.63,41.63,0,0,1,14.69-3.29"/><path class="cls-1" d="M246.74,71.58c-1.06,4.78-1.8,8.3-5.65,10.3a3.37,3.37,0,0,0-.88.41A13.72,13.72,0,0,1,238,83a30.93,30.93,0,0,1-7.24.83c-6.83,0-16.35-2.11-25.3-11.33l7.38-6.12c.19.13,9.43,7,20.24,7a22.42,22.42,0,0,0,10.93-2.74h0a8.52,8.52,0,0,1,.8-.53,3.35,3.35,0,0,1,1.4-.52c.37,0,.56.09.6.92a5.38,5.38,0,0,1-.14,1.13M163,21.05c12.06,0,20.57,5.41,26.5,10a47.34,47.34,0,0,1,6.84,7.1c1.13,1.31,2,1.78,2.26,2.16L188.94,49c-1.7-2.74-13.28-20.23-34.58-20.45h-.56a39.74,39.74,0,0,0-12.26,1.69c1.7-3.81,6.4-6.72,9.85-7.62A69.32,69.32,0,0,1,163,21"/><path class="cls-1" d="M241.66,84.1c-1.29,5.79-3.57,10.14-11,10.69-.59,0-1.31.06-2.13.06-6.17,0-18.5-1.51-28.54-9.74L200,85l-.51-.3a36.4,36.4,0,0,1-4-3.94l9.61-8c9.06,9.37,18.77,11.54,25.72,11.54a31.44,31.44,0,0,0,7.37-.84,14.68,14.68,0,0,0,2.16-.69h0l.1-.06c.28-.12.56-.25.83-.39h.11a.28.28,0,0,1,.28.18,1.43,1.43,0,0,1,.11.61,5.64,5.64,0,0,1-.11.92M129.38,43.41a3,3,0,0,1,.08-.66v0a10.07,10.07,0,0,1,.59-2.08c1.5-3.8,6.46-11.86,23.65-11.87.18,0,.54.07.72.07,11.38.11,19.87,5.54,25.63,10.66a48.89,48.89,0,0,1,6.47,7,33.8,33.8,0,0,1,2,2.9l-11.44,10c-5.87-12.51-17.31-17.2-29.74-17.2-7.87,0-14.64,2.75-16.47,2.73h-.07c-1.25-.08-1.38-.82-1.41-1.49"/><path class="cls-1" d="M148,101.79a4.53,4.53,0,0,1-2.32-.67,13.83,13.83,0,0,1-5.12-5.18,5.42,5.42,0,0,1-.86-2.48,3.11,3.11,0,0,1,1.23-2.37c.53-.48,6-4.47,13-10.29a51.2,51.2,0,0,0,8.21,10.11l-10.57,9.34a5.38,5.38,0,0,1-1,.78l-.38.2h0a4.73,4.73,0,0,1-2.15.55m55.05-64.34a6.27,6.27,0,0,1,1-.77,5.17,5.17,0,0,1,2.58-1.11,5.43,5.43,0,0,1,2.29,1,14,14,0,0,1,5.13,5.19,5.49,5.49,0,0,1,.84,2.48,3.08,3.08,0,0,1-1.21,2.36c-.6.53-8.38,7.06-16,13.44-6.88,5.76-13.62,11.39-14.87,12.45-4.62-4.73-6.38-8.62-7-11.32Z"/><path class="cls-1" d="M160.51,111.2a3.22,3.22,0,0,1-2,.58,4.43,4.43,0,0,1-2.26-.68c-2.92-1.72-5.14-3.86-5.73-5a5.46,5.46,0,0,1-.85-2.49,2.91,2.91,0,0,1,.81-1.93,6.16,6.16,0,0,0,1.45-1l10.55-9.37a65,65,0,0,0,11.19,8.41l-12.15,10.73a5.38,5.38,0,0,1-1,.78M194,81.35a67,67,0,0,1-10.73-8.47C186,70.52,212.88,48.07,214.05,47l.13-.12,0,0a6.17,6.17,0,0,1,2.48-1,4.06,4.06,0,0,1,2,1,18.51,18.51,0,0,1,5,5.65,3.71,3.71,0,0,1,.39,1.69,4.71,4.71,0,0,1-1.73,3.53Z"/><path class="cls-1" d="M154.32,80.45a.27.27,0,0,0,.08-.07l-.35-.42h0A48.42,48.42,0,0,1,147.32,55a49.45,49.45,0,0,1,1.57-12.58,37.34,37.34,0,0,1,11.71,2,42.19,42.19,0,0,0-1.15,10.08c0,11.73,5.15,31.16,35.43,42.35-2.57,2.74-5.46,5.71-8.27,8.51-16.84-6.71-26.68-15.8-32.29-25"/><path class="cls-1" d="M182.28,126a4.36,4.36,0,0,1-1.8-.49,70,70,0,0,1-6.32-3.61,3.09,3.09,0,0,1-.66-.48,1.92,1.92,0,0,1-.63-1.38c0-.77.5-1.88,2.41-3.31,5.36-4.06,24.33-23.21,27.89-28.59A44.91,44.91,0,0,0,217.09,94c-1.35,1.45-6.43,7-12.33,13-6.88,7-14.9,14.81-19.26,17.61-1.45.92-2.31,1.36-3.21,1.36M207.69,26c6.62,0,14,1.89,20.59,9.56a24.91,24.91,0,0,1,5.86,16.67c0,9.79-4.48,18.59-5.4,20.17a36.49,36.49,0,0,1-9.6-3.08A38.39,38.39,0,0,1,213.31,66l9.44-7.8a5.26,5.26,0,0,0,1.93-3.94,4.31,4.31,0,0,0-.45-1.93A19.22,19.22,0,0,0,219,46.48a3.93,3.93,0,0,0-2.37-.84,5.08,5.08,0,0,0-1.76.37,3.38,3.38,0,0,0,.54-1.77,6,6,0,0,0-.92-2.74,14.36,14.36,0,0,0-5.33-5.39,5.06,5.06,0,0,0-2.59-.75,6,6,0,0,0-3.94,1.69l-4.1,3c-.68-1-2.35-3.49-7.39-7.4,3-2.15,9.7-6.59,16.46-6.59"/><path class="cls-2" d="M192.33,130c-4.3,0-7.87-3-8.65-3.64a4,4,0,0,1-1.44.27,5.13,5.13,0,0,1-2.17-.55,73.12,73.12,0,0,1-6.43-3.67,3.13,3.13,0,0,1-1.7-2.61,2.93,2.93,0,0,1,.19-1l-11.58-7a4.89,4.89,0,0,1-1.88.38,6,6,0,0,1-3-.89c-3-1.81-5.24-3.59-6-5a6.22,6.22,0,0,1-1-2.89,3.47,3.47,0,0,1,.17-1.07,6.25,6.25,0,0,1-1,.1,5.42,5.42,0,0,1-2.77-.79,14.74,14.74,0,0,1-5.46-5.54,6.22,6.22,0,0,1-1-2.89,3.83,3.83,0,0,1,1-2.47c-9.8-14.32-12.35-25.63-12.34-33.48a27.59,27.59,0,0,1,2.41-12,1.93,1.93,0,0,1-1-.72,2.54,2.54,0,0,1-.41-1.47,4,4,0,0,1,.1-.84A14,14,0,0,1,132.26,35a20.44,20.44,0,0,1,8.18-5.12c1.81-4.42,6.41-6.76,10.52-8A36.39,36.39,0,0,1,159,20.39l1.87,0c15.07,0,23.92,5.37,30.59,11.47a37.37,37.37,0,0,1,9.36-4.76c7-3.78,13.19-5.2,18.56-5.2,15.72,0,24,12.09,24.06,12.12A29.37,29.37,0,0,1,249,51.85a44.41,44.41,0,0,1-3.43,16.64,2.75,2.75,0,0,1,.75-.13,1.4,1.4,0,0,1,1.08.48,1.94,1.94,0,0,1,.38,1.32,5.8,5.8,0,0,1-.16,1.31c-.64,2.89-1.18,5.46-2.48,7.57a8.94,8.94,0,0,1-2.71,2.8.16.16,0,0,1,0,.07,2.24,2.24,0,0,1,.19,1,4.61,4.61,0,0,1-.13,1.11,16.7,16.7,0,0,1-3.41,7.72,10.68,10.68,0,0,1-5.93,3.33c-7.48,9.1-19.16,22.57-36.26,33.58a8.45,8.45,0,0,1-4.6,1.36ZM185,125.85a17.88,17.88,0,0,0,1.78,1.2,11.38,11.38,0,0,0,5.58,1.72,7.14,7.14,0,0,0,4-1.17c16.3-10.49,27.64-23.25,35.12-32.29l-.71.07c-.6,0-1.34.07-2.18.07a50,50,0,0,1-10.71-1.23c-2.65,2.89-23.44,25.45-31.88,30.88-.37.24-.72.46-1.06.64l.12.1m-9.56-9.13c-1.86,1.4-2.28,2.44-2.28,3.05a1.86,1.86,0,0,0,.94,1.47l.16.1h.05s4.16,2.63,6.27,3.59a3.92,3.92,0,0,0,1.67.44,6,6,0,0,0,3-1.3c4.32-2.76,12.35-10.54,19.23-17.59,5.45-5.57,10.2-10.69,12-12.61a45,45,0,0,1-13.23-5.62c-4.05,5.79-22.48,24.39-27.82,28.44m-2.7,1a9.29,9.29,0,0,1,2-1.93c1-.71,2.34-1.93,4-3.46l-10.78-6.64-5.89,5.19a3.75,3.75,0,0,1-.3.27Zm6.91-6.24c1.79-1.67,3.83-3.64,6-5.75a88.89,88.89,0,0,1-11.44-5.58l-5.27,4.73Zm-29.71-8a5.33,5.33,0,0,0,.81,2.33c.46.93,2.64,2.8,5.56,4.51a4.66,4.66,0,0,0,2.41.73,3.82,3.82,0,0,0,2.36-.84.67.67,0,0,0,.15-.14h0L173.06,99.5a64.49,64.49,0,0,1-10.65-8L152,100.64a6.74,6.74,0,0,1-1.45,1,2.5,2.5,0,0,0-.68,1.68m-1.55-57.6a50.84,50.84,0,0,0-.79,9c0,14.07,5.63,36.7,38.95,50.07,2.64-2.64,5.35-5.41,7.78-8C164.26,85.52,159,66,159.06,54.24a37.35,37.35,0,0,1,1.16-9.48,37.86,37.86,0,0,0-11.21-2c-.14.52-.4,1.55-.67,3M141,91.05a2.8,2.8,0,0,0-1.11,2.13,5.3,5.3,0,0,0,.82,2.34,13.54,13.54,0,0,0,5,5,4.14,4.14,0,0,0,2.16.62A5,5,0,0,0,151,100a2.31,2.31,0,0,0,.24-.2h0l10.32-9.17A52.18,52.18,0,0,1,153.74,81C146.89,86.68,141.51,90.6,141,91M160.89,47.2a38.64,38.64,0,0,0-.63,7c0,11.51,4.89,30.45,34.91,41.6a99.59,99.59,0,0,0,7.07-8.2c-1.12-.77-2.21-1.59-3.24-2.46-21.67-12.39-24.37-22.55-24.37-26.78a7.49,7.49,0,0,1,.17-1.7,26.89,26.89,0,0,0-13.45-11.5c-.12.44-.29,1.12-.46,2m67.62,47.05c.82,0,1.53,0,2.1-.07,3.7-.27,6-1.47,7.62-3.28a15.55,15.55,0,0,0,3.14-7.17,4.81,4.81,0,0,0,.1-.85,1.12,1.12,0,0,0-.07-.48h0c-.25.13-.51.25-.79.37l-.06,0h0a15.34,15.34,0,0,1-2.27.72,32.29,32.29,0,0,1-7.46.87c-7,0-16.7-2.18-25.78-11.45l-9.12,7.54a36,36,0,0,0,3.75,3.66l.48.28-.05.08c10,8.2,22.28,9.73,28.42,9.72M130.79,45.89a16.84,16.84,0,0,0-.92,2.29,28.91,28.91,0,0,0-1.35,9c0,7.56,2.42,18.57,12,32.65.83-.65,2.89-2.19,5.71-4.4a53.25,53.25,0,0,1-9.19-29.86,47.52,47.52,0,0,1,1.45-11.93l-1.59.36c-2.68.62-4.67,1.26-5.9,1.36a5.3,5.3,0,0,0-.24.48m8.31.65a49.49,49.49,0,0,0-.82,9.09,51.91,51.91,0,0,0,8.94,29.11c1.75-1.38,3.74-3,5.89-4.77a49.23,49.23,0,0,1-6.76-25.25,48.62,48.62,0,0,1,1.45-12h-.53a40,40,0,0,0-7.4.73c-.14.49-.44,1.53-.74,3.11m91.7,36.67a31,31,0,0,0,7.18-.83,15.09,15.09,0,0,0,2.07-.66,3.1,3.1,0,0,1,1-.44,7.92,7.92,0,0,0,3.12-2.9c1.15-1.85,1.69-4.28,2.33-7.19a5.5,5.5,0,0,0,.14-1.06,1,1,0,0,0-.11-.55s0,0-.16,0a3,3,0,0,0-1.24.48,6.58,6.58,0,0,0-.76.49l0,0h0a22.8,22.8,0,0,1-11.1,2.78c-10.11,0-18.79-5.88-20.27-6.9L206,72.15c8.82,8.95,18.14,11,24.85,11m-36.92-2.57,28.29-23.43a4.4,4.4,0,0,0,1.63-3.29,3.45,3.45,0,0,0-.36-1.54,18,18,0,0,0-5-5.55,3,3,0,0,0-1.87-.61,5.59,5.59,0,0,0-2.33.7h0l-.08,0c-1.15,1-26.64,22.36-30.61,25.68a68,68,0,0,0,10.24,8.06m39.24-8.47a21.61,21.61,0,0,0,10.52-2.63,4.29,4.29,0,0,0,.4-.55,43.46,43.46,0,0,0,3.74-17.14,28.22,28.22,0,0,0-5.3-17.15A19.21,19.21,0,0,0,241,32.91a31.76,31.76,0,0,0-4.42-4,28.42,28.42,0,0,0-17.2-5.82,34.5,34.5,0,0,0-12.84,2.63,27,27,0,0,1,3.59-.25c6.17,0,12.89,2.32,18.79,9.22a25.71,25.71,0,0,1,6.09,17.26c0,9.16-3.79,17.37-5.21,20a26.11,26.11,0,0,0,3.3.21M215,66.38a40.93,40.93,0,0,0,4.32,2.35,36.29,36.29,0,0,0,9.3,3c1.11-2,5.27-10.49,5.25-19.84a24.63,24.63,0,0,0-5.79-16.48c-5.71-6.62-12-8.76-17.88-8.79a27.37,27.37,0,0,0-8.83,1.53c-.12.06-.69.26-.69.26a34.3,34.3,0,0,0-8.26,4.23c2.35,2.24,4.43,4.88,6.44,7l-.87.82c-7.87-8.37-16.25-18.92-37.05-18.95-.6,0-1.21,0-1.81,0,0,0-.91,0-2.34.25A35.37,35.37,0,0,0,151.38,23c-3.64,1.11-7.49,3.07-9.3,6.34a41.67,41.67,0,0,1,11.65-1.48h.57c20.75.23,32.36,16.66,34.69,20.3l13.47-11.75a6.24,6.24,0,0,1,4.14-1.75,5.28,5.28,0,0,1,2.76.78A14.67,14.67,0,0,1,214.82,41a6.13,6.13,0,0,1,1,2.89,3.24,3.24,0,0,1-.23,1.23,5.2,5.2,0,0,1,1.11-.15,4.24,4.24,0,0,1,2.56.9,19.15,19.15,0,0,1,5.31,6,4.62,4.62,0,0,1,.48,2.1A5.59,5.59,0,0,1,223,58.11l-9.13,7.56,1.13.74m-32.16,5.3,14.67-12.27c7.61-6.36,15.41-12.9,16-13.42a2.83,2.83,0,0,0,1.11-2.13,5.3,5.3,0,0,0-.82-2.33,13.37,13.37,0,0,0-5-5.06,4.07,4.07,0,0,0-2.15-.62,5,5,0,0,0-3.08,1.21,2.06,2.06,0,0,0-.23.21h0L176.14,61c.62,2.59,2.33,6.28,6.66,10.77Zm-5.67-13.2L188.07,49l-.22-.34c-.35-.55-.89-1.34-1.61-2.29a48.38,48.38,0,0,0-6.44-7,38.59,38.59,0,0,0-25.52-10.29h-.55c-19.95,0-23.31,10.33-23.93,12.79a3.1,3.1,0,0,0-.1.53v.08a.7.7,0,0,1,0,.16c0,.14,0,.28,0,.42a1.46,1.46,0,0,0,.2.79,1,1,0,0,0,.89.38h.07a57.1,57.1,0,0,0,5.91-1.35,46,46,0,0,1,10.58-1.38h.07c12.36,0,23.85,4.67,29.81,17"/></svg>