<svg id="Layer_1" data-name="Layer 1" xmlns="http://www.w3.org/2000/svg" xmlns:xlink="http://www.w3.org/1999/xlink" viewBox="0 0 258.78 130"><defs><style>.cls-1{fill:#2f2e41;}.cls-2{clip-path:url(#clip-path);}</style><clipPath id="clip-path"><path class="cls-1" d="M276.4-111.06c-5,2.1-4,6.35,1.71,6,14.5-1,33.39,9.75,43.5,27.32s7.08,32.61,7.08,32.61c-1,4.36-3.88,6.94-7.83,6.94-6.34,0-14.21-6.25-18-20.86-2.28-8.75-.38-14,2.65-15.43,4.65-2.21,10.83,3.09,13.21,7.55.82,1.14,1.48,1,1.3-.54-4.31-20.48-33.52-33-41.7-15.2s10.4,50.36,37.62,56.17c8.73,1.86,34.75,3.34,33.18-21.71-2.32-37.1-36.34-64.89-61.68-64.89a28.38,28.38,0,0,0-11,2.08"/></clipPath></defs><rect class="cls-1" x="100.96" y="92.78" width="6.76" height="25.58"/><path class="cls-1" d="M127.41,118.36V103c0-1.91-.37-3.2-1.1-3.9s-1.81-.81-4-.81h-5.72v20.1h-6.82V92.78h13.08c4,0,6.8.7,8.42,2.12s2.53,3.85,2.53,7.21v16.25Z"/><rect class="cls-1" x="178.11" y="92.78" width="6.81" height="25.58"/><path class="cls-1" d="M204.1,118.36V103c0-2.13-.28-3.27-.94-3.9s-1.73-.81-3.81-.81h-6.1v20.1H187V92.78h12.88c4,0,6.59.68,8.22,2.12s2.35,3.71,2.35,7.21v16.25Z"/><path class="cls-1" d="M169.92,118.36c-2.62,0-4.41-.61-5.67-1.92s-1.9-3.23-1.9-5.83V97.74H146.93a9.41,9.41,0,0,0-4.06.55,2.23,2.23,0,0,0-1,2.1,2.48,2.48,0,0,0,.91,2.1,4.39,4.39,0,0,0,2.67.74h6.33c2.95,0,5.06.56,6.46,1.8a6.83,6.83,0,0,1,2.2,5.52,8.33,8.33,0,0,1-2,5.75,6.22,6.22,0,0,1-5,2.06H135.72v-4.85H150.1a5.66,5.66,0,0,0,3-.58,2.33,2.33,0,0,0,1-2.09,2.44,2.44,0,0,0-1-2.15,5.36,5.36,0,0,0-3-.61h-6c-3.49,0-5.88-.57-7.1-1.63s-1.81-3-1.81-5.69.72-4.78,2.2-6.08,3.69-1.9,6.9-1.9h18.1V87.46h6.41v5.32H176v5h-7.28v10.65c0,2,.31,3.48,1,4.28a4.63,4.63,0,0,0,3.66,1.25H176v4.44Z"/><path class="cls-1" d="M63,112.9h-.12a7.31,7.31,0,0,1-7.33-7l-.06-.67a12.62,12.62,0,0,0-12.6-12.31h-9v5.27h9a7.33,7.33,0,0,1,7.34,7l.05.66a12.41,12.41,0,0,0,12.6,12.25h8.78v-5.21H63Z"/><path class="cls-1" d="M57.1,105.38l0,.68a5.62,5.62,0,0,0,.35,1.76H71.62v-5H56.79A14.9,14.9,0,0,1,57.1,105.38Z"/><path class="cls-1" d="M48.59,106.2l-.05-.67a5.69,5.69,0,0,0-.82-2.73H33.9v5H48.73A14.75,14.75,0,0,1,48.59,106.2Z"/><path class="cls-1" d="M49.11,109.39a7.36,7.36,0,0,1-6.26,3.51h-11V84.73L25.55,81V92.89H19.68a17.29,17.29,0,0,0-6.08.9,9.33,9.33,0,0,0-3.92,3,12.11,12.11,0,0,0-2.06,3.82,15,15,0,0,0-.67,4.6c0,4,1.09,7.26,3.24,9.52s5.19,3.4,9,3.4H42.85a12.16,12.16,0,0,0,8.89-3.61,14.38,14.38,0,0,1-2-3.39A16.46,16.46,0,0,1,49.11,109.39Zm-23.56,3.5H20.84c-2.57,0-4.41-.56-5.47-1.65s-1.61-3-1.61-5.56.59-4.62,1.75-5.78,3.13-1.74,5.87-1.74h4.17Z"/><path class="cls-1" d="M95.54,96.3c-2.15-2.26-5.19-3.41-9-3.41H62.84A12.65,12.65,0,0,0,54,96.56,14.38,14.38,0,0,1,56,100a15.23,15.23,0,0,1,.6,1.72,7.36,7.36,0,0,1,6.26-3.51H73.67V130l6.49-3.89v-8h5.89a17,17,0,0,0,6.09-.9,9.2,9.2,0,0,0,3.91-3,11.89,11.89,0,0,0,2.06-3.82,14.84,14.84,0,0,0,.68-4.59C98.79,101.76,97.69,98.56,95.54,96.3Zm-5.3,14.83c-1.15,1.17-3.12,1.76-5.86,1.76H80.16V98.16H84.9c2.58,0,4.42.54,5.48,1.62S92,102.72,92,105.32,91.39,110,90.24,111.13Z"/><path class="cls-1" d="M244,87.44h-6.35v5.31H226a19.24,19.24,0,0,0-5.74.62,10.26,10.26,0,0,0-4,2.39,12,12,0,0,0-2.85,4.36,15.7,15.7,0,0,0-1,5.65,14.65,14.65,0,0,0,1,5.44,12.56,12.56,0,0,0,2.83,4.34,9.48,9.48,0,0,0,3.94,2.2,19.78,19.78,0,0,0,5.85.59h9.12v-5.49h-7.06a24,24,0,0,1-3.77-.2,8.3,8.3,0,0,1-2.24-.68,4.22,4.22,0,0,1-2.13-2.07,9.48,9.48,0,0,1-.79-4.13c0-2.94.66-5,1.95-6.2s3.75-1.33,7-1.33h9.55v12.37c0,2.57.58,4.41,1.93,5.81s3,1.92,5.69,1.92h6.06v-4.45h-2.55a4.8,4.8,0,0,1-3.71-1.23c-.73-.83-1.07-2.28-1.07-4.27V98.24h7.85V92.75H244Z"/><path class="cls-1" d="M247.82,89.92V87.67h-.91v-.16h2v.16H248v2.25Z"/><path class="cls-1" d="M249.25,87.71a.21.21,0,0,1,.21-.23c.12,0,.18.09.24.24l.74,2s0,.07.05.07,0-.05.06-.07l.74-2c.06-.15.11-.24.24-.24a.2.2,0,0,1,.2.23v2.21h-.16V87.71s0-.07,0-.07-.05,0-.06.07l-.75,2c-.05.15-.1.26-.22.26s-.16-.11-.22-.26l-.75-2s0-.07-.06-.07,0,0,0,.07v2.21h-.17Z"/><path class="cls-1" d="M276.4-111.06c-5,2.1-4,6.35,1.71,6,14.5-1,33.39,9.75,43.5,27.32s7.08,32.61,7.08,32.61c-1,4.36-3.88,6.94-7.83,6.94-6.34,0-14.21-6.25-18-20.86-2.28-8.75-.38-14,2.65-15.43,4.65-2.21,10.83,3.09,13.21,7.55.82,1.14,1.48,1,1.3-.54-4.31-20.48-33.52-33-41.7-15.2s10.4,50.36,37.62,56.17c8.73,1.86,34.75,3.34,33.18-21.71-2.32-37.1-36.34-64.89-61.68-64.89a28.38,28.38,0,0,0-11,2.08"/><g class="cls-2"><polygon class="cls-1" points="315.85 -153.29 394.93 -62.08 304.95 16.96 225.87 -74.25 315.85 -153.29"/></g></svg>