<svg id="Layer_1" data-name="Layer 1" xmlns="http://www.w3.org/2000/svg" xmlns:xlink="http://www.w3.org/1999/xlink" viewBox="0 0 258.78 130"><defs><style>.cls-1{fill:none;}.cls-2{fill:#2f2e41;}.cls-3{fill:#fff;}.cls-4{clip-path:url(#clip-path);}</style><clipPath id="clip-path"><path id="path3071" class="cls-1" d="M178.48,41.57,8.46,123.4l105.31-.06c12,0,16.08-12.62,33.63-12.62H257Z"/></clipPath></defs><g id="g3059"><g id="g3065"><path id="path3067" class="cls-2" d="M147.42,117.31c-6.87,0-10.95,2.34-15.24,5.21-1.2.8-2.36,1.6-3.51,2.36a43.11,43.11,0,0,1-4.07,2.38,23.51,23.51,0,0,1-10.81,2.67L6.32,130,177.13,50.89l76.11,66.42Z"/></g><g id="g3069"><path id="path3071-2" data-name="path3071" class="cls-2" d="M178.48,41.57,8.46,123.4l105.31-.06c12,0,16.08-12.62,33.63-12.62H257Z"/></g><g id="g3073"><path id="path3075" class="cls-2" d="M14.2,83.94l-1,3.76h10l-1.07,4.6H11.91l-1.2,4.39h12l-1.12,4.61H2.21L7.28,82.15c.41-1.82,1.57-2.82,2.7-2.82H26.65l-1.13,4.6Z"/></g></g><g id="layer1"><g id="g3685"><g id="g3077"><path id="path3079" class="cls-2" d="M23.91,101.29l5.29-22h6.56l-5.29,22Z"/></g><g id="g3093"><path id="path3095" class="cls-2" d="M58.8,83.37l1-4h6.55l-1,4Zm-4.32,17.92,3.88-16.12h6.56L61,101.29Z"/></g><g id="g3105"><path id="path3107" class="cls-2" d="M78.38,85.18l-.94,3.89H73.77l-1.56,6.47c-.22.92.07,1.66,1.63,1.72h2.38l-2.55,4h-3c-3.82,0-6.11-1-5.2-4.79l1.79-7.43H65.64l.94-3.89h1.56l.92-3.8,7-2L74.7,85.18Z"/></g><g id="g3109"><path id="path3111" class="cls-3" d="M100.55,83.94a14,14,0,0,0-1.75,0c-.61.07-1.36.25-1.5.86a1.21,1.21,0,0,0,.26,1,3.25,3.25,0,0,0,.35.39l.34.34,4.34,4.52c1.5,1.55,2.83,3.06,2.33,5.14-.45,1.88-2.61,5-9,5H87.34l-.55-4.61h6.47a14.07,14.07,0,0,0,1.76,0c.61-.07,1.35-.25,1.5-.86a1.22,1.22,0,0,0-.27-1,3.17,3.17,0,0,0-.34-.39L95.56,94l-4.19-4.49c-1.46-1.58-2.8-3.08-2.3-5.17.46-1.88,2.62-5,9.06-5h8.28L105,83.94Z"/></g><g id="g3113"><path id="path3115" class="cls-3" d="M136,89.07c-1.41,0-2.19.07-2.36.8a.83.83,0,0,0,.13.61c.05.07.1.15.16.22l.14.18,2.39,2.94a4.05,4.05,0,0,1,1.16,3.58c-.48,2-2.95,3.89-6.27,3.89h-6.92l-.61-4h3.61c.26,0,.84.08,1.38.07a3.21,3.21,0,0,0,.79-.11.75.75,0,0,0,.53-.51,1.1,1.1,0,0,0-.25-.86c-.15-.23-.35-.46-.46-.61l-2.26-2.89c-.89-1.12-1.54-2.16-1.21-3.53.25-1,2-3.65,6.61-3.65h6.94l-.93,3.9Z"/></g><g id="g3117"><path id="path3119" class="cls-3" d="M153.27,85.18l-.94,3.89h-3.67l-1.56,6.47c-.22.92.07,1.66,1.63,1.72h2.38l-2.54,4h-3.06c-3.82,0-6.1-1-5.2-4.79l1.79-7.43h-1.57l.94-3.89H143l.78-3.27,6.91-1.47-1.14,4.74Z"/></g><g id="g3121"><path id="path3123" class="cls-3" d="M200.93,91.26l-2.42,10h-6.38l2.21-9.16c.47-2.27.45-2.87-2.62-2.92h-1.3l-2.91,12.08h-6.37l2.91-12.08h-4.62l-2.91,12.08h-6.38L174,85.18h20.77c5.89,0,7.15,1.88,6.14,6.08"/></g><g id="g3125"><path id="path3127" class="cls-3" d="M213,89.07c-1.42,0-2.19.07-2.36.8a.79.79,0,0,0,.13.61c0,.07.1.15.15.22l.15.18,2.39,2.94a4,4,0,0,1,1.15,3.58c-.47,2-2.94,3.89-6.27,3.89h-6.92l-.6-4h3.61c.26,0,1.94,0,2.17,0a.75.75,0,0,0,.53-.51,1.19,1.19,0,0,0-.25-.86c-.15-.23-.35-.46-.46-.61l-2.26-2.89c-.9-1.12-1.54-2.16-1.21-3.53.25-1,2-3.65,6.61-3.65h6.93l-.93,3.9Z"/></g><g id="g3129"><path id="path3131" class="cls-3" d="M104,107a7,7,0,0,0,1.83-1.71l4-5.67L106,85.14h7.11l1.42,8.23,4.82-8.23h7.21l-14.15,20.39a4.06,4.06,0,0,1-2.76,1.49Z"/></g><g id="g3133"><path id="path3135" class="cls-3" d="M163.69,88.69c-4.07,0-4.8,3.36-4.35,4.45,2-.18,5.09-1.35,5.56-2.92.2-.75.28-1.53-1.21-1.53m-1.78,8.13a12.58,12.58,0,0,0,4.46.44h2.34l-2.42,4h-4.44c-6.93,0-9.67-5.72-8.89-9.44.95-4.45,3.8-7.06,11.26-7.06,7.17,0,7.44,3.06,6.7,5.76-.94,3.42-4.68,5-9,6a.16.16,0,0,0-.14.15.16.16,0,0,0,.11.15"/></g></g></g><g id="g3083"><g id="g3089"><path id="path3091" class="cls-2" d="M41,97.26c3.52-.33,6.52-1.84,7.15-4.46s-2-3.59-3.07-3.59H42.68l-2,8.08Zm6.54-12.08c6.88,0,8.19,4.39,7.44,7.51-1.3,5.39-8.1,8.6-14.85,8.6H33.21l5.28-22h6.56l-1.4,5.84Z"/></g></g><g class="cls-4"><path id="path3095-2" data-name="path3095" class="cls-3" d="M58.8,83.37l1-4h6.55l-1,4Zm-4.32,17.92,3.88-16.12h6.56L61,101.29Z"/><path id="path3107-2" data-name="path3107" class="cls-3" d="M78.38,85.18l-.94,3.89H73.77l-1.56,6.47c-.22.92.07,1.66,1.63,1.72h2.38l-2.55,4h-3c-3.82,0-6.11-1-5.2-4.79l1.79-7.43H65.64l.94-3.89h1.56l.92-3.8,7-2L74.7,85.18Z"/></g></svg>