<svg id="Layer_1" data-name="Layer 1" xmlns="http://www.w3.org/2000/svg" viewBox="0 0 258.78 130"><defs><style>.cls-1{fill:#fff;}.cls-2{fill:#2f2e41;}</style></defs><rect class="cls-1" x="173.48" y="63.44" width="66.91" height="66.36" rx="8.18"/><path class="cls-2" d="M64.27,103.88l-.2,0-.2,0H48.58a4.47,4.47,0,0,0,0,8.94h6.3a9.61,9.61,0,0,1-1.26,2.47c-1.75,2.56-5.93,5.4-9.73,5.4-9.81,0-14.33-7.91-14.33-17.67S36,85.71,45.82,85.71a15,15,0,0,1,8,1.9c.87.49,1.74,1.06,2.61,1.61l2.69,2.08a4.48,4.48,0,0,0,6.27-.81,4.74,4.74,0,0,0-.29-5.78,21.68,21.68,0,0,0-4.47-4A27.1,27.1,0,0,0,18.38,103c0,14.88,8.89,26.94,23.84,26.94,6,0,13.23-2.34,17.58-8.58v4.15a4.47,4.47,0,0,0,8.94,0V108.35A4.49,4.49,0,0,0,64.27,103.88Z"/><path class="cls-2" d="M102.66,118.74a24.79,24.79,0,0,1-10.3,2.3c-8.4,0-9.27-7.12-9.28-8.15s0-1,0-1h20.35c6.21,0,5.59-6.11,5.59-6.11,0-7.81-4.74-17.54-17.7-17.54s-17.31,10.58-18,14.62S70.56,120.37,81.52,127s22.06,0,22.06,0c3.42-1.62,6-4.77,4.2-7.47C106.34,117.38,103.36,118.45,102.66,118.74ZM83,104.47c0-4.65,3.73-8,8.32-8a8,8,0,0,1,8.31,8,.18.18,0,0,1-.1.17H83.17A.13.13,0,0,1,83,104.47Z"/><path class="cls-2" d="M135.22,123.27a3.73,3.73,0,0,0-1.52-1.4,5.76,5.76,0,0,0-1.39-.44c-.48-.07-1.05-.14-1.71-.19a4.15,4.15,0,0,1-1.64-.36,2.82,2.82,0,0,1-1.55-1.93,5.67,5.67,0,0,1-.16-1.38V97h1.89a4,4,0,0,0,4-4v-.15a4,4,0,0,0-4-4h-1.9V81.28a5.15,5.15,0,1,0-10.3,0v7.63H115a4,4,0,0,0-4,4V93a4,4,0,0,0,4,4h1.85v21.14a14.8,14.8,0,0,0,.66,4.4,10.5,10.5,0,0,0,2.11,3.81,10.32,10.32,0,0,0,3.73,2.66,13.5,13.5,0,0,0,5.49,1h.56a15.21,15.21,0,0,0,2.55-.18,5.74,5.74,0,0,0,1.71-.54,3.92,3.92,0,0,0,1.5-1.39,4.3,4.3,0,0,0,.57-2.31A4.39,4.39,0,0,0,135.22,123.27Z"/><path class="cls-2" d="M160.23,123.27a3.7,3.7,0,0,0-1.51-1.4,6,6,0,0,0-1.4-.44c-.48-.07-1-.14-1.71-.19a4.05,4.05,0,0,1-1.63-.36,2.87,2.87,0,0,1-1-.8,3,3,0,0,1-.54-1.13,5.67,5.67,0,0,1-.16-1.38V97h1.9a4,4,0,0,0,4-4v-.15a4,4,0,0,0-4-4h-1.91V81.28a5.15,5.15,0,0,0-10.3,0v7.63h-1.9a4,4,0,0,0-4,4V93a4,4,0,0,0,4,4h1.86v21.14a14.79,14.79,0,0,0,.65,4.4,10.37,10.37,0,0,0,2.12,3.81A10.2,10.2,0,0,0,148.4,129a13.51,13.51,0,0,0,5.5,1h.55a15.21,15.21,0,0,0,2.55-.18,5.91,5.91,0,0,0,1.72-.54,3.89,3.89,0,0,0,1.49-1.39,4.3,4.3,0,0,0,.58-2.31A4.39,4.39,0,0,0,160.23,123.27Z"/><path class="cls-2" d="M177.75,81.94l.79-.19.14-.72H179a91.09,91.09,0,0,1,.95,10.07c0,13-2.81,25.33-2.94,38.7h12.68c1.17-3.21,2-7.18,3.53-10.07a56.47,56.47,0,0,1,2.89,10.07h13.23c-.65-9.18-.92-15.47-2.56-26.93a5.19,5.19,0,0,0,2.24-.41c-2.42-7.85-3.33-30-.84-41.57.49-1.33,2.81-7.18,2.81-11.22,0,0,.4-1.5.85-3.23h0c.07-.2,1.47-3.61,2.47-7.16a66.79,66.79,0,0,0,1.49-6.83l.9-2.7a11.21,11.21,0,0,0,1.25-1.51,12.54,12.54,0,0,0,1-1.71,2.78,2.78,0,0,1,.79-.69,4.35,4.35,0,0,1,1-.41l2.77-.5s.9-.16.75-.64-1.43-.43-1.43-.43a18.66,18.66,0,0,1-3.23.17c-.15-.18,3.46-2.77,3.46-2.77s1-.8.63-1.36-1.48.29-1.48.29-3.51,2.4-3.79,2.42,2.54-3.88,2.54-3.88.85-1.19.4-1.69-1.28.57-1.28.57-3.05,3.7-3.2,3.86-.41,0-.58-.25a.76.76,0,0,1-.06-.55l.46-3.19a1,1,0,0,0-.61-1c-.64-.23-.91.6-.91.6l-1.23,4.69a3.61,3.61,0,0,1-1.48,1.31,2.41,2.41,0,0,1-1.55-.23,6.59,6.59,0,0,0-1.28-1.24,2.6,2.6,0,0,0-1-.33s-1.1-.08-1.56.5c-.2.27.57.61.57.61a5.28,5.28,0,0,1,1.38,1,2,2,0,0,1,.37,1s-.1.37.41,1.2a17.91,17.91,0,0,0,1.42,1.75,4.25,4.25,0,0,1,.46,1l0,1.28a2.88,2.88,0,0,1-.12.37l-2.32,6s-.91,1.82-1.83,4c-1,2.38-2.11,5.16-2.59,6.09l0,.21,0,.07s-.73,1.07-1.42,2.34a11,11,0,0,1-2.71,2.66,7.16,7.16,0,0,0-3.39,2.11,4.87,4.87,0,0,1-2.65,1.92l-.35-.07s-.52-1.94-.71-2.54a2.89,2.89,0,0,1-.16-1s1.15-1.14,1.13-1.6-.19-4.41-.78-5.31a8.64,8.64,0,0,1-1-2.57,5.11,5.11,0,0,0-1-2c-.4-.35-1.36-1.09-1.48-1.27A3.42,3.42,0,0,0,189,37.9c-.57-.28-.44-.67-.82-1.06a1.38,1.38,0,0,0-.78-.44s.4.27.19.51l-.16.17,0,.06c-.1.09-.78-.07-1.11,0a5.54,5.54,0,0,0-.71.35,1.19,1.19,0,0,0-1.26-.23c-.83.28.39,0,.39.25a.29.29,0,0,1-.3.33c-.07,0-.68.6-1.09.58s-.87.5-1,.58l-.82-.08-.33-.25,0,0,0,.22c0,.15.24.23,0,.55s-.43.43-.55.78-.53,1-.68.89-.28-.1-.09-.4.33-.33.33-.33-.66-.11-.61.75c0,0-1,.21-1,.65a.44.44,0,0,1,.63-.06l-.3.12a3.9,3.9,0,0,0-.13,1c0,.42-.14.16-.23.19a6.28,6.28,0,0,0-.63,2c0,.3-.12.27-.2.16,0,.18.05.42-.07.51s.33.23.29.78a1.81,1.81,0,0,1-.64,1l.47.09.08.2.13-.05a9.19,9.19,0,0,1,.34,1.37c0,.37.09.06.12,0l0-.1a9.28,9.28,0,0,0,1.66,2.36c1.21,1.3,3.61,2.77,3.8,3.61,0,0,.6,3.45.28,3.93l-1.29,0-.11.54a3.86,3.86,0,0,1-.51.68l-.87.77-.8.58c-.19.15-.38.3-.57.43C177.9,63.33,175.58,64.2,174,66c-2.45,2.75-2.9,6.12-4.56,10.75.44,1.11,1.08,1.07,1.35,2.07h0l-1.56,9.84c-.32,2.42-1.6,5.41-1.49,8.21a113.13,113.13,0,0,0,0,11.68s.24,3.43.52,4.66a9.23,9.23,0,0,0,2,3.05l3.37,1s.52.16.57-.31a1.14,1.14,0,0,0-.24-.77.91.91,0,0,0-.12-.57,11.46,11.46,0,0,0-1.73-.86l-.47-.53-.6-1.19a9.33,9.33,0,0,1,.17-2.29s1,.15,1.07.48c0,.14.8,1.23,1.52,1.39s.57-.21.5-.51c-.19-.65-1.22-1.93-1.31-2.46a6.69,6.69,0,0,0-.8-2.13,3.38,3.38,0,0,0-.78-.67l-.29-.29s1.84-6.34,2.73-9.49a46,46,0,0,0,.91-6.4,3.32,3.32,0,0,1,.37-1.42,51.35,51.35,0,0,0,2.6-7.37"/></svg>