<svg id="Layer_1" data-name="Layer 1" xmlns="http://www.w3.org/2000/svg" viewBox="0 0 258.78 130"><defs><style>.cls-1{fill:#2f2e41;}</style></defs><path class="cls-1" d="M215.93,15.07c0,.18.18.21.34.24,6.5,1.34,11.22,5.14,14.69,10.63a35.14,35.14,0,0,1,5.37,14.69c1.5,12.48-4.56,22.88-14.45,27.5-5.68,2.65-11.14,1.67-16.25-1.5-4.92-3-8.1-7.33-8.5-13.33a4.77,4.77,0,0,1,.17-1.65,11.51,11.51,0,0,0,3.77,3c4.32,2.18,8.91,1.38,12.59-2.18a24.31,24.31,0,0,0,7.12-14.75A28.26,28.26,0,0,0,216,17.62a9.18,9.18,0,0,1-1.49-2.55Z"/><path class="cls-1" d="M55.86,53.56h6.61c2.46,0,4.93,0,7.39,0a1.57,1.57,0,0,1,1.63.9c3.11,5.29,6.27,10.55,9.43,15.8.2.33.26,1,.81.8s.54-.73.55-1.19c0-1.46,0-2.92,0-4.37,0-3.65,0-7.3,0-10.95,0-.76.13-1.06,1-1,3.57,0,7.15,0,10.72,0,.56,0,1,0,.93.77-.08,3.72,0,7.44-.09,11.16-.2,5.65-3.18,9.17-8.29,11.13-1.31.51-1.3.51-.51,1.66,3.41,5,6.61,10.16,9.79,15.32.11.19.19.39.36.73H95c-3.81,0-7.62,0-11.42,0a1.71,1.71,0,0,1-1.79-1Q76.91,84.08,71.91,75c-.18-.33-.2-.95-.77-.84a1.17,1.17,0,0,0-.89,1.2c0,.38,0,.77,0,1.15,0,5.57,0,11.14,0,16.71,0,.83-.18,1.13-1.07,1.12-3.54,0-7.08,0-10.62,0-.42,0-1,.19-.94-.6.1-4.56-.19-9.13.19-13.7a12.33,12.33,0,0,1,7.67-11c1.68-.76,1.66-.81.55-2.25L56.5,54.43C56.32,54.2,56.15,54,55.86,53.56Z"/><path class="cls-1" d="M201.51,41a13.4,13.4,0,0,0-5.26,9.25,16.68,16.68,0,0,0,3,11.35c5.88,8.87,14.22,13.27,24.88,13.24h4.42a15.23,15.23,0,0,1-3.27,3.54,23.14,23.14,0,0,1-15.4,5.18c-7.73,0-15-1.75-21.11-6.73-7.31-6-10.71-13.68-9.72-23.15.75-7.17,6.34-12.54,13.83-13.42A19,19,0,0,1,201.51,41Z"/><path class="cls-1" d="M213.39,51.55a14.67,14.67,0,0,0-1.86-5.45c-2.59-4.12-6.47-6.16-11.19-6.83-10.71-1.53-22.81,5.2-27.63,14.8-.65,1.3-1.37,2.56-2.14,4a20.09,20.09,0,0,1-1.79-7.76c-.17-5.81,1.86-10.89,5.09-15.57,4.24-6.12,9.56-10.91,16.86-13a25.2,25.2,0,0,1,21.43,2.86c7,4.42,9.38,11.93,6.24,19.63A22,22,0,0,1,213.39,51.55Z"/><path class="cls-1" d="M29,94.28l5.44-16q2.56-7.5,5.12-15c.5-1.47.49-1.47-1.12-1.47-5,0-10,0-15,0-.94,0-1.13-.27-1.12-1.15q.06-9.23,0-18.44c0-.87.22-1.1,1.08-1.08,3.39,0,6.77,0,10.16,0,.88,0,1.09.24,1.08,1.1-.05,3.3,0,6.6-.05,9.91,0,1.07.19,1.42,1.35,1.4,5.23-.07,10.47,0,15.7-.05.83,0,1.25.16,1.09,1.06a.45.45,0,0,0,0,.23c.8,5.72-1.34,10.84-3.18,16Q45.6,81.94,41.83,93a1.56,1.56,0,0,1-1.77,1.28C36.41,94.23,32.76,94.28,29,94.28Z"/><path class="cls-1" d="M167,78c0,5.72,0,10.48,0,15.24,0,.8-.21,1.06-1,1-3.54,0-7.08,0-10.61,0-.89,0-1.07-.25-1.07-1.1,0-8.67,0-17.35,0-26,0-4.23-1.11-5.34-5.3-5.34-4.89,0-9.77,0-14.65,0-.87,0-1.1-.22-1.08-1.08.07-2.11.05-4.22,0-6.33,0-.65.09-.95.86-.94,7.23,0,14.45,0,21.68.1a13,13,0,0,1,6.73,1.7c2.93,1.77,3.89,4.64,4.19,7.79C167.25,68.37,166.84,73.68,167,78Z"/><path class="cls-1" d="M125.43,79c0,4.72,0,9.44,0,14.17,0,1-.36,1.11-1.19,1.1-3.46,0-6.93-.05-10.39,0-.92,0-1.13-.26-1.13-1.15,0-8.79,0-17.59,0-26.38,0-.31,0-.62,0-.92-.13-2.79-1.32-4-4.1-4s-5.62,0-8.42,0c-.81,0-1.15-.12-1.12-1.05.08-2.14,0-4.3,0-6.45,0-.63.15-.86.83-.85,4.88,0,9.76,0,14.64.1a15,15,0,0,1,3.64.53c4.23,1.09,6.54,3.95,7,8.66.45,4.94.1,9.9.21,14.84C125.44,78.1,125.43,78.56,125.43,79Z"/><path class="cls-1" d="M145.69,82.15c0,3.68,0,7.37,0,11,0,.86-.24,1.11-1.1,1.1-3.46,0-6.92,0-10.37,0-.78,0-1-.25-1-1q0-10,0-20c0-.64.14-.93.83-1.07,3.5-.71,7-1.47,10.46-2.25.84-.19,1.14,0,1.13.9C145.66,74.63,145.69,78.39,145.69,82.15Z"/><path class="cls-1" d="M28.87,114.33c-1.88,0-3.76,0-5.64,0-.69,0-1-.11-1-.93.05-3.61,0-7.21,0-10.81,0-.42-.09-.87.6-.85,2.75.1,5.52-.21,8.27.19a4.45,4.45,0,0,1,4.24,4.6c.1,2.33,0,4.68.08,7,0,.62-.21.79-.8.78C32.71,114.32,30.79,114.33,28.87,114.33ZM26,108c0,1,0,2,0,3,0,.47.12.68.64.67q2.25,0,4.5,0c.43,0,.62-.13.62-.59,0-1.5,0-3,0-4.49a2.25,2.25,0,0,0-2.38-2.29c-.77,0-1.54,0-2.31,0s-1.11.14-1,1S26,107.06,26,108Z"/><path class="cls-1" d="M47.83,101.73c1.38.12,3-.2,4.67.22a5.55,5.55,0,0,1,4.43,5.33,11.51,11.51,0,0,1-.11,2.75,5.44,5.44,0,0,1-4.09,4.49,10.72,10.72,0,0,1-4.57.28,5.64,5.64,0,0,1-5-5.69c-.06-2.19,0-4.38,0-6.56,0-.68.22-.85.86-.83C45.18,101.76,46.37,101.73,47.83,101.73Zm-1.07,5.47a13.34,13.34,0,0,0,.15,2.84A3,3,0,0,0,50,112.41,2.83,2.83,0,0,0,53,110a7.13,7.13,0,0,0,.18-2.06c-.1-2.32-1.18-3.42-3.49-3.58C46.76,104.13,46.76,104.13,46.76,107.2Z"/><path class="cls-1" d="M138.92,104.55c-.31-2.65-.14-3,2.84-3.08a4.86,4.86,0,0,1,4.66,4,9.05,9.05,0,0,1-.55,5.85,5.37,5.37,0,0,1-3.9,3.27,9.22,9.22,0,0,1-4.78,0,5.55,5.55,0,0,1-4.08-5.28c0-2.26,0-4.53,0-6.79,0-.59.16-.78.77-.8,2.91-.11,2.91-.13,2.91,2.78,0,1.58,0,3.15,0,4.73,0,1.85,1,3,2.51,3.18,1.72.16,2.82-.69,3.29-2.52a7.75,7.75,0,0,0,.09-3.42C142.21,104.15,141.13,103.59,138.92,104.55Z"/><path class="cls-1" d="M88.17,101.73a23.18,23.18,0,0,1,3.91.17c3.31.78,4.91,3.25,4.54,7.06a5.79,5.79,0,0,1-5.75,5.36c-2,.06-4.07,0-6.1,0-.63,0-1-.14-.87-.83a4.91,4.91,0,0,0,0-1.15c-.05-.56.2-.71.74-.71,1.65,0,3.3,0,5,0,1.35,0,2.57-.4,3.06-1.79a4.59,4.59,0,0,0-.41-4.5c-.72-1-1.9-.88-2.95-1a2.68,2.68,0,0,0-.8,0c-.52.08-1.32-.38-1.31.73,0,.94,0,2,1.24,2,1.39,0,.72.94.84,1.5.17.78-.36.89-1,.88a16.18,16.18,0,0,1-1.84-.08,2.65,2.65,0,0,1-2.54-2.76c-.06-1.34,0-2.68-.07-4,0-.7.26-.83.87-.81C85.79,101.76,86.87,101.73,88.17,101.73Z"/><path class="cls-1" d="M112,108c0-1.8,0-3.61,0-5.41,0-.63.13-.87.82-.86,2.34,0,4.69,0,7,0a4.59,4.59,0,0,1,4.82,4.89c0,2.26,0,4.53,0,6.79,0,.71-.23.91-.92.92-2.76.05-2.76.08-2.76-2.63,0-1.69,0-3.38,0-5.07a2,2,0,0,0-2-2.22c-3.35-.5-3.35-.5-3.35,2.82,0,2.08,0,4.15,0,6.22,0,.64-.19.86-.85.88-2.83.1-2.83.13-2.83-2.67Z"/><path class="cls-1" d="M160.86,114.39c-1.66,0-3.31,0-5,0-.62,0-1-.12-.88-.82a4.92,4.92,0,0,0,0-1.15c-.07-.62.2-.78.79-.77,1.65,0,3.31,0,5,0,.69,0,.95-.18.92-.9-.06-1.3,0-2.61,0-3.91,0-1.69-.81-2.43-2.51-2.45-1.12,0-2.23,0-3.35,0-.67,0-.92-.23-.83-.87v-.11c0-1.73,0-1.73,1.65-1.73,1.12,0,2.23,0,3.35,0,3.52.1,5.27,1.86,5.35,5.38,0,1.27,0,2.53,0,3.8,0,.4,0,.83.57.74,1-.15.93.44.91,1.1,0,1.92.22,1.59-1.55,1.61C163.78,114.4,162.32,114.39,160.86,114.39Z"/><path class="cls-1" d="M65.28,109.45c0,1.39,0,2.77,0,4.15,0,.53-.15.75-.72.74-1.88,0-3.76,0-5.65,0-.61,0-.83-.22-.78-.81a8.83,8.83,0,0,0,0-1.15c0-.52.11-.83.69-.75a.88.88,0,0,0,.23,0c2.54,0,2.54,0,2.54-2.57,0-.92,0-1.84,0-2.76,0-1.67-.27-1.93-1.91-2-.37,0-1,.27-1.09-.29a4.89,4.89,0,0,1,0-2.15c0-.08.26-.14.4-.14a24.75,24.75,0,0,1,3.34.1,3.27,3.27,0,0,1,2.88,3.35,1.85,1.85,0,0,1,0,.23Z"/><path class="cls-1" d="M75.12,109.52c0,1.35,0,2.69,0,4,0,.6-.19.8-.79.8-1.84,0-3.69,0-5.53,0-.74,0-1-.26-.88-.94a3.47,3.47,0,0,0,0-.91c-.07-.62.11-.89.8-.88.87,0,2,.4,2.54-.15s.14-1.75.17-2.66,0-1.76,0-2.65c0-1.37-.4-1.75-1.76-1.85-.46,0-1.15.31-1.33-.28a6.76,6.76,0,0,1,0-2.06c0-.21.26-.24.46-.23a24.6,24.6,0,0,1,3.33.1,3.22,3.22,0,0,1,2.92,3.32c.1,1.45,0,2.91,0,4.36Z"/><path class="cls-1" d="M98.91,108.08c0-1.85,0-3.69,0-5.53,0-.66.18-.82.83-.83,2.85,0,2.85-.08,2.85,2.74,0,3,0,6,0,9,0,.71-.21.91-.91.92-2.78.05-2.78.07-2.78-2.71Z"/><path class="cls-1" d="M127.1,108.06c0-1.8,0-3.61,0-5.41,0-.66.1-.93.86-.94,2.82,0,2.82-.06,2.82,2.76,0,3,0,6,0,9,0,.71-.22.89-.91.9-2.78,0-2.78.06-2.78-2.72Z"/><path class="cls-1" d="M152.52,105.44v.81c0,3,0,3-3.05,3.43-.49.07-.62-.05-.62-.5,0-2.26,0-4.53,0-6.8,0-.5.19-.7.68-.65h.11c2.89-.13,2.89-.13,2.89,2.79Z"/><path class="cls-1" d="M77.48,105.76c0-1,0-2.07,0-3.1,0-.65.09-.94.86-1,2.82,0,2.82-.07,2.82,2.75,0,1.27,0,2.53,0,3.8,0,.49-.11.78-.66.85-1,.13-2.18.9-2.84.43s-.13-1.79-.18-2.75C77.46,106.45,77.48,106.11,77.48,105.76Z"/><path class="cls-1" d="M37.06,105.65c0-1.07,0-2.14,0-3.2,0-.62.18-.74.78-.74,2.9,0,2.9,0,2.9,2.91,0,1.14,0,2.29,0,3.44,0,.63-.12,1-.83,1.07-.91.11-2,.84-2.62.4s-.14-1.71-.2-2.61c0-.42,0-.85,0-1.27Z"/></svg>