<svg id="Layer_1" data-name="Layer 1" xmlns="http://www.w3.org/2000/svg" xmlns:xlink="http://www.w3.org/1999/xlink" viewBox="0 0 258.78 130"><defs><style>.cls-1{fill:#2f2e41;}.cls-2{clip-path:url(#clip-path);}</style><clipPath id="clip-path"><path class="cls-1" d="M276.4,27.06c-5,2.09-4,6.35,1.71,6,14.5-1,33.39,9.74,43.5,27.31S328.69,93,328.69,93c-1,4.35-3.88,6.94-7.83,6.94-6.34,0-14.21-6.25-18-20.86-2.28-8.76-.38-14,2.65-15.44,4.65-2.2,10.83,3.1,13.21,7.55.82,1.15,1.48,1,1.3-.53-4.31-20.48-33.52-33-41.7-15.2s10.4,50.36,37.62,56.16c8.73,1.86,34.75,3.35,33.18-21.71C346.78,52.77,312.76,25,287.42,25a28.38,28.38,0,0,0-11,2.08"/></clipPath></defs><path class="cls-1" d="M124.87,90.1C110.65,66.34,96.81,42.8,82.78,18.71c-1.14-2-2.59-5-3.54-5.31-3.3-1.12-14,.89-16.71-.2,0,.24,0,.56.19.6,17.22,29.74,33.85,60.31,50.94,89.87,2.45,4.24,4.88,8.55,7.67,12.59,3-1.54,6.79-3.44,8.46-6.49,4-7.39-1.9-14.62-4.92-19.67"/><path class="cls-1" d="M67.64,35.23C57.19,53.71,44.52,74.78,33.62,94c-1.51,2.67-4.11,6.35-4.52,8.66-1.41,7.85,4.68,11.5,10,13.76,12.33-22.09,25-43.85,37.37-65.88-3-5-5.75-10.38-8.85-15.34"/><path class="cls-1" d="M80,57.26C68.87,77,57.35,96.33,46.21,116.06c22.52.1,44.93.29,67.65.2-3-5.37-5.77-10.89-9.25-15.73H73.15c5.48-8.81,11.51-17.07,16.91-26-3.45-5.65-6.34-11.88-10-17.3"/><path class="cls-1" d="M229.89,115.67v-11c-5.11-.14-10.75.26-15.54-.2V61.59H201.77c-.23,0-.22.31-.2.59v53.49Z"/><path class="cls-1" d="M196.26,94.43H183.48c-.12,5.35.84,11.71-3.35,12.58-2,.42-4.55-.38-5.31-2.16-1.4-3.29-.39-10.53-.39-16.72s-.92-13.91.79-16.52c.81-1.24,3.26-2,4.91-1.57,3.36.77,3.18,5.51,3.15,10.42h12.78c1.41-14.95-5.68-21.3-19.86-20.25-4.62.34-8.32,1.9-10.62,4.32-4.43,4.69-3.93,13.35-3.93,22.82,0,7.08-.6,15.75,1.18,20.85s6.61,8.22,12.19,8.65c10,.77,20.33-2.66,21.24-13.57.23-2.75-.16-5.31,0-8.85"/><path class="cls-1" d="M142.57,115.67h12.79V61.59H142.77c-.23,0-.22.31-.2.59Z"/><path class="cls-1" d="M276.4,27.06c-5,2.09-4,6.35,1.71,6,14.5-1,33.39,9.74,43.5,27.31S328.69,93,328.69,93c-1,4.35-3.88,6.94-7.83,6.94-6.34,0-14.21-6.25-18-20.86-2.28-8.76-.38-14,2.65-15.44,4.65-2.2,10.83,3.1,13.21,7.55.82,1.15,1.48,1,1.3-.53-4.31-20.48-33.52-33-41.7-15.2s10.4,50.36,37.62,56.16c8.73,1.86,34.75,3.35,33.18-21.71C346.78,52.77,312.76,25,287.42,25a28.38,28.38,0,0,0-11,2.08"/><g class="cls-2"><polygon class="cls-1" points="315.85 -15.18 394.93 76.03 304.95 155.07 225.87 63.86 315.85 -15.18"/></g></svg>