<svg id="Layer_1" data-name="Layer 1" xmlns="http://www.w3.org/2000/svg" xmlns:xlink="http://www.w3.org/1999/xlink" viewBox="0 0 258.78 130"><defs><style>.cls-1{fill:#2f2e41;}.cls-2{clip-path:url(#clip-path);}</style><clipPath id="clip-path"><path class="cls-1" d="M276.4,41.94c-5,2.1-4,6.35,1.71,6,14.5-1,33.39,9.75,43.5,27.32s7.08,32.61,7.08,32.61c-1,4.36-3.88,6.94-7.83,6.94-6.34,0-14.21-6.25-18-20.86-2.28-8.75-.38-14,2.65-15.43,4.65-2.21,10.83,3.09,13.21,7.55.82,1.14,1.48,1,1.3-.54-4.31-20.48-33.52-33-41.7-15.2s10.4,50.36,37.62,56.17c8.73,1.86,34.75,3.34,33.18-21.71-2.32-37.1-36.34-64.89-61.68-64.89a28.38,28.38,0,0,0-11,2.08"/></clipPath></defs><path class="cls-1" d="M124.87,103.15c-14.22-23.76-28.06-47.3-42.09-71.39-1.14-2-2.59-5-3.54-5.31-3.3-1.12-14,.89-16.71-.2,0,.23,0,.56.19.59,17.22,29.75,33.85,60.32,50.94,89.88,2.45,4.24,4.88,8.55,7.67,12.59,3-1.54,6.79-3.44,8.46-6.49,4-7.39-1.9-14.62-4.92-19.67"/><path class="cls-1" d="M67.64,48.28c-10.45,18.48-23.12,39.55-34,58.8-1.51,2.66-4.11,6.35-4.52,8.65-1.41,7.86,4.68,11.51,10,13.77,12.33-22.09,25-43.85,37.37-65.88-3-5-5.75-10.38-8.85-15.34"/><path class="cls-1" d="M80,70.31C68.87,90,57.35,109.38,46.21,129.11c22.52.09,44.93.29,67.65.2-3-5.37-5.77-10.89-9.25-15.74H73.15c5.48-8.8,11.51-17.06,16.91-26C86.61,82,83.72,75.73,80,70.31"/><path class="cls-1" d="M229.89,128.72v-11c-5.11-.13-10.75.26-15.54-.19V74.63H201.77c-.23,0-.22.31-.2.6v53.49Z"/><path class="cls-1" d="M196.26,107.47H183.48c-.12,5.36.84,11.72-3.35,12.59-2,.42-4.55-.38-5.31-2.16-1.4-3.29-.39-10.53-.39-16.72s-.92-13.91.79-16.52c.81-1.24,3.26-2,4.91-1.57,3.36.76,3.18,5.51,3.15,10.42h12.78c1.41-15-5.68-21.3-19.86-20.25-4.62.34-8.32,1.9-10.62,4.32-4.43,4.69-3.93,13.35-3.93,22.82,0,7.08-.6,15.75,1.18,20.84s6.61,8.22,12.19,8.66c10,.77,20.33-2.67,21.24-13.57.23-2.75-.16-5.32,0-8.86"/><path class="cls-1" d="M142.57,128.72h12.79V74.63H142.77c-.23,0-.22.31-.2.6Z"/><path class="cls-1" d="M276.4,41.94c-5,2.1-4,6.35,1.71,6,14.5-1,33.39,9.75,43.5,27.32s7.08,32.61,7.08,32.61c-1,4.36-3.88,6.94-7.83,6.94-6.34,0-14.21-6.25-18-20.86-2.28-8.75-.38-14,2.65-15.43,4.65-2.21,10.83,3.09,13.21,7.55.82,1.14,1.48,1,1.3-.54-4.31-20.48-33.52-33-41.7-15.2s10.4,50.36,37.62,56.17c8.73,1.86,34.75,3.34,33.18-21.71-2.32-37.1-36.34-64.89-61.68-64.89a28.38,28.38,0,0,0-11,2.08"/><g class="cls-2"><polygon class="cls-1" points="315.85 -0.29 394.93 90.92 304.95 169.96 225.87 78.75 315.85 -0.29"/></g></svg>