<svg id="Layer_1" data-name="Layer 1" xmlns="http://www.w3.org/2000/svg" viewBox="0 0 258.78 130"><defs><style>.cls-1{font-size:34.52px;font-family:HelveticaRounded-Bold, Helvetica Rounded;font-weight:700;}.cls-1,.cls-2{fill:#2f2e41;}.cls-3{fill:#fff;}</style></defs><text class="cls-1" transform="translate(59.72 122.61)">integrity</text><path class="cls-2" d="M128.37,9.86c-6.9,0-12.49,8.92-12.49,19.92,0,.37,0,.73,0,1.09,8.67,4.86,13.6,12.87,11.92,18.8l.55,0a8.14,8.14,0,0,0,1.71-.18c-1.47-5.62,2.91-13,10.73-17.91,0-.6,0-1.21,0-1.82,0-11-5.59-19.92-12.48-19.92"/><path class="cls-2" d="M102.69,27.12c-4.71,0-8.6,1.67-10.41,4.92-3.35,6,1.75,15.25,11.36,20.59a31.88,31.88,0,0,0,5.16,2.28c4.33-3.87,9.25-6,13.41-6a9.22,9.22,0,0,1,5.35,1.55,6.81,6.81,0,0,0,.26-.76c-6.42-.44-11.58-8.6-11.92-18.8l-.14-.08a27.54,27.54,0,0,0-13.07-3.67"/><path class="cls-2" d="M115.9,30.87c.34,10.2,5.5,18.36,11.92,18.8,1.68-5.93-3.25-13.94-11.92-18.8"/><path class="cls-2" d="M155.24,27.12a27.54,27.54,0,0,0-13.06,3.67c-.47.26-.93.53-1.37.81-.53,9.25-5,16.66-10.73,17.91,0,0,0,.09,0,.15a9.34,9.34,0,0,1,4-.86c4.26,0,9.28,2.35,13.62,6.53a30.91,30.91,0,0,0,6.5-2.7C163.91,47.29,169,38.08,165.65,32c-1.8-3.25-5.69-4.92-10.41-4.92"/><path class="cls-2" d="M140.8,31.6c-7.81,4.86-12.19,12.29-10.72,17.91,5.71-1.25,10.2-8.66,10.72-17.91"/><path class="cls-2" d="M127.56,50.43a6.86,6.86,0,0,1-.45,1c-1.8,3.25-5.69,4.91-10.4,4.91a25.07,25.07,0,0,1-7.91-1.38,31.92,31.92,0,0,0-3,3.11c-7.11,8.4-8.61,18.82-3.35,23.27a9,9,0,0,0,6,2c5.18,0,11.52-3.32,16.45-9.15a31.34,31.34,0,0,0,3.29-4.68c-3.91-7.29-4-14.88.09-18.56l0,0c-.2-.17-.4-.32-.61-.47"/><path class="cls-2" d="M122.21,48.88c-4.16,0-9.08,2.15-13.41,6a25.07,25.07,0,0,0,7.91,1.38c4.71,0,8.6-1.66,10.4-4.91a6.86,6.86,0,0,0,.45-1,9.29,9.29,0,0,0-5.35-1.55"/><path class="cls-2" d="M130.12,49.65a8.27,8.27,0,0,0-1.53.94l-.39.33c4.29,3.67,4.05,11.31-.09,18.56A32,32,0,0,0,131.05,74c4.84,6.18,11.28,9.77,16.54,9.77A8.83,8.83,0,0,0,153.16,82c5.43-4.25,4.33-14.72-2.45-23.38a31.62,31.62,0,0,0-2.92-3.24,24.39,24.39,0,0,1-6.56,1c-4.72,0-8.61-1.66-10.41-4.92a7.58,7.58,0,0,1-.7-1.72"/><path class="cls-2" d="M134.17,48.8a9.59,9.59,0,0,0-4.06.85,8.4,8.4,0,0,0,.71,1.73c1.8,3.25,5.7,4.91,10.41,4.91a24.39,24.39,0,0,0,6.56-1c-4.34-4.18-9.36-6.53-13.62-6.53"/><path class="cls-2" d="M128.2,50.92c-4.12,3.68-4,11.27-.09,18.56,4.14-7.25,4.38-14.89.09-18.56"/><path class="cls-3" d="M132.06,32.32a3.86,3.86,0,1,1-3.86-3.83,3.84,3.84,0,0,1,3.86,3.83"/><path class="cls-3" d="M131.37,44c0-2.34-1.4-4.25-3.14-4.25s-3.14,1.91-3.14,4.25V57.78a5.64,5.64,0,0,0,.08.93A22.59,22.59,0,0,0,128,69.57a22.45,22.45,0,0,0,3.25-10.87,4.63,4.63,0,0,0,.08-.92Z"/></svg>