<svg id="Layer_1" data-name="Layer 1" xmlns="http://www.w3.org/2000/svg" xmlns:xlink="http://www.w3.org/1999/xlink" viewBox="0 0 258.78 130"><defs><style>.cls-1{fill:#2f2e41;}.cls-2{clip-path:url(#clip-path);}</style><clipPath id="clip-path"><path class="cls-1" d="M11.4-111.06c-5,2.1-4,6.35,1.71,6,14.5-1,33.39,9.75,43.5,27.32s7.08,32.61,7.08,32.61c-1,4.36-3.88,6.94-7.83,6.94-6.34,0-14.21-6.25-18-20.86-2.28-8.75-.38-14,2.65-15.43C45.14-76.73,51.32-71.43,53.7-67c.82,1.14,1.48,1,1.3-.54-4.31-20.48-33.52-33-41.7-15.2S23.7-32.35,50.92-26.54c8.73,1.86,34.75,3.34,33.18-21.71-2.32-37.1-36.34-64.89-61.68-64.89a28.38,28.38,0,0,0-11,2.08"/></clipPath></defs><polygon class="cls-1" points="111.95 72.69 115.46 66.35 76.19 54.24 76.24 54.97 111.95 72.69"/><polygon class="cls-1" points="117.14 63.55 120.64 57.22 76.26 52.63 76.28 53.17 117.14 63.55"/><path class="cls-1" d="M154.16,81.67a1.66,1.66,0,0,0,0,3.31,1.66,1.66,0,0,0,0-3.31m0,3.07a1.42,1.42,0,0,1,0-2.83,1.42,1.42,0,0,1,0,2.83"/><path class="cls-1" d="M154.9,82.9c.08-.68-.89-.52-1.34-.54v1.92h.24v-.84h.35l.57.84H155l-.57-.84a.51.51,0,0,0,.48-.54m-.79.32h-.31v-.64c.74-.22,1.34.63.31.64"/><path class="cls-1" d="M86.94,82.52c-6.44-.39-8.13.25-11,5.92-3.08,3.8,9.28,2.79,9.89.75.63-1.66,5.56-6.25,1.15-6.67m-1.81,2.76c-.73,1-1.56,3.74-3.27,3.5-.44-.13-3.45.45-2.77-.68s1.5-3.46,3.19-3.42c.42.13,3.43-.42,2.85.6"/><path class="cls-1" d="M98,86.71a4.61,4.61,0,0,0,2.85-2.42c1.3-3.06-7.91-1.35-9.2-1.77l-5.48,8.32c2.56-.41,9.76,1.14,11.4-1.37.19-.67,1.63-2.39.43-2.76m-4,2.08H90.7l.81-1.14h3.25Zm2.06-3H92.77l.81-1.15h3.23Z"/><path class="cls-1" d="M106,82.68c-4-.72-6,5.6-7.66,8h3.54l5-8Z"/><path class="cls-1" d="M112,82.84h-3.63c-5.57,8.51-5.52,8,4.55,7.84l1.21-2.06h-5.73Z"/><path class="cls-1" d="M126.86,84.84l1.48-2.16c-2.55.18-9.22-.78-10.78,1.68-6,8.3-.9,6,5.67,6.32l1-1.9H118l.64-1h6.16L126.07,86h-6.13l.77-1.14Z"/><path class="cls-1" d="M139.89,82.52c-3.36-.29-4.27.19-5.54,3.3h-3.24l2.23-3.3c-1.68-.11-4.08-.1-4.64,1.61-1.48,1.76-2.67,3.72,1,3.51l-1.73,3h3.73l1.73-3C136.84,88.43,138.29,84.61,139.89,82.52Z"/><path class="cls-1" d="M77.59,82.66c.4-4-12.15-1.51-14-2.15l-6.7,10.36h3.82l4.85-7.65h2.72l-4.7,7.65h3.15l4.79-7.65h2.57l-4.73,7.65H73c.42-.94,4.76-7.26,4.62-8.21"/><path class="cls-1" d="M140.23,84.36c-6.29,8.23-1.13,6,5.5,6.32l1.43-2.05H141l.31-.83h6.16L148.74,86h-6.13l.77-1.14h6.15L151,82.68c-2.55.17-9.23-.78-10.78,1.68"/><path class="cls-1" d="M176,125.54c-6.95,4-7.14-9.26,0-5.49v-1.36c-9.09-3.66-9,12.09,0,8.25Zm4.38-5.08c-4.23-.14-4.33,7.24,0,7.05,4.3.2,4.35-7.28,0-7.05M179,122.28c2.18-2.39,4.3,1.57,2.77,3.44-2.11,2.31-4.31-1.6-2.77-3.44m15.51.51c.27-2.51-3.26-3.19-4.18-1-.43-1.71-3.24-1.76-3.89-.13v-1.09h-1.32v6.83h1.32c.22-1.48-.82-5.67,1.52-5.78,2.09-.17.9,4.66,1.2,5.78h1.32c.22-1.47-.83-5.68,1.52-5.78,2.07-.17.89,4.67,1.19,5.78h1.32Zm3.11,3.56c6.45,5.6,6.47-10.41,0-4.74v-1H196.3V130h1.32Zm.56-4.17c2.25-2.07,4.06,1.82,2.58,3.52-2.17,2.27-4.23-1.89-2.58-3.52m7.28,3.95c-1.15-1.48,1.06-2,2.25-1.79.35,1.41-1,2.69-2.25,1.79m2.29,1.26h1.3c.17-3.6.53-8.72-4.78-6.48v1.28c1.27-1,3.82-1,3.44,1.2-6-1.13-4.25,6.63,0,3.19Zm8.72-4.62c.24-2.5-3.41-3.14-4.32-1v-1.17h-1.32v6.83h1.32c0-1.71-.6-7.33,2.65-5.4.69.56.23,4.6.35,5.4h1.32Zm7.47-2.21h-1.41c-.38,1.09-1.65,4.79-1.73,5.1-.46-1.26-1.43-3.87-1.92-5.1h-1.46l2.72,6.68a1.88,1.88,0,0,1-2.29,1.39v1.13C221.67,130.85,222.67,122.81,223.94,120.56Z"/><path class="cls-1" d="M172.9,105.18c.35,1.28.93,3,1.44,4.65h-2.91c.66-2,1.44-4.43,1.47-4.65M171.06,111h3.66l.71,2.22h1.49l-3.1-9.08H172l-3.14,9.08h1.47Zm12.85-2.4c.23-2.5-3.42-3.14-4.33-1v-1.17h-1.32v6.83h1.32c0-1.71-.6-7.33,2.65-5.4.69.56.23,4.6.36,5.4h1.32Zm6.45-4.46H189v9.08h1.38Zm7.66,4.46c.24-2.5-3.42-3.14-4.32-1v-1.17h-1.32v6.83h1.32c0-1.71-.6-7.33,2.64-5.4.7.56.24,4.6.36,5.4H198Zm5.36,3.26c-2.74,1.72-1.67-3.26-1.87-4.45h1.79v-1h-1.79v-1.67h-1.33v1.67h-1.07v1h1.07c0,2.24-.61,7.25,3.2,5.63Zm6.55-.19c-1.32.94-4,.65-4.14-1.32h4.49a3,3,0,0,0-5-3.11,3.69,3.69,0,0,0,4.61,5.62Zm-1.27-3.82a2.07,2.07,0,0,1,.42,1.46h-3.3c0-1.53,1.8-2.56,2.88-1.46m4.64-4.15H212v9.52h1.34Z"/><path class="cls-1" d="M42,85.5C39.94,70.4,46.23,62,54.22,52.69l-5.87-.83-.76.81h0a49.9,49.9,0,0,0-8.68,12.68h0c-25.06,62.22,72,68.89,120.26,46.8V100.24C126.47,114.73,51.25,125.27,42,85.5"/><path class="cls-1" d="M196.61,47.28c-3.75-23.6-35.21-33-68.68-29.79h0c.81-.81-47.28,4.28-73.77,28.87h0s-.3.24-.82.69l6,.37c13.85-11.84,52.3-25.77,75.73-24.88,47.48-2.35,78.06,32.68,30,65v9.29c5.09-.43,38.15-23.93,31.51-49.58"/><path class="cls-1" d="M116,73h10l10-18.34h4.53L130.36,73H140l10.21-18.34h4.46L144.32,73h11.47L169,52.76c5.09-8.9-33.27-3.66-36.34-5h0c-.66.35-55.83,2.7-56.26,3.66l50,3.26Z"/><path class="cls-1" d="M11.4-111.06c-5,2.1-4,6.35,1.71,6,14.5-1,33.39,9.75,43.5,27.32s7.08,32.61,7.08,32.61c-1,4.36-3.88,6.94-7.83,6.94-6.34,0-14.21-6.25-18-20.86-2.28-8.75-.38-14,2.65-15.43C45.14-76.73,51.32-71.43,53.7-67c.82,1.14,1.48,1,1.3-.54-4.31-20.48-33.52-33-41.7-15.2S23.7-32.35,50.92-26.54c8.73,1.86,34.75,3.34,33.18-21.71-2.32-37.1-36.34-64.89-61.68-64.89a28.38,28.38,0,0,0-11,2.08"/><g class="cls-2"><polygon class="cls-1" points="50.85 -153.29 129.93 -62.08 39.95 16.96 -39.13 -74.25 50.85 -153.29"/></g></svg>