<svg id="Layer_1" data-name="Layer 1" xmlns="http://www.w3.org/2000/svg" viewBox="0 0 258.78 130"><defs><style>.cls-1{fill:#2f2e41;fill-rule:evenodd;}</style></defs><path class="cls-1" d="M34.83,105.05l11.6,14.78c5.84,7.34,18.85,10.71,28.23,7.08l.09.09c-10.71,5.66-24.87,2.83-33.81-4.43-6.28-5-9.91-11.86-15.27-17.52v11.68a3.15,3.15,0,0,0,.67,1.69h-4.6a2.75,2.75,0,0,0,.59-1.69V89.12c4.45,5.31,8.17,10.35,12.5,15.93Zm214.26,10.26a3.5,3.5,0,1,1,3.54,3.46A3.48,3.48,0,0,1,249.09,115.31Zm3.54,3.1a3.07,3.07,0,0,0,3.1-3.09,3.14,3.14,0,0,0-6.28,0A3.09,3.09,0,0,0,252.63,118.41Z"/><path class="cls-1" d="M251.08,113.3h2c.86,0,1.34.35,1.34,1.06a1.08,1.08,0,0,1-.68,1c.29,0,.68.18.68.8,0,.44,0,.88.19,1.06h-1a1.23,1.23,0,0,1-.09-.61c0-.69-.17-1-.77-1h-1v1.56h-.67V113.3Zm.67,1.78h1.13a.63.63,0,0,0,.7-.62c0-.52-.34-.61-.7-.61h-1.13v1.23ZM235,118.86c-1.86,0-14.07-.35-14.07-14.33S233.07,90.46,235,90.46s14,.17,14,14.07-12.21,14.33-14.07,14.33Zm0-3.78c.8,0,6.46.26,6.37-11.06,0-10.45-5.48-10.09-6.37-10.09s-6.46-.36-6.46,10.09c-.09,11.32,5.57,11.06,6.37,11.06Zm-17.56-23v3.45a22.47,22.47,0,0,0-3.79-1.42c-1.15-.26-6.27-1.5-8.65,1.06-1.06,1.06-1.42,2.91.7,4.41,2.83,1.86,7,2.74,10.33,5.48,2.2,1.76,2.91,3.79,2.38,7s-4.06,5.74-7.24,6.44a25,25,0,0,1-13.76-1.23v-3.44c3.79,1.58,9.62,3.61,13.24.44a3.19,3.19,0,0,0,1.06-3.53c-.8-2.48-7.51-4-11.66-7a6.49,6.49,0,0,1-2.2-9.18c3.8-5.74,13.5-4.15,19.59-2.47ZM194,92v3.46a18.13,18.13,0,0,0-3.73-1.42c-1.24-.27-6.29-1.51-8.77,1.06-1.07,1.06-1.33,2.93.7,4.43,2.93,1.86,7,2.75,10.47,5.5,2.21,1.77,2.92,3.81,2.3,7s-4.08,5.76-7.18,6.47a25.13,25.13,0,0,1-13.83-1.24v-3.46c3.72,1.59,9.58,3.63,13.21.44a3.17,3.17,0,0,0,1.06-3.54c-.79-2.49-7.53-4-11.61-7a6.63,6.63,0,0,1-2.31-9.22C178.1,88.73,187.86,90.33,194,92ZM97.8,92v3.45A22.34,22.34,0,0,0,94,94.07c-1.15-.26-6.28-1.5-8.67,1.07-1.06,1.06-1.41,2.92.71,4.42,2.83,1.86,7,2.74,10.36,5.49,2.21,1.77,2.92,3.8,2.38,7s-4.07,5.75-7.25,6.46a25,25,0,0,1-13.81-1.24l.09-3.45c3.72,1.59,9.56,3.63,13.19.44a3.2,3.2,0,0,0,1.06-3.54c-.8-2.47-7.52-4-11.68-7a6.59,6.59,0,0,1-2.22-9.2C82,88.76,91.69,90.36,97.8,92Zm-60,12.24c4.21,5.58,8,10.71,12.39,15.93V92.6a2.83,2.83,0,0,1,.61-1.68H46.11a2.63,2.63,0,0,1,.71,1.68v11.68c-4-4.15-7-9.11-10.81-13.36-.44-.62-3.78-4.16-4.75-5a26,26,0,0,0-28.57-5l.09.18c3.61-1.24,8.7-1.15,13.8.88a19.21,19.21,0,0,1,8.71,6.29c.7.88,12.48,16.1,12.48,16.1Zm25.3,11.39c3.73.35,8.27-.27,11.91-.36v3.11H55.33a2.52,2.52,0,0,0,.62-1.69V92.6a2.5,2.5,0,0,0-.62-1.68H75V94c-3.64-.09-8.18-.71-11.91-.27v9a48.88,48.88,0,0,0,9.46-.09v3.27a67.89,67.89,0,0,0-9.46-.18v9.92Zm96.4,0c3.73.35,8.26-.27,11.91-.36v3.11H151.61a2.52,2.52,0,0,0,.62-1.69V92.6a2.5,2.5,0,0,0-.62-1.68h19.77V94c-3.65-.09-8.18-.71-11.91-.27v9a48.89,48.89,0,0,0,9.46-.09v3.27a67.92,67.92,0,0,0-9.46-.18v9.92Zm-26.72-8.61v9.67a2.5,2.5,0,0,0,.63,1.69H125a2.52,2.52,0,0,0,.62-1.69V92.6a2.5,2.5,0,0,0-.62-1.68h14.23c3.89.18,8,2.3,8.14,7,0,3.81-1.68,6-4.16,7.25-.53.18-.44.09-.62.27,1.77,4.15,3.45,7.25,5.57,11.31a4.32,4.32,0,0,0,1.33,1.69h-8.59a1.55,1.55,0,0,0,0-1.69s-3.1-7.27-4.52-9.67Zm0-12.72v9.29c2.39,0,5.22.36,6.91-1.59a5.54,5.54,0,0,0,.17-5.93C138.24,93.37,132.75,94.34,132.75,94.34Zm-23.51,22.39a2.5,2.5,0,0,0,.63,1.69h-8.46a2.52,2.52,0,0,0,.62-1.69V92.6a2.5,2.5,0,0,0-.62-1.68h14c3.47.09,6.14,1.68,7.3,5,.89,3,.71,6.81-1.34,9.2-2.85,3.8-12.2,3.18-12.2,3.18Zm-.09-22.3v10.26c2.39.18,5.22.45,6.91-1.41,1.41-1.86,1.15-5.49.17-7.17-1.59-2.74-7.08-1.68-7.08-1.68Z"/></svg>