<svg id="Layer_1" data-name="Layer 1" xmlns="http://www.w3.org/2000/svg" viewBox="0 0 258.78 130"><defs><style>.cls-1{fill:none;}.cls-2{fill:#2f2e41;}.cls-3{fill:#fff;}</style></defs><path class="cls-1" d="M250.69,75.75V130H21.47l1.37-.23a11.55,11.55,0,0,0,6.48-3.14,13.46,13.46,0,0,0,3.92-12.76,25.16,25.16,0,0,0-1.71-5.38Q26.3,96.37,21,84.26a2.63,2.63,0,0,0-.19-.37c-.1.21-.18.37-.25.53l-3.81,8.74c-2.21,5.13-4.44,10.25-6.63,15.39a23.39,23.39,0,0,0-1.89,6.66,2.24,2.24,0,0,1-.19.55V66.26H250.69v3.45l-2.08.05c-.45,1.14-.88,2.24-1.32,3.34,0,0,0,0,0,0h-.09l-1.29-3.35h-2.06v5.94h1.25V74.18c0-.5,0-1,0-1.51a3.54,3.54,0,0,1,.14-1.44q.81,2.23,1.64,4.49h.78c.59-1.5,1.07-3,1.68-4.5l.12,0v4.51Zm-31.63,26q3-7.93,6.06-15.84l.14,0v15.81h9.37V69.76h-11c-2,5.19-4,10.4-6,15.59l-.13,0-1.86-15.55H204.88l-9.2,31.93h10.11q.71-2.69,1.41-5.32c.47-1.78.93-3.55,1.4-5.32s.9-3.5,1.41-5.24l.11,0L212,101.71ZM74.68,86.2l-.13,0c-2.12-5.5-4.25-11-6.36-16.46h-10c-.16.56-4.62,31.47-4.51,31.94h9.89c.76-5.32,1.51-10.61,2.27-15.91l.13,0,6.48,15.94h10c.76-5.32,1.47-10.64,2.28-15.95.89-5.89,2.24-15.56,2.16-16H77Q75.85,78,74.68,86.2Zm67.8-16.45q-8,16-16,32h11c.09-.2.18-.4.26-.6l1.13-2.85c.2-.49.2-.5.74-.5H147c.17,0,.35,0,.58,0,.07,1.31.13,2.6.2,3.9h10.55q-2.15-16-4.28-31.95Zm-32.82,0H90.3L85.76,101.7h19.36L106.36,93H97.53L98,89.88h4c1.34,0,2.68,0,4,0l1.18-8.28H99.16l.45-3.14h8.82C108.84,75.54,109.25,72.69,109.66,69.77Zm75,0H165.24q-2.28,16-4.55,31.94h10.53c.56-3.94,1.12-7.86,1.68-11.83H181l1.16-8.29h-6.43c-.53,0-1.06,0-1.64,0l.45-3.11h8.84C183.79,75.53,184.2,72.68,184.62,69.76Zm-50.18,0h-22l-1.26,8.83,5.79-.11c-1.11,7.78-2.2,15.48-3.3,23.22h10.45c1.1-7.75,2.2-15.47,3.31-23.23l5.75.12C133.6,75.65,134,72.73,134.44,69.77Zm59.15,31.94c1.52-10.66,3-21.28,4.55-31.95H187.69c-.17.56-4.6,31.44-4.52,31.95ZM37.6,66.35c-.11.24-.2.41-.27.59q-2.85,6.56-5.68,13.11c-.56,1.3-1.11,2.61-1.58,4a9.28,9.28,0,0,0-.38,5.56,8.1,8.1,0,0,0,5.27,6,7.35,7.35,0,0,0,3.66.38,7.46,7.46,0,0,0,3.81-1.52,8.69,8.69,0,0,0,3.15-8.72,19,19,0,0,0-1.36-4.08L37.86,66.9C37.79,66.73,37.71,66.58,37.6,66.35ZM243,70.87v-1.1h-5v1.12h1.81v4.82h1.42c.05-1.63,0-3.22,0-4.84Z"/><path class="cls-2" d="M8.08,115.76a2.24,2.24,0,0,0,.19-.55,23.39,23.39,0,0,1,1.89-6.66c2.19-5.14,4.42-10.26,6.63-15.39l3.81-8.74c.07-.16.15-.32.25-.53a2.63,2.63,0,0,1,.19.37q5.25,12.12,10.49,24.23a25.16,25.16,0,0,1,1.71,5.38,13.46,13.46,0,0,1-3.92,12.76,11.55,11.55,0,0,1-6.48,3.14l-1.37.23H20.28l-1.37-.22A11.55,11.55,0,0,1,12,126.19a13.42,13.42,0,0,1-3.69-7.67,2.64,2.64,0,0,0-.2-.6Z"/><path class="cls-3" d="M8.08,117.92a2.64,2.64,0,0,1,.2.6A13.42,13.42,0,0,0,12,126.19a11.55,11.55,0,0,0,6.94,3.59l1.37.22H8.08Z"/><path class="cls-2" d="M250.69,75.75h-1.27V71.24l-.12,0c-.61,1.47-1.09,3-1.68,4.5h-.78q-.83-2.25-1.64-4.49a3.54,3.54,0,0,0-.14,1.44c0,.5,0,1,0,1.51v1.53h-1.25V69.77h2.06l1.29,3.35h.09s0,0,0,0c.44-1.1.87-2.2,1.32-3.34l2.08-.05Z"/><path class="cls-2" d="M219.06,101.71h-7l-1.92-15.87-.11,0c-.51,1.74-.93,3.5-1.41,5.24s-.93,3.54-1.4,5.32-.94,3.53-1.41,5.32H195.68l9.2-31.93h10.78l1.86,15.55.13,0c2-5.19,4-10.4,6-15.59h11v31.95h-9.37V85.9l-.14,0Q222.11,93.78,219.06,101.71Z"/><path class="cls-2" d="M74.68,86.2Q75.85,78,77,69.77h9.88c.08.43-1.27,10.1-2.16,16-.81,5.31-1.52,10.63-2.28,15.95h-10L66,85.77l-.13,0c-.76,5.3-1.51,10.59-2.27,15.91H53.69c-.11-.47,4.35-31.38,4.51-31.94h10c2.11,5.46,4.24,11,6.36,16.46Z"/><path class="cls-2" d="M142.48,69.75h11.58q2.15,16,4.28,32H147.79c-.07-1.3-.13-2.59-.2-3.9-.23,0-.41,0-.58,0h-7.34c-.54,0-.54,0-.74.5l-1.13,2.85c-.08.2-.17.4-.26.6h-11Q134.52,85.69,142.48,69.75Zm4.7,19.69c-.16-3.23-.32-6.4-.49-9.68a2.29,2.29,0,0,0-.42.21c-.07.06-.09.19-.13.29q-1.75,4.36-3.5,8.74c0,.13-.08.27-.13.44Z"/><path class="cls-2" d="M109.66,69.77c-.41,2.92-.82,5.77-1.23,8.68H99.61l-.45,3.14h8.07l-1.18,8.28c-1.35,0-2.69,0-4,0H98L97.53,93h8.83l-1.24,8.69H85.76L90.3,69.77Z"/><path class="cls-2" d="M184.62,69.76c-.42,2.92-.83,5.77-1.24,8.69h-8.84l-.45,3.11c.58,0,1.11,0,1.64,0h6.43L181,89.87h-8.1c-.56,4-1.12,7.89-1.68,11.83H160.69q2.28-16,4.55-31.94Z"/><path class="cls-2" d="M134.44,69.77c-.42,3-.84,5.88-1.26,8.83l-5.75-.12c-1.11,7.76-2.21,15.48-3.31,23.23H113.67c1.1-7.74,2.19-15.44,3.3-23.22l-5.79.11,1.26-8.83Z"/><path class="cls-2" d="M193.59,101.71H183.17c-.08-.51,4.35-31.39,4.52-31.95h10.45C196.63,80.43,195.11,91.05,193.59,101.71Z"/><path class="cls-2" d="M37.6,66.35c.11.23.19.38.26.55l6.36,14.68a19,19,0,0,1,1.36,4.08,8.69,8.69,0,0,1-3.15,8.72,7.46,7.46,0,0,1-3.81,1.52A7.35,7.35,0,0,1,35,95.52a8.1,8.1,0,0,1-5.27-6A9.28,9.28,0,0,1,30.07,84c.47-1.34,1-2.65,1.58-4q2.82-6.57,5.68-13.11C37.4,66.76,37.49,66.59,37.6,66.35Z"/><path class="cls-2" d="M243,70.87H241.2c-.07,1.62,0,3.21,0,4.84h-1.42V70.89h-1.81V69.77h5Z"/><path class="cls-3" d="M147.18,89.44h-4.67c.05-.17.08-.31.13-.44q1.76-4.36,3.5-8.74c0-.1.06-.23.13-.29a2.29,2.29,0,0,1,.42-.21C146.86,83,147,86.21,147.18,89.44Z"/></svg>