<svg id="Layer_1" data-name="Layer 1" xmlns="http://www.w3.org/2000/svg" xmlns:xlink="http://www.w3.org/1999/xlink" viewBox="0 0 258.78 130"><defs><style>.cls-1{fill:none;}.cls-2{clip-path:url(#clip-path);}.cls-3{fill:#2f2e41;}</style><clipPath id="clip-path"><rect class="cls-1" x="3.89" y="44.81" width="251" height="40.38"/></clipPath></defs><g class="cls-2"><path class="cls-3" d="M4.5,77.57a2,2,0,0,1-.61-1.5V48.13A3,3,0,0,1,4.78,46a2.88,2.88,0,0,1,2.15-.91h.61a3.14,3.14,0,0,1,2.57,1.4l18,26V47.2a2.1,2.1,0,0,1,.61-1.52,2,2,0,0,1,1.49-.63,2.1,2.1,0,0,1,1.53.63,2.08,2.08,0,0,1,.63,1.52V75.13a2.92,2.92,0,0,1-.91,2.16,3,3,0,0,1-2.18.89h-.56a3,3,0,0,1-1.41-.35,3.29,3.29,0,0,1-1.07-.92L8.15,50.75V76.07a2,2,0,0,1-.63,1.5A2.16,2.16,0,0,1,6,78.18a2,2,0,0,1-1.49-.61"/><path class="cls-3" d="M108.88,77.57a2.07,2.07,0,0,1-.6-1.5V49.26H98.73a1.93,1.93,0,0,1-2-2,2,2,0,0,1,.57-1.43,1.89,1.89,0,0,1,1.4-.58H122a2,2,0,0,1,2,2,1.89,1.89,0,0,1-.59,1.41,2,2,0,0,1-1.43.56h-9.5V76.07a2,2,0,0,1-.63,1.5,2.14,2.14,0,0,1-1.52.61,2.08,2.08,0,0,1-1.5-.61"/><path class="cls-3" d="M141,77.57a2.07,2.07,0,0,1-.6-1.5V47.43a2.13,2.13,0,0,1,.6-1.52,2,2,0,0,1,1.5-.63h10.67a15.34,15.34,0,0,1,7.25,1.5,9.31,9.31,0,0,1,4,3.83,11.16,11.16,0,0,1,0,10.11,9.28,9.28,0,0,1-4,3.84,15.34,15.34,0,0,1-7.25,1.5h-8.52v10a2,2,0,0,1-.63,1.5,2.14,2.14,0,0,1-1.52.61,2.08,2.08,0,0,1-1.5-.61M152.79,62q4.77,0,6.71-1.82a6.26,6.26,0,0,0,0-9.08q-1.94-1.83-6.71-1.83h-8.1V62Z"/><path class="cls-3" d="M172.75,77.08a2.84,2.84,0,0,1-.87-2.09V47.2a2.1,2.1,0,0,1,.61-1.52,2,2,0,0,1,1.5-.63,2.15,2.15,0,0,1,2.15,2.15V73.68h15.3a2.17,2.17,0,0,1,2.15,2.16,2,2,0,0,1-.63,1.49,2.1,2.1,0,0,1-1.52.61H174.83a2.85,2.85,0,0,1-2.08-.86"/><path class="cls-3" d="M204.68,77a11.89,11.89,0,0,1-7-11.33V47.2a2.14,2.14,0,0,1,.61-1.52,2,2,0,0,1,1.5-.63,2.15,2.15,0,0,1,2.15,2.15V65.82a8.51,8.51,0,0,0,1.29,4.78,8,8,0,0,0,3.39,2.94,10.7,10.7,0,0,0,9,0A8,8,0,0,0,219,70.6a8.51,8.51,0,0,0,1.29-4.78V47.2a2.1,2.1,0,0,1,.61-1.52,2,2,0,0,1,1.49-.63,2.06,2.06,0,0,1,1.52.63,2.09,2.09,0,0,1,.64,1.52V65.68a11.89,11.89,0,0,1-7,11.33,15.4,15.4,0,0,1-12.83,0"/><path class="cls-3" d="M231.77,76.16a2.08,2.08,0,0,1-.93-.77,2,2,0,0,1,.16-2.52,1.8,1.8,0,0,1,1.38-.59,2.09,2.09,0,0,1,.89.19,22.37,22.37,0,0,0,9.22,1.92q8.19,0,8.19-5.39a3,3,0,0,0-1.06-2.33A7.51,7.51,0,0,0,247,65.19c-1-.36-2.5-.79-4.4-1.29A54.78,54.78,0,0,1,236.5,62a10.75,10.75,0,0,1-4-2.74,6.91,6.91,0,0,1-1.68-4.86,8.81,8.81,0,0,1,1.4-4.85,9.72,9.72,0,0,1,4.14-3.46,15.35,15.35,0,0,1,6.58-1.29,26.62,26.62,0,0,1,9.31,1.55,1.81,1.81,0,0,1,1.31,1.87,2,2,0,0,1-.51,1.35,1.7,1.7,0,0,1-1.36.61,2.21,2.21,0,0,1-.75-.18,22.64,22.64,0,0,0-7.53-1.27,11.46,11.46,0,0,0-6,1.41,4.36,4.36,0,0,0-2.31,3.93,3.58,3.58,0,0,0,1.1,2.73,7.4,7.4,0,0,0,2.76,1.64,42.06,42.06,0,0,0,4.51,1.24,48.32,48.32,0,0,1,6,1.78,9.68,9.68,0,0,1,3.88,2.76,7.46,7.46,0,0,1,1.62,5.06,7.86,7.86,0,0,1-1.5,4.7,9.81,9.81,0,0,1-4.21,3.25,15.72,15.72,0,0,1-6.27,1.17,27.76,27.76,0,0,1-11.14-2.25"/><path class="cls-3" d="M59.32,74H42.71V49.26H59.32a2,2,0,0,0,1.42-.56,1.86,1.86,0,0,0,.59-1.41,1.93,1.93,0,0,0-.59-1.43,2,2,0,0,0-1.42-.58H40.55a2,2,0,0,0-1.49.63,2.1,2.1,0,0,0-.61,1.52V75.84a2.08,2.08,0,0,0,2.1,2.1H59.32a2,2,0,0,0,1.42-.56,1.82,1.82,0,0,0,.59-1.4,2,2,0,0,0-2-2"/><path class="cls-3" d="M69.31,45.89a2,2,0,0,0-.74-.61,2.15,2.15,0,0,0-1-.23,2,2,0,0,0-2.06,2.05A2.11,2.11,0,0,0,66,48.42L76.66,61.61,65.85,74.9a2.14,2.14,0,0,0-.42,1.31,2,2,0,0,0,2,2A2,2,0,0,0,69,77.33L81.48,61.56Z"/><path class="cls-3" d="M49.16,63.58H63.43a2,2,0,0,0,2-2h0a2,2,0,0,0-2-2H49.16a2,2,0,0,0-2,2h0a2,2,0,0,0,2,2"/><path class="cls-3" d="M92.31,74.9,82.46,62.69l-2.52,3.23,9,11.42a2.1,2.1,0,0,0,3.21.28,2.07,2.07,0,0,0,.59-1.5,1.76,1.76,0,0,0-.42-1.22"/><path class="cls-3" d="M92.31,48.18a2,2,0,0,0-.24-2.61A2,2,0,0,0,90.62,45a1.75,1.75,0,0,0-1.55.75L80,57.29l2.36,3.08Z"/></g></svg>