<svg id="Layer_1" data-name="Layer 1" xmlns="http://www.w3.org/2000/svg" xmlns:xlink="http://www.w3.org/1999/xlink" viewBox="0 0 258.78 130"><defs><style>.cls-1{fill:none;}.cls-2{clip-path:url(#clip-path);}.cls-3{fill:#2f2e41;}</style><clipPath id="clip-path"><rect class="cls-1" x="3.89" y="89.62" width="251" height="40.38"/></clipPath></defs><g class="cls-2"><path class="cls-3" d="M4.5,122.38a2,2,0,0,1-.61-1.5V93a3,3,0,0,1,.89-2.18,2.88,2.88,0,0,1,2.15-.91h.61a3.16,3.16,0,0,1,2.57,1.4l18,26V92a2.1,2.1,0,0,1,.61-1.52,2,2,0,0,1,1.49-.63,2.1,2.1,0,0,1,1.53.63A2.08,2.08,0,0,1,32.39,92V120a2.92,2.92,0,0,1-.91,2.15,3,3,0,0,1-2.18.89h-.56a3,3,0,0,1-1.41-.35,3.39,3.39,0,0,1-1.07-.91L8.15,95.57v25.31a2,2,0,0,1-.63,1.5A2.12,2.12,0,0,1,6,123a2,2,0,0,1-1.49-.61"/><path class="cls-3" d="M108.88,122.38a2,2,0,0,1-.6-1.5V94.07H98.73a1.93,1.93,0,0,1-2-2,2,2,0,0,1,.57-1.42,1.86,1.86,0,0,1,1.4-.59H122a2,2,0,0,1,1.43.59,1.93,1.93,0,0,1,.59,1.42,1.88,1.88,0,0,1-.59,1.41,2,2,0,0,1-1.43.56h-9.5v26.81a2,2,0,0,1-.63,1.5,2.1,2.1,0,0,1-1.52.61,2,2,0,0,1-1.5-.61"/><path class="cls-3" d="M141,122.38a2,2,0,0,1-.6-1.5V92.24a2.15,2.15,0,0,1,.6-1.52,2,2,0,0,1,1.5-.63h10.67a15.34,15.34,0,0,1,7.25,1.5,9.28,9.28,0,0,1,4,3.84,11.16,11.16,0,0,1,0,10.11,9.26,9.26,0,0,1-4,3.83,15.34,15.34,0,0,1-7.25,1.5h-8.52v10a2,2,0,0,1-.63,1.5,2.1,2.1,0,0,1-1.52.61,2,2,0,0,1-1.5-.61m11.75-15.53q4.77,0,6.71-1.83a6.26,6.26,0,0,0,0-9.08q-1.94-1.81-6.71-1.82h-8.1v12.73Z"/><path class="cls-3" d="M172.75,121.89a2.83,2.83,0,0,1-.87-2.08V92a2.1,2.1,0,0,1,.61-1.52,2,2,0,0,1,1.5-.63A2.15,2.15,0,0,1,176.14,92V118.5h15.3a2.15,2.15,0,0,1,2.15,2.15,2,2,0,0,1-.63,1.5,2.14,2.14,0,0,1-1.52.61H174.83a2.82,2.82,0,0,1-2.08-.87"/><path class="cls-3" d="M204.68,121.82a11.89,11.89,0,0,1-7-11.33V92a2.14,2.14,0,0,1,.61-1.52,2,2,0,0,1,1.5-.63A2.15,2.15,0,0,1,201.92,92v18.63a8.5,8.5,0,0,0,1.29,4.77,8.13,8.13,0,0,0,3.39,3,10.8,10.8,0,0,0,9,0,8.13,8.13,0,0,0,3.39-3,8.5,8.5,0,0,0,1.29-4.77V92a2.1,2.1,0,0,1,.61-1.52,2,2,0,0,1,1.49-.63,2.06,2.06,0,0,1,1.52.63,2.09,2.09,0,0,1,.64,1.52v18.48a12.22,12.22,0,0,1-2,7.05,12.08,12.08,0,0,1-5.05,4.28,15.4,15.4,0,0,1-12.83,0"/><path class="cls-3" d="M231.77,121a2.22,2.22,0,0,1-.93-.77,2,2,0,0,1-.38-1.15,2,2,0,0,1,.54-1.38,1.8,1.8,0,0,1,1.38-.59,2.26,2.26,0,0,1,.89.19,22.37,22.37,0,0,0,9.22,1.92q8.19,0,8.19-5.38a3,3,0,0,0-1.06-2.34A7.51,7.51,0,0,0,247,110c-1-.35-2.5-.78-4.4-1.28a56.7,56.7,0,0,1-6.13-1.9,10.75,10.75,0,0,1-4-2.74,6.87,6.87,0,0,1-1.68-4.86,8.81,8.81,0,0,1,1.4-4.85,9.72,9.72,0,0,1,4.14-3.46,15.35,15.35,0,0,1,6.58-1.29,26.62,26.62,0,0,1,9.31,1.55A1.81,1.81,0,0,1,253.53,93,2.07,2.07,0,0,1,253,94.4a1.73,1.73,0,0,1-1.36.61,2.27,2.27,0,0,1-.75-.19,22.89,22.89,0,0,0-7.53-1.26,11.46,11.46,0,0,0-6,1.4,4.39,4.39,0,0,0-2.31,3.93,3.6,3.6,0,0,0,1.1,2.74,7.53,7.53,0,0,0,2.76,1.64,44.57,44.57,0,0,0,4.51,1.24,46.83,46.83,0,0,1,6,1.77,9.88,9.88,0,0,1,3.88,2.76,7.48,7.48,0,0,1,1.62,5.06,7.84,7.84,0,0,1-1.5,4.7,9.81,9.81,0,0,1-4.21,3.25,15.72,15.72,0,0,1-6.27,1.17A27.92,27.92,0,0,1,231.77,121"/><path class="cls-3" d="M59.32,118.78H42.71V94.07H59.32a2,2,0,0,0,1.42-.56,1.84,1.84,0,0,0,.59-1.41,1.89,1.89,0,0,0-.59-1.42,1.93,1.93,0,0,0-1.42-.59H40.55a2,2,0,0,0-1.49.63,2.11,2.11,0,0,0-.61,1.52v28.41a2.08,2.08,0,0,0,2.1,2.11H59.32a2,2,0,0,0,1.42-.57,1.82,1.82,0,0,0,.59-1.4,2,2,0,0,0-2-2"/><path class="cls-3" d="M69.31,90.7a2,2,0,0,0-.74-.61,2.28,2.28,0,0,0-1-.23,2,2,0,0,0-1.47.58,2,2,0,0,0-.59,1.48A2.08,2.08,0,0,0,66,93.23l10.71,13.19L65.85,119.71a2.16,2.16,0,0,0-.42,1.31,2,2,0,0,0,2,2,2.07,2.07,0,0,0,1.63-.84l12.45-15.77Z"/><path class="cls-3" d="M49.16,108.39H63.43a2,2,0,0,0,2-2h0a2,2,0,0,0-2-2H49.16a2,2,0,0,0-2,2h0a2,2,0,0,0,2,2"/><path class="cls-3" d="M92.31,119.71l-9.85-12.2-2.52,3.22,9,11.43a2.11,2.11,0,0,0,3.21.28,2.11,2.11,0,0,0,.59-1.51,1.77,1.77,0,0,0-.42-1.22"/><path class="cls-3" d="M92.31,93a1.92,1.92,0,0,0,.37-1.17,1.9,1.9,0,0,0-.61-1.43,2,2,0,0,0-1.45-.59,1.75,1.75,0,0,0-1.55.75L80,102.1l2.36,3.08Z"/></g></svg>