<svg id="Layer_1" data-name="Layer 1" xmlns="http://www.w3.org/2000/svg" viewBox="0 0 258.78 130"><defs><style>.cls-1{fill:#2f2e41;}.cls-2{fill:#fff;}</style></defs><g id="g144"><path id="path238" class="cls-1" d="M50.94,25.51c.64-1.64,4.78-12,7.68-7.81a36.13,36.13,0,0,1,4.49,7.81,18,18,0,0,1,1.19,4,248.83,248.83,0,0,1,54.59-5.82c60.62,0,109.76,16.41,109.76,39.48,0,21.8-49.14,39.47-109.76,39.47a265.15,265.15,0,0,1-57.68-6.79c-.9-.22-1,.1-1.14.44-.37.9,1.85,1.68,3.82,2.28,19.28,5.68,38.82,9.58,63.3,9.58,60.31,0,111.42-19.35,110.68-46.29C238.24,38.6,190.2,17,126,18c-3.36,0-6.68-.13-10,0-.74,0-1.85-.15-1.93-1.06s1.6-1.32,2.75-1.49a232,232,0,0,1,49.89-.59c14.34,1.33,30.44,3.84,45.8,9.35C238.16,33.46,253,46.06,253,63c-1.08,31.34-58.3,52.26-125.68,51.51-63.88-.86-118.95-25.91-118.19-49,0-11.22,13-22,33.94-29.79.07-3.64.69-7.65,3.64-4.6l2.43,2.5.31-.11a8.71,8.71,0,0,1,0-1.78,17.35,17.35,0,0,1,1.53-6.24"/><path id="path242" class="cls-2" d="M166.78,43.65a2.74,2.74,0,1,1,2.74,2.74,2.74,2.74,0,0,1-2.74-2.74"/><path id="path246" class="cls-2" d="M144.7,86.94a1.9,1.9,0,1,1,1.89,1.9,1.89,1.89,0,0,1-1.89-1.9"/><path id="path250" class="cls-2" d="M141.33,90.7a1.9,1.9,0,1,1,1.89,1.9,1.89,1.89,0,0,1-1.89-1.9"/><path id="path254" class="cls-2" d="M137.81,86.94a1.89,1.89,0,1,1,1.89,1.9,1.89,1.89,0,0,1-1.89-1.9"/><path id="path258" class="cls-2" d="M194.18,43.86a3.7,3.7,0,0,0,1,1.39,3.27,3.27,0,0,0,1.86,1h10.84l-3.62,16.28a10.71,10.71,0,0,1-2.56,4.81,10.87,10.87,0,0,1-4.87,3.42L203,82.31l-10.31,0-12.82-23-3.29,14.22h5.18l-2.1,8.82H162.82a8.07,8.07,0,0,0,2.68-2.83,10.94,10.94,0,0,0,1.27-3.39l6.8-29.79h6.74a4.78,4.78,0,0,1,2.58,1.14,8,8,0,0,1,2.19,2.69l7.29,12.68a4.22,4.22,0,0,0,2-1.14,3.35,3.35,0,0,0,1.18-1.87l1-4.58h-4.87Z"/><path id="path262" class="cls-2" d="M96.64,43.32a4.38,4.38,0,0,0,1.43,2,4,4,0,0,0,2.41.95h29.65l-8.19,36-34.15,0,5.13-22.55a6.88,6.88,0,0,1,2-2.79,7,7,0,0,1,3.33-1.83h-4.3Zm2.58,30.13h15.37l4.17-18.31H103.39Z"/><path id="path266" class="cls-2" d="M138.07,70.67a2.88,2.88,0,0,0,0,1.8,1.55,1.55,0,0,0,1.31,1h12.09c1.18-.15,1.69-.5,2-1.23a13.27,13.27,0,0,0,1-3.13l2.76-11.57a1.72,1.72,0,0,0-.2-1.77,1.78,1.78,0,0,0-1.45-.57h-14Zm-2.79-27.35a3.8,3.8,0,0,0,3.58,2.94h24.27a5.23,5.23,0,0,1,2.56,1.2,4.58,4.58,0,0,1,1.79,5.12L162,76.35a9.29,9.29,0,0,1-1.91,3.21,8.24,8.24,0,0,1-3.48,2.27,7.39,7.39,0,0,1-1.9.44H132.47a4.57,4.57,0,0,1-3.31-1.45A4.35,4.35,0,0,1,127.7,78a3.46,3.46,0,0,1,0-1.36l3.49-15.37a9,9,0,0,1,5.74-6.13l-4.36,0Z"/><path id="path270" class="cls-2" d="M56.94,18.86a32.67,32.67,0,0,0-4.09,7.4,15.21,15.21,0,0,0-1.4,5.65,7.11,7.11,0,0,0,1.75,5.15,13.42,13.42,0,0,0,3.7,3.66,13.64,13.64,0,0,0,3.76-3.66,7.19,7.19,0,0,0,1.85-5.15,15.12,15.12,0,0,0-1.3-5.65,33.59,33.59,0,0,0-4.27-7.4"/><path id="path274" class="cls-2" d="M68.85,59l-.06,7.53a7,7,0,0,1-1.64,3.85l-5.64,5.66c-.61.61-.95,1-1.5,1.6a17.87,17.87,0,0,0-1.75,2.39l.06-8c.21-1.16-.12-.77.35-2a5.7,5.7,0,0,1,1.62-2.31Z"/><path id="path278" class="cls-2" d="M68.85,45.8l-.06,7.52a6.13,6.13,0,0,1-.47,1.93,6.36,6.36,0,0,1-1.17,1.93l-5.64,5.66a20.58,20.58,0,0,0-1.5,1.6,18.43,18.43,0,0,0-1.75,2.38l.06-8c.21-1.16-.12-.78.35-2a5.63,5.63,0,0,1,1.62-2.31Z"/><path id="path282" class="cls-2" d="M68.85,32.56l-.06,7.52a7,7,0,0,1-1.64,3.86l-5.64,5.72A16.76,16.76,0,0,0,60,51.2a14.58,14.58,0,0,0-1.75,2.38l.06-8c.21-1.15-.12-.77.35-2a5.63,5.63,0,0,1,1.62-2.31Z"/><path id="path286" class="cls-2" d="M45.25,59l-.07,7.53a5.32,5.32,0,0,0,.44,1.92,5.52,5.52,0,0,0,1.13,1.93l5.55,5.66a20.06,20.06,0,0,1,1.46,1.6,16.83,16.83,0,0,1,1.72,2.39l.07-8c-.18-1.16.13-.77-.31-2a5.56,5.56,0,0,0-1.58-2.31Z"/><path id="path290" class="cls-2" d="M45.25,45.8l-.07,7.52a6.93,6.93,0,0,0,1.57,3.86l5.55,5.66a18.47,18.47,0,0,1,1.46,1.6,17.33,17.33,0,0,1,1.72,2.38l.07-8c-.18-1.16.13-.78-.31-2a5.5,5.5,0,0,0-1.58-2.31Z"/><path id="path294" class="cls-2" d="M45.25,32.56l-.07,7.52A5.37,5.37,0,0,0,45.62,42a5.46,5.46,0,0,0,1.13,1.93l5.55,5.65a20.19,20.19,0,0,1,1.46,1.61,16.74,16.74,0,0,1,1.72,2.38l.07-8c-.18-1.15.13-.77-.31-2a5.5,5.5,0,0,0-1.58-2.31Z"/><path id="path298" class="cls-2" d="M73.15,41.89c6.66,5,11,11.46,11,20.57C84.11,77.73,72,89.29,57,89.29S29.89,77.73,29.89,62.46c0-9.09,4.3-15.51,10.93-20.55l0,7.92C37.6,53.65,35.63,57,35.63,62.46c0,12,9.57,21,21.37,21s21.37-8.93,21.37-21c0-5.46-2-8.81-5.21-12.63Z"/></g></svg>