<svg id="Layer_1" data-name="Layer 1" xmlns="http://www.w3.org/2000/svg" xmlns:xlink="http://www.w3.org/1999/xlink" viewBox="0 0 258.78 130"><defs><style>.cls-1{fill:#2f2e41;}.cls-2{fill:url(#radial-gradient);}</style><radialGradient id="radial-gradient" cx="-951.65" cy="-1359.6" r="0.18" gradientTransform="matrix(270.05, 311.47, 190.18, -167.06, 515770.41, 69345.64)" gradientUnits="userSpaceOnUse"><stop offset="0" stop-color="#2f2e41"/><stop offset="0.31" stop-color="#2f2e41"/><stop offset="0.34" stop-color="#2f2e41"/><stop offset="0.49" stop-color="#2f2e41"/><stop offset="1" stop-color="#2f2e41"/></radialGradient></defs><g id="g10"><path id="path22" class="cls-1" d="M175.85,72h0q0,5.64-6.62,5.64a10.16,10.16,0,0,1-3.39-.46,1.07,1.07,0,0,1-.77-1V73.18c0-.6.34-.87,1-.82h1.8c1.09,0,1.63-.5,1.63-1.52V64.28a2.93,2.93,0,0,0-.25-1.44,1.89,1.89,0,0,0-1.59-.57h-3a1.77,1.77,0,0,0-1.63.82V76.23c0,.77-.36,1.15-1.08,1.15h-4.27c-.68,0-1-.38-1-1.15V63.82a3.09,3.09,0,0,0-.69-1.67l-.69-1a1.81,1.81,0,0,1-.38-.81,1.08,1.08,0,0,1,.34-.9l3.34-2.53a1.71,1.71,0,0,1,1-.37.94.94,0,0,1,.77.33l.62.82c.35.43.77,1,1.26,1.63a11.12,11.12,0,0,1,1.75-1.8,4,4,0,0,1,2.26-.57h3.34q6.26,0,6.25,6.21Zm-23-1.38c0,2.37-.66,4.11-2,5.22s-3.79,1.76-7,1.76a37,37,0,0,1-7.71-.59c-.68-.18-1-.56-1-1.13V73.05c0-.68.36-1,1.07-.94,1.57.12,3.66.17,6.25.17A11.79,11.79,0,0,0,145.6,72q1-.33,1-1.71V63.25a1.23,1.23,0,0,0-.86-1.23,6.74,6.74,0,0,0-2-.21c-1,0-1.83,0-2.48.09V65c0,.08.18.12.46.12h1.42a.76.76,0,0,1,.85.86v2.44c0,.69-.51,1-1.54,1h-5.27a3.73,3.73,0,0,1-1.4-.17c-.4-.19-.61-.68-.61-1.46V58.64a1.07,1.07,0,0,1,1-1.11,32,32,0,0,1,7.31-.69q6.33,0,7.88,1.69a7.39,7.39,0,0,1,1.54,5.12ZM131.26,57a1,1,0,0,1,1.11,1.11v.23l-.37,4A24.62,24.62,0,0,1,130.19,70,15.66,15.66,0,0,1,126,75.25a49.67,49.67,0,0,1-9.72,5.89c-.68.33-1.13.31-1.35-.08l-1.47-2.89a2.5,2.5,0,0,1-.29-.66.85.85,0,0,1,.38-.82q1.88-.94,4.66-2.65l0-.21-4.83-15.49a1.61,1.61,0,0,1,0-.39q0-1,.9-1h4.16A1.45,1.45,0,0,1,120,58.11L122.49,67a12.82,12.82,0,0,1,0,4.54l.16.14a6.23,6.23,0,0,0,2-3.26,25.42,25.42,0,0,0,.86-5.64l.31-4.32c.09-1,.44-1.47,1.07-1.47Zm-21.65,0c1.29,0,1.93.58,1.93,1.72v1.63a4,4,0,0,1-.21,1.36l-5.14,14.64c-.27.71-.64,1.07-1.11,1.07h-4.6c-.53,0-.79-.31-.79-.94a1.53,1.53,0,0,1,.12-.56l4.71-13.44H94.76c-.69,0-1-.36-1-1.07V53c0-.78.34-1.17,1-1.17H99c.71,0,1.06.39,1.06,1.17V57ZM73.33,76.23c0,.77-.35,1.15-1.06,1.15H68c-.68,0-1-.38-1-1.15v-5.7a8.11,8.11,0,0,1,1-3.93A1.1,1.1,0,0,1,69.05,66h3.3c.66,0,1,.32,1,.94Zm11.85,0c0,.77-.34,1.15-1,1.15H79.87c-.71,0-1.06-.38-1.06-1.15V64.55a2,2,0,0,0-1.59-2.07,13.08,13.08,0,0,0-3-.21c-1.63,0-3.88.07-6.77.21-.68,0-1-.29-1-.94v-3a1,1,0,0,1,.9-1.15,53.45,53.45,0,0,1,8.9-.52q4.89,0,7,1.71,1.92,1.63,1.92,5.31ZM63.82,70.57q0,3.56-2,5.22-2.19,1.75-7,1.76A37.07,37.07,0,0,1,47.12,77c-.68-.18-1-.56-1-1.13V73.05c0-.68.35-1,1.06-.94,1.58.12,3.66.17,6.25.17A11.93,11.93,0,0,0,56.59,72c.65-.22,1-.79,1-1.71V63.25A1.23,1.23,0,0,0,56.71,62a6.74,6.74,0,0,0-2.05-.21c-1,0-1.83,0-2.48.09V65c0,.08.18.12.46.12h1.42a.76.76,0,0,1,.85.86v2.44c0,.69-.51,1-1.54,1H48.1a3.76,3.76,0,0,1-1.4-.17c-.4-.19-.6-.68-.6-1.46V58.64a1.06,1.06,0,0,1,1-1.11,32,32,0,0,1,7.31-.69q6.33,0,7.88,1.69a7.39,7.39,0,0,1,1.55,5.12ZM42.7,67.87c0,.78-.35,1.17-1.06,1.17H37.35q-1,0-1-1.17V58a.91.91,0,0,1,1-1h4.33q1,0,1,1.2Zm-15.77,1.3V65.09a3.88,3.88,0,0,0-.59-2.58,3.49,3.49,0,0,0-2.44-.61h-.48a3.64,3.64,0,0,0-2.41.53,3.88,3.88,0,0,0-.53,2.5v4.28a3.65,3.65,0,0,0,.63,2.56,3.83,3.83,0,0,0,2.52.59h.23a3.36,3.36,0,0,0,2.34-.67,3.4,3.4,0,0,0,.73-2.52M32,59.49c.88,1.42,1.32,3.88,1.32,7.36q0,5.79-1.76,8.17c-1.25,1.77-3.88,2.65-7.87,2.65h0a22.76,22.76,0,0,1-4.45-.33,6.12,6.12,0,0,1-3.67-2.28C14.51,73.58,14,71,14,67.24s.43-6.28,1.3-7.71c1.19-1.93,4-2.9,8.37-2.9h0q6.51,0,8.31,2.86"/><path id="path48" class="cls-2" d="M184.87,30.27c-4.18,1.75-3.33,5.29,1.42,5h0c12.08-.82,27.82,8.12,36.25,22.76h0c8.43,14.64,5.9,27.18,5.9,27.18h0c-.8,3.63-3.23,5.78-6.52,5.78h0c-5.28,0-11.85-5.21-15-17.38h0c-1.9-7.3-.32-11.67,2.2-12.86h0c3.89-1.84,9,2.58,11,6.29h0c.69.95,1.24.81,1.08-.45h0c-3.58-17.06-27.92-27.5-34.74-12.67h0c-6.8,14.8,8.67,42,31.35,46.81h0c7.27,1.55,28.95,2.78,27.65-18.09h0c-1.94-30.91-30.28-54.07-51.4-54.07h0a23.71,23.71,0,0,0-9.18,1.73"/><path id="path60" class="cls-1" d="M212.75,71.36a.59.59,0,0,0-1.1,0c-1,3.33,4.94,14.48,9.21,13.5,2.76-.63,2.36-6.71,2-10-.08-.68-.85-.8-1.25-.15-.84,1.35-6.54,3.52-8.83-3.28"/><path id="path64" class="cls-1" d="M212.71,64.55h-.12l-.11,0-.11,0a.27.27,0,0,0-.08.07l-.93.95-.08.06-.1,0-.11,0H211l-1.74-.1a.65.65,0,0,0-.29.06.4.4,0,0,0-.18.16.41.41,0,0,0,0,.22.48.48,0,0,0,.15.22l1,.89a.38.38,0,0,1,.09.09.37.37,0,0,1,.05.11.2.2,0,0,1,0,.11.36.36,0,0,1,0,.1l-.41,1.06a.35.35,0,0,0,0,.2.5.5,0,0,0,.1.19.59.59,0,0,0,.18.13.61.61,0,0,0,.24.07h.19l1.82-.36h.25l.06,0,.06,0,.06,0,1.71.87.06,0,.06,0h.12a.79.79,0,0,0,.22,0,.51.51,0,0,0,.18-.09.45.45,0,0,0,.1-.14.31.31,0,0,0,0-.19l-.22-1.15a.21.21,0,0,1,0-.11.17.17,0,0,1,0-.1l.07-.09L215,68l1.16-.55a.31.31,0,0,0,.19-.39.49.49,0,0,0-.14-.21.74.74,0,0,0-.28-.14l-1.69-.41-.12,0-.1-.06a.8.8,0,0,1-.15-.15l-.75-1.2a.39.39,0,0,0-.08-.1l-.11-.08-.13,0-.13,0"/></g></svg>