<svg id="Layer_1" data-name="Layer 1" xmlns="http://www.w3.org/2000/svg" xmlns:xlink="http://www.w3.org/1999/xlink" viewBox="0 0 258.78 130"><defs><style>.cls-1{fill:#2f2e41;}.cls-2{clip-path:url(#clip-path);}</style><clipPath id="clip-path"><path class="cls-1" d="M11.4,41.94c-5,2.1-4,6.35,1.71,6,14.5-1,33.39,9.75,43.5,27.32s7.08,32.61,7.08,32.61c-1,4.36-3.88,6.94-7.83,6.94-6.34,0-14.21-6.25-18-20.86-2.28-8.75-.38-14,2.65-15.43C45.14,76.27,51.32,81.57,53.7,86c.82,1.14,1.48,1,1.3-.54-4.31-20.48-33.52-33-41.7-15.2s10.4,50.36,37.62,56.17c8.73,1.86,34.75,3.34,33.18-21.71-2.32-37.1-36.34-64.89-61.68-64.89a28.38,28.38,0,0,0-11,2.08"/></clipPath></defs><path class="cls-1" d="M11.4,41.94c-5,2.1-4,6.35,1.71,6,14.5-1,33.39,9.75,43.5,27.32s7.08,32.61,7.08,32.61c-1,4.36-3.88,6.94-7.83,6.94-6.34,0-14.21-6.25-18-20.86-2.28-8.75-.38-14,2.65-15.43C45.14,76.27,51.32,81.57,53.7,86c.82,1.14,1.48,1,1.3-.54-4.31-20.48-33.52-33-41.7-15.2s10.4,50.36,37.62,56.17c8.73,1.86,34.75,3.34,33.18-21.71-2.32-37.1-36.34-64.89-61.68-64.89a28.38,28.38,0,0,0-11,2.08"/><g class="cls-2"><polygon class="cls-1" points="50.85 -0.29 129.93 90.92 39.95 169.96 -39.13 78.75 50.85 -0.29"/></g><path class="cls-1" d="M44.86,91.25a.71.71,0,0,0-1.32,0c-1.2,4,5.92,17.38,11.06,16.2,3.31-.76,2.82-8.06,2.36-12-.1-.81-1-1-1.5-.18-1,1.62-7.85,4.22-10.6-3.94"/><path class="cls-1" d="M44.81,83.08a.65.65,0,0,0-.14,0l-.14,0-.12.05a.39.39,0,0,0-.1.08l-1.12,1.14-.09.08-.12,0-.13,0h-.14l-2.08-.12a.73.73,0,0,0-.35.07.52.52,0,0,0-.22.19.41.41,0,0,0,0,.27.48.48,0,0,0,.18.26l1.26,1.07a.35.35,0,0,1,.1.11.54.54,0,0,1,.07.13.51.51,0,0,1,0,.13.31.31,0,0,1,0,.13L41.14,88a.49.49,0,0,0,0,.24.53.53,0,0,0,.12.22.73.73,0,0,0,.22.16.83.83,0,0,0,.28.08H42l2.18-.43h.3l.08,0,.07,0,.07,0,2,1.05.07,0,.08,0H47a.75.75,0,0,0,.26,0,.6.6,0,0,0,.21-.11.31.31,0,0,0,.13-.17.33.33,0,0,0,0-.22l-.26-1.38a.33.33,0,0,1,0-.14.28.28,0,0,1,0-.12.39.39,0,0,1,.08-.1.42.42,0,0,1,.12-.08L49,86.51a.44.44,0,0,0,.22-.2.5.5,0,0,0,0-.27.59.59,0,0,0-.17-.25.85.85,0,0,0-.33-.16l-2-.5-.13,0a.35.35,0,0,1-.12-.07l-.11-.08-.08-.1-.89-1.44-.1-.12-.13-.09L45,83.11l-.17,0"/><path class="cls-1" d="M252.38,92.68h0q0,5.7-6.69,5.7a10.1,10.1,0,0,1-3.42-.46,1.08,1.08,0,0,1-.78-1v-3c0-.61.34-.88,1-.82h1.82c1.1,0,1.64-.52,1.64-1.55V84.94a3,3,0,0,0-.25-1.46,1.92,1.92,0,0,0-1.6-.57h-3.06a1.79,1.79,0,0,0-1.65.82V97c0,.78-.37,1.16-1.1,1.16H234c-.69,0-1-.38-1-1.16V84.47a3.12,3.12,0,0,0-.7-1.69l-.69-1a1.76,1.76,0,0,1-.38-.82,1.08,1.08,0,0,1,.33-.91l3.38-2.56a1.73,1.73,0,0,1,1-.38,1,1,0,0,1,.78.34l.63.83c.35.43.77,1,1.27,1.64a10.39,10.39,0,0,1,1.77-1.81,4.1,4.1,0,0,1,2.28-.57h3.38q6.31,0,6.31,6.27Zm-23.25-1.39q0,3.58-2,5.28-2.22,1.77-7,1.77a37.82,37.82,0,0,1-7.79-.59c-.69-.18-1-.56-1-1.14V93.8c0-.69.36-1,1.08-1,1.59.12,3.69.17,6.31.17a12.11,12.11,0,0,0,3.21-.25c.66-.23,1-.8,1-1.73V83.9a1.24,1.24,0,0,0-.86-1.24,6.46,6.46,0,0,0-2.07-.22c-1,0-1.85,0-2.51.09v3.1c0,.09.18.13.46.13h1.44a.76.76,0,0,1,.86.86v2.47c0,.69-.52,1-1.56,1h-5.32a3.86,3.86,0,0,1-1.42-.17c-.4-.2-.61-.69-.61-1.48V79.24a1.07,1.07,0,0,1,1-1.12,32.12,32.12,0,0,1,7.39-.7q6.41,0,8,1.71a7.4,7.4,0,0,1,1.57,5.17Zm-21.8-13.74a1,1,0,0,1,1.12,1.12v.23l-.38,4a24.24,24.24,0,0,1-1.83,7.81,15.8,15.8,0,0,1-4.19,5.3,50,50,0,0,1-9.81,6c-.69.34-1.15.31-1.38-.08L189.39,99a2.47,2.47,0,0,1-.3-.68.85.85,0,0,1,.38-.82c1.27-.64,2.84-1.53,4.71-2.69l0-.21-4.88-15.64a2.58,2.58,0,0,1,0-.4c0-.66.3-1,.91-1h4.2A1.46,1.46,0,0,1,196,78.71l2.51,9a12.81,12.81,0,0,1,0,4.58l.17.15a6.31,6.31,0,0,0,2.07-3.3,25.18,25.18,0,0,0,.87-5.7l.31-4.37q.14-1.47,1.08-1.47Zm-21.87,0c1.29,0,1.94.57,1.94,1.73v1.64a4.13,4.13,0,0,1-.21,1.38L182,97.1c-.26.71-.64,1.07-1.11,1.07h-4.65c-.53,0-.8-.31-.8-1a1.45,1.45,0,0,1,.13-.57l4.74-13.57h-9.85a.94.94,0,0,1-1-1.08V73.58c0-.79.35-1.19,1-1.19h4.24c.72,0,1.08.4,1.08,1.19v4ZM148.8,97c0,.78-.36,1.16-1.08,1.16H143.4c-.69,0-1-.38-1-1.16V91.25a8.2,8.2,0,0,1,1-4,1.09,1.09,0,0,1,1.07-.57h3.34c.66,0,1,.32,1,1Zm12,0c0,.78-.34,1.16-1,1.16h-4.33c-.72,0-1.08-.38-1.08-1.16V85.21a2,2,0,0,0-1.6-2.09,13.4,13.4,0,0,0-3-.21q-2.48,0-6.84.21c-.69,0-1-.29-1-1v-3a1,1,0,0,1,.9-1.16,54.34,54.34,0,0,1,9-.53q4.93,0,7.05,1.73,1.93,1.65,1.94,5.37Zm-21.59-5.72q0,3.58-2,5.28-2.22,1.77-7.06,1.77a37.89,37.89,0,0,1-7.79-.59c-.69-.18-1-.56-1-1.14V93.8c0-.69.36-1,1.08-1,1.59.12,3.69.17,6.31.17a12.21,12.21,0,0,0,3.21-.25c.66-.23,1-.8,1-1.73V83.9a1.23,1.23,0,0,0-.87-1.24,6.43,6.43,0,0,0-2.06-.22q-1.53,0-2.52.09v3.1c0,.09.19.13.47.13h1.43a.77.77,0,0,1,.87.86v2.47c0,.69-.52,1-1.56,1h-5.32a3.86,3.86,0,0,1-1.42-.17c-.41-.2-.61-.69-.61-1.48V79.24a1.07,1.07,0,0,1,1-1.12,32.06,32.06,0,0,1,7.39-.7q6.41,0,8,1.71a7.45,7.45,0,0,1,1.56,5.17Zm-21.33-2.72c0,.79-.36,1.18-1.08,1.18h-4.32c-.69,0-1-.39-1-1.18v-10a.91.91,0,0,1,1-1h4.37c.69,0,1,.4,1,1.2Zm-15.93,1.31V85.76a4,4,0,0,0-.6-2.61,3.52,3.52,0,0,0-2.46-.62h-.49a3.71,3.71,0,0,0-2.44.54,3.88,3.88,0,0,0-.53,2.52v4.33A3.64,3.64,0,0,0,96,92.5a3.8,3.8,0,0,0,2.54.61h.24a3.38,3.38,0,0,0,2.36-.69,3.44,3.44,0,0,0,.74-2.54m5.15-9.78c.89,1.44,1.33,3.91,1.33,7.43q0,5.85-1.77,8.26-1.91,2.68-8,2.68h0a22.28,22.28,0,0,1-4.5-.34,6.23,6.23,0,0,1-3.72-2.3q-1.56-2.23-1.56-7.9t1.31-7.79q1.82-2.92,8.47-2.93h0q6.58,0,8.4,2.89"/></svg>