<svg id="Layer_1" data-name="Layer 1" xmlns="http://www.w3.org/2000/svg" xmlns:xlink="http://www.w3.org/1999/xlink" viewBox="0 0 258.78 130"><defs><style>.cls-1{fill:none;}.cls-2{fill:#2f2e41;}.cls-3{clip-path:url(#clip-path);}.cls-4{fill:#fff;}</style><clipPath id="clip-path"><rect class="cls-1" x="139.92" y="9.69" width="110.61" height="110.61"/></clipPath></defs><g id="g10"><g id="g1028"><path id="path118-5" class="cls-2" d="M30.45,74.34V59.89a3.52,3.52,0,0,0-1.56-3.47,13.61,13.61,0,0,0-5.19-.63H18.22V74.34Zm7.07,4.94c0,.9-.43,1.36-1.29,1.36H12.33c-.86,0-1.29-.46-1.29-1.36V56.06H9.61c-.9,0-1.36-.38-1.36-1.18V51.49a1.28,1.28,0,0,1,1.1-1.42H9.5q7.27-.53,14.43-.5,7.72,0,10.64,2.09c2,1.38,2.93,4.14,2.93,8.26Z"/><path id="path120-4" class="cls-2" d="M40.58,51.58l.27-1.81,2.44-5H46l-1.45,6.8Zm-5.19,0,.27-1.81,2.45-5h2.72l-1.43,6.8Z"/><path id="path122-2" class="cls-2" d="M70.88,75.77v3.51c0,.9-.36,1.36-1.08,1.36H46.31a1.55,1.55,0,0,1-1.07-.25,1.52,1.52,0,0,1-.22-1V75.59c0-.59,0-1,.34-1.09a1.72,1.72,0,0,1,1-.2h14.5V59.48a3.13,3.13,0,0,0-2-3.35,14.27,14.27,0,0,0-4.22-.39,55.87,55.87,0,0,0-7.31.39c-.82.11-1.25-.32-1.25-1.29V52c0-1,.3-1.63.86-1.78a43,43,0,0,1,9.86-.82,13.84,13.84,0,0,1,8.35,2,9.17,9.17,0,0,1,2.72,7.55V74.41h1.88c.82,0,1.22.45,1.22,1.36"/><path id="path124-8" class="cls-2" d="M104.52,70.44a11.36,11.36,0,0,1-2.4,7.8A8.7,8.7,0,0,1,95.32,81a16,16,0,0,1-5.5-.77,2,2,0,0,1-.93-.49,2.87,2.87,0,0,1-.14-1V75.7c0-.82.48-1.18,1.43-1.07l3,.19q4.53,0,4.53-4.1V60.52A4,4,0,0,0,94.38,56a4.22,4.22,0,0,0-1.23,0H88.87a4.31,4.31,0,0,0-3.76,1.36V79.28a1.79,1.79,0,0,1-.23,1.13,1.58,1.58,0,0,1-1,.23H79.15c-.52,0-.86,0-1-.23A2.09,2.09,0,0,1,78,79.28V59a3.85,3.85,0,0,0-.9-2.54l-1.5-1.74a2.27,2.27,0,0,1-.7-1.25,1.86,1.86,0,0,1,.7-1.11l2.86-2.67a2,2,0,0,1,1.36-.63,1.54,1.54,0,0,1,1,.45L82,50.76,83.82,53a10.66,10.66,0,0,1,6.79-3.4H95q9.48,0,9.47,9.53Z"/><path id="path126-4" class="cls-2" d="M130.11,79.16c0,.71,0,1.14-.34,1.27a1.81,1.81,0,0,1-1,.23h-4.37c-.9,0-1.36-.5-1.36-1.5V60a3.55,3.55,0,0,0-1.92-3.65,11.34,11.34,0,0,0-4.4-.57,73.87,73.87,0,0,0-7.86.39c-.81,0-1.24-.3-1.24-1.11V52a2.66,2.66,0,0,1,.13-1.08c0-.16.37-.3.86-.41a36.43,36.43,0,0,1,9.93-.93,14.22,14.22,0,0,1,8.42,2,9.42,9.42,0,0,1,3.17,8.05Z"/></g><g id="g899"><path id="path895" class="cls-2" d="M139.92,120.31H250.53V9.69H139.92Z"/><g class="cls-3"><path id="path897" class="cls-4" d="M181.83,140.92s7.61-10.51,7.61-23-12.28-21.73-14.12-23.57-8.1-2.4-8.1,1.84c0,6.63-6.94,12-16,11.09-10.57-1.11-17.2,7-17.2,7S133.32,85.47,171.27,91c0,0-1.71-7-19.16-4-14.37,2.39-20.26-19.16-20.26-19.16,3,1.84,8.1,1.84,14,1.84,12.34,0,16,12.9,19.16,13.63a17.12,17.12,0,0,1-1.85-8.1c0-12.9,13.27-14.74,13.27-14.74-1.11,2.58.36,7,.36,11s.19,7.56-9,13.82c0,0,2.95,0,11.23,8.29,3.14,3.13,7,7,9.22,7s2.63-3.32,2.57-6.63c-.73-48.26-34.26-72.21-34.26-72.21L165,26.16c.73-1.11-3.69-2.21-3.69-11.42A20.58,20.58,0,0,1,166.85.37c0,4.42,9.58,8.84,9.58,17.68,0,6.27-3.32,10.87-3.32,13.82s4.42,6.45,4.42,6.45-2.48-11.52,3.24-17.24c3.87-3.87,11.31-8.73,11.31-8.73-2.57,7.18.45,7.55.37,18.23,0,7.26-11.08,12.17-11.08,12.17s9.79,18.59,14.21,31.12c0,0,5.53-12,5.53-17.5s-7.37-7-7.37-17.31,7.74-19.35,7.74-19.35c2.58,5.53,6.78,10.19,6.78,18.67a28.56,28.56,0,0,1-4.2,14.67l6.63-7s-3.64-7.91,1-15.23c2.4-3.81,12.55-9.53,15.86-15.26,0,0,4.66,17.4-3.26,25.32-1.66,1.66-9.42,5.3-9.42,5.3,2.19-.82,5.16-.2,8.07.68,9.07,2.72,14.49,11,14.49,11s-8.7,1.21-12.9,2.24S219,61.5,215,60.94c-5.22-.73-6.86-4.12-7.37-6.52-3.78,6.49-9.05,17.5-9.05,28.48,0,3.31,1.66,14,2.58,14,2.5,0,6.55-2.4,8-4.3-2.11-4.91.93-11,3.71-13.74,7.5-7.51,26-9.4,26-9.4-6.26,6.26-8.47,15.1-12.71,19.34-5.8,5.8-14.5,5.31-14.5,5.31s6,2.43,10.45,2.43c5.71,0,11.17-8,17.65-10.37,8-3,14.18-3.26,21.77-2.65,0,0-5,17.58-23.93,17.58-5.63,0-18.35-2.26-25.44-3.83,0,0,3,.83,5.53,6.73,0,0,6.84-1.83,12,7.38s-1.07,21.18-1.07,21.18c-6.36-8.29-18.54-3.88-18.54-18.34,0-8.66,4.2-8.93,4.2-8.93,0-3.78-4.33-8-7.28-8-2.21,0-5.89,3.69-5.89,3.69s2.58,27.63-3.32,40.15l-16-.18"/></g></g></g></svg>