<svg id="Layer_1" data-name="Layer 1" xmlns="http://www.w3.org/2000/svg" viewBox="0 0 258.78 130"><defs><style>.cls-1{fill:#fff;}.cls-2{fill:#2f2e41;}</style></defs><polygon class="cls-1" points="255.26 67.18 129.63 130 4 67.18 129.45 4.37 255.09 66.92 255.26 67.18"/><polygon class="cls-2" points="243.55 67.18 129.63 123.97 15.53 67.18 129.19 10.31 243.37 66.92 243.55 67.18"/><path class="cls-1" d="M146.67,44.83c-2,11.62-4.44,23.15-6.84,34.69-.79,1-1.41,2.13-2.75,2.3-1.77.18-2.92-1.06-3.63-2.57-2-4.79-2.93-10-4.88-14.9-1.87,5.41-3.11,11.44-5.33,16.85-.71,1.07-2.13,1-3.19.62-1.86-1.24-.89-3.9-.89-5.76l5.77-24.49c1-1.51,2.84-2.22,4.26-1.24,3.72,5.05,4,11.62,6.38,17.21,2.31-7.28,4-15.26,6-23,.62-.62,1-1.69,1.95-1.86C145.07,42,146.4,43.58,146.67,44.83Z"/><path class="cls-1" d="M76.22,51.57c5.24,5.59,2.57,15,0,20.94-1.86,3.81-5.86,7.72-10,8.51a9,9,0,0,1-5.76-1.33c-4.7-3.37-5.06-9.58-4.26-14.9C57.5,58.4,61.4,51,68.32,49.08,71.43,48.82,74.18,49.17,76.22,51.57Z"/><path class="cls-1" d="M107.1,55.21c3.19,7.09.88,16.06-3.91,21.91L96,83.78a2.93,2.93,0,0,1-3.2-1.51v-2c5-5.06,10.47-11.27,8.52-19.17-.62-1.86-2-4-4.08-4.61-4.53-1.24-7.9,1.68-11.27,4a2.79,2.79,0,0,1-3.37-1.69c-.53-3.72,3.72-5.41,6.12-7C94.23,48.73,103.55,48.73,107.1,55.21Z"/><path class="cls-1" d="M180.11,55a11.17,11.17,0,0,1-1.5,10.65,20.67,20.67,0,0,1-7.46,5,10.77,10.77,0,0,1-.62,10.47,3.35,3.35,0,0,1-3.81,1.07c-1.69-.89-2-2.93-1.51-4.71a5.57,5.57,0,0,0,.8-3.81c-1.24-2-4.35-.36-4.88-3.2.26-6.12,7.63-2.92,10.47-6.83,1.33-1.5,3-3.19,2.31-5.32a3.33,3.33,0,0,0-2.76-2.13c-4.17-.89-7.27,2-10.47,4.08a2.6,2.6,0,0,1-3.37-1.68c-.35-3.55,3.73-5.42,5.95-7.1C168.31,48.91,177.19,48.73,180.11,55Z"/><path class="cls-1" d="M202.47,54.41c4.71,9.14-2,18.36-4.88,26.79-.71,1.33-2.21,1.16-3.19.89-1.69-1.07-1.42-3.19-1.07-4.7,1.43-6.39,6-12.42,3.38-19.43a5,5,0,0,0-4.09-1.69c-3.81-.8-7.09,7.1-9.93,1.51-.45-2.75,2.39-4.53,4.26-5.94,2.84-2.13,7.09-2.31,10.64-1.51A10.75,10.75,0,0,1,202.47,54.41Z"/><path class="cls-1" d="M118.36,51a5.82,5.82,0,0,1,1.07,2.39c-1.24,5.59-2.49,11.45-4.7,16.59a2.46,2.46,0,0,1-3.2.45c-1.68-2.13-.44-5.24-.44-7.72,1.68-4.08-.18-9.94,4.08-12.51A4.05,4.05,0,0,1,118.36,51Z"/><path class="cls-1" d="M155.63,52.46a97.92,97.92,0,0,1-4.08,16.85c-.71,1.07-2.31,2-3.64,1.07-1.24-1.51-1.16-3.73-.8-5.59L149.42,52C150.57,49.26,154.74,49.71,155.63,52.46Z"/><path class="cls-2" d="M72,56.71a18,18,0,0,1-5.59,17.93c-1.68,1-3.64-.8-3.81-2.4-.71-6.74,1-13.93,7-17.21C70.63,54.85,71.43,55.92,72,56.71Z"/><path class="cls-1" d="M90.86,66.74v3.82l-4.7,22.8a3.79,3.79,0,0,1-2.49,2.13,3.45,3.45,0,0,1-3.46-2.13V89.72L85.8,66.47a3.69,3.69,0,0,1,2.13-1.68A2.89,2.89,0,0,1,90.86,66.74Z"/></svg>