<svg id="Layer_1" data-name="Layer 1" xmlns="http://www.w3.org/2000/svg" viewBox="0 0 258.78 130"><defs><style>.cls-1{fill:#2f2e41;}</style></defs><path class="cls-1" d="M253.39,108.74c0-11.75-20.47-21.27-45.72-21.27a95.93,95.93,0,0,0-10.61.58q3.52-.27,7.22-.27c24.65,0,44.62,9.29,44.62,20.75s-20,20.75-44.62,20.75a89.27,89.27,0,0,1-18.23-1.81A89.39,89.39,0,0,0,207.67,130c25.25,0,45.72-9.52,45.72-21.26"/><path class="cls-1" d="M227.94,93.57a73.93,73.93,0,0,0-24.38-3.84c-22.14,0-40.09,8.35-40.09,18.64S180.05,127,203.56,127A81.71,81.71,0,0,0,219,125.59a80.44,80.44,0,0,1-12.61,1c-21.4,0-38.74-8.06-38.74-18s17.34-18,38.74-18a73.43,73.43,0,0,1,21.54,3"/><polygon class="cls-1" points="181.06 123.11 193.96 110.33 182.58 110.33 182.58 106.42 193.96 106.42 181.22 93.77 185.5 92.48 200.34 107.39 200.34 90.02 216.63 106.42 232.21 106.42 236.69 108.38 232.21 110.57 216.63 110.57 200.84 126.67 200.34 126.78 200.34 109.35 185.53 124.24 181.06 123.11"/><path class="cls-1" d="M101.71,112.09H90.38l5.62-11ZM99.08,95.48H96.67l-16.07,30c.56,0,1.13,0,1.8,0s1.18,0,1.91,0c1.44-4,3.29-7.2,5.09-11h13.09c2.06,3.9,3.91,7.41,5.41,11,.87,0,1.75,0,2.72,0s2.94,0,3.92,0Z"/><path class="cls-1" d="M5.39,125.48c.72,0,1.49,0,2.27,0s3.07,0,3.89,0V111.14h.33l4.12,4,6.08,6.56c1.08,1.21,2.11,2.41,3.24,3.74.93,0,2,0,2.94,0s1.9,0,3,0l-1-1.07L27.8,122,17.18,110.8c5.21-.77,11.18-2.56,11.18-7.54,0-4.33-4.12-7.14-12-7.14H5.39Zm6.16-27.77a33.46,33.46,0,0,1,5.94,0c3.87.52,5.67,2.45,5.67,5.41,0,3.35-2.83,5.49-6.59,6.14a19.89,19.89,0,0,1-5,.21Z"/><path class="cls-1" d="M53.12,112.09H41.79l5.61-11ZM50.49,95.48H48.07L32,125.48c.57,0,1.14,0,1.81,0s1.18,0,1.9,0c1.44-4,3.3-7.2,5.1-11H53.89c2.06,3.9,3.92,7.41,5.41,11,.88,0,1.75,0,2.73,0s2.93,0,3.91,0Z"/><path class="cls-1" d="M67.23,125.48c.72,0,1.49,0,2.27,0s3.07,0,3.89,0V111.42H85.56v-2.51H73.39V98.76H86.75V96.12H67.23v29.36Z"/><polygon class="cls-1" points="122.32 98.75 124.65 98.75 135.67 98.75 135.67 96.12 116.15 96.12 116.15 125.35 135.98 125.35 135.98 122.72 122.32 122.72 122.32 111.42 128.67 111.42 134.49 111.42 134.49 108.91 128.67 108.91 122.32 108.91 122.32 98.75"/><path class="cls-1" d="M145.65,96.12c-.82,0-3.13,0-3.85,0s-1.54,0-2.27,0v29.23h20.6v-2.63H145.65Z"/></svg>