<svg id="Layer_1" data-name="Layer 1" xmlns="http://www.w3.org/2000/svg" viewBox="0 0 258.78 130"><defs><style>.cls-1{fill:#2f2e41;}</style></defs><path class="cls-1" d="M253.39,65c0-11.74-20.47-21.26-45.72-21.26a96,96,0,0,0-10.61.57q3.52-.27,7.22-.27c24.65,0,44.62,9.29,44.62,20.75s-20,20.76-44.62,20.76a90,90,0,0,1-18.23-1.81,89.9,89.9,0,0,0,21.62,2.52c25.25,0,45.72-9.52,45.72-21.26"/><path class="cls-1" d="M227.94,49.83A73.93,73.93,0,0,0,203.56,46c-22.14,0-40.09,8.35-40.09,18.65s16.58,18.65,40.09,18.65A81.69,81.69,0,0,0,219,81.85a80.42,80.42,0,0,1-12.61,1c-21.4,0-38.74-8.07-38.74-18s17.34-18,38.74-18a73.43,73.43,0,0,1,21.54,3"/><polygon class="cls-1" points="181.06 79.37 193.96 66.59 182.58 66.59 182.58 62.68 193.96 62.68 181.22 50.03 185.5 48.74 200.34 63.66 200.34 46.28 216.63 62.68 232.21 62.68 236.69 64.64 232.21 66.84 216.63 66.84 200.84 82.94 200.34 83.05 200.34 65.61 185.53 80.5 181.06 79.37"/><path class="cls-1" d="M101.71,68.35H90.38l5.62-11ZM99.08,51.74H96.67l-16.07,30c.56,0,1.13,0,1.8,0s1.18,0,1.91,0c1.44-4,3.29-7.19,5.09-11h13.09c2.06,3.91,3.91,7.41,5.41,11,.87,0,1.75,0,2.72,0s2.94,0,3.92,0Z"/><path class="cls-1" d="M5.39,81.74c.72,0,1.49,0,2.27,0s3.07,0,3.89,0V67.41h.33l4.12,4L22.08,78c1.08,1.2,2.11,2.4,3.24,3.73.93,0,2,0,2.94,0s1.9,0,3,0l-1-1.07-2.47-2.4L17.18,67.06c5.21-.77,11.18-2.56,11.18-7.53,0-4.34-4.12-7.15-12-7.15H5.39ZM11.55,54a35.47,35.47,0,0,1,5.94,0c3.87.52,5.67,2.45,5.67,5.41,0,3.35-2.83,5.5-6.59,6.14a20.08,20.08,0,0,1-5,.22Z"/><path class="cls-1" d="M53.12,68.35H41.79l5.61-11ZM50.49,51.74H48.07L32,81.74c.57,0,1.14,0,1.81,0s1.18,0,1.9,0c1.44-4,3.3-7.19,5.1-11H53.89c2.06,3.91,3.92,7.41,5.41,11,.88,0,1.75,0,2.73,0s2.93,0,3.91,0Z"/><path class="cls-1" d="M67.23,81.74c.72,0,1.49,0,2.27,0s3.07,0,3.89,0V67.68H85.56v-2.5H73.39V55H86.75V52.38H67.23V81.74Z"/><polygon class="cls-1" points="122.32 55.02 124.65 55.02 135.67 55.02 135.67 52.39 116.15 52.39 116.15 81.61 135.98 81.61 135.98 78.98 122.32 78.98 122.32 67.68 128.67 67.68 134.49 67.68 134.49 65.17 128.67 65.17 122.32 65.17 122.32 55.02"/><path class="cls-1" d="M145.65,52.38c-.82,0-3.13,0-3.85,0s-1.54,0-2.27,0V81.61h20.6V79H145.65Z"/></svg>