<svg id="Layer_1" data-name="Layer 1" xmlns="http://www.w3.org/2000/svg" viewBox="0 0 258.78 130"><defs><style>.cls-1{fill:none;stroke:#2f2e41;stroke-miterlimit:10;stroke-width:0.69px;}.cls-2{fill:#fff;}.cls-3,.cls-4{fill:#2f2e41;}.cls-4{font-size:0.83px;font-family:MyriadPro-Regular, Myriad Pro;}</style></defs><path class="cls-1" d="M126.46,67.09h-4.58l-2.72,3.63m18.75-9a.21.21,0,0,0,.2-.21.2.2,0,0,0-.2-.2m.27,33.9c-6,.48-14.2.86-19.2,0-.19,0-5.25-.74-7-1.29a20.3,20.3,0,0,1-5.36-2.46,32.93,32.93,0,0,1-2.74-2.06l-.26-.22v-.33a26.28,26.28,0,0,1,.15-2.9c.2-1.66,2.06-2.13,2.43-2.2l.46-.1.27.34a3.13,3.13,0,0,0,.51,0l6.16.21L108,85.35l-1.8,0a3.31,3.31,0,0,0-.86.75,2.41,2.41,0,0,1,0,.28c-.21,1.11-.27,2.24.72,3A19.55,19.55,0,0,0,114.35,93l5,.76c-.09-3.61-.17-7.21-.26-10.83l-.34-.1a2.93,2.93,0,0,0-.85-2.69m24-5.43h1.24a.71.71,0,0,0-.56,1.12l-.69-.92m-2.66-3.55c-1.07-1.45-2.15-2.88-3.23-4.32h-4.58m2.28,8.3q-1.38-4.14-2.78-8.3h-4q-1.38,4.18-2.78,8.39M121,65.18a.2.2,0,0,0,.2.2h16.71a.2.2,0,0,0,.2-.2.21.21,0,0,0-.2-.21V63.58a.2.2,0,0,0,.2-.2.21.21,0,0,0-.2-.21H121.2a.21.21,0,0,0-.2.21m43-30.52-5.29,7.86-.36.54-.57-.34a7.5,7.5,0,0,0-4.94-1c-3,.36-8.38,1.42-10,2.43-.62.38-1.33.82-1.8.23s.18-1.24.56-1.63a20.56,20.56,0,0,0,2.76-4.06c.08-.21.19-.46.32-.75a13.72,13.72,0,0,0,1.14-3.55l.08-.59h.6l16.93-.23,1.33,0ZM121,59.61h1.64v.13l1.7,0h0l.87-.1h9.3a.43.43,0,0,1,0,.11l1.72,0,.64-.14h1.27m-3.75-34.89-.55,0h-.14l-.8.3-.52.2-.31-.46a31.25,31.25,0,0,0-2.66-3.49c-.54.7-1.45,1.92-2.45,3.39l-.29.43-.49-.15-.69-.22h-.16c-.23,0-.6,0-1.08-.05L123,24.66l.59-1L128.71,15l.61-1,.6,1,4.88,8.52.57,1ZM116.17,42.37c-1.64-1-7-2.07-10-2.43A7.42,7.42,0,0,0,101,41.05l-.58.37-.38-.58L95,33,94.29,32h1.29l17,.11h.59l.09.59a13.88,13.88,0,0,0,1.13,3.49,7.6,7.6,0,0,1,.31.75A21.76,21.76,0,0,0,117.46,41c.34.34,1,1,.52,1.58s-1.18.15-1.8-.23Zm13.82,75a1.09,1.09,0,0,0-.13-.42s-.22,0-.37-.1a2.39,2.39,0,0,1-1.66-1.28c0-.12-.09-.29-.14-.46l1.3-.5a1.06,1.06,0,0,0,.31.42.45.45,0,0,0,.29.07l.24,0,.21.12c.65.39,1.26.83,1.34,1.49a3.08,3.08,0,0,1,0,.74Zm9.2-23.58c1-.15,2.46-.39,4.39-.67l.27,1.36a23.13,23.13,0,0,1-3.45.61l-.62,0-.42,0Zm27.3-65.24-19.69.1a8.19,8.19,0,0,0-.69-1.53c-1.08-1.83-3.27-3-6.51-3.52l0,0c-.65-1.1-5.59-9.45-7.56-12.64A3.23,3.23,0,0,0,129.36,9a3.62,3.62,0,0,0-2.66,1.81l-7.55,12.74c-3.09.57-5.18,1.74-6.22,3.51a9.37,9.37,0,0,0-.71,1.57c-5.72-.14-18-.4-20.32-.14A2.19,2.19,0,0,0,90,29.7c-.71,1.49.63,3.65.79,3.89q2.94,4.83,5.9,9.66c-2.52,3.38-3.68,8.89-3,14.21a17.31,17.31,0,0,0,1.14,4.23c-.74,1.18-3,4.82-4.45,7.09s-.81,3.68-.34,4.29c.56,2.45,2.29,9.72,3.44,11.74A14.38,14.38,0,0,0,99.19,90a13.26,13.26,0,0,0,4.43,1,.71.71,0,0,1,0,.14c0,3.61-.1,9.81.21,10.59s1,2.53,4.42,3.88a58.73,58.73,0,0,0,19,3.45v.18l-.08,0a4.76,4.76,0,0,0-2.4,3,5.7,5.7,0,0,0,.75,3.89h0a1.54,1.54,0,0,0-.79,1.28,4.22,4.22,0,0,0,1.07,3.38,4.74,4.74,0,0,0,1.37.84c0,2.25.08,4.65.08,4.65v.17l.07.14a2.47,2.47,0,0,0,1.75,1.34,2.31,2.31,0,0,0,2.4-1.16l.07-.15v-.18l-.15-4.79a4.09,4.09,0,0,0,2.24-2.34,6.07,6.07,0,0,0-.55-3.92,2.23,2.23,0,0,0,.75-1.52,4.55,4.55,0,0,0-1.27-3.86,3.62,3.62,0,0,0-1-.66V109c8.75-.32,14.37-1.36,18.17-3.35s4.2-3.25,4.39-4.31l0-.17c.16-.67.37-9.59.43-12.31l0-1.48-.1.09a7.09,7.09,0,0,0-.16-1.39l0-.22c-.08-.76-1.09-1.48-1.68-1.84l-.18-.1h-.2L147,84a29.69,29.69,0,0,1-6.3.07h0a.69.69,0,0,1,.55.74.71.71,0,0,1-.68.64.54.54,0,0,1-.22,0l.11,0h.36c9.45-.31,10.87-.32,11-.31,0,0,1.16.26,1.26,1,.14,1.13.14,4.13.14,4.16V91l.73,0A14.82,14.82,0,0,0,159,90a14.43,14.43,0,0,0,5.68-5.15c1.12-2,2.81-9,3.4-11.57a2,2,0,0,0,.9-1.12c.49-1.51-.74-3.51-.88-3.74l-4-6.58a16.88,16.88,0,0,0,1.19-4.33c.74-5.55-.5-11.18-3.18-14.52.89-1.4,3.77-5.92,6-9.38,1.1-1.66,1.37-2.94.83-3.88A2.87,2.87,0,0,0,166.49,28.51Z"/><path class="cls-2" d="M129.28,130H129a4.33,4.33,0,0,1-3.44-2.42l-.3-.56,0-.65s0-1.63,0-3.47a8.36,8.36,0,0,1-.73-.57,6.27,6.27,0,0,1-1.71-5.16,4,4,0,0,1,.42-1.33,7.55,7.55,0,0,1-.33-4,7.47,7.47,0,0,1,.31-1,60,60,0,0,1-15.57-3.37c-4.27-1.68-5.15-4-5.57-5-.17-.44-.47-1.17-.38-9.68a12.05,12.05,0,0,1-3.31-1,16.64,16.64,0,0,1-6.53-6c-1.17-2.06-2.72-8.25-3.57-11.92-.68-1.13-1.34-3.26.52-6.19,1.18-1.86,2.92-4.64,3.91-6.23a18.54,18.54,0,0,1-.9-3.74,23.25,23.25,0,0,1,2.57-14.52l-5.21-8.55c-.49-.75-2-3.46-.91-5.83a4.18,4.18,0,0,1,3.52-2.33c2.17-.25,11.46-.09,19.23.09.09-.18.18-.36.28-.53,1.24-2.11,3.49-3.55,6.67-4.26L125,9.8c.28-.47,1.79-2.78,4.38-2.8h0c1.19,0,2.9.49,4.34,2.83,1.73,2.8,5.75,9.58,7.13,11.9,3.37.69,5.72,2.14,7,4.33l.29.52,18.32-.1a4.77,4.77,0,0,1,4.32,2.21c.93,1.65.63,3.67-.9,6-1.84,2.81-4.06,6.28-5.29,8.21,2.43,3.82,3.48,9.41,2.75,14.84a19.29,19.29,0,0,1-1,3.88l3.46,5.71c.43.68,1.81,3.15,1.08,5.43a4.08,4.08,0,0,1-1,1.64c-.85,3.6-2.33,9.44-3.46,11.42a16.62,16.62,0,0,1-6.52,6,12.41,12.41,0,0,1-3.5,1c-.21,7.78-.33,8.59-.4,8.9-.33,1.91-1.4,3.62-5.44,5.73-3.5,1.83-8.23,2.89-15.17,3.38a7.11,7.11,0,0,1,.39,3.38,5,5,0,0,1-.46,1.53,8,8,0,0,1,.22,4.06,5.29,5.29,0,0,1-2.15,3l.13,4.31-.29.6a4.1,4.1,0,0,1-4,2.3m-1.36-3.69s.51.93,1.17,1c.95,0,1.44-.18,1.73-.77l-.16-5.2.7-.41a3.16,3.16,0,0,0,1.57-1.71c0-.08,0-.17,0-.26h-3.38a1.43,1.43,0,0,1-.63-.16h0l-.16,0h0l-.76,0v-.29a3.92,3.92,0,0,1-2-1.9l-.38.42a1.15,1.15,0,0,0-.27.63,3.56,3.56,0,0,0,.87,2.76,3,3,0,0,0,.83.56l.75.37v.84c0,2.09.07,4.17.07,4.23m1.44-10.3.76,0a4.35,4.35,0,0,0-.44-.28h0l-.21,0-.35.14.24.11Zm1.12-3,.6.35a5.38,5.38,0,0,1,1.65,1.39l.06-.08a1.81,1.81,0,0,0,.33-.91,3.87,3.87,0,0,0-1-3.22l-2.4-2.2,3.25-.16c7.71-.38,12.91-1.39,16.37-3.21,3.71-1.94,3.91-3.11,4-3.81l0-.07c.05-.3.16-1.81.33-8.09l-2.52.09V90.32c0-.83,0-2.19-.07-3.14-1,0-3.64.09-10.28.31l-.72,0-.45-.15h0l.64-1.94,0-.63h.21l.58-2.66h0a26.68,26.68,0,0,0,5.76-.1H147l6-.13.68.4a6.89,6.89,0,0,1,2,1.7l1.08-.86-.13,5.79c0,.38,0,.76,0,1.12a8.53,8.53,0,0,0,2.19-.68,13.73,13.73,0,0,0,5.4-4.88c.71-1.25,2-5.51,3.27-11.12l.11-.48.4-.3a1.32,1.32,0,0,0,.46-.65c.32-1-.36-2.45-.81-3.16l-4.16-6.88.25-.63a16.38,16.38,0,0,0,1-3.87c.69-5.15-.38-10.38-2.78-13.65l-.55-.75.5-.79c1-1.62,3.66-5.74,5.79-9,.35-.52,1.4-2.12.81-3.16v0L159,44l-2.21-1.33a5.4,5.4,0,0,0-3.66-.7c-3.55.41-8.1,1.47-9.2,2.14-2.37,1.44-3.73.67-4.45-.24-.58-.75-1.27-2.29.67-4.27a18.64,18.64,0,0,0,2.35-3.4c.09-.24.21-.52.35-.84a11.31,11.31,0,0,0,1-3l.33-2.3,24-.32a2.69,2.69,0,0,0-1.6-.48h0l-20.14.1-.35-.86a7.9,7.9,0,0,0-.5-1c-.93-1.6-2.86-2.66-5.74-3.15l-.62-.1-.32-.54c-.91-1.54-5.53-9.35-7.41-12.39-1-1.55-1.78-1.55-2-1.54-1.18,0-2.05,1.46-2.06,1.47l-7.73,13-.6.12c-2.71.51-4.53,1.55-5.44,3.09a7.12,7.12,0,0,0-.5,1l-.35.88-1,0C100.8,29.07,93.59,29,92,29.21a1.63,1.63,0,0,0-1.32.69l24.2.17.35,2.29a12.39,12.39,0,0,0,1,3c.15.33.27.62.36.85A18.73,18.73,0,0,0,119,39.67c2,2,1,3.71.59,4.18-.71.91-2.07,1.69-4.44.25l0,0c-1.16-.67-5.65-1.71-9.16-2.11a5.31,5.31,0,0,0-3.8.8l-2.27,1.43L90.61,30c-.43.94.3,2.5.75,3.2l6.15,10.06L97,44c-2.27,3.3-3.27,8.43-2.6,13.38a16.25,16.25,0,0,0,1,3.76l.25.63-.36.58c-.87,1.41-2.93,4.7-4.27,6.82-.88,1.37-1,2.56-.43,3.42l.15.22.06.25c1.33,5.76,2.61,10.13,3.34,11.41a13.7,13.7,0,0,0,5.39,4.88,9.09,9.09,0,0,0,2.06.66l0-1.16c0-1.46.07-2.48.15-3.12a4.78,4.78,0,0,1,4-3.92l1.77-.37.84,1.16-.94.67-.07,1.49-.81,0-.19-.26h0c-.29.06-1.73.42-1.88,1.6,0,.37-.11,1.16-.15,2.83a32,32,0,0,0,2.67,2,19.42,19.42,0,0,0,5.2,2.38,64.47,64.47,0,0,0,6.92,1.26l-.37,2.7.19-1.34-.2,1.34a71.27,71.27,0,0,1-7.35-1.36,22.5,22.5,0,0,1-5.85-2.68c-.39-.25-.81-.55-1.2-.84-.09,7.51.11,8.86.18,9.1.33.84.88,2.25,4,3.49a57.91,57.91,0,0,0,17.07,3.34l3.16.14-2.27,2.2a3.69,3.69,0,0,0-1,1.83,4.74,4.74,0,0,0,.09,1.92l4.7-1.82ZM116.6,41.81a2.06,2.06,0,0,0,.85.37s0-.22-.44-.62l-.08-.09A22.07,22.07,0,0,1,114,37.15c-.07-.2-.18-.44-.3-.71a14.65,14.65,0,0,1-1.18-3.67l-16.94-.12,5.09,7.81a8,8,0,0,1,5.56-1.21c3.2.37,8.56,1.45,10.31,2.52Zm29.93-9.11a14.17,14.17,0,0,1-1.2,3.74l-.3.72a21.39,21.39,0,0,1-2.84,4.22l-.08.09c-.43.44-.51.63-.52.7s.44-.11.91-.4c1.75-1.07,7.11-2.15,10.31-2.52a8.17,8.17,0,0,1,5.37,1.08h0l5.28-7.85Zm-5.95,64.37-.24-2.72a21.88,21.88,0,0,0,3.34-.59l.66,2.65a26,26,0,0,1-3.76.66m-20.51-2.45-1.61-.25-4.22-.64a20,20,0,0,1-8.65-3.84c-1.49-1.11-1.14-2.91-1-3.68l.09-.54.31-.31a6.05,6.05,0,0,1,1-.75l1.17,1.93.13,0,0,.15.14.23a1.37,1.37,0,0,0-.2.13c-.07.46,0,.6,0,.62A17.27,17.27,0,0,0,114.65,91l2.63.4-.18-7.6-.6-.18.28-1.24a.85.85,0,0,0-.3-.79l1.92-1.93a3.67,3.67,0,0,1,1.07,2l.31.09ZM141,77.09h0l-.69-.91.21-.15a2.73,2.73,0,0,1,1.43-3v-.3h1.25l0,2.72Zm-14.86-1-2.58-.86,2-6.15h-2.67l-2.11,2.82-2.17-1.63,2.92-3.91h14.82l3.44,4.6-2.18,1.63L135,69.11h-2.65l2,6.07-2.58.86-2.31-6.93h-1.05Zm10.22-10H121.2v-3.6h15.15a1.85,1.85,0,0,1,.1-2l-2.89,0,0-.09h-8.44l0,.1-3.21,0,0-.14h-1V57.59h17.13v2.72h-.17v2.17s-1.27,4.15-1.59,3.6m1.59-1.8v1.8a.9.9,0,1,0,0-1.8m-6.37-36.55-1.21-1.79c-.33-.49-.63-.93-.91-1.3-.29.4-.57.81-.85,1.21l-1.13,1.67-2.39-.74c-.22,0-.54,0-.93-.05l-4.57-.17L129.35,10l9.33,16.27-4.61.53Zm-2.22-7.55,1.1,1.32a34.15,34.15,0,0,1,2.17,2.92l.89-.34.8,0-5-8.65L124.22,24c.42,0,.76,0,1,0h.26l.24.06.61.19c.63-.92,1.29-1.85,2-2.76Z"/><path class="cls-2" d="M130.92,126.51l-.26-8.38a2.45,2.45,0,0,0-.79-1.4c-.61-.47-1.85-.27-1.92,1.43s.07,8.15.07,8.15.49.92,1.17,1a1.62,1.62,0,0,0,1.73-.77"/><path class="cls-1" d="M130.92,126.51l-.26-8.38a2.45,2.45,0,0,0-.79-1.4c-.61-.47-1.85-.27-1.92,1.43s.07,8.15.07,8.15.49.92,1.17,1A1.62,1.62,0,0,0,130.92,126.51Z"/><path class="cls-2" d="M127.61,109.87a4,4,0,0,0-2.08,2.59,5.07,5.07,0,0,0,.69,3.38c.71,1.2,2.29,2.69,3.61,2.48s1-1.38.73-1.77-1.71-.48-2-1.24a2.92,2.92,0,0,1,.3-3c.43-.53,1.75.29,2.05.89.38.75.82,2.13,1.7,1.69s.89-3.16-.46-4.36a4.65,4.65,0,0,0-4.57-.7"/><path class="cls-1" d="M127.61,109.87a4,4,0,0,0-2.08,2.59,5.07,5.07,0,0,0,.69,3.38c.71,1.2,2.29,2.69,3.61,2.48s1-1.38.73-1.77-1.71-.48-2-1.24a2.92,2.92,0,0,1,.3-3c.43-.53,1.75.29,2.05.89.38.75.82,2.13,1.7,1.69s.89-3.16-.46-4.36A4.65,4.65,0,0,0,127.61,109.87Z"/><path class="cls-2" d="M130.69,121.29a3.86,3.86,0,0,0,2.34-2.1,5.41,5.41,0,0,0-.67-3.76c-.76-1.18-2.06-3.92-3.47-3.08-1.11.66-.46,2.27-.23,2.66s2,1,2.13,1.71-.09,1.6-.93,1.68a3.39,3.39,0,0,1-2.32-.91c-.48-.49-.88-1.07-1.63-.69s-.5,2.64.45,3.51a4.71,4.71,0,0,0,4.33,1"/><path class="cls-1" d="M130.69,121.29a3.86,3.86,0,0,0,2.34-2.1,5.41,5.41,0,0,0-.67-3.76c-.76-1.18-2.06-3.92-3.47-3.08-1.11.66-.46,2.27-.23,2.66s2,1,2.13,1.71-.09,1.6-.93,1.68a3.39,3.39,0,0,1-2.32-.91c-.48-.49-.88-1.07-1.63-.69s-.5,2.64.45,3.51A4.71,4.71,0,0,0,130.69,121.29Z"/><path class="cls-2" d="M90.75,72.53a13.5,13.5,0,0,0,4.93,2.8c3.31,1.14,12,1.51,13.75,1.71s7,.57,9.07,2.65.91,5.14-.72,5.08-11.1-.36-11.35-.31-1.73.42-1.89,1.61-.15,4.25-.15,4.25a14.34,14.34,0,0,1-4.79-1,13.73,13.73,0,0,1-5.39-4.88c-1.27-2.23-3.46-11.93-3.46-11.93"/><path class="cls-3" d="M104.75,90.69h-.37a14.45,14.45,0,0,1-4.93-1,14.07,14.07,0,0,1-5.56-5c-1.28-2.26-3.4-11.63-3.49-12l-.28-1.22.88.89A13.4,13.4,0,0,0,95.8,75c2.49.86,8.11,1.27,11.47,1.52,1,.07,1.79.13,2.2.18l.59.07c2.18.23,6.71.71,8.69,2.68a3.86,3.86,0,0,1,1,4.2,2.15,2.15,0,0,1-1.89,1.49h-.47c-2.33-.08-9.38-.31-10.71-.31h-.17c-.12,0-1.45.32-1.57,1.29-.15,1.16-.15,4.18-.15,4.21v.37ZM91.33,73.48c.6,2.56,2.2,9.07,3.19,10.8A13.13,13.13,0,0,0,99.77,89a12.61,12.61,0,0,0,4.27.92c0-.85,0-3,.15-3.92.19-1.46,2-1.86,2.17-1.91h.28c1.34,0,8.4.23,10.72.3l.43,0a1.47,1.47,0,0,0,1.26-1,3.15,3.15,0,0,0-.8-3.43c-1.81-1.79-6.17-2.25-8.26-2.47l-.6-.07c-.4-.05-1.18-.11-2.18-.18-3.38-.25-9.06-.66-11.64-1.56a15.48,15.48,0,0,1-4.24-2.18"/><path class="cls-2" d="M167.65,72.53a13.39,13.39,0,0,1-4.93,2.8c-3.31,1.14-12,1.51-13.75,1.71s-7,.57-9.06,2.65-.92,5.14.71,5.08,11.1-.36,11.35-.31,1.74.42,1.89,1.61.15,4.25.15,4.25a14.34,14.34,0,0,0,4.79-1,13.66,13.66,0,0,0,5.39-4.88c1.28-2.23,3.46-11.93,3.46-11.93"/><path class="cls-3" d="M153.65,90.69v-.37s0-3-.14-4.21c-.13-1-1.46-1.27-1.61-1.3h-.14c-.89,0-4.5.1-10.74.31h-.39a2.16,2.16,0,0,1-1.94-1.49,3.86,3.86,0,0,1,1-4.21c2-2,6.5-2.44,8.68-2.67l.59-.07c.41,0,1.2-.11,2.2-.18,3.36-.25,9-.66,11.47-1.52a13.4,13.4,0,0,0,4.8-2.71l.87-.89L168,72.61c-.09.4-2.21,9.77-3.5,12a14,14,0,0,1-5.54,5,14.54,14.54,0,0,1-4.94,1Zm-1.89-6.59H152c.33.07,2,.48,2.17,1.91.13,1,.15,3.06.16,3.92a12.65,12.65,0,0,0,4.26-.92,13.22,13.22,0,0,0,5.26-4.74c1-1.73,2.57-8.24,3.17-10.8a15.24,15.24,0,0,1-4.23,2.18c-2.58.9-8.26,1.31-11.64,1.56-1,.07-1.78.13-2.18.18l-.6.07c-2.09.22-6.45.68-8.26,2.47a3.19,3.19,0,0,0-.8,3.43,1.47,1.47,0,0,0,1.23,1l.42,0c2.32-.07,9.41-.3,10.76-.3"/><path class="cls-2" d="M104.42,91.12s-.13,9.56.17,10.33.79,2.23,4,3.5a58.81,58.81,0,0,0,21,3.41c9.49-.23,15.71-1.19,19.81-3.34s3.92-3.36,4.07-4,.41-12.16.41-12.16a26.93,26.93,0,0,1-13.47,5.51c-7.73.7-16.31,1-21.24.19,0,0-5.2-.72-6.93-1.26a19.4,19.4,0,0,1-5.19-2.38,31.23,31.23,0,0,1-2.68-2Z"/><path class="cls-1" d="M104.42,91.12s-.13,9.56.17,10.33.79,2.23,4,3.5a58.81,58.81,0,0,0,21,3.41c9.49-.23,15.71-1.19,19.81-3.34s3.92-3.36,4.07-4,.41-12.16.41-12.16a26.93,26.93,0,0,1-13.47,5.51c-7.73.7-16.31,1-21.24.19,0,0-5.2-.72-6.93-1.26a19.4,19.4,0,0,1-5.19-2.38,31.23,31.23,0,0,1-2.68-2Z"/><path class="cls-3" d="M106.1,84.61s-1.3.78-1.36,1.32-.76,2.69,1,4a20.13,20.13,0,0,0,8.65,3.83c3.6.54,5.83.91,5.83.91l-.3-13s-.26,2.74-2.09,3.1a29.59,29.59,0,0,1-6.5,0Z"/><path class="cls-3" d="M152.29,84.61s1.3.78,1.35,1.32.78,2.69-.93,4a20.23,20.23,0,0,1-8.66,3.83c-3.59.54-5.83.91-5.83.91l.3-13s.27,2.74,2.09,3.1a29.68,29.68,0,0,0,6.51,0Z"/><path class="cls-3" d="M141.07,69.07,129.47,88,118,69.13l-23,.3,3.18-5.16,3-23.22-5.48-8.39,17.49.12,11-8.52,5.24-8.88,4.89,8.52,3.88,5.52,7.66,3.3,17.72-.24-7.19,10.67,4.24,21.36,3.12,4.56Zm22.25-7.44-.71-1.2L161.38,43s3.61-5.68,6.32-9.82-1.09-4-1.09-4l-20.4.1L139.13,24s-5.5-9.32-7.62-12.74-4.11-.08-4.11-.08l-7.55,12.74-5,5.48s-19.74-.54-22.72-.2-.62,4-.62,4L97.68,43.4l1.41,2.33L95.81,61.62s-3,4.79-4.72,7.54,0,3.85,0,3.85l24.45.06s9.91,16,11.47,18.47a3,3,0,0,0,5.06.3c.5-.73,1.67-2.72,2-3.3s9.5-15.63,9.5-15.63,18.55-.08,22.7,0,1.39-4.2,1.39-4.2Z"/><path class="cls-3" d="M129.54,93.42a3.36,3.36,0,0,1-2.85-1.68c-1.47-2.27-10.32-16.59-11.38-18.31L91,73.36l-.09-.06s-2-1.32-.08-4.33c1.63-2.58,4.35-6.95,4.68-7.48L98.72,45.8l-1.34-2.22L91.16,33.4c-.14-.22-1.4-2.23-.77-3.55a1.89,1.89,0,0,1,1.65-1c.66-.07,2.19-.11,4.53-.11,6.26,0,16.65.27,18.07.31l4.93-5.33L127.09,11c0-.07,1-1.64,2.39-1.64a2.92,2.92,0,0,1,2.33,1.71c2,3.24,7.11,11.87,7.59,12.68L146.32,29l20.28-.1h0a2.53,2.53,0,0,1,2.22,1c.44.82.16,2-.83,3.51-2.49,3.79-5.77,8.94-6.26,9.72L163,60.32l.67,1.13,4.3,7.12c.15.23,1.48,2.39.73,3.76a2.34,2.34,0,0,1-2.24,1h-.2c-1.5,0-5.08-.08-10.61-.08-5.34,0-10.77,0-11.87,0-1,1.67-9.08,14.9-9.39,15.44s-1.5,2.57-2,3.33a3.55,3.55,0,0,1-2.79,1.38M91.18,72.65l24.53.07.1.17c.1.16,9.93,16.06,11.47,18.46a2.62,2.62,0,0,0,2.26,1.35,2.83,2.83,0,0,0,2.2-1.06c.49-.71,1.63-2.65,2-3.28s9.13-15,9.51-15.63l.1-.17h.2s6.09,0,12.07,0c5.54,0,9.12,0,10.64.07h.17c.84,0,1.38-.21,1.61-.63.47-.84-.35-2.48-.7-3l-5.07-8.41v-.08L161,42.92l.06-.1c0-.06,3.65-5.73,6.33-9.82.83-1.26,1.1-2.22.8-2.78s-1.42-.66-1.55-.66l-20.56.11-7.27-5.48c0-.1-5.52-9.36-7.61-12.74-.57-.91-1.15-1.37-1.73-1.37-1,0-1.77,1.28-1.77,1.29l-7.6,12.8L115,29.77h-.16c-.12,0-11.53-.31-18.22-.31-2.31,0-3.81,0-4.45.11a1.2,1.2,0,0,0-1.08.6c-.39.81.39,2.34.72,2.86l7.71,12.65L96.11,61.81s-3,4.79-4.72,7.54c-1.33,2.09-.48,3.06-.21,3.3m38.29,16L117.79,69.49l-23.46.3,3.47-5.64,3-23L95,32.3l18,.12L123.9,24l5.51-9.35,5.2,9,3.8,5.41,7.5,3.23,18.32-.25-7.48,11.12L161,64.37l3.46,5H141.27ZM118.19,68.77l.11.17,11.17,18.34,11.4-18.57h22.19l-2.8-4.13L156,43.08l6.89-10.24-17.12.23L138,29.7,134,24.11l-4.59-8-5,8.45-11.11,8.59L96.34,33,101.52,41v.13l-3,23.29-2.88,4.67Z"/><path class="cls-2" d="M127.93,105.77l.26,8.38a2.55,2.55,0,0,0,.79,1.4c.62.46,1.86.26,1.92-1.44s-.06-8.15-.06-8.15-.49-.92-1.18-1a1.6,1.6,0,0,0-1.73.77"/><path class="cls-1" d="M127.93,105.77l.26,8.38a2.55,2.55,0,0,0,.79,1.4c.62.46,1.86.26,1.92-1.44s-.06-8.15-.06-8.15-.49-.92-1.18-1A1.6,1.6,0,0,0,127.93,105.77Z"/><path class="cls-3" d="M121.05,60.31a1.75,1.75,0,0,0-2.23-1.62c-2.13.36-4.13,2.88-4.72,3.72s-6,6.9-10.71,6-8.13-5.34-8.89-11S95.15,45.91,98,42.85s5.24-4,8.36-3.6,8.54,1.45,10.31,2.52.39-.3.39-.3a22.42,22.42,0,0,1-2.93-4.31c-.59-1.57-3-5.4-.47-9.72s11.6-3.36,12-3.36l1.74.54,5-.1,1.18-.44c.41,0,9.48-1,12,3.36s.12,8.16-.47,9.72a22.51,22.51,0,0,1-2.92,4.31s-1.38,1.38.39.3,7.18-2.16,10.3-2.52,5.54.54,8.36,3.6,4.24,8.82,3.48,14.52-4.18,10.14-8.89,11-10.13-5.16-10.72-6-2.59-3.36-4.71-3.72a1.77,1.77,0,0,0-2.24,1.62Z"/><path class="cls-1" d="M121.05,60.31a1.75,1.75,0,0,0-2.23-1.62c-2.13.36-4.13,2.88-4.72,3.72s-6,6.9-10.71,6-8.13-5.34-8.89-11S95.15,45.91,98,42.85s5.24-4,8.36-3.6,8.54,1.45,10.31,2.52.39-.3.39-.3a22.42,22.42,0,0,1-2.93-4.31c-.59-1.57-3-5.4-.47-9.72s11.6-3.36,12-3.36l1.74.54,5-.1,1.18-.44c.41,0,9.48-1,12,3.36s.12,8.16-.47,9.72a22.51,22.51,0,0,1-2.92,4.31s-1.38,1.38.39.3,7.18-2.16,10.3-2.52,5.54.54,8.36,3.6,4.24,8.82,3.48,14.52-4.18,10.14-8.89,11-10.13-5.16-10.72-6-2.59-3.36-4.71-3.72a1.77,1.77,0,0,0-2.24,1.62Z"/><path class="cls-2" d="M138.91,61.53a.9.9,0,0,1-.9.9H121.3a.9.9,0,1,1,0-1.8H138a.9.9,0,0,1,.9.9"/><path class="cls-1" d="M138.91,61.53a.9.9,0,0,1-.9.9H121.3a.9.9,0,1,1,0-1.8H138A.9.9,0,0,1,138.91,61.53Z"/><path class="cls-2" d="M138.91,63.38a.9.9,0,0,1-.9.9H121.3a.9.9,0,1,1,0-1.8H138a.9.9,0,0,1,.9.9"/><path class="cls-1" d="M138.91,63.38a.9.9,0,0,1-.9.9H121.3a.9.9,0,1,1,0-1.8H138A.9.9,0,0,1,138.91,63.38Z"/><path class="cls-2" d="M138.91,65.18a.9.9,0,0,1-.9.9H121.3a.9.9,0,1,1,0-1.8H138a.9.9,0,0,1,.9.9"/><path class="cls-1" d="M138.91,65.18a.9.9,0,0,1-.9.9H121.3a.9.9,0,1,1,0-1.8H138A.9.9,0,0,1,138.91,65.18Z"/><polygon class="cls-2" points="121.63 66.39 114.84 75.46 123.53 75.42 126.56 66.39 121.63 66.39"/><polygon class="cls-1" points="121.63 66.39 114.84 75.46 123.53 75.42 126.56 66.39 121.63 66.39"/><polygon class="cls-2" points="136.45 66.39 143.24 75.46 134.54 75.42 131.52 66.39 136.45 66.39"/><polygon class="cls-1" points="136.45 66.39 143.24 75.46 134.54 75.42 131.52 66.39 136.45 66.39"/><polygon class="cls-2" points="126.56 66.39 123.61 75.26 129.18 82.5 134.46 75.18 131.52 66.39 126.56 66.39"/><polygon class="cls-1" points="126.56 66.39 123.61 75.26 129.18 82.5 134.46 75.18 131.52 66.39 126.56 66.39"/><path class="cls-3" d="M129.38,20.26s-7.1,8.9-8.11,14.3c-.87,4.66-1.15,6.58-.15,10.46a47.81,47.81,0,0,0,3.65,8.84,28.79,28.79,0,0,1,1.14,4c.13.75.51,2.43.51,2.43h6.17a40.21,40.21,0,0,1,2.31-8.32c1.41-2.85,4.87-7.81,3.39-15s-6.76-14.61-8.91-16.63"/><path class="cls-2" d="M129.38,20.26s-7.1,8.9-8.11,14.3c-.87,4.66-1.15,6.58-.15,10.46a47.81,47.81,0,0,0,3.65,8.84,28.79,28.79,0,0,1,1.14,4c.13.75.51,2.43.51,2.43h6.17a40.21,40.21,0,0,1,2.31-8.32c1.41-2.85,4.87-7.81,3.39-15s-6.76-14.61-8.91-16.63Z"/><path class="cls-3" d="M132.9,60.6h-6.77l-.06-.28c0-.07-.38-1.7-.52-2.45A25.36,25.36,0,0,0,124.44,54c-.08-.19-.26-.54-.49-1a39.5,39.5,0,0,1-3.18-7.88c-1-4-.71-6,.15-10.61,1-5.43,7.89-14.09,8.19-14.46l.24-.3.28.26a38.69,38.69,0,0,1,9,16.82c1.31,6.39-1.14,11-2.77,14-.24.45-.46.85-.64,1.23-1.36,2.78-2.27,8.17-2.28,8.22Zm-6.2-.72h5.6a37,37,0,0,1,2.29-8.11c.18-.38.41-.8.65-1.26,1.58-2.95,4-7.41,2.7-13.55-1.42-6.89-6.36-13.93-8.52-16.16-1.25,1.62-6.92,9.14-7.8,13.83s-1.13,6.51-.16,10.3a38.35,38.35,0,0,0,3.13,7.74c.24.49.42.84.51,1a27,27,0,0,1,1.15,4c.11.56.34,1.63.45,2.14"/><path class="cls-3" d="M125.29,60.4s-1.65-6.67-3.91-9.51-6.22-6.77-11.55-6.77c-3.48,0-8.67.62-11.35,5.91-2.5,5.23-1.7,10,1.83,12.87s8.16,2.59,10.37.43A4.49,4.49,0,0,0,112,60.16c.15-.67.15-3.6,3.44-4.46s4.39,0,5.57,1.44A6.06,6.06,0,0,1,122,60.45Z"/><path class="cls-2" d="M125.29,60.4s-1.65-6.67-3.91-9.51-6.22-6.77-11.55-6.77c-3.48,0-8.67.62-11.35,5.91-2.5,5.23-1.7,10,1.83,12.87s8.16,2.59,10.37.43A4.49,4.49,0,0,0,112,60.16c.15-.67.15-3.6,3.44-4.46s4.39,0,5.57,1.44A6.06,6.06,0,0,1,122,60.45Z"/><path class="cls-3" d="M106.09,65.35a9.59,9.59,0,0,1-6-2.18c-3.75-3-4.48-8-1.94-13.3,3.11-6.11,9.56-6.11,11.68-6.11,4.2,0,8.17,2.33,11.82,6.91,2.29,2.86,3.92,9.37,4,9.65l.11.43-4.06.06v-.36a5.63,5.63,0,0,0-1-3.08,3.71,3.71,0,0,0-3.12-1.64,8.38,8.38,0,0,0-2.08.31,4.1,4.1,0,0,0-3.13,3.87c0,.13,0,.24,0,.33a2,2,0,0,0,0,.39,4.39,4.39,0,0,1-1.33,3,6.93,6.93,0,0,1-4.84,1.76m3.74-20.87c-3.49,0-8.44.59-11,5.71-2.38,5-1.73,9.64,1.74,12.43a9,9,0,0,0,5.56,2,6.21,6.21,0,0,0,4.34-1.55,3.58,3.58,0,0,0,1.11-2.52,4.34,4.34,0,0,1,.07-.47c0-.07,0-.16,0-.28a4.77,4.77,0,0,1,3.65-4.46,9.26,9.26,0,0,1,2.26-.33,4.39,4.39,0,0,1,3.67,1.89,5.9,5.9,0,0,1,1.14,3.18l2.46,0c-.4-1.52-1.87-6.6-3.73-8.94-3.51-4.4-7.3-6.63-11.27-6.63"/><path class="cls-3" d="M133.65,60.4s1.65-6.67,3.91-9.51,6.22-6.77,11.55-6.77c3.49,0,8.66.62,11.35,5.91,2.5,5.23,1.71,10-1.83,12.87s-8.15,2.59-10.36.43A4.54,4.54,0,0,1,147,60.16c-.14-.67-.14-3.6-3.43-4.46s-4.39,0-5.57,1.44a6,6,0,0,0-1.08,3.31Z"/><path class="cls-2" d="M133.65,60.4s1.65-6.67,3.91-9.51,6.22-6.77,11.55-6.77c3.49,0,8.66.62,11.35,5.91,2.5,5.23,1.71,10-1.83,12.87s-8.15,2.59-10.36.43A4.54,4.54,0,0,1,147,60.16c-.14-.67-.14-3.6-3.43-4.46s-4.39,0-5.57,1.44a6,6,0,0,0-1.08,3.31Z"/><path class="cls-3" d="M152.84,65.35A6.93,6.93,0,0,1,148,63.59a4.37,4.37,0,0,1-1.33-3,2.06,2.06,0,0,0-.05-.39c0-.09,0-.2,0-.33A4.1,4.1,0,0,0,143.45,56a8.25,8.25,0,0,0-2.08-.31,3.71,3.71,0,0,0-3.12,1.64,5.72,5.72,0,0,0-1,3.08v.36l-4.05-.06.11-.43c.06-.28,1.69-6.79,4-9.65,3.65-4.58,7.63-6.91,11.83-6.91,2.12,0,8.57,0,11.67,6.1,2.54,5.33,1.82,10.3-1.93,13.31a9.61,9.61,0,0,1-6,2.18M141.37,55a9.33,9.33,0,0,1,2.27.33,4.79,4.79,0,0,1,3.65,4.46c0,.12,0,.21,0,.28a4.58,4.58,0,0,1,.06.47,3.64,3.64,0,0,0,1.12,2.52,6.23,6.23,0,0,0,4.33,1.56,8.92,8.92,0,0,0,5.56-2c3.48-2.79,4.13-7.44,1.74-12.44-2.6-5.11-7.54-5.7-11-5.7-4,0-7.76,2.23-11.27,6.63-1.86,2.33-3.32,7.42-3.73,8.94l2.45,0a6,6,0,0,1,1.15-3.18A4.37,4.37,0,0,1,141.37,55"/><rect class="cls-3" x="129.06" y="26.15" width="0.92" height="33.79"/><polygon class="cls-3" points="132.52 100.01 134.66 99.86 134.65 105.5 132.57 105.59 132.52 100.01"/><polygon class="cls-3" points="144.55 95.68 151.01 93.22 151.11 101.68 148.98 102.53 148.86 95.83 144.6 97.3 144.55 95.68"/><polygon class="cls-3" points="144.55 98.5 146.6 97.77 146.7 103.3 144.6 104.14 144.55 98.5"/><polygon class="cls-3" points="140.71 96.46 142.81 96.15 142.86 99.69 140.71 100.01 140.71 96.46"/><polygon class="cls-3" points="132.57 97.14 139.07 96.87 139.07 105.23 136.97 105.33 136.87 98.6 132.55 98.78 132.57 97.14"/><polygon class="cls-3" points="122.53 96.98 125.91 97.24 125.96 105.54 122.27 105.39 122.22 103.82 123.71 103.76 123.81 98.7 122.48 98.5 122.53 96.98"/><polygon class="cls-3" points="115.05 95.99 121.04 96.98 121.14 103.51 119.86 105.13 115.1 104.44 115.15 102.98 118.48 103.34 118.84 102.72 118.84 98.23 115 97.4 115.05 95.99"/><polygon class="cls-3" points="111.36 94.89 113.46 95.47 113.41 103.92 111.36 103.3 111.36 94.89"/><polygon class="cls-3" points="107.98 93.49 110.08 94.47 110.03 103.97 107.98 103.14 107.98 93.49"/><text class="cls-4" transform="translate(129.35 52.05)"> </text></svg>