<svg id="Layer_1" data-name="Layer 1" xmlns="http://www.w3.org/2000/svg" viewBox="0 0 258.78 130"><defs><style>.cls-1{fill:#2f2e41;}</style></defs><path class="cls-1" d="M194,79.06h5.47a6.29,6.29,0,0,1,2.4-2.88A14.21,14.21,0,0,1,205.59,75a33.26,33.26,0,0,1,6-.46h14.17q7.89,0,9.22,4.53h5.4a10.06,10.06,0,0,0-3.57-7q-3.72-3-11.05-3H212q-11,0-15,4H197A12.62,12.62,0,0,0,194,79.06Z"/><path class="cls-1" d="M139.15,79.06h5.43a6.17,6.17,0,0,1,2.4-2.88,14,14,0,0,1,3.8-1.19,33.78,33.78,0,0,1,6-.46h14.1a20.27,20.27,0,0,1,3.9.33,12.31,12.31,0,0,1,2.79.86,4.52,4.52,0,0,1,2.13,2.19,6.47,6.47,0,0,1,.39,1.15h5.42a10.11,10.11,0,0,0-3.58-7q-3.71-3-11.05-3H157.2q-11.08,0-15.08,4h.07A12.62,12.62,0,0,0,139.15,79.06Z"/><path class="cls-1" d="M90.69,78.86A4.14,4.14,0,0,1,92.35,76a6.73,6.73,0,0,1,2.14-.87,15,15,0,0,1,3.37-.33h20.07a15.42,15.42,0,0,1,6.69,1.13,4.37,4.37,0,0,1,2.16,2.16,5.51,5.51,0,0,1,.31.78h5.47q-1.4-9.56-13.85-9.56H98c-7.78,0-12,3.19-12.67,9.56Z"/><path class="cls-1" d="M241.24,98.68c0-.05,0-.07-.06-.07H237a.52.52,0,0,0-.59.59v.2c0,2.74-.89,4.53-2.69,5.36a16,16,0,0,1-6.88,1.13H211.54q-8.07,0-10.36-2.65a9.22,9.22,0,0,1-1.41-4,42.91,42.91,0,0,1-.49-7.18c0-2.69,0-4.92.06-6.65v0H194.1c0,.91-.07,1.85-.07,2.84a89.21,89.21,0,0,0,.59,12.9,13,13,0,0,0,1.74,4.6,10.9,10.9,0,0,0,3,3.15,14.74,14.74,0,0,0,5.15,1.81,41.85,41.85,0,0,0,7.44.57h14.88c4.73,0,8.24-.77,10.56-2.32q4.2-3,4.2-9.73a.38.38,0,0,0-.07-.26Z"/><path class="cls-1" d="M186.3,90.86a.22.22,0,0,0-.13-.06H162.36a.58.58,0,0,0-.66.66v4.1a.58.58,0,0,0,.66.66h18.82a21,21,0,0,1-.46,4.87,6.77,6.77,0,0,1-1.24,2.81c-1.19,1.32-3.72,2-7.61,2H156.66q-8.07,0-10.37-2.65-2-2.52-2-11.18,0-4.08.09-6.68h-5.21c0,.91-.06,1.85-.06,2.84q0,4.89.13,8.07a44.48,44.48,0,0,0,.39,4.83,12.64,12.64,0,0,0,1.78,4.6,11.14,11.14,0,0,0,3.08,3.15,14.67,14.67,0,0,0,5.15,1.81,41.85,41.85,0,0,0,7.44.57h14.75a30.69,30.69,0,0,0,6.1-.53,11.46,11.46,0,0,0,4.2-1.66,10.22,10.22,0,0,0,4-6.88,33.86,33.86,0,0,0,.39-4.1c.09-1.81.13-4,.13-6.62,0-.13,0-.22-.07-.26Z"/><path class="cls-1" d="M127,89.08a22.32,22.32,0,0,0-5.5-1.52,49.66,49.66,0,0,0-7.74-.53h-1.44q-.93,0-2.1.06h-.86a3.91,3.91,0,0,0-.49,0,3.29,3.29,0,0,1-.42,0c-1.28,0-2.37.06-3.28.06h-2c-4.15,0-7.23-.41-9.25-1.25a7.52,7.52,0,0,1-1.13-.59h-7a9.07,9.07,0,0,0,4.83,5.22q4.13,2,12.53,2h1.71c.69,0,1.5,0,2.42-.06H108a3,3,0,0,0,.46,0,2.63,2.63,0,0,1,.33,0H111c.79,0,1.46-.06,2-.06h1.58a51.78,51.78,0,0,1,5.5.26,12.47,12.47,0,0,1,3.81.93,5.42,5.42,0,0,1,3.6,5.49,9.39,9.39,0,0,1-.52,3.31,4.18,4.18,0,0,1-1.84,2.18,8,8,0,0,1-2.49.93,17.88,17.88,0,0,1-3.74.33H100.13a21.31,21.31,0,0,1-4-.33,10.91,10.91,0,0,1-2.75-.86,4.33,4.33,0,0,1-2.16-2.12,8.56,8.56,0,0,1-.73-3.37.52.52,0,0,0-.59-.6H85.78c-.36,0-.53.2-.53.6,0,4,1.33,7.15,4,9.26,2.27,1.89,5.46,2.85,9.57,2.85h20.33a27.59,27.59,0,0,0,6-.57,10,10,0,0,0,4.1-1.81q3.54-3,3.54-9.67Q132.79,92,127,89.08Z"/><path class="cls-1" d="M51.33,16.63V48.72L17.14,69.52v-37L48.92,13.85C49.76,13.47,51.45,13,51.33,16.63Z"/><path class="cls-1" d="M44,86.81,19.27,71.65,46.79,54.93s0,22.62,0,30.81C46.78,87.22,46.25,88.05,44,86.81Z"/><path class="cls-1" d="M44.22,127V94.87l34.19-20.8v37.05L46.63,129.74C45.8,130.12,44.1,130.61,44.22,127Z"/><path class="cls-1" d="M51.6,56.78,76.28,71.93,48.76,88.66s0-22.62,0-30.81C48.77,56.37,49.31,55.54,51.6,56.78Z"/></svg>