<svg id="Layer_1" data-name="Layer 1" xmlns="http://www.w3.org/2000/svg" viewBox="0 0 258.78 130"><defs><style>.cls-1{fill:#2f2e41;}</style></defs><path class="cls-1" d="M42.66,111.06a15.78,15.78,0,0,1-1.23,6.62,11.31,11.31,0,0,1-3.21,4.23,12.18,12.18,0,0,1-4.43,2.26,16.59,16.59,0,0,1-4.92.6,17.88,17.88,0,0,1-4.95-.56A11.64,11.64,0,0,1,19.44,122a11.36,11.36,0,0,1-3.21-4.28A16,16,0,0,1,15,111.06V77.15H5.89V108.6a23.73,23.73,0,0,0,1.5,8.68,17.52,17.52,0,0,0,4.44,6.54,20.47,20.47,0,0,0,7.1,4.16,28.82,28.82,0,0,0,9.55,1.46q11.33,0,17.31-5.58t6-15.26V77.15H42.66Z"/><polygon class="cls-1" points="75.78 129.6 100.34 77.15 94.47 77.15 75.94 116.61 66.49 89.9 56.61 89.9 71.98 129.6 75.78 129.6"/><rect class="cls-1" x="100.02" y="89.58" width="9.12" height="39.78"/><path class="cls-1" d="M129,126a25.83,25.83,0,0,1-6.61-.48,16.36,16.36,0,0,1-5.75-2.69l.72,5.38a39.73,39.73,0,0,0,6.38,1.35,59.17,59.17,0,0,0,6.13.48,23.09,23.09,0,0,0,5.48-.68,16.61,16.61,0,0,0,5-2.09,11.43,11.43,0,0,0,3.6-3.69,10,10,0,0,0,1.39-5.35,9.33,9.33,0,0,0-1.11-4.71,11.11,11.11,0,0,0-2.89-3.33,19.05,19.05,0,0,0-4-2.38q-2.22-1-4.44-1.86l-3.37-1.39a15.47,15.47,0,0,1-2.89-1.55,8.23,8.23,0,0,1-2-1.9,4.06,4.06,0,0,1-.76-2.46,3.86,3.86,0,0,1,.72-2.33,6.09,6.09,0,0,1,1.82-1.67,9.1,9.1,0,0,1,2.58-1,12.9,12.9,0,0,1,3-.35,35.09,35.09,0,0,1,4.52.67A18.26,18.26,0,0,1,139.73,95a15.67,15.67,0,0,1,2.5,1.35c.71.47,1.39,1,2,1.42,0-.79,0-1.57,0-2.33a15.69,15.69,0,0,0-.19-2.74q-1.59-.94-2.94-1.62A14.08,14.08,0,0,0,138.31,90a19.81,19.81,0,0,0-3.25-.56c-1.16-.1-2.48-.16-4-.16a20.51,20.51,0,0,0-5.47.72,14.91,14.91,0,0,0-4.64,2.1,10.8,10.8,0,0,0-3.21,3.36,8.53,8.53,0,0,0-1.19,4.44,10,10,0,0,0,1.12,5,10.71,10.71,0,0,0,2.89,3.41,17.3,17.3,0,0,0,4,2.34c1.48.63,3,1.22,4.52,1.75,1.16.42,2.27.84,3.32,1.26a14.93,14.93,0,0,1,2.82,1.47,7.66,7.66,0,0,1,2,1.9,4.27,4.27,0,0,1,.75,2.5,5.31,5.31,0,0,1-.71,2.77,6.25,6.25,0,0,1-2,2,9.78,9.78,0,0,1-2.9,1.27A13.2,13.2,0,0,1,129,126"/><rect class="cls-1" x="152.33" y="89.58" width="9.11" height="39.78"/><path class="cls-1" d="M187.77,89.9a23.62,23.62,0,0,0-9.35,1.66,17.84,17.84,0,0,0-6.34,4.4,17.58,17.58,0,0,0-3.65,6.3,24.72,24.72,0,0,0-1.27,7.45,27.4,27.4,0,0,0,1.35,7.53,17.7,17.7,0,0,0,3.64,6.3,17.11,17.11,0,0,0,6.31,4.32,24.33,24.33,0,0,0,9.31,1.58,22.4,22.4,0,0,0,8.91-1.58,16.39,16.39,0,0,0,9.59-10.5,28.5,28.5,0,0,0,1.31-7.65,26.81,26.81,0,0,0-1.35-7.45,18.3,18.3,0,0,0-3.56-6.3,17.62,17.62,0,0,0-6-4.4,21.33,21.33,0,0,0-8.88-1.66m-11.49,21.16v-2.78a23.4,23.4,0,0,1,.79-6.61,10.55,10.55,0,0,1,2.26-4.24,8.13,8.13,0,0,1,3.52-2.26,13.17,13.17,0,0,1,4.52-.6,13.92,13.92,0,0,1,4.52.56,7.88,7.88,0,0,1,3.53,2.22,10.52,10.52,0,0,1,2.25,4.28,23.76,23.76,0,0,1,.8,6.65v2.78a23.76,23.76,0,0,1-.8,6.65,10.52,10.52,0,0,1-2.25,4.28,7.88,7.88,0,0,1-3.53,2.22,13.92,13.92,0,0,1-4.52.56,13.17,13.17,0,0,1-4.52-.6,8.13,8.13,0,0,1-3.52-2.26,10.51,10.51,0,0,1-2.26-4.23,23.52,23.52,0,0,1-.79-6.62"/><path class="cls-1" d="M243.78,108.52v20.84h9.11V111a32.53,32.53,0,0,0-1.07-8.68,16.6,16.6,0,0,0-3.41-6.54,15.26,15.26,0,0,0-6.06-4.16,24.72,24.72,0,0,0-9-1.46q-9.59,0-14.7,5.58T213.5,111v18.38h9.11V108.52a23.89,23.89,0,0,1,.8-6.66,10.43,10.43,0,0,1,2.26-4.27,7.79,7.79,0,0,1,3.52-2.22,13.68,13.68,0,0,1,4.52-.56,11.9,11.9,0,0,1,4.36.6,6.94,6.94,0,0,1,3.17,2.25,10.75,10.75,0,0,1,1.9,4.24,29.23,29.23,0,0,1,.64,6.62"/><polygon class="cls-1" points="156.31 83.24 212.56 51.16 158.94 73.03 143.72 65.47 156.31 83.24"/></svg>