<svg xmlns="http://www.w3.org/2000/svg" xmlns:xlink="http://www.w3.org/1999/xlink" viewBox="0 0 194.57 215.78"><defs><style>.cls-1{fill:none;}.cls-2{clip-path:url(#clip-path);}.cls-3{fill:#2f2e41;}.cls-4{fill:#010101;}.cls-5{fill:#040303;}.cls-6{fill:#0d0d0d;}.cls-7{fill:#181412;}.cls-8{fill:#f0ac87;}.cls-9{fill:#272b2b;}.cls-10{fill:#526178;}.cls-11{fill:#1b1c1c;}.cls-12{fill:#0a0d0d;}.cls-13{fill:#efac87;}.cls-14{fill:#eaa784;}.cls-15{fill:#5f6b80;}.cls-16{fill:#c7c3ca;}.cls-17{fill:#e3a27f;}.cls-18{fill:#5e7687;}.cls-19{fill:#adb8c2;}.cls-20{fill:#565a5a;}.cls-21{fill:#ae8a9a;}.cls-22{fill:#526177;}.cls-23{fill:#8f9fad;}.cls-24{fill:#98b5b3;}.cls-25{fill:#70798b;}.cls-26{fill:#171b1d;}.cls-27{fill:#a7b2be;}.cls-28{fill:#745849;}.cls-29{fill:#202323;}.cls-30{fill:#161313;}.cls-31{fill:#505353;}.cls-32{fill:#b3bcc6;}.cls-33{fill:#e0dade;}.cls-34{fill:#ccaeb8;}.cls-35{fill:#384352;}.cls-36{fill:#c3afb9;}.cls-37{fill:#545858;}.cls-38{fill:#484b4b;}.cls-39{fill:#a2b3b7;}.cls-40{fill:#3f4343;}.cls-41{fill:#0d0f0f;}.cls-42{fill:#526e82;}.cls-43{fill:#aeb7c3;}.cls-44{fill:#e3dbe0;}.cls-45{fill:#8fa1b0;}.cls-46{fill:#abcac2;}.cls-47{fill:#8b9faf;}.cls-48{fill:#0c0d0f;}.cls-49{fill:#848396;}.cls-50{fill:#7b8c7b;}.cls-51{fill:#4f6676;}.cls-52{fill:#231e1b;}.cls-53{fill:#21201f;}.cls-54{fill:#1f1f1e;}.cls-55{fill:#c5d1c7;}.cls-56{fill:#f5f4f3;}.cls-57{fill:#080807;}.cls-58{fill:#2e663d;}.cls-59{fill:#16100c;}.cls-60{fill:#110c0a;}.cls-61{fill:#050505;}.cls-62{fill:#8b4637;}.cls-63{fill:#9d5442;}.cls-64{fill:#0d0f0e;}.cls-65{fill:#9b5745;}.cls-66{fill:#574134;}.cls-67{fill:#8b5c4d;}.cls-68{fill:#4c372b;}.cls-69{fill:#77453a;}.cls-70{fill:#0b0f0f;}.cls-71{fill:#121616;}.cls-72{fill:#131616;}.cls-73{fill:#5d6161;}.cls-74{fill:#474b4b;}.cls-75{fill:#424747;}.cls-76{fill:#383c3c;}.cls-77{fill:#1b1f1f;}.cls-78{fill:#4c5050;}.cls-79{fill:#475265;}.cls-80{fill:#afdaca;}.cls-81{fill:#d3cdd4;}.cls-82{fill:#0d0c0c;}.cls-83{fill:#aed6c8;}.cls-84{fill:#404b5c;}.cls-85{fill:#171518;}.cls-86{fill:#a4babd;}.cls-87{fill:#3f4a5b;}.cls-88{fill:#c9c7cf;}.cls-89{fill:#f2e7ea;}.cls-90{fill:#eeab86;}.cls-91{fill:#d99977;}.cls-92{fill:#e39f7a;}.cls-93{fill:#020201;}.cls-94{fill:#505e74;}.cls-95{fill:#201917;}.cls-96{fill:#cf785e;}.cls-97{fill:#b16b54;}.cls-98{fill:#b4bdc8;}.cls-99{fill:#b9c2cc;}.cls-100{fill:#b8758c;}.cls-101{fill:#92a3b1;}.cls-102{fill:#a1beb8;}.cls-103{fill:#020202;}.cls-104{fill:#040304;}.cls-105{fill:#8d4838;}.cls-106{fill:#833f31;}.cls-107{fill:#dbd1d8;}.cls-108{fill:#c1a7b5;}.cls-109{fill:#adb5c0;}.cls-110{fill:#b9c1cc;}.cls-111{fill:#aeb9c2;}.cls-112{fill:#a3b1b9;}.cls-113{fill:#a7c6c0;}.cls-114{fill:#aad0c5;}.cls-115{fill:#a8c7c0;}.cls-116{fill:#a5c2bd;}.cls-117{fill:#b2bdc6;}.cls-118{fill:#aabdc2;}.cls-119{fill:#a9b5be;}.cls-120{fill:#b1dfcb;}.cls-121{fill:#e1d8dc;}.cls-122{fill:#111518;}.cls-123{fill:#8ba0b0;}.cls-124{fill:#99adbb;}.cls-125{fill:#afb7c2;}.cls-126{fill:#cdcad2;}.cls-127{fill:#c7b6c2;}.cls-128{fill:#f2e7eb;}.cls-129{fill:#bac1cb;}.cls-130{fill:#050b07;}.cls-131{fill:#111713;}.cls-132{fill:#536e82;}.cls-133{fill:#516077;}.cls-134{fill:#97acba;}.cls-135{fill:#aab0b9;}.cls-136{fill:#b7788e;}.cls-137{fill:#26292d;}.cls-138{fill:#272b36;}.cls-139{fill:#1e232a;}.cls-140{fill:#191a1d;}.cls-141{fill:#acb7c0;}.cls-142{fill:#5c5055;}.cls-143{fill:#d68761;}.cls-144{fill:#1c120c;}.cls-145{fill:#030201;}.cls-146{fill:#311f17;}.cls-147{fill:#030202;}.cls-148{fill:#a2c4bd;}.cls-149{fill:#353d3c;}.cls-150{fill:#adb5bf;}.cls-151{fill:#62535a;}.cls-152{fill:#e5c0cb;}.cls-153{fill:#b7c0ca;}.cls-154{fill:#8a9eae;}.cls-155{fill:#8ea0ae;}.cls-156{fill:#96a7b6;}.cls-157{fill:#c9b3bf;}.cls-158{fill:#bcc3cc;}.cls-159{fill:#b8c1cb;}.cls-160{fill:#7d8698;}.cls-161{fill:#b3e2ce;}.cls-162{fill:#82927c;}.cls-163{fill:#b4e6cf;}.cls-164{fill:#b3e2cd;}.cls-165{fill:#b0dcca;}.cls-166{fill:#bca1af;}.cls-167{fill:#91a2af;}.cls-168{fill:#131214;}</style><clipPath id="clip-path" transform="translate(-59.17 -21.62)"><path class="cls-1" d="M322,0H0V81.92H71.4a97.28,97.28,0,1,0,170.1,0H322Z"/></clipPath></defs><g id="Layer_2" data-name="Layer 2"><g id="Layer_1-2" data-name="Layer 1"><g class="cls-2"><circle class="cls-3" cx="97.28" cy="108.66" r="97.28"/><path class="cls-4" d="M208.23,234.88a51,51,0,0,1,1.57-6.48c1.31-3.59,1.08-7.4,1.57-11.1.37-2.18,1.15-4.28,1.12-6.53,0-1.78.06-3.57,0-5.36-.88-9-2.26-10.44-12.32-12.72-2.08-.74-3.82-2.45-6.26-2.17a6.76,6.76,0,0,1-3.85-.38,7.64,7.64,0,0,1-1.76-2.38,4.61,4.61,0,0,1-.67-2c-.67.8-.33,1.89-.84,2.76a12.74,12.74,0,0,1-5.21,5.18,5,5,0,0,1-2.15.13,2.29,2.29,0,0,1-1.44-1.44c1.05-4.66-1.22-6.71-5.55-7.63a130.79,130.79,0,0,1-20.4-6.49c-4.73-1.85-8-2.32-8.62,4a6.5,6.5,0,0,1-2.84,4.2,6.36,6.36,0,0,1-4.16,1.33c-2.94-1-4-3.11-3.72-6a2.9,2.9,0,0,1,1.32-1.54c.92-.66,3.31-.39,1.68-2.69-.6-.7-1.15-1.4-.69-2.39,10.72-5-1.06-6-1.57-9a1.27,1.27,0,0,1,0-2c3.53-1.55,6.34.58,9.11,2.06,8,4.27,16.51,7.07,25,9.87a35.91,35.91,0,0,0,10.23,2.17c8.78.19,17-.88,21.1-10.58,1.84-4.33,4.86-8.14,6.58-12.6,7.9-17.25,5.44-35.24,3.86-53.17-.24-4.85.58-9.76-.7-14.55-2.54-11.67-3.45-23.86-10.82-34-1.43-2.89,2.17-5.53.41-8.45-1.68-.29,1.62-4.79-2.58-2.94-9.44-12.16-22.84-13.76-36.78-13.9a13.12,13.12,0,0,1-3.19.16,26.16,26.16,0,0,0-11.41-.37A64.28,64.28,0,0,0,129,30c-2.73.45-4.88,2-6.93,3.7-2.45,2-5.63,2.11-8.33,3.43a12.28,12.28,0,0,0-5.87,6.34C97.21,54.32,93.79,67.86,93.58,82.56c-.09,2.23,1.34,3.92,2.11,5.84a13,13,0,0,1,.71,3.2c.36,7.68,1.94,14,11.44,15.39,4.64.67,8,4.06,5.9,9.75-2.86,1.32-4.63-.81-6.62-2.14-2.93-1.95-5.81-2.78-8.79-.15a4.89,4.89,0,0,1-3,1,1.81,1.81,0,0,1-1.09-2.58c1.81-6.31-2.12-11.56-3.69-17.07-4.5-15.77-3-32.07,4-45.2,7.41-13.87,21.27-23.74,38.16-27,14-2.71,28.18-2.14,42.13-1.16,12.84.9,28.23,12.1,29.48,27.78.73,9.09,6.67,17.39,7.82,26.84,2.68,21.93,8.06,43.9,3.45,66-3.24,15.5-10.63,29.5-23.28,40.5,4.39,1.52,8.94,3.16,13.53,4.67,8.92,2.92,14.12,10.34,12.45,19.34" transform="translate(-59.17 -21.62)"/><path class="cls-4" d="M199,221.27a13,13,0,0,0-.87-5.56c-.84-2.52-2.12-5-.59-7.71a3.35,3.35,0,0,1,3.24-.79,6.26,6.26,0,0,1,3.17,3.35,34,34,0,0,1,1.82,5.58c.8,4.24,1.93,8.44,1.78,12.82,0,2.26.06,4.53,0,6.79" transform="translate(-59.17 -21.62)"/><path class="cls-5" d="M118.76,233.65a31.07,31.07,0,0,0,.87-5.68c.47-2,.15-4.88,3-5,2.18-.09,3,2.08,3.57,4" transform="translate(-59.17 -21.62)"/><path class="cls-5" d="M91.64,203.83c.84-8,6.08-15.16,13.4-15.94,11.5-1.21,22.06-3.65,30-12.76l1.69,1.44c1.32,2.38-.13,3.52-2,4.45l-1.6.21c-.77,3.41-.32,7-1.38,10.37a4.1,4.1,0,0,1-1.27,1.65c-2.84.23-3.83-4.23-7-2.95-.56.44-.81.88-.69,1.41.61,2.8,4.36,6,1.7,8.14-3.25,2.67-5.47-1.65-7.86-3.53-7.33-5.76-14.94-3.33-18.74,6a49.8,49.8,0,0,0-1.54,7,19.48,19.48,0,0,1-.61,3,19.74,19.74,0,0,0-.88,7,18.22,18.22,0,0,1,0,2.09,21.82,21.82,0,0,1-.3,3.14,15.54,15.54,0,0,1-.43,2.05" transform="translate(-59.17 -21.62)"/><path class="cls-6" d="M133.54,164.47l0,1.65c-7.1-3.93-7.58-13.56-13.19-17.32s-14-2.88-18.23-9.86l.82-.7c4.86-1.29,7.73,3.21,11.87,4,2.71,1.17,5.76.51,8.5,1.56C127.48,150.31,131.81,156.74,133.54,164.47Z" transform="translate(-59.17 -21.62)"/><path class="cls-7" d="M94.27,112.86,95.91,115c1.24,8.23,7.25,15.25,6.09,24.09l.07-.14C93.3,131.91,90.32,122,94.27,112.86Z" transform="translate(-59.17 -21.62)"/><path class="cls-8" d="M198.07,51.78c5.81,4,7,10.58,8.69,16.63s2.28,12.08,3.36,18.14c-1.59.7-2.79-.2-4-1-7.74-4.58-15.31-4.06-22.74.67,7.63.38,15.17-3.83,22.86-.3,7.27,2.45,3.64,8.55,4.43,13.17-.93,2.22-2.39,1.07-3.75.61-7.95-4.41-15.34-2.19-22.53,2-.25.57-.55,1.12-.85,1.67-1,1.73-.27,3.38.24,5,1.06,2.41,1.78-.6,2.72-.21a4.71,4.71,0,0,1,2.83.27c3.26,2.16,6.51,2.37,9.76,0a12.18,12.18,0,0,1,2.72-1.06c4.11-.36,4.22-5.55,7.86-6.47a1.57,1.57,0,0,1,1.6.83c2.5,11,2.12,22.13,1.79,33.29-.23,7.86-2.76,15-6.09,21.93-4.28-.69-3-4.4-3.72-7-1.8-6.55-4.16-8.24-10.87-6.65a134.7,134.7,0,0,1-27.35,4c-7.9.22-10.68,5-8.66,12.7.85,3.25,3.9,7.32,1,9.77-3.18,2.66-6.93-1-10.19-2.43C136.7,162.65,130,154.72,127,143.62c-1.67-6.28-3.71-12.44-5.69-18.62-.86-5.21-1.09-10.54-2.82-15.61a42.13,42.13,0,0,1,0-13.26c.78-2.32,1.08-4.76,1.65-7.13,1.55-5.7.43-11.52.85-17.27,0-8.64,9.45-13.77,21.64-14.23,8.82-1,17.69-1.59,26.43-3.22,6.13-1.06,12.07-3,18.2-4C190.94,49.74,194.79,49.18,198.07,51.78Z" transform="translate(-59.17 -21.62)"/><path class="cls-9" d="M94.58,91c0-1-.07-2-.1-3-1-1.49-1.45-3.34-2.84-4.6-.06-15.72,4.13-29.92,14.85-41.81A17.92,17.92,0,0,0,112.31,36l9.1-3.43c2.32-1.43,4.63-2.9,7.51-2.86,2.92.36,5.91,1.38,8.76.79,1.89-.39,5.58,3.63,5.77-1.9,3.06-1.47,6.17-2.65,9.63-1.45,2,.54,4,1.48,5.82-.36,4.25-2.12,8.22-2.87,12.41.63,2.9,2.42,7,.48,10.48,1.72,6.47,2.32,12,5.55,14.68,12.32,1.49,2.24.46,3.35-1.76,3.91-1.8.32-3.19-3-5.27-.53-2.34,2.77-4.51.21-6.73-.31a7.75,7.75,0,0,0-3.48.33c-3.46,7.92-6.93,1-10.6,0-1.71,2.32.9,7.06-3.5,7.72-4,.59-4.49-4-6.88-5.82-3.27,5-3.27,5-11.58,2.29-.74-.68-1,.87-.34.12.11-.12.3,0,.67.28a5.64,5.64,0,0,1,2.29,2.83c.17,4.27-2.74,4.13-5.58,3.74-3.21-.43-6.46-.75-9.6-1.41-2.82-.59-1.6,1.36-2,2.34a3.35,3.35,0,0,1-.57.5C119.07,64,117.76,66.3,119.88,81c.86,6-1.62,10.62-4.51,15.31a5.71,5.71,0,0,1-2.19,2,2.25,2.25,0,0,1-2.77-.23C106.08,93.53,97.62,98.35,94.58,91Z" transform="translate(-59.17 -21.62)"/><path class="cls-10" d="M199,237.14c-.27-2.1-1.38-2.27-3-1.32a18.32,18.32,0,0,1-2.55,1.53" transform="translate(-59.17 -21.62)"/><path class="cls-10" d="M173.44,228.28c.1-2.91-.63-5.72-1.14-8.55-.48-3.66-.22-7.35-.38-11,0-3.14-1.48-6.28-.08-9.43a3.17,3.17,0,0,1,3.11-1.15c4.47,2.24,5.39,6.83,7.18,10.85-.19,4.07-1.85,8-1.33,12.12-.85,3.45,1,3.1,3.23,2.3,1.17-.48,2.3-1,3.41-1.63,2.28-1.18,4.43-2.78,7.24-2.25a13.49,13.49,0,0,0,4.48-.21,2,2,0,0,1,1.64.52" transform="translate(-59.17 -21.62)"/><path class="cls-11" d="M123,124c1.52,4.93,3.4,9.78,4.5,14.8,3.14,14.36,11.42,24,25.29,28.89a40.57,40.57,0,0,1,4.65,2.45c-1.27-4.3-2.65-8.11-3.48-12-1.64-7.72,1.46-12.4,9.31-12.75a129.23,129.23,0,0,0,30.92-4.68c5.64-1.65,8.67,1.21,10.59,6.55,1.15,3.21-.87,7,2.2,9.67-3.06,5.67-5.61,11.71-9.32,16.92-4.88,6.85-13,7.29-20.15,6.3-12.32-1.69-24-6.14-35.08-11.9-2.84-1.47-5.91-2.52-8.87-3.76-4.33-6.05-8.26-12.31-10.49-19.48-.49-.5-1-1-1.46-1.51-1.91-2.64-2.52-5.77-3.37-8.82-.45-2.48-1.5-4.92-.55-7.51C118.87,125.15,120.17,123.3,123,124Z" transform="translate(-59.17 -21.62)"/><path class="cls-12" d="M123,124l-4.29,3c-4-2.36-6.72-5.43-6.19-10.46,1.43-5-1.35-6.89-5.63-8.16C96.22,105.21,94.79,103.05,94.58,91c2.67,4.38,8.08,0,11,3.46,4.41-3.8,4.15,2.15,6.76,3.21,3.46-5.8,7.15-10.77,5.17-18.93-3.28-13.57,1.61-20,14.41-22.21,3.54-4.53,7.6-2.42,11.31-.56,1.87.94.82,2.46-.7,3.32-4.19,1.13-8.35,2.43-12.58,3.34-5,1.07-6.07,5-7.23,9-1.43,6,.54,12.27-1.09,18.29.08,2.07,0,4.09-1.59,5.69-2.67,4.89-1.26,9.74.17,14.58C123,114.43,122,119.41,123,124Z" transform="translate(-59.17 -21.62)"/><path class="cls-13" d="M139.49,185.46a6,6,0,0,0,2.89-5.69c-.61-7.72,3.08-6.19,7.87-4.19a147.35,147.35,0,0,0,24.67,7.81c7,1.57,7.8,3.75,3.7,9.48.42,3.58-2.58,3.94-4.76,5.06-4.33.29-8.5-.69-12.66-1.7a17.88,17.88,0,0,1-2-.56c-3.1-1.23-6.23-2.36-9.68-2a5,5,0,0,1-1.91-.63C145.06,190.37,139.35,191,139.49,185.46Z" transform="translate(-59.17 -21.62)"/><path class="cls-12" d="M148.43,52.09l-5.76-4.26c5.19.05,9.07.36,13.13,1.93.17-2.62.3-4.8.44-7,3.12.13,3.62,2.56,4.81,4.31s1.5,5.2,4.27,4c2.29-1,1.17-3.92.6-6-.38-1.42-1.22-2.76.28-4.61,3.4,2,6.73,4,9.11,7.5,2.35-.86,1.19-3.36,2-5a.8.8,0,0,1,.65-.26c.22,0,.42.24.63.37,1.46,1.32,2.93,1.65,4.4,0,2.36-.17,4.82,3.68,7.23-1.21,1.19-2.4,2.21,1.69,3.43,2.68,2,1.6,4,1.69,6,0,3,3.16.86,5.25-1.54,7.27-9.94-1.06-19,3.49-28.63,4.45-3.17-1.21-6.26.12-9.39.31C155.46,56.83,151.26,56.3,148.43,52.09Z" transform="translate(-59.17 -21.62)"/><path class="cls-14" d="M119.79,134.51l3.11,8.62c-2.83,2-5.84,1.16-8.83.54-4.66.14-6.88-6.13-12.07-4.59a7.78,7.78,0,0,0-1.72-6.09c-4-5.34-5.19-11.44-4.37-18l1.67-1.47a1.69,1.69,0,0,1,2-.33,4.68,4.68,0,0,1,2,3.68c-1.1,7.71,1.71,13.52,8.22,17.82,2.93,1.94,5.44,2.13,8.07-.23A1.81,1.81,0,0,1,119.79,134.51Z" transform="translate(-59.17 -21.62)"/><path class="cls-15" d="M199.65,191.29c10.84.71,14.38,4.09,14.51,13.86a3.52,3.52,0,0,1-2,.44c-4.13-.82-8.43-2.46-11.3,2.49l-2.77,0a3.75,3.75,0,0,1-1.49-2.82,6.73,6.73,0,0,1,1.76-4.88c2.42-2.38-.17-4.92.22-7.37A2.86,2.86,0,0,1,199.65,191.29Z" transform="translate(-59.17 -21.62)"/><path class="cls-16" d="M195.09,221.2c-3.3-2.33-4.83,2-7.5,2-2-1.19-2.56-3.1-2.63-5.26.19-1.83.83-3.63.44-5.52-.06-.29-.09-.59-.14-.88a6.24,6.24,0,0,1,0-1.78c.2-.86.5-1.69.76-2.54a13.14,13.14,0,0,1,.56-1.71,8.66,8.66,0,0,1,2.16-3,4.42,4.42,0,0,1,3.65-1.09,5.18,5.18,0,0,1,3.26,2.29,3.82,3.82,0,0,1-.16,3c-4.79,5.85.24,7,4.16,8.64,1.29,1.26,1.26,2.86,1.14,4.48a10.06,10.06,0,0,1-1.08.42A4.07,4.07,0,0,0,195.09,221.2Z" transform="translate(-59.17 -21.62)"/><path class="cls-17" d="M119.79,134.51c-.37,0-.74,0-1.1,0-6.33,0-5.29-5.58-7-9.07a14,14,0,0,0-4-6.21,13.66,13.66,0,0,0-3.35-2.71c-.52-.24-1-.51-1.53-.78-1.2-.76-2.53-1.3-3.66-2.18l-1.61,0c6.6-7.06,10.32.2,14.92,3L118.69,127Z" transform="translate(-59.17 -21.62)"/><path class="cls-18" d="M213.05,217c0,4.06.13,8.15-1.58,12-1.93-.7-3.73,3.79-5.74.15L204,215.45C207.44,213.41,210.31,214.83,213.05,217Z" transform="translate(-59.17 -21.62)"/><path class="cls-19" d="M200.88,208.08c1.21-7.23,1.57-7.33,11.88-3.06-.76,2.18-.57,4.47-.76,6.72-3.55,4.61-6.57,2.93-9.4-.8C202,210,201.45,209,200.88,208.08Z" transform="translate(-59.17 -21.62)"/><path class="cls-20" d="M144,29.49c-1.83.57,1.71,3.14-.91,3-4.7-.31-9.68,1.58-14.09-1.5-.78-.69-2.18-1-1.39-2.57,5.46-.84,10.74-3.26,16.46-1.94A2.12,2.12,0,0,1,144,29.49Z" transform="translate(-59.17 -21.62)"/><path class="cls-21" d="M199.66,215.35c-3.26.62-6.47,2-8-3-1.19-3.79-.43-5.49,3.37-6,.87-.78,1.33-2.4,3-1.44,0,1,.08,2.07.11,3.1C198.63,210.48,199.14,212.92,199.66,215.35Z" transform="translate(-59.17 -21.62)"/><path class="cls-22" d="M205.63,236.35c1.26-1.1,2.39-2.58,4.38-1.41" transform="translate(-59.17 -21.62)"/><path class="cls-23" d="M202.6,210.94c3,1.6,6,3.88,9,.09a1.76,1.76,0,0,1,2.7-.12,10.16,10.16,0,0,1-1.22,6.06c-3.17.42-6.08-.77-9.06-1.52C203.23,214,202.22,212.71,202.6,210.94Z" transform="translate(-59.17 -21.62)"/><path class="cls-24" d="M130.54,191.46c-.76-3.83-.52-7.39,2.6-10.23-.08,2.7,1.65,4.24,3.61,5.63.86.6,1.73,1.19,1.69,2.43-1.25,2.56-3.42,3.4-6.11,3.25A4.51,4.51,0,0,1,130.54,191.46Z" transform="translate(-59.17 -21.62)"/><path class="cls-25" d="M186,188.62c.15-1.72.3-3.43.47-5.39,3.34,1.27,3.07,4.4,4.13,6.71a4.53,4.53,0,0,1,1,5c-.83,1.68-2.09,1.62-3.52.85a5.27,5.27,0,0,1-1.37-1.49C185.91,192.5,185.18,190.65,186,188.62Z" transform="translate(-59.17 -21.62)"/><path class="cls-26" d="M190.4,196q.07-3,.16-6.07l3-1.44a8.83,8.83,0,0,1,1.23,1.9,8.51,8.51,0,0,1,.46,2.23c0,3.47.16,7-3.28,9.29l-2.79.83a2.25,2.25,0,0,1-.89-1.59A7.2,7.2,0,0,1,190.4,196Z" transform="translate(-59.17 -21.62)"/><path class="cls-27" d="M210,234.94l-4.38,1.41c0-2.41.07-4.83.1-7.25,2,1.79,3.77-2.46,5.74-.15C211,231,210.5,233,210,234.94Z" transform="translate(-59.17 -21.62)"/><path class="cls-28" d="M209.9,100.25c0-5,2.83-11-4.54-13.57a2.17,2.17,0,0,1,1.88-1.86l2.88,1.73c2.64,4.88,1.43,10,1.14,15.14l-1.47-.33q-.48-.42-.27-.78C209.66,100.36,209.78,100.25,209.9,100.25Z" transform="translate(-59.17 -21.62)"/><path class="cls-29" d="M199.61,44.51c-.34,1.09,0,3.45-.76,3.1-1.78-.81-4.79,0-5.22-3.1,2,0,2.84-1.15,2.84-3l.87-1.66C198.93,41,199.28,42.73,199.61,44.51Z" transform="translate(-59.17 -21.62)"/><path class="cls-30" d="M138,188.52l-1.22-1.66,2.74-1.4c1.4,4.52,8.52,2,9.17,7.47C143.7,194.84,140.6,192.24,138,188.52Z" transform="translate(-59.17 -21.62)"/><path class="cls-31" d="M144,29.49c0-1,0-2,.07-3,4-1,7.95-1.89,11.87.26.33,1.33,0,2-1.49,1.47C150.92,28.09,147.31,27.53,144,29.49Z" transform="translate(-59.17 -21.62)"/><path class="cls-32" d="M214.27,210.91l-2.7.11c-2-2.48-2.93-4.74,1.19-6a5.08,5.08,0,0,0,1.4.13C214.2,207.07,214.23,209,214.27,210.91Z" transform="translate(-59.17 -21.62)"/><path class="cls-33" d="M186,188.62c.86,1.83,2.31,3.48,1.76,5.74-2.45,1.21-4.88,2.35-6.21-1.4C182.66,191.17,183.67,189.24,186,188.62Z" transform="translate(-59.17 -21.62)"/><path class="cls-34" d="M174,196.71l4.62-3.84a2.71,2.71,0,0,1,1.38.44,7.9,7.9,0,0,1,2.08,3.24,2.43,2.43,0,0,1-1,1.68,6.3,6.3,0,0,1-4.07.57c-.67-.24-1.35-.46-2.05-.66A1,1,0,0,1,174,196.71Z" transform="translate(-59.17 -21.62)"/><path class="cls-35" d="M134.74,181l2-4.45c2.18,0,3.09,1,2.46,3.18C138.41,182.5,136.61,182,134.74,181Z" transform="translate(-59.17 -21.62)"/><path class="cls-36" d="M181.54,196a2.73,2.73,0,0,1-1.54-2.66l1.51-.35,6.21,1.4h-.12c.42,1.48-.47,2.16-1.62,2.69A4.46,4.46,0,0,1,181.54,196Z" transform="translate(-59.17 -21.62)"/><path class="cls-37" d="M127.63,28.39,129,31l-7.61,1.61C122.54,29.78,125.2,29.26,127.63,28.39Z" transform="translate(-59.17 -21.62)"/><path class="cls-38" d="M112.31,36c-.24,3.63-2.46,5.22-5.82,5.64A12.67,12.67,0,0,1,112.31,36Z" transform="translate(-59.17 -21.62)"/><path class="cls-39" d="M193.66,190l-.1-1.49c2.51-.12,5-.22,6.09,2.79l-.48,1.66C196.44,193.63,195.21,191.52,193.66,190Z" transform="translate(-59.17 -21.62)"/><path class="cls-40" d="M154.47,28.18,156,26.71l2.94.08C158.35,30.2,156.72,30.19,154.47,28.18Z" transform="translate(-59.17 -21.62)"/><path class="cls-41" d="M91.64,83.45c3,.29,3,2.37,2.84,4.6A4.48,4.48,0,0,1,91.64,83.45Z" transform="translate(-59.17 -21.62)"/><path class="cls-10" d="M130.87,230.71a15.42,15.42,0,0,1-2.86-.66,7.33,7.33,0,0,1-3.14-2.41c-.46-1.52-.43-4.17-2.49-3.54-1.85.57-.37,3.4-1.11,5.08-2.86,1.87-5.17.63-7.37-1.27-.94-4.23-.11-8.59-.88-12.83.3-2.37,2.49-3.69,3.23-5.8-1.43-3.22-4.78-2.7-7.28-3.79a34.84,34.84,0,0,1-3.91-1c-2.72-1.46-6-.9-8.71-2.37.91-7.34,5.26-10.42,12.45-10.84,7-.4,9.79,5.87,14.79,8.71,1.72-2.4-.74-3.6-1.11-5.29-.47-2.12-6.16-3-1.91-6,3-2.1,6.48-1.67,8.56,2.2a7.45,7.45,0,0,0,1.48,1.49,4,4,0,0,1,.91,1.51,4,4,0,0,0,2.54,2.25,18.86,18.86,0,0,1,4.86,3.27c1.29,1.1,2.67,2.15,2.81,4a69,69,0,0,0-.35,6.89c-.22,3,1.17,5.41,3,7.65.83,2.44,1,5.1,2.36,7.36.58,1.24,1.14,2.49.51,3.89" transform="translate(-59.17 -21.62)"/><path class="cls-42" d="M93.17,224.49c0-1,.1-2.05.14-3.08,1.69-1,1.48-2.27.57-3.67,0-1.38-.24-2.78.55-4.05,4.31-1.62,7.3.2,9.64,3.7a6.93,6.93,0,0,1,.65,2.19c-.17,2.56.81,5.43-1.88,7.36C99.07,228.3,95.82,227.59,93.17,224.49Z" transform="translate(-59.17 -21.62)"/><path class="cls-43" d="M96.35,202.16c3.09-1.12,6.11-1.51,8.84.93,1.82,2.63,1.16,5.09-.52,7.48-3.61,2.38-6.89,1.81-9.88-1.16C94.05,206.72,95.49,204.51,96.35,202.16Z" transform="translate(-59.17 -21.62)"/><path class="cls-22" d="M92.9,225.77c1.56.86,1.88,2.52,2.56,3.94.51,1.17,1,2.33,1.64,3.47" transform="translate(-59.17 -21.62)"/><path class="cls-44" d="M115.29,237.3a6.88,6.88,0,0,1-5.09-3.91,5.2,5.2,0,0,1,.17-4.33,4.39,4.39,0,0,1,3.79-1.91l7.11,2c.16,1.58.44,3.18-1.08,4.34" transform="translate(-59.17 -21.62)"/><path class="cls-45" d="M94.79,209.41l8.77,1.54a1.41,1.41,0,0,1,1.89,0,4.4,4.4,0,0,1,.55,3.13c-.46,1.74-.9,3.5-2.56,4.57-1.78-3.51-5.64-3.52-8.58-5.09-.6-.09-.87-.3-.8-.63s.19-.59.35-.59C94.53,211.36,94.66,210.39,94.79,209.41Z" transform="translate(-59.17 -21.62)"/><path class="cls-46" d="M124.87,227.64c1.06,0,2.15,0,2.73,1.15,1.58.24-.32,3.74,2.59,2.75" transform="translate(-59.17 -21.62)"/><path class="cls-47" d="M94.3,230.65c-1.43-1.35-1-3.24-1.4-4.88a4.64,4.64,0,0,1,.27-1.28c3.41.64,6.72,2.07,10.3,1.24a2.24,2.24,0,0,1,.54,1.86,4.52,4.52,0,0,1-2,2.19,9.52,9.52,0,0,1-2.87.76A24.06,24.06,0,0,1,94.3,230.65Z" transform="translate(-59.17 -21.62)"/><path class="cls-48" d="M138.21,200.36l-4.76-2.92c-.95-1.07-2.9-1.31-2.77-3.29,0-.56-.05-1.12-.07-1.68a2.66,2.66,0,0,1-.07-1,7.09,7.09,0,0,1,1.38.22c3.38,1.69,7,3.15,8.3,7.21C140,200,139.65,200.93,138.21,200.36Z" transform="translate(-59.17 -21.62)"/><path class="cls-49" d="M115.51,236.39c1.55-1,2.53-2.86,4.68-2.87" transform="translate(-59.17 -21.62)"/><path class="cls-50" d="M94.61,218.47c1.13.41,3.58-1,3.16,1.41-.34,2-2.77,1.48-4.46,1.53a2.76,2.76,0,0,1,0-1.48A2.15,2.15,0,0,1,94.61,218.47Z" transform="translate(-59.17 -21.62)"/><path class="cls-51" d="M94.61,218.47c-.42.49-.84,1-1.25,1.46,0-2.59-.58-5.25,1-7.6a2.16,2.16,0,0,1,.44,1.22Z" transform="translate(-59.17 -21.62)"/><path class="cls-52" d="M114.07,143.67c3,.21,6,.77,8.83-.54l.15,1.86C120,144.7,116.75,146.19,114.07,143.67Z" transform="translate(-59.17 -21.62)"/><path class="cls-53" d="M132.67,100.29c4.44-10,19.3-16.61,28.29-13.41,2.07.73,3.59,2.05,3.61,4.24,0,2.89-2.43,2.64-4.34,2.78-4.72.32-9.45.36-14.14.88S137.42,97.9,132.67,100.29Z" transform="translate(-59.17 -21.62)"/><path class="cls-54" d="M207.24,84.82l-1.88,1.86c-7.05-1.05-13.71.41-20.33,2.75-1.47.53-3.77,2.66-5.08-.27-1.17-2.64-.14-4.64,2.39-6.17C189.24,78.82,200.9,79.6,207.24,84.82Z" transform="translate(-59.17 -21.62)"/><path class="cls-55" d="M142.87,116.92c-2.68-.82-5.59-1.32-6.36-4.72a9.18,9.18,0,0,1,7.53-6.13c2.57,0,5-2.43,7.68-.52,2.23,3.21,3.61,6.9,6.33,10.09-2,2.1-4.48,2.29-6.65,3.08C148.53,118.26,145.17,120.07,142.87,116.92Z" transform="translate(-59.17 -21.62)"/><path class="cls-56" d="M202,108.75l-2.66.55c-3.39,2-6.78,3.51-10.22.09l-2.92-.35a3.28,3.28,0,0,1-2.58-1.64,9.75,9.75,0,0,1-.53-5.16l.07-.17c2.3-5.21,7.46-2.85,11.2-4.25C196.88,101.49,199.86,104.84,202,108.75Z" transform="translate(-59.17 -21.62)"/><path class="cls-57" d="M148.43,52.09c6.28,5,14.28,1.36,21,4.14a179.61,179.61,0,0,1-26.87,3.08c-2-6.9-6.47-4.16-10.61-2.76.19-1.07-3.9-2,.17-3.32s7.72.49,11.5,1C146,54.57,148.09,55.69,148.43,52.09Z" transform="translate(-59.17 -21.62)"/><path class="cls-58" d="M151.53,118.15l5.79-2.56c-4.17-2-5.55-5.43-5.82-9.51,1.26-2.32,2.84-3.13,5-1.07.74,1.15.29,3.2,1.81,3.58,2.07.52,2.16-2.08,3.48-2.9a1.54,1.54,0,0,1,1.81.24c4.76,2.21,4.77,4.49.62,7.7a25.42,25.42,0,0,1-12.72,5.61c-.49-.24-.65-.49-.49-.73S151.37,118.15,151.53,118.15Z" transform="translate(-59.17 -21.62)"/><path class="cls-58" d="M202,108.75c-4.3-1.91-8-4.28-7.35-9.85.8-1.54,2.18-1.64,3.66-1.5.46.11,1.1.21,1.26.58,1.63,3.77,3.14,2.81,4.65-.07a2.58,2.58,0,0,1,2.82.59l2.84,1.75a7,7,0,0,0-.12,1.11C207,103.56,207.77,109.6,202,108.75Z" transform="translate(-59.17 -21.62)"/><path class="cls-59" d="M163.63,105.93l-1.75-.13c-1.77,1.07-3.55,2.1-5.46.28-1.65-2.8-3.28-.37-4.92,0L144,107.19c-1-.74-2.54,0-3.24-1.33,6.32-2.9,13.26-3,19.92-4.31C164.74,100.74,164.15,103.43,163.63,105.93Z" transform="translate(-59.17 -21.62)"/><path class="cls-60" d="M207.07,98.5l-3.24-.07a4.71,4.71,0,0,1-4.5.23l-4.65.24c-3.69,1.57-8.16.3-11.49,3.17-1.3-.85-2.75-2.56-.87-3.22,7.57-2.65,15.36-4.65,23.5-2.8C206.39,96.18,206.66,97.65,207.07,98.5Z" transform="translate(-59.17 -21.62)"/><path class="cls-61" d="M120.25,110.17c-3.31-4.5-3.81-11.42-1.15-16.13,0,0,.49,0,.55.18a12.13,12.13,0,0,1,.43,1.37Q120.16,102.88,120.25,110.17Z" transform="translate(-59.17 -21.62)"/><path class="cls-62" d="M190.48,127c2.38,1.27,3.87,3,2.26,5.73-.4.68-1.91,1.52-2.25,1.3-2.79-1.87-1.18-4.62-1.16-7.06C189.73,126.42,190.11,126.43,190.48,127Z" transform="translate(-59.17 -21.62)"/><path class="cls-63" d="M174,136.56c4.86-3,7.58,1.6,12.64.32C182.14,139.45,182.14,139.45,174,136.56Z" transform="translate(-59.17 -21.62)"/><path class="cls-64" d="M121.67,89.9c.38-6.09-1.43-12.32,1.09-18.29C121.34,77.64,124.77,84,121.67,89.9Z" transform="translate(-59.17 -21.62)"/><path class="cls-65" d="M190.48,127l-.58,0-.57-.05c-2.84-1.92-3.32-5-3.56-8.33C188.39,120.78,189.72,123.72,190.48,127Z" transform="translate(-59.17 -21.62)"/><path d="M140.71,105.86l3.24,1.33c-3.82-.32-4.61,3.87-7.44,5C135.36,108.39,137.79,107,140.71,105.86Z" transform="translate(-59.17 -21.62)"/><path class="cls-66" d="M189.15,109.39c3.42,1.28,6.82.53,10.22-.09C196,113.88,192.6,113.73,189.15,109.39Z" transform="translate(-59.17 -21.62)"/><path class="cls-67" d="M183.12,102.24c1.86,1.42.77,3.57,1.3,5.32a1.84,1.84,0,0,1-1.6,1.66C181.55,106.84,179.23,104.41,183.12,102.24Z" transform="translate(-59.17 -21.62)"/><path class="cls-68" d="M151.53,118.15v1.09c-3-.19-6.82,2.34-8.66-2.32C145.59,118.49,148.63,117.85,151.53,118.15Z" transform="translate(-59.17 -21.62)"/><path class="cls-69" d="M182.82,109.22l1.6-1.66,1.81,1.48c-.95,1.2-.83,3.2-2.74,3.69C183.27,111.56,183,110.39,182.82,109.22Z" transform="translate(-59.17 -21.62)"/><path class="cls-70" d="M106.53,59.51,97.7,63.77c1.1-4.08,3.46-5.68,5.81-7.27C106,56,106.87,57.16,106.53,59.51Z" transform="translate(-59.17 -21.62)"/><path class="cls-71" d="M135.94,42.12c-2.94,1.47-5.1,1.09-9-1.44C131.24,40,133.51,39.51,135.94,42.12Z" transform="translate(-59.17 -21.62)"/><path class="cls-72" d="M106.53,59.51a5.27,5.27,0,0,0-3-3c2.68-2.52,6.2,1.59,8.87-1.62C111.32,58,108.56,58.25,106.53,59.51Z" transform="translate(-59.17 -21.62)"/><path class="cls-73" d="M112.51,50.45c-1.36,0-3.67.5-3.69-1,0-3.08,3-3,5.16-3.57,1.57-.44,2,.27,1.63,1.67l0,0A25.26,25.26,0,0,1,112.51,50.45Z" transform="translate(-59.17 -21.62)"/><path class="cls-74" d="M115.61,47.6,114,45.93c1.77-2.06,4-1.14,6.41-1.37C119.36,47.13,117.45,47.3,115.61,47.6Z" transform="translate(-59.17 -21.62)"/><path class="cls-75" d="M124.82,38.54a2.45,2.45,0,0,1-3,1.21c-.47-.16-1.13-1.1-1-1.42.51-1.34,1.79-1.3,3-1.12C124.43,37.31,125.26,37.49,124.82,38.54Z" transform="translate(-59.17 -21.62)"/><path class="cls-76" d="M154.19,33c-.91.39-1.51.86-2.09.84-1.1,0-1.72-.79-1.15-1.81a2,2,0,0,1,1.79-.51C153.23,31.57,153.58,32.29,154.19,33Z" transform="translate(-59.17 -21.62)"/><path class="cls-77" d="M183,43c-1.49,4.8-2.94,2.45-4.4,0Z" transform="translate(-59.17 -21.62)"/><path class="cls-78" d="M112.51,50.45a2.73,2.73,0,0,1,3.07-2.87C117.2,51.37,114.46,50.48,112.51,50.45Z" transform="translate(-59.17 -21.62)"/><path class="cls-79" d="M174,219.94a12.14,12.14,0,0,1,1.48,7.51,8.11,8.11,0,0,1-1.3,1.11,23.13,23.13,0,0,0-2.25,1.21c-1.2,1.24-1,3.69-3.3,4-1.85-.87-2.1-2.56-2.24-4.31a7.42,7.42,0,0,1,.65-3c1.78-2.08,1-4.4.56-6.67-.33-1.58-1.3-2.92-1.71-4.48a4.26,4.26,0,0,1,.32-1.9c2.5-3.31-.18-6.14-.86-9.17a6.35,6.35,0,0,1,.32-3.34c1.8-2.65,3.84-4.29,6.89-1.62.47,2.92.94,5.83,1.42,8.75A19.77,19.77,0,0,0,174,219.94Z" transform="translate(-59.17 -21.62)"/><path class="cls-80" d="M186,217c.54,2.08,1.07,4.17,1.6,6.25-.78,1.21-2.06,1-3.22,1.12a4.35,4.35,0,0,1-4.5-3c-2-4.28-.68-8,1.8-11.61a1.52,1.52,0,0,1,1.38-.56,5.28,5.28,0,0,1,1.5.54c.42.32.83.67,1.22,1l.27.34C187.76,213,185.83,215,186,217Z" transform="translate(-59.17 -21.62)"/><path class="cls-81" d="M195.28,235.74c-.13-.29-.25-.58-.37-.86,1.21-1.92,2.63-3.82,5.17-2.63,1.87.88,1.08,3,1.08,4.56" transform="translate(-59.17 -21.62)"/><path class="cls-82" d="M172.57,199.23a5.06,5.06,0,0,0-6.22,2.62,2.07,2.07,0,0,1-2.48.71c-1.7-1.05-1.15-3.32-2.47-4.58-.67-1-1.46-1.94-.71-3.23l13.31,2c.51.25,1,.51,1.51.77a1.16,1.16,0,0,1,.33,1.2c-.13.39-.26.58-.39.58Z" transform="translate(-59.17 -21.62)"/><path class="cls-83" d="M190.44,236.79l3.05-.36" transform="translate(-59.17 -21.62)"/><path class="cls-84" d="M174,227.44h1.48" transform="translate(-59.17 -21.62)"/><path class="cls-85" d="M175.45,199.26l.06-1.78,1.43.11c3.73,1.85,5.32,5.25,6.52,8.94a5.3,5.3,0,0,1,.11,2.06l-.57.87a10,10,0,0,0-1.33.21C178.56,206.82,177.88,202.52,175.45,199.26Z" transform="translate(-59.17 -21.62)"/><path class="cls-86" d="M179.87,221.28l4.5,3a4.56,4.56,0,0,1-5.94,1.09C176.92,224.32,178.89,222.55,179.87,221.28Z" transform="translate(-59.17 -21.62)"/><path class="cls-87" d="M174,219.94a11.33,11.33,0,0,1,0-12C174,212,174,216,174,219.94Z" transform="translate(-59.17 -21.62)"/><path class="cls-88" d="M193.49,236.43c.48-.51.95-1,1.42-1.55l.51.34" transform="translate(-59.17 -21.62)"/><path class="cls-89" d="M195.09,221.2a3.08,3.08,0,0,1,2.54-3.07c1.84-.49,1.66,1.14,2.09,2.12C198.46,221.93,196.74,221.39,195.09,221.2Z" transform="translate(-59.17 -21.62)"/><path class="cls-90" d="M199.51,146.49c3.91,6.29,3.54,14.13-1.43,20.5-6.39,8.18-15.34,9.78-24.76,7.82-8.2-1.71-13.15-7.36-14.51-15.82-.69-1.65-.6-3.12.93-4.28a7.36,7.36,0,0,1,3.43-.89,10.76,10.76,0,0,1,3.38.53c13.17,6,20.06,5.15,27.12-3.32C195.05,148.78,197.34,147.71,199.51,146.49Z" transform="translate(-59.17 -21.62)"/><path class="cls-91" d="M168.09,150.8c9.23-1.79,18.62-2.82,27.6-5.87,1-.34,1.83.4,2.15,1.48-.7,2.23-2.78,2.94-4.46,4.09a11.86,11.86,0,0,1-2,.7q-5.2,1.14-10.34,2.63a20,20,0,0,1-4.56.6c-2.81-.05-5.71.35-8.23-1.41A1.67,1.67,0,0,1,168.09,150.8Z" transform="translate(-59.17 -21.62)"/><path class="cls-92" d="M168.09,150.8c-.05.48-.07,1-.08,1.43a3.18,3.18,0,0,1-1.44,1.37c-1.84.66-4.1-.09-5.62,1.66-1.53.77-1.88,2.22-2.14,3.73-2-2.85-1.55-5.75.87-7.76S165.16,148.39,168.09,150.8Z" transform="translate(-59.17 -21.62)"/><path class="cls-93" d="M193.68,149.42c.65-2,2.58-2.27,4.16-3l1.67.08c0,3-2.67,2.58-4.37,3.41A1,1,0,0,1,193.68,149.42Z" transform="translate(-59.17 -21.62)"/><path class="cls-94" d="M160.69,194.75l1.51,2.38a3.85,3.85,0,0,1-2.52,1.93,22.13,22.13,0,0,1-6.3,1.17c-2.51,1.27-6.19-6.11-7.89,1.09a4,4,0,0,1-1.74,2.38,1.75,1.75,0,0,1-1.76-.5c-.47-1.6-1.71-2.73-2.52-4.13q-3.76-3.7-7.55-7.39c2.22-.67,4.62-1,6.05-3.16,3.51,1.6,6.6,4.2,10.69,4.41l-.15-.09c3.57.19,7,1.57,10.57,1.59Z" transform="translate(-59.17 -21.62)"/><path class="cls-95" d="M159.08,194.43c-4,2.58-7.23.16-10.57-1.59C152.52,190.09,155.73,192.77,159.08,194.43Z" transform="translate(-59.17 -21.62)"/><path class="cls-96" d="M113.24,124c1.66,3.58.86,8.43,5.44,10.47-.27,3.43-2.24,4.83-5.5,4.34-8.85-1.32-15.58-13.37-12.55-22.37a4,4,0,0,1,3.07-1.57l1.77.61c.2.41.33.86.53,1.26.54,1.07-.71,3.84,2.38,2.52C110.3,120.57,111.3,122.78,113.24,124Z" transform="translate(-59.17 -21.62)"/><path class="cls-97" d="M103.7,114.9c-.61,1.32-1.77,1.58-3.07,1.57l-1.44-2.92C100.81,113.62,102.51,113.41,103.7,114.9Z" transform="translate(-59.17 -21.62)"/><path class="cls-98" d="M193.66,190c2.46-.17,3.7,1.93,5.51,3,1,2.45,3.67,4.84.32,7.48a15,15,0,0,1-4.4-2.36c-.93-2.11-.11-4.56-1.32-6.61C193.73,191,193.7,190.48,193.66,190Z" transform="translate(-59.17 -21.62)"/><path class="cls-99" d="M195.06,197.47c2.16,0,4.29,0,4.43,3L198,205l-3,1.44c0-.94,0-1.88.05-2.82C191.61,201.52,194.79,199.51,195.06,197.47Z" transform="translate(-59.17 -21.62)"/><path class="cls-100" d="M182.9,208.06q-3-5.24-6-10.47l4.55,0c2.42-.27,3.83,1.63,5.67,2.64a5.46,5.46,0,0,1,1.93,1.89l.28.26-.19.34-1.92,3.77-.48.53s-.74-.1-.73-.09l-.68-.13s-.12.68-.12.7-.37.64-.38.65c-.22.15-.43.28-.65.41A1.26,1.26,0,0,1,182.9,208.06Z" transform="translate(-59.17 -21.62)"/><path class="cls-101" d="M195.06,197.47c1.63,2-1.91,4.06,0,6.1-1.24-.14-2.43-.39-3.06-1.65l1.8-10.46C195.58,193.17,196.29,195.11,195.06,197.47Z" transform="translate(-59.17 -21.62)"/><path class="cls-102" d="M186,217c-3.74-2,2-3.94,0-5.94C188.18,213,187.93,215,186,217Z" transform="translate(-59.17 -21.62)"/><path class="cls-103" d="M185.77,210.67a3.42,3.42,0,0,1-1.27-.13,1.51,1.51,0,0,1-.68-1.27,1.88,1.88,0,0,1,.72-1.29h0l.7-.68.91.37a1.61,1.61,0,0,1,.47,1.15c0,.43-.06.64-.14.64A1.29,1.29,0,0,0,185.77,210.67Z" transform="translate(-59.17 -21.62)"/><path class="cls-104" d="M186.12,206.77a2.63,2.63,0,0,1,1.14-.25l.21,1.51-.52.32-.61-.09-.29-.26c-.45-.29-.59-.58-.42-.84S186,206.77,186.12,206.77Z" transform="translate(-59.17 -21.62)"/><path class="cls-21" d="M186.34,208.26a2.09,2.09,0,0,0,1.13-.23l-1,1.42C186.43,209.05,186.38,208.66,186.34,208.26Z" transform="translate(-59.17 -21.62)"/><path class="cls-105" d="M113.24,124c-2.52-.5-3.92-2.36-5.24-4.31a1.33,1.33,0,0,1,.11-1.85A11.57,11.57,0,0,1,113.24,124Z" transform="translate(-59.17 -21.62)"/><path class="cls-106" d="M108.11,117.87c0,.61-.07,1.23-.11,1.85-5.43,1.36-2.36-2.4-2.54-4.21Z" transform="translate(-59.17 -21.62)"/><path class="cls-107" d="M189.09,202.15l-3-.24c-1.15-2-1.56-3.95,0-5.94l1.57-1.62,2.8,1.66A9.21,9.21,0,0,1,189.09,202.15Z" transform="translate(-59.17 -21.62)"/><path class="cls-108" d="M186,196l0,5.94-4.57-4.29c0-.55,0-1.1,0-1.65Z" transform="translate(-59.17 -21.62)"/><path class="cls-109" d="M114.16,227.15A3.49,3.49,0,0,1,111,229c-1.35,1.28-2.71,2.52-4.79,2.15a2.58,2.58,0,0,1-1.83-3.33,15.15,15.15,0,0,1,4.63-5.24c.6-.22,1.33-.1,1.89-.53-.6-.49-1.56-.17-2.06-.93a7.72,7.72,0,0,1-1.16-2.92c-.17-1.86-1-3.88,1.15-5.23,2.06-.74,4-.78,5.56,1.07C114.71,218.45,117.28,222.85,114.16,227.15Z" transform="translate(-59.17 -21.62)"/><path class="cls-110" d="M147,228.91a2.75,2.75,0,0,1,3-.64,3.63,3.63,0,0,1,2,3.44c-1.4,1.72.79,4-.83,5.69" transform="translate(-59.17 -21.62)"/><path class="cls-111" d="M150,228.94l-3.05,0-1.52-2.8c-1.1-1.8-.51-3.12,1.15-4.13,2.16-.89.91-2,.17-3.13a3.23,3.23,0,0,1-.24-1.91,3.62,3.62,0,0,1,2.14-2,4,4,0,0,1,1.89.37c1.63,1.27,3.1,3,5.56,2.28a4,4,0,0,1,3.19,2,3,3,0,0,1-.62,2.77c-1.67,2-3.07,4.18-5.06,5.89C152.53,229,151.42,229.72,150,228.94Z" transform="translate(-59.17 -21.62)"/><path class="cls-112" d="M154.42,235.7a5.81,5.81,0,0,1,2.91-.46,5.92,5.92,0,0,1,2.69,1.14" transform="translate(-59.17 -21.62)"/><path class="cls-113" d="M147,216.94c0,.51,0,1,0,1.52a1.23,1.23,0,0,1-.06,1.76c-1.64.5-2.45-.88-3.57-1.58-3.4-1.61-4.15-4.37-3.38-7.8.43-2,2.1-1.92,3.59-2.11s2.18-1.89,3.41-2.67a2.49,2.49,0,0,1,1.81.23c1.53,1.89,1.23,4.27,1.78,6.43a5.5,5.5,0,0,1,0,1.94l-.56.8h-1.57c-1,0,.35.22-.63.29-.77.05-1.44-.66-2.21-.19A2.23,2.23,0,0,1,147,216.94Z" transform="translate(-59.17 -21.62)"/><path class="cls-114" d="M129.08,232c-1-1.72.67-2.18,1.47-3" transform="translate(-59.17 -21.62)"/><path class="cls-115" d="M114.41,214.08,108,214c-.51,1.11-1.32,1.85-2.59,1.55-.78-.19-.71-.94-.45-1.59l.06-3c-.76-1.26,0-1.68,1.06-2,3.86.88,7.64-1.53,11.51-.27l.74.65A9.25,9.25,0,0,1,114.41,214.08Z" transform="translate(-59.17 -21.62)"/><path class="cls-116" d="M144,211c-1.32-.68-2.64-1.3-4-.1-.38-2.7-1.39-5.49,1.14-7.75a.83.83,0,0,1,1.36.4l-.11.05c1.33.75,3.62.31,3.56,2.82C145.51,208,145.47,209.75,144,211Z" transform="translate(-59.17 -21.62)"/><path class="cls-117" d="M106.61,209.49,105.06,211h-1.5l1.62-7.86,4.37.48a3.9,3.9,0,0,1,.74,4.16C109.3,208.81,108.42,210.11,106.61,209.49Z" transform="translate(-59.17 -21.62)"/><path class="cls-118" d="M109.55,207.9v-4.33c3,1,6.11,1.93,9.06,3.15,2,.83.66,1.81-.24,2.63l-.3-.17C115.36,207.9,112.22,209.46,109.55,207.9Z" transform="translate(-59.17 -21.62)"/><path class="cls-119" d="M143.42,218.64l3.61,1.3c1.38.56,2.28,1.36,1.49,3-2.07.05-3,1.24-3.07,3.17C144.06,223.82,143,221.43,143.42,218.64Z" transform="translate(-59.17 -21.62)"/><path class="cls-120" d="M130.55,228.91l-1.47,3c-.17.93-.09,2.22-1.36,2.21-.94,0-.59-1-.49-1.66.18-1.23.25-2.47.37-3.71Z" transform="translate(-59.17 -21.62)"/><path class="cls-121" d="M130.68,194.15l2.77,3.29c-1.42.19-3,.76-3.87-.93C129.07,195.51,129.76,194.69,130.68,194.15Z" transform="translate(-59.17 -21.62)"/><path class="cls-122" d="M142.54,203.5a4.57,4.57,0,0,1-1.35-.4l-3-2.74c.43-.43.85-.86,1.27-1.3C141.6,199.78,143.05,201,142.54,203.5Z" transform="translate(-59.17 -21.62)"/><path class="cls-123" d="M109.49,223c-1.09,1.9-1.51,4.44-4.43,4.54a.94.94,0,0,1-1.5-.14l-.09-1.64c-.17-1.94-1.25-3.92.22-5.79,1.88-.72,3.54-2.31,5.81-1.43v2.91A2.91,2.91,0,0,0,109.49,223Z" transform="translate(-59.17 -21.62)"/><path class="cls-124" d="M109.5,218.51c-1.88.69-3.27,3.39-5.81,1.43a3.07,3.07,0,0,1-.24-1.3c.23-1.66-.19-3.54,1.55-4.7,1,1.63,2,.2,3,0C108.53,215.49,109,217,109.5,218.51Z" transform="translate(-59.17 -21.62)"/><path class="cls-125" d="M94.3,230.65c1.16-1.87,3-1.73,4.83-1.62,2.25,1.39,4,3.05,3.18,6.07a4.27,4.27,0,0,1-1.9,1c-2.13.24-3.3-1.11-4.37-2.61C94.76,233,94.49,231.82,94.3,230.65Z" transform="translate(-59.17 -21.62)"/><path class="cls-126" d="M96,233.44l4.55,1.48" transform="translate(-59.17 -21.62)"/><path class="cls-127" d="M100.59,234.92c.48,0,1,0,1.46,0,.54-.76.78-1.75,1.65-2.28a6,6,0,0,1,1.78-.64c2.11-.34,4.26-.83,5.64,1.53l4.39,2.86" transform="translate(-59.17 -21.62)"/><path class="cls-128" d="M111.12,233.53l-5.86-.16c-1.07-1.83.32-2.25,1.57-2.74L111,229C111.05,230.54,111.09,232,111.12,233.53Z" transform="translate(-59.17 -21.62)"/><path class="cls-125" d="M106.83,230.63l-1.57,2.74-1.7,0c-1.28-1.27-2.41-2.58-1.53-4.57l1.53-1.47,1.5.13A3.19,3.19,0,0,0,106.83,230.63Z" transform="translate(-59.17 -21.62)"/><path class="cls-129" d="M102,228.85l1.53,4.57-1.51,1.5c-1-2-2-3.93-2.92-5.89Z" transform="translate(-59.17 -21.62)"/><path class="cls-130" d="M156.42,106.08l5.46-.28c.14,3,0,6.48-4.09,5.85C154.67,111.18,154.89,108.45,156.42,106.08Z" transform="translate(-59.17 -21.62)"/><path class="cls-131" d="M199.33,98.66c1.46-.85,2.95-1.21,4.5-.23,0,2.32,1.4,5.68-2.42,5.83C196.32,104.45,201.92,99.87,199.33,98.66Z" transform="translate(-59.17 -21.62)"/><path class="cls-132" d="M157.59,236.21l-3,.15c-1.1-2.08-.11-4,.47-5.94a11.37,11.37,0,0,1,3.62-5,5.68,5.68,0,0,1,2-.51c2.78.42,5.55.88,7.1,3.68.32,1.71-.11,3.64,1.55,4.93.93,1.5-.07,2.18-1.19,2.81" transform="translate(-59.17 -21.62)"/><path class="cls-133" d="M171,227.43h3" transform="translate(-59.17 -21.62)"/><path class="cls-134" d="M167.77,228.59l-7.16-2.75c-1.53-1.26-1.62-2.83-1-4.55a3.19,3.19,0,0,1,.9-1.73,4.61,4.61,0,0,1,1.95-.33c2,.74,4.73-1.27,6.23,1.55-.13,1.69.53,3.44-.49,5Z" transform="translate(-59.17 -21.62)"/><path class="cls-135" d="M167.74,219.92c-1.91,1-3.81,2.67-5.73,0a3,3,0,0,1-.48-3.33c1.35-1.84,3-2.58,5.19-1.43,1.32.77,2.53,1.63,2.79,3.29C168.92,219,168.8,220,167.74,219.92Z" transform="translate(-59.17 -21.62)"/><path class="cls-136" d="M166.72,215.18,162,216.94c-2.51-3.14-.56-6.13.31-9.16a2.78,2.78,0,0,1,3-1.6c2.63,2.14,3.31,4.66,1.44,7.65A3.61,3.61,0,0,0,166.72,215.18Z" transform="translate(-59.17 -21.62)"/><path class="cls-137" d="M164.68,206.63,163.51,208a1.59,1.59,0,0,1-1.76.43,3.67,3.67,0,0,1-1.8-2.32,5.55,5.55,0,0,1,1.91-4.51,1.44,1.44,0,0,1,1.75.41l2.74-.12c.07,1,.15,2,.22,3C166.93,206.55,166.22,207,164.68,206.63Z" transform="translate(-59.17 -21.62)"/><path class="cls-138" d="M164.68,206.63l1.89-1.74c1.77,2.94,5.9,5.83.2,8.94C166.57,211.29,167,208.56,164.68,206.63Z" transform="translate(-59.17 -21.62)"/><path class="cls-139" d="M168.13,236.33c.4-.93.79-1.87,1.19-2.81.53-2-.56-4.54,1.72-6.09" transform="translate(-59.17 -21.62)"/><path class="cls-140" d="M167.74,219.92l1.77-1.45c-1.31,2.3,2.74,5.53-1.29,7.35Z" transform="translate(-59.17 -21.62)"/><path d="M184.59,209.86l-.09.68c-1.13.52-1.38-.19-1.5-1.08l0,0C183.71,208.94,184.22,209.09,184.59,209.86Z" transform="translate(-59.17 -21.62)"/><path class="cls-141" d="M163.61,202a8.48,8.48,0,0,0-1.11.25c-3.3,1-4.05,4.84-7,6.16a2.25,2.25,0,0,1-1.74-.82c-1.14-2.11-2.13-4.26-1.31-6.75,2.25-1,4.83-1.44,6.62-3.38l3.17-.3C167.11,197.45,162.26,200.61,163.61,202Z" transform="translate(-59.17 -21.62)"/><path class="cls-142" d="M184.59,209.86,183,209.5a7.79,7.79,0,0,0-.13-1.44l1.64-.08C184.56,208.61,184.57,209.23,184.59,209.86Z" transform="translate(-59.17 -21.62)"/><path class="cls-143" d="M193.68,149.42l1.46.48c-3.52,11.1-17.23,13.72-28.62,5.48,3-2.54,6.9-.62,10.12-2.06,2.16-.13,4.38.17,6.47-.66a15.35,15.35,0,0,0,8.33-2.86Z" transform="translate(-59.17 -21.62)"/><path class="cls-144" d="M177,154.09c-3.32,1.83-7.05.29-10.47,1.29l-2.78-.83c.14-1.74,1.92-1,2.7-1.8l1.57-.52,9,.49c.46.32.6.63.43.93S177.15,154.09,177,154.09Z" transform="translate(-59.17 -21.62)"/><path class="cls-145" d="M166.44,152.75l-2.7,1.8-2.79.71C160.58,149.6,164.57,153.5,166.44,152.75Z" transform="translate(-59.17 -21.62)"/><path class="cls-146" d="M191.44,149.8c-.86,4-4.31,3.35-7.09,3.87-.86-.71-2.28-.09-2.95-1.24C184.58,150.91,187.83,149.68,191.44,149.8Z" transform="translate(-59.17 -21.62)"/><path class="cls-147" d="M181.4,152.43l2.95,1.24-7.36.42a12.46,12.46,0,0,0,0-1.37Z" transform="translate(-59.17 -21.62)"/><path class="cls-148" d="M153.06,200.46c.08,2.58,2,4.83,1.29,7.55a2.64,2.64,0,0,1-2.56.68,4.12,4.12,0,0,1-2.12-1.69,4.36,4.36,0,0,0-2-1.79c-1.7-.76-3.21-1.71-3.57-3.74l1-7,7.91,4.64c.51.3.68.59.52.9S153.22,200.46,153.06,200.46Z" transform="translate(-59.17 -21.62)"/><path class="cls-149" d="M144.14,201.47l4.53,3.53c.36.36.45.69.29,1s-.31.42-.46.42l-1.51.44a1,1,0,0,1-1.32-.5l-3.24-2.8Z" transform="translate(-59.17 -21.62)"/><path class="cls-150" d="M153.06,200.46c0-.45,0-.9,0-1.35l6-1.68C157.66,199.66,156.51,202.33,153.06,200.46Z" transform="translate(-59.17 -21.62)"/><path class="cls-151" d="M186.12,206.77a4.63,4.63,0,0,0-.07,1.23l-1.53,0c0-.48,0-1,0-1.46a1.6,1.6,0,0,1,1.45-.38Z" transform="translate(-59.17 -21.62)"/><path class="cls-152" d="M186,206.13l-1.45.38C184.81,205.75,185.07,204.75,186,206.13Z" transform="translate(-59.17 -21.62)"/><path class="cls-153" d="M109.49,223c-1-.52-1-1,0-1.55,1.39-.39,1.76-2.95,3.37-2.18s.64,2.93.2,3.93C112.13,225.27,110.73,223,109.49,223Z" transform="translate(-59.17 -21.62)"/><path class="cls-154" d="M151.47,236.4c-.16-2-3.93-.53-3.14-3.07.23-.74,2.06-1,3.16-1.45s1.79-1.58,3-1.93a2,2,0,0,1,1.65.52c-.52,2-1,3.93-1.55,5.89" transform="translate(-59.17 -21.62)"/><path class="cls-155" d="M154.53,230.41c-.73,1.08-.93,3.26-3,1.47L150,228.94l3-1.49C154.35,228,155.32,228.77,154.53,230.41Z" transform="translate(-59.17 -21.62)"/><path class="cls-156" d="M154.53,230.41l-1.5-3c1.52-2,3.05-4,4.57-5.95,1.71,1.11,2.82,2.42,1.56,4.54l-3,4.43Z" transform="translate(-59.17 -21.62)"/><path class="cls-157" d="M159.21,220.05,156,218.46c.66-2.31-2.47-2.9-2.26-5a3,3,0,0,1,1.09-1.73,5.43,5.43,0,0,1,4.23-.39c3.59,2.33,1.86,5.52,1.37,8.51l.06.14C160.13,220.67,159.69,220.7,159.21,220.05Z" transform="translate(-59.17 -21.62)"/><path class="cls-158" d="M154.5,213.94c.9,1.37,3.23,2.26,1.54,4.52-4.75,4.5-4.37-1.24-6-3h0C151.12,213.76,152.28,212.28,154.5,213.94Z" transform="translate(-59.17 -21.62)"/><path class="cls-159" d="M148.52,222.94c-.5-1-1-2-1.49-3,0-.49,0-1,0-1.48a3.23,3.23,0,0,1,3.44,3C150.66,222.77,149.46,222.83,148.52,222.94Z" transform="translate(-59.17 -21.62)"/><path class="cls-160" d="M159.21,220.05a5.86,5.86,0,0,1,1.32-.08c0,2,.05,3.91.08,5.87l-1.45.2-1.56-4.54Z" transform="translate(-59.17 -21.62)"/><path class="cls-161" d="M147,216.94l-3.73-2.18c2.37-1.49,3.65.22,5.18.7C148,216,147.52,216.45,147,216.94Z" transform="translate(-59.17 -21.62)"/><path class="cls-162" d="M157.59,236.21l3.79-3.19" transform="translate(-59.17 -21.62)"/><path class="cls-163" d="M148.5,206.41c0-.47.1-.94.17-1.41l1.47,1.65a10.64,10.64,0,0,1,1.21,1.21l3,.15h.11a1.55,1.55,0,0,1,.52,1.69,6,6,0,0,1-1.83,2.17,35.87,35.87,0,0,0-3.14,2C147.46,211.82,149,208.92,148.5,206.41Z" transform="translate(-59.17 -21.62)"/><path class="cls-111" d="M150,213.9a2.85,2.85,0,0,1,3.15-3c1.38-.49,1.63.21,1.44,1.37,0,.55-.07,1.1-.1,1.65L150,215.46Z" transform="translate(-59.17 -21.62)"/><path class="cls-164" d="M145.67,206.35a3.38,3.38,0,0,1,1.32.5c.12,2.16-.13,4.05-3,4.1C144.08,209.24,143.8,207.41,145.67,206.35Z" transform="translate(-59.17 -21.62)"/><path class="cls-165" d="M109.55,207.9c3.19-1.87,5.91-.61,8.53,1.29-3.83.18-7.56,3.48-11.47.3Z" transform="translate(-59.17 -21.62)"/><path class="cls-166" d="M160.47,219.83c-1.2-2.35.79-5.4-1.65-7.48-.45-2.59,1-3.76,3.25-4.31a7.73,7.73,0,0,0,1.44-.08l-1.5,9v3Z" transform="translate(-59.17 -21.62)"/><path class="cls-167" d="M154.43,209.06a2.11,2.11,0,0,1,0-1.06c3.06-1.4,3-7.11,8-5.78-.55,1.45-1.09,2.9-1.63,4.35C159.74,210,158.06,212.07,154.43,209.06Z" transform="translate(-59.17 -21.62)"/><path class="cls-168" d="M154.43,209.06a6.05,6.05,0,0,0,6.44-2.49l1.2,1.47-3.25,4.31-4.22-.06-1.44-1.37Z" transform="translate(-59.17 -21.62)"/><path d="M151.35,207.86c-.89.09-1.27-.33-1.21-1.21C151.09,206.51,151.47,206.94,151.35,207.86Z" transform="translate(-59.17 -21.62)"/></g></g></g></svg>